<svg width="299" height="62" viewBox="0 0 299 62" fill="none" xmlns="http://www.w3.org/2000/svg">
<rect x="1" y="1" width="297" height="60" rx="14" fill="url(#paint0_radial_2259_75)"/>
<rect x="1" y="1" width="297" height="60" rx="14" stroke="url(#paint1_linear_2259_75)" stroke-width="2"/>
<path d="M50.512 37.16C49.328 37.16 48.2987 36.9093 47.424 36.408C46.5493 35.896 45.872 35.192 45.392 34.296C44.9227 33.3893 44.688 32.3547 44.688 31.192C44.688 30.04 44.928 29.0213 45.408 28.136C45.888 27.2507 46.5493 26.5627 47.392 26.072C48.2453 25.5707 49.216 25.32 50.304 25.32C51.4133 25.32 52.3893 25.5707 53.232 26.072C54.0747 26.5627 54.736 27.2507 55.216 28.136C55.7067 29.0213 55.952 30.0453 55.952 31.208C55.952 32.0293 55.8133 32.792 55.536 33.496C55.2693 34.2 54.8587 34.7973 54.304 35.288C53.76 35.7787 53.072 36.12 52.24 36.312L50.512 37.16ZM50.304 35.8C51.0933 35.8 51.776 35.6027 52.352 35.208C52.9387 34.8133 53.3973 34.2693 53.728 33.576C54.0587 32.8827 54.224 32.0827 54.224 31.176C54.224 30.3013 54.0587 29.5333 53.728 28.872C53.3973 28.2 52.9387 27.6827 52.352 27.32C51.7653 26.9467 51.0827 26.76 50.304 26.76C49.5253 26.76 48.8427 26.9467 48.256 27.32C47.68 27.6827 47.2267 28.1947 46.896 28.856C46.576 29.5173 46.416 30.2907 46.416 31.176C46.416 32.0933 46.5813 32.8987 46.912 33.592C47.2427 34.2747 47.696 34.8133 48.272 35.208C48.8587 35.6027 49.536 35.8 50.304 35.8ZM50.512 37.16L50.32 36.008L56.432 35.608V37C55.7707 37 55.2 37.0053 54.72 37.016C54.2507 37.0373 53.808 37.0587 53.392 37.08C52.9867 37.1013 52.56 37.1173 52.112 37.128C51.664 37.1493 51.1307 37.16 50.512 37.16ZM62.3511 37.16C60.8791 37.16 59.7485 36.728 58.9591 35.864C58.1698 35 57.7751 33.768 57.7751 32.168V25.48H59.4711V32.36C59.4711 33.4587 59.7218 34.296 60.2231 34.872C60.7245 35.4373 61.4338 35.72 62.3511 35.72C63.2898 35.72 64.0098 35.4373 64.5111 34.872C65.0125 34.3067 65.2631 33.4693 65.2631 32.36V25.48H66.9591V32.2C66.9591 33.7787 66.5591 35 65.7591 35.864C64.9698 36.728 63.8338 37.16 62.3511 37.16ZM69.2153 37V25.48H70.9113V37H69.2153ZM70.0473 37V35.608H77.2153V37H70.0473ZM70.0473 31.736V30.344H76.6393V31.736H70.0473ZM70.0473 26.872V25.48H77.0712V26.872H70.0473ZM78.9649 37V25.48H83.5089C84.3409 25.48 85.0502 25.6187 85.6369 25.896C86.2235 26.1627 86.6769 26.5413 86.9969 27.032C87.3169 27.512 87.4769 28.0827 87.4769 28.744C87.4769 29.4053 87.3169 29.9813 86.9969 30.472C86.6769 30.9627 86.2235 31.3467 85.6369 31.624C85.0502 31.9013 84.3409 32.04 83.5089 32.04H80.2449V30.664H83.4609C84.2289 30.664 84.8102 30.4987 85.2049 30.168C85.6102 29.8267 85.8129 29.3573 85.8129 28.76C85.8129 28.1627 85.6155 27.6987 85.2209 27.368C84.8262 27.0373 84.2395 26.872 83.4609 26.872H80.6609V37H78.9649ZM85.6209 37L80.0049 31.192H82.0689L88.0529 37H85.6209ZM94.5231 37.16C93.7018 37.16 92.9498 37.016 92.2671 36.728C91.5845 36.4293 90.9925 36.0133 90.4911 35.48C89.9898 34.9467 89.5951 34.3173 89.3071 33.592C89.0298 32.8667 88.8911 32.0667 88.8911 31.192C88.8911 30.04 89.1311 29.0213 89.6111 28.136C90.0911 27.2507 90.7525 26.5627 91.5951 26.072C92.4485 25.5707 93.4191 25.32 94.5071 25.32C95.6165 25.32 96.5925 25.5707 97.4351 26.072C98.2778 26.5627 98.9391 27.2507 99.4191 28.136C99.9098 29.0213 100.155 30.0453 100.155 31.208C100.155 32.072 100.011 32.872 99.7231 33.608C99.4458 34.3333 99.0565 34.9627 98.5551 35.496C98.0538 36.0187 97.4565 36.4293 96.7631 36.728C96.0805 37.016 95.3338 37.16 94.5231 37.16ZM94.5071 35.72C95.2751 35.72 95.9525 35.528 96.5391 35.144C97.1258 34.7493 97.5845 34.2107 97.9151 33.528C98.2565 32.8453 98.4271 32.0613 98.4271 31.176C98.4271 30.3013 98.2618 29.5333 97.9311 28.872C97.6005 28.2 97.1418 27.6827 96.5551 27.32C95.9685 26.9467 95.2858 26.76 94.5071 26.76C93.7285 26.76 93.0458 26.9467 92.4591 27.32C91.8831 27.6827 91.4298 28.1947 91.0991 28.856C90.7791 29.5173 90.6191 30.2907 90.6191 31.176C90.6191 32.072 90.7845 32.8613 91.1151 33.544C91.4458 34.2267 91.8991 34.76 92.4751 35.144C93.0618 35.528 93.7391 35.72 94.5071 35.72ZM105.184 37V25.48H107.808L111.648 36.584H110.784L114.592 25.48H117.248V37H115.568V26.168H115.824L112.112 37H110.224L106.512 26.264H106.768V37H105.184ZM119.622 37V25.48H121.318V37H119.622ZM120.454 37V35.608H127.622V37H120.454ZM120.454 31.736V30.344H127.046V31.736H120.454ZM120.454 26.872V25.48H127.477V26.872H120.454ZM133.804 37.16C132.332 37.16 131.202 36.728 130.412 35.864C129.623 35 129.228 33.768 129.228 32.168V25.48H130.924V32.36C130.924 33.4587 131.175 34.296 131.676 34.872C132.178 35.4373 132.887 35.72 133.804 35.72C134.743 35.72 135.463 35.4373 135.964 34.872C136.466 34.3067 136.716 33.4693 136.716 32.36V25.48H138.412V32.2C138.412 33.7787 138.012 35 137.212 35.864C136.423 36.728 135.287 37.16 133.804 37.16ZM144.849 37V35.592H147.873C148.79 35.592 149.574 35.4053 150.225 35.032C150.886 34.6587 151.393 34.1413 151.745 33.48C152.097 32.8187 152.273 32.0507 152.273 31.176C152.273 30.312 152.097 29.56 151.745 28.92C151.403 28.28 150.902 27.784 150.241 27.432C149.59 27.0693 148.801 26.888 147.873 26.888H144.865V25.48H147.873C149.11 25.48 150.187 25.7147 151.105 26.184C152.022 26.6533 152.731 27.32 153.233 28.184C153.745 29.0373 154.001 30.0453 154.001 31.208C154.001 32.3707 153.745 33.3893 153.233 34.264C152.721 35.128 152.006 35.8 151.089 36.28C150.182 36.76 149.115 37 147.889 37H144.849ZM143.825 37V25.48H145.521V37H143.825ZM155.872 37V25.48H157.568V37H155.872ZM159.262 37L163.598 25.48H165.07L160.926 37H159.262ZM168.174 37L164.03 25.48H165.582L169.934 37H168.174ZM161.454 32.408H167.63V33.816H161.454V32.408ZM176.325 37.16C175.12 37.16 174.08 36.92 173.205 36.44C172.331 35.9493 171.653 35.2667 171.173 34.392C170.704 33.5173 170.469 32.488 170.469 31.304C170.469 30.1307 170.704 29.096 171.173 28.2C171.653 27.2933 172.315 26.5893 173.157 26.088C174 25.576 174.971 25.32 176.069 25.32C176.944 25.32 177.733 25.4853 178.437 25.816C179.152 26.136 179.733 26.584 180.181 27.16C180.64 27.736 180.912 28.4027 180.997 29.16H179.301C179.195 28.424 178.853 27.8427 178.277 27.416C177.701 26.9787 176.981 26.76 176.117 26.76C175.328 26.76 174.64 26.9467 174.053 27.32C173.467 27.6933 173.008 28.216 172.677 28.888C172.357 29.56 172.197 30.3547 172.197 31.272C172.197 32.2 172.363 33 172.693 33.672C173.024 34.3333 173.504 34.8453 174.133 35.208C174.773 35.56 175.541 35.736 176.437 35.736C177.077 35.736 177.643 35.6453 178.133 35.464C178.624 35.2827 179.051 35.016 179.413 34.664L181.061 35.288C180.464 35.9067 179.776 36.376 178.997 36.696C178.219 37.0053 177.328 37.16 176.325 37.16ZM179.365 35.288V31.752L179.861 32.248H176.421V30.84H181.061V35.288H179.365ZM183.184 37V25.48H185.152L191.264 35.336L190.88 35.416V25.48H192.512V37H190.544L184.432 27.144L184.816 27.064V37H183.184ZM200.023 37.16C199.202 37.16 198.45 37.016 197.767 36.728C197.084 36.4293 196.492 36.0133 195.991 35.48C195.49 34.9467 195.095 34.3173 194.807 33.592C194.53 32.8667 194.391 32.0667 194.391 31.192C194.391 30.04 194.631 29.0213 195.111 28.136C195.591 27.2507 196.252 26.5627 197.095 26.072C197.948 25.5707 198.919 25.32 200.007 25.32C201.116 25.32 202.092 25.5707 202.935 26.072C203.778 26.5627 204.439 27.2507 204.919 28.136C205.41 29.0213 205.655 30.0453 205.655 31.208C205.655 32.072 205.511 32.872 205.223 33.608C204.946 34.3333 204.556 34.9627 204.055 35.496C203.554 36.0187 202.956 36.4293 202.263 36.728C201.58 37.016 200.834 37.16 200.023 37.16ZM200.007 35.72C200.775 35.72 201.452 35.528 202.039 35.144C202.626 34.7493 203.084 34.2107 203.415 33.528C203.756 32.8453 203.927 32.0613 203.927 31.176C203.927 30.3013 203.762 29.5333 203.431 28.872C203.1 28.2 202.642 27.6827 202.055 27.32C201.468 26.9467 200.786 26.76 200.007 26.76C199.228 26.76 198.546 26.9467 197.959 27.32C197.383 27.6827 196.93 28.1947 196.599 28.856C196.279 29.5173 196.119 30.2907 196.119 31.176C196.119 32.072 196.284 32.8613 196.615 33.544C196.946 34.2267 197.399 34.76 197.975 35.144C198.562 35.528 199.239 35.72 200.007 35.72ZM200.183 24.312H198.663L200.391 21.8H202.759L200.183 24.312ZM211.657 37.144C210.27 37.144 209.161 36.8133 208.329 36.152C207.497 35.4907 207.012 34.5467 206.873 33.32H208.521C208.617 34.12 208.937 34.728 209.481 35.144C210.025 35.56 210.761 35.768 211.689 35.768C212.468 35.768 213.054 35.624 213.449 35.336C213.854 35.048 214.057 34.6373 214.057 34.104C214.057 33.624 213.924 33.2453 213.657 32.968C213.39 32.68 212.969 32.4453 212.393 32.264L210.393 31.624C209.369 31.2933 208.617 30.8773 208.137 30.376C207.657 29.8747 207.417 29.24 207.417 28.472C207.417 27.8213 207.577 27.2613 207.897 26.792C208.228 26.3227 208.686 25.96 209.273 25.704C209.87 25.4373 210.564 25.304 211.353 25.304C212.569 25.304 213.54 25.6133 214.265 26.232C215.001 26.84 215.422 27.688 215.529 28.776H213.881C213.753 28.0507 213.476 27.5227 213.049 27.192C212.622 26.8507 212.036 26.68 211.289 26.68C210.585 26.68 210.036 26.8187 209.641 27.096C209.246 27.3733 209.049 27.7627 209.049 28.264C209.049 28.6693 209.177 29.0107 209.433 29.288C209.7 29.5547 210.137 29.784 210.745 29.976L212.841 30.648C213.812 30.9573 214.526 31.3787 214.985 31.912C215.454 32.4453 215.689 33.1173 215.689 33.928C215.689 34.952 215.337 35.7467 214.633 36.312C213.929 36.8667 212.937 37.144 211.657 37.144ZM220.306 37V26.872H216.418V25.48H225.89V26.872H222.002V37H220.306ZM227.59 37V25.48H229.286V37H227.59ZM236.725 37.16C235.925 37.16 235.183 37.016 234.501 36.728C233.818 36.4293 233.226 36.0187 232.725 35.496C232.234 34.9627 231.85 34.3333 231.573 33.608C231.295 32.8827 231.157 32.088 231.157 31.224C231.157 30.36 231.29 29.5707 231.557 28.856C231.834 28.1307 232.218 27.5067 232.709 26.984C233.21 26.4507 233.802 26.04 234.485 25.752C235.167 25.464 235.909 25.32 236.709 25.32C237.605 25.32 238.41 25.5013 239.125 25.864C239.839 26.216 240.421 26.7173 240.869 27.368C241.327 28.0187 241.61 28.776 241.717 29.64H240.053C239.914 28.7333 239.546 28.0293 238.949 27.528C238.362 27.016 237.621 26.76 236.725 26.76C235.967 26.76 235.295 26.9467 234.709 27.32C234.133 27.6827 233.685 28.2 233.365 28.872C233.045 29.5333 232.885 30.3173 232.885 31.224C232.885 32.12 233.045 32.9093 233.365 33.592C233.695 34.264 234.149 34.7867 234.725 35.16C235.301 35.5333 235.967 35.72 236.725 35.72C237.621 35.72 238.367 35.4693 238.965 34.968C239.573 34.456 239.941 33.7467 240.069 32.84H241.749C241.631 33.7147 241.343 34.4773 240.885 35.128C240.426 35.768 239.839 36.2693 239.125 36.632C238.421 36.984 237.621 37.16 236.725 37.16ZM248.633 37.16C247.811 37.16 247.059 37.016 246.377 36.728C245.694 36.4293 245.102 36.0133 244.601 35.48C244.099 34.9467 243.705 34.3173 243.417 33.592C243.139 32.8667 243.001 32.0667 243.001 31.192C243.001 30.04 243.241 29.0213 243.721 28.136C244.201 27.2507 244.862 26.5627 245.705 26.072C246.558 25.5707 247.529 25.32 248.617 25.32C249.726 25.32 250.702 25.5707 251.545 26.072C252.387 26.5627 253.049 27.2507 253.529 28.136C254.019 29.0213 254.265 30.0453 254.265 31.208C254.265 32.072 254.121 32.872 253.833 33.608C253.555 34.3333 253.166 34.9627 252.665 35.496C252.163 36.0187 251.566 36.4293 250.873 36.728C250.19 37.016 249.443 37.16 248.633 37.16ZM248.617 35.72C249.385 35.72 250.062 35.528 250.649 35.144C251.235 34.7493 251.694 34.2107 252.025 33.528C252.366 32.8453 252.537 32.0613 252.537 31.176C252.537 30.3013 252.371 29.5333 252.041 28.872C251.71 28.2 251.251 27.6827 250.665 27.32C250.078 26.9467 249.395 26.76 248.617 26.76C247.838 26.76 247.155 26.9467 246.569 27.32C245.993 27.6827 245.539 28.1947 245.209 28.856C244.889 29.5173 244.729 30.2907 244.729 31.176C244.729 32.072 244.894 32.8613 245.225 33.544C245.555 34.2267 246.009 34.76 246.585 35.144C247.171 35.528 247.849 35.72 248.617 35.72Z" fill="#F3FCFF"/>
<defs>
<radialGradient id="paint0_radial_2259_75" cx="0" cy="0" r="1" gradientTransform="matrix(263.681 147.141 -145.293 212.047 89.9903 -53.7042)" gradientUnits="userSpaceOnUse">
<stop offset="0.0327964" stop-color="#CAF3FF"/>
<stop offset="0.386144" stop-color="#00AEFF"/>
<stop offset="1" stop-color="#3C3CCE"/>
</radialGradient>
<linearGradient id="paint1_linear_2259_75" x1="0" y1="31" x2="299" y2="31" gradientUnits="userSpaceOnUse">
<stop stop-color="#84D9FF"/>
<stop offset="1" stop-color="#174D98"/>
</linearGradient>
</defs>
</svg>
