<svg width="645" height="103" viewBox="0 0 645 103" fill="none" xmlns="http://www.w3.org/2000/svg">
<path d="M65.3061 38.7848L21.3304 0.302236L21.1876 0.118622C11.2878 0.118622 8.36523 5.87697 8.36523 12.9767V14.7109L32.1688 35.903C41.3597 44.0892 54.8401 45.2572 65.3061 38.7848Z" fill="url(#paint0_linear_2259_50)"/>
<path d="M20.8963 82.0571V0.119186H15.3879C6.88554 0.119186 0 7.00473 0 15.4969V102.943C11.5371 102.943 20.8963 93.5942 20.8963 82.0571Z" fill="url(#paint1_linear_2259_50)"/>
<path d="M26.937 64.1546L70.9177 102.637L71.0606 102.821C80.9604 102.821 83.883 97.0624 83.883 89.9626V88.2285L60.0794 67.0363C50.8885 58.8502 37.4081 57.6822 26.9421 64.1546H26.937Z" fill="url(#paint2_linear_2259_50)"/>
<path d="M71.3503 20.8861V102.824H76.8587C85.356 102.824 92.2415 95.9385 92.2415 87.4464V0C80.7044 0 71.3452 9.34903 71.3452 20.8861H71.3503Z" fill="url(#paint3_linear_2259_50)"/>
<path d="M167.786 25.6062H175.049V77.337H167.786L122.635 35.1123V77.337H115.372V25.6062H122.635L167.786 67.7677V25.6062Z" fill="#232E48"/>
<path d="M242.254 32.27H208.579C200.97 32.27 196.275 35.2807 194.493 41.3023C193.969 43.1341 193.644 45.4079 193.518 48.124H242.254V54.7877H193.518C193.644 57.4827 193.969 59.7565 194.493 61.6093C196.275 67.6519 200.97 70.6733 208.579 70.6733H242.254V77.337H208.768C204.303 77.337 200.593 76.6738 197.637 75.3473C193.277 73.3893 190.217 70.0416 188.456 65.3044C186.905 61.1145 186.129 56.5036 186.129 51.4716C186.129 46.4185 186.905 41.8076 188.456 37.6388C190.28 32.8384 193.34 29.4697 197.637 27.5327C200.572 26.2484 204.282 25.6062 208.768 25.6062H242.254V32.27Z" fill="#232E48"/>
<path d="M310.335 25.6062H318.321L287.225 77.337H280.716L249.494 25.6062H257.543L283.955 69.5679L310.335 25.6062Z" fill="#232E48"/>
<path d="M377.636 32.27H343.961C336.352 32.27 331.657 35.2807 329.875 41.3023C329.351 43.1341 329.026 45.4079 328.9 48.124H377.636V54.7877H328.9C329.026 57.4827 329.351 59.7565 329.875 61.6093C331.657 67.6519 336.352 70.6733 343.961 70.6733H377.636V77.337H344.15C339.685 77.337 335.975 76.6738 333.019 75.3473C328.659 73.3893 325.599 70.0416 323.838 65.3044C322.287 61.1145 321.512 56.5036 321.512 51.4716C321.512 46.4185 322.287 41.8076 323.838 37.6388C325.662 32.8384 328.722 29.4697 333.019 27.5327C335.954 26.2484 339.664 25.6062 344.15 25.6062H377.636V32.27Z" fill="#232E48"/>
<path d="M439.586 70.6733V77.337H398.271C395.546 77.337 393.376 76.4948 391.762 74.8105C390.127 73.1682 389.31 71.0101 389.31 68.3362V25.6062H396.636V68.2731C396.636 69.8732 397.474 70.6733 399.151 70.6733H439.586Z" fill="#232E48"/>
<rect x="462.716" y="9.73196" width="182.137" height="83.4793" rx="17.1827" fill="url(#paint4_linear_2259_50)"/>
<path d="M526.953 35.0287H531.472V67.9145H526.953V43.8223L511.864 67.9145H507.679L492.551 43.7822V67.9145H488.012V35.0287H492.551L509.742 62.5741L526.953 35.0287Z" fill="#CAF3FF"/>
<path d="M573.437 39.2649H552.395C547.64 39.2649 544.706 41.1789 543.593 45.0069C543.265 46.1713 543.062 47.6169 542.984 49.3435H573.437V53.5797H542.984C543.062 55.2929 543.265 56.7384 543.593 57.9162C544.706 61.7576 547.64 63.6783 552.395 63.6783H573.437V67.9145H552.513C549.723 67.9145 547.404 67.4929 545.557 66.6496C542.833 65.4049 540.921 63.2767 539.82 60.2652C538.851 57.6017 538.367 54.6705 538.367 51.4716C538.367 48.2593 538.851 45.3281 539.82 42.678C540.96 39.6263 542.872 37.4848 545.557 36.2534C547.391 35.4369 549.71 35.0287 552.513 35.0287H573.437V39.2649Z" fill="#CAF3FF"/>
<path d="M614.368 57.9162C614.827 56.2432 615.056 54.095 615.056 51.4716C615.056 48.7947 614.827 46.6398 614.368 45.0069C613.255 41.1789 610.321 39.2649 605.566 39.2649H585.84V63.6783H605.566C610.321 63.6783 613.255 61.7576 614.368 57.9162ZM618.121 42.678C619.077 45.3281 619.555 48.2593 619.555 51.4716C619.555 54.6705 619.077 57.6017 618.121 60.2652C617.021 63.2767 615.115 65.4049 612.404 66.6496C610.557 67.4929 608.238 67.9145 605.448 67.9145H581.302V35.0287H605.448C608.278 35.0287 610.596 35.4369 612.404 36.2534C615.089 37.4714 616.995 39.6129 618.121 42.678Z" fill="#CAF3FF"/>
<defs>
<linearGradient id="paint0_linear_2259_50" x1="72.8598" y1="52.5813" x2="0.607517" y2="-1.40128" gradientUnits="userSpaceOnUse">
<stop offset="0.03" stop-color="white"/>
<stop offset="0.38" stop-color="#00C3FF"/>
<stop offset="0.42" stop-color="#05B5FA"/>
<stop offset="0.57" stop-color="#1D81E7"/>
<stop offset="0.69" stop-color="#2D5BD9"/>
<stop offset="0.79" stop-color="#3844D1"/>
<stop offset="0.86" stop-color="#3C3CCE"/>
</linearGradient>
<linearGradient id="paint1_linear_2259_50" x1="9.49694" y1="-6.53684" x2="11.7105" y2="128.69" gradientUnits="userSpaceOnUse">
<stop offset="0.03" stop-color="white"/>
<stop offset="0.38" stop-color="#00C3FF"/>
<stop offset="0.42" stop-color="#05B5FA"/>
<stop offset="0.57" stop-color="#1D81E7"/>
<stop offset="0.69" stop-color="#2D5BD9"/>
<stop offset="0.79" stop-color="#3844D1"/>
<stop offset="0.86" stop-color="#3C3CCE"/>
</linearGradient>
<linearGradient id="paint2_linear_2259_50" x1="19.3833" y1="50.358" x2="91.6356" y2="104.341" gradientUnits="userSpaceOnUse">
<stop offset="0.03" stop-color="white"/>
<stop offset="0.38" stop-color="#00C3FF"/>
<stop offset="0.42" stop-color="#05B5FA"/>
<stop offset="0.57" stop-color="#1D81E7"/>
<stop offset="0.69" stop-color="#2D5BD9"/>
<stop offset="0.79" stop-color="#3844D1"/>
<stop offset="0.86" stop-color="#3C3CCE"/>
</linearGradient>
<linearGradient id="paint3_linear_2259_50" x1="82.7446" y1="109.48" x2="80.531" y2="-25.7417" gradientUnits="userSpaceOnUse">
<stop offset="0.03" stop-color="white"/>
<stop offset="0.38" stop-color="#00C3FF"/>
<stop offset="0.42" stop-color="#05B5FA"/>
<stop offset="0.57" stop-color="#1D81E7"/>
<stop offset="0.69" stop-color="#2D5BD9"/>
<stop offset="0.79" stop-color="#3844D1"/>
<stop offset="0.86" stop-color="#3C3CCE"/>
</linearGradient>
<linearGradient id="paint4_linear_2259_50" x1="471.307" y1="2.85888" x2="639.698" y2="97.3637" gradientUnits="userSpaceOnUse">
<stop stop-color="#06C4FE"/>
<stop offset="1" stop-color="#2D5AD8"/>
</linearGradient>
</defs>
</svg>
