<svg width="119" height="224" viewBox="0 0 119 224" fill="none" xmlns="http://www.w3.org/2000/svg">
<rect width="119" height="224" rx="7.27273" fill="#F3FCFF" fill-opacity="0.2"/>
<path d="M19.4638 52V44.1729H20.6161V52H19.4638ZM20.0291 52V51.0542H24.8993V52H20.0291ZM20.0291 48.4234V47.4777H24.508V48.4234H20.0291ZM20.0291 45.1186V44.1729H24.8015V45.1186H20.0291ZM28.777 52.0978C27.8349 52.0978 27.0812 51.8732 26.5159 51.4238C25.9506 50.9745 25.6208 50.3331 25.5266 49.4997H26.6463C26.7116 50.0432 26.929 50.4563 27.2986 50.739C27.6682 51.0216 28.1683 51.1629 28.7988 51.1629C29.3278 51.1629 29.7265 51.0651 29.9946 50.8694C30.27 50.6737 30.4077 50.3947 30.4077 50.0323C30.4077 49.7062 30.3171 49.4489 30.1359 49.2605C29.9547 49.0648 29.6685 48.9054 29.2771 48.7822L27.9182 48.3473C27.2225 48.1227 26.7116 47.84 26.3854 47.4994C26.0593 47.1588 25.8962 46.7276 25.8962 46.2057C25.8962 45.7637 26.0049 45.3832 26.2224 45.0643C26.447 44.7454 26.7587 44.499 27.1573 44.3251C27.5631 44.1439 28.0342 44.0533 28.5705 44.0533C29.3967 44.0533 30.0562 44.2635 30.549 44.6838C31.0491 45.0969 31.3354 45.6731 31.4078 46.4123H30.2881C30.2012 45.9195 30.0127 45.5607 29.7228 45.3361C29.4329 45.1041 29.0343 44.9882 28.527 44.9882C28.0487 44.9882 27.6755 45.0824 27.4073 45.2708C27.1391 45.4593 27.0051 45.7238 27.0051 46.0644C27.0051 46.3398 27.092 46.5717 27.266 46.7602C27.4472 46.9414 27.7443 47.0972 28.1574 47.2276L29.5815 47.6842C30.241 47.8944 30.7266 48.1806 31.0382 48.543C31.3571 48.9054 31.5165 49.362 31.5165 49.9128C31.5165 50.6085 31.2774 51.1484 30.7991 51.5325C30.3207 51.9094 29.6467 52.0978 28.777 52.0978ZM35.5502 52.0978C34.6081 52.0978 33.8543 51.8732 33.289 51.4238C32.7237 50.9745 32.394 50.3331 32.2998 49.4997H33.4195C33.4847 50.0432 33.7021 50.4563 34.0717 50.739C34.4414 51.0216 34.9414 51.1629 35.5719 51.1629C36.101 51.1629 36.4996 51.0651 36.7678 50.8694C37.0432 50.6737 37.1809 50.3947 37.1809 50.0323C37.1809 49.7062 37.0903 49.4489 36.9091 49.2605C36.7279 49.0648 36.4416 48.9054 36.0503 48.7822L34.6914 48.3473C33.9956 48.1227 33.4847 47.84 33.1586 47.4994C32.8324 47.1588 32.6694 46.7276 32.6694 46.2057C32.6694 45.7637 32.7781 45.3832 32.9955 45.0643C33.2202 44.7454 33.5318 44.499 33.9304 44.3251C34.3363 44.1439 34.8074 44.0533 35.3437 44.0533C36.1699 44.0533 36.8294 44.2635 37.3222 44.6838C37.8222 45.0969 38.1085 45.6731 38.181 46.4123H37.0613C36.9743 45.9195 36.7859 45.5607 36.496 45.3361C36.2061 45.1041 35.8075 44.9882 35.3002 44.9882C34.8218 44.9882 34.4486 45.0824 34.1805 45.2708C33.9123 45.4593 33.7782 45.7238 33.7782 46.0644C33.7782 46.3398 33.8652 46.5717 34.0391 46.7602C34.2203 46.9414 34.5175 47.0972 34.9306 47.2276L36.3547 47.6842C37.0142 47.8944 37.4997 48.1806 37.8114 48.543C38.1303 48.9054 38.2897 49.362 38.2897 49.9128C38.2897 50.6085 38.0505 51.1484 37.5722 51.5325C37.0939 51.9094 36.4199 52.0978 35.5502 52.0978ZM39.486 52V44.1729H40.6384V52H39.486ZM40.0513 52V51.0542H44.9215V52H40.0513ZM40.0513 48.4234V47.4777H44.5302V48.4234H40.0513ZM40.0513 45.1186V44.1729H44.8237V45.1186H40.0513ZM51.3578 52.0978C50.4156 52.0978 49.6619 51.8732 49.0966 51.4238C48.5313 50.9745 48.2016 50.3331 48.1073 49.4997H49.2271C49.2923 50.0432 49.5097 50.4563 49.8793 50.739C50.2489 51.0216 50.749 51.1629 51.3795 51.1629C51.9086 51.1629 52.3072 51.0651 52.5753 50.8694C52.8507 50.6737 52.9884 50.3947 52.9884 50.0323C52.9884 49.7062 52.8978 49.4489 52.7167 49.2605C52.5355 49.0648 52.2492 48.9054 51.8578 48.7822L50.499 48.3473C49.8032 48.1227 49.2923 47.84 48.9661 47.4994C48.64 47.1588 48.477 46.7276 48.477 46.2057C48.477 45.7637 48.5857 45.3832 48.8031 45.0643C49.0278 44.7454 49.3394 44.499 49.738 44.3251C50.1438 44.1439 50.6149 44.0533 51.1512 44.0533C51.9774 44.0533 52.6369 44.2635 53.1297 44.6838C53.6298 45.0969 53.9161 45.6731 53.9886 46.4123H52.8688C52.7819 45.9195 52.5934 45.5607 52.3036 45.3361C52.0137 45.1041 51.6151 44.9882 51.1077 44.9882C50.6294 44.9882 50.2562 45.0824 49.988 45.2708C49.7199 45.4593 49.5858 45.7238 49.5858 46.0644C49.5858 46.3398 49.6728 46.5717 49.8467 46.7602C50.0279 46.9414 50.325 47.0972 50.7381 47.2276L52.1622 47.6842C52.8217 47.8944 53.3073 48.1806 53.6189 48.543C53.9378 48.9054 54.0973 49.362 54.0973 49.9128C54.0973 50.6085 53.8581 51.1484 53.3798 51.5325C52.9015 51.9094 52.2275 52.0978 51.3578 52.0978ZM55.2936 52V44.1729H56.4459V52H55.2936ZM55.8589 52V51.0542H60.7291V52H55.8589ZM55.8589 48.4234V47.4777H60.3377V48.4234H55.8589ZM55.8589 45.1186V44.1729H60.6313V45.1186H55.8589ZM61.9073 52V44.1729H64.9946C65.5599 44.1729 66.0419 44.2671 66.4405 44.4555C66.8391 44.6367 67.1471 44.894 67.3645 45.2274C67.5819 45.5535 67.6906 45.9412 67.6906 46.3906C67.6906 46.8399 67.5819 47.2312 67.3645 47.5646C67.1471 47.898 66.8391 48.1589 66.4405 48.3473C66.0419 48.5358 65.5599 48.63 64.9946 48.63H62.7769V47.6951H64.962C65.4838 47.6951 65.8788 47.5827 66.1469 47.3581C66.4223 47.1262 66.56 46.8073 66.56 46.4014C66.56 45.9956 66.426 45.6803 66.1578 45.4556C65.8897 45.231 65.4911 45.1186 64.962 45.1186H63.0596V52H61.9073ZM66.4296 52L62.6139 48.0538H64.0162L68.082 52H66.4296ZM68.6381 52L71.5842 44.1729H72.5843L69.7687 52H68.6381ZM74.6933 52L71.8777 44.1729H72.9322L75.8891 52H74.6933ZM70.1274 48.88H74.3237V49.8367H70.1274V48.88ZM72.3669 43.3793H71.3341L72.5082 41.6725H74.1171L72.3669 43.3793ZM82.0281 52.0978C81.0859 52.0978 80.3322 51.8732 79.7669 51.4238C79.2016 50.9745 78.8718 50.3331 78.7776 49.4997H79.8973C79.9626 50.0432 80.18 50.4563 80.5496 50.739C80.9192 51.0216 81.4193 51.1629 82.0498 51.1629C82.5789 51.1629 82.9775 51.0651 83.2456 50.8694C83.521 50.6737 83.6587 50.3947 83.6587 50.0323C83.6587 49.7062 83.5681 49.4489 83.3869 49.2605C83.2058 49.0648 82.9195 48.9054 82.5281 48.7822L81.1693 48.3473C80.4735 48.1227 79.9626 47.84 79.6364 47.4994C79.3103 47.1588 79.1472 46.7276 79.1472 46.2057C79.1472 45.7637 79.256 45.3832 79.4734 45.0643C79.698 44.7454 80.0097 44.499 80.4083 44.3251C80.8141 44.1439 81.2852 44.0533 81.8215 44.0533C82.6477 44.0533 83.3072 44.2635 83.8 44.6838C84.3001 45.0969 84.5864 45.6731 84.6589 46.4123H83.5391C83.4522 45.9195 83.2637 45.5607 82.9738 45.3361C82.684 45.1041 82.2853 44.9882 81.778 44.9882C81.2997 44.9882 80.9265 45.0824 80.6583 45.2708C80.3902 45.4593 80.2561 45.7238 80.2561 46.0644C80.2561 46.3398 80.3431 46.5717 80.517 46.7602C80.6982 46.9414 80.9953 47.0972 81.4084 47.2276L82.8325 47.6842C83.492 47.8944 83.9776 48.1806 84.2892 48.543C84.6081 48.9054 84.7676 49.362 84.7676 49.9128C84.7676 50.6085 84.5284 51.1484 84.0501 51.5325C83.5718 51.9094 82.8978 52.0978 82.0281 52.0978ZM89.0075 52.1087C88.0074 52.1087 87.2392 51.8152 86.7029 51.2282C86.1666 50.6411 85.8984 49.8041 85.8984 48.717V44.1729H87.0507V48.8474C87.0507 49.5939 87.221 50.1628 87.5617 50.5542C87.9023 50.9383 88.3842 51.1303 89.0075 51.1303C89.6453 51.1303 90.1345 50.9383 90.4751 50.5542C90.8157 50.17 90.986 49.6011 90.986 48.8474V44.1729H92.1384V48.7387C92.1384 49.8113 91.8666 50.6411 91.323 51.2282C90.7867 51.8152 90.0149 52.1087 89.0075 52.1087ZM92.737 52L95.683 44.1729H96.6831L93.8675 52H92.737ZM98.7921 52L95.9765 44.1729H97.031L99.9879 52H98.7921ZM94.2263 48.88H98.4225V49.8367H94.2263V48.88ZM14.1768 65L17.1229 57.1729H18.123L15.3074 65H14.1768ZM20.232 65L17.4164 57.1729H18.4709L21.4278 65H20.232ZM15.6662 61.88H19.8624V62.8367H15.6662V61.88ZM25.7703 65.1087C24.9513 65.1087 24.2447 64.9456 23.6504 64.6195C23.0561 64.2861 22.5959 63.8223 22.2698 63.228C21.9509 62.6337 21.7915 61.9344 21.7915 61.1299C21.7915 60.3327 21.9509 59.6297 22.2698 59.0209C22.5959 58.4049 23.0453 57.9266 23.6178 57.586C24.1904 57.2381 24.8499 57.0642 25.5963 57.0642C26.1906 57.0642 26.7269 57.1765 27.2053 57.4012C27.6908 57.6186 28.0858 57.923 28.3902 58.3143C28.7018 58.7057 28.8866 59.1586 28.9446 59.6732H27.7923C27.7198 59.1731 27.4879 58.7782 27.0965 58.4883C26.7052 58.1911 26.216 58.0425 25.629 58.0425C25.0927 58.0425 24.6252 58.1694 24.2266 58.423C23.828 58.6767 23.5164 59.0318 23.2917 59.4884C23.0743 59.945 22.9656 60.4849 22.9656 61.1082C22.9656 61.7387 23.0779 62.2822 23.3026 62.7388C23.5272 63.1882 23.8534 63.536 24.2809 63.7824C24.7158 64.0216 25.2376 64.1412 25.8464 64.1412C26.2812 64.1412 26.6653 64.0796 26.9987 63.9564C27.3321 63.8332 27.622 63.652 27.8684 63.4128L28.9881 63.8368C28.5823 64.2571 28.1148 64.576 27.5857 64.7935C27.0567 65.0036 26.4515 65.1087 25.7703 65.1087ZM27.8358 63.8368V61.4343L28.1728 61.7713H25.8355V60.8147H28.9881V63.8368H27.8358ZM30.4304 65V57.1729H31.5827V65H30.4304ZM30.9957 65V64.0542H35.8659V65H30.9957ZM30.9957 61.4234V60.4777H35.4745V61.4234H30.9957ZM30.9957 58.1186V57.1729H35.7681V58.1186H30.9957ZM37.3203 65V57.1729H38.6575L42.8102 63.8694L42.5493 63.9238V57.1729H43.6581V65H42.321L38.1683 58.3035L38.4292 58.2491V65H37.3203ZM45.9676 65V64.0434H48.0222C48.6455 64.0434 49.1782 63.9165 49.6203 63.6629C50.0696 63.4092 50.4139 63.0577 50.653 62.6084C50.8922 62.159 51.0118 61.6372 51.0118 61.0429C51.0118 60.4559 50.8922 59.945 50.653 59.5101C50.4211 59.0753 50.0805 58.7383 49.6312 58.4991C49.1891 58.2527 48.6528 58.1295 48.0222 58.1295H45.9785V57.1729H48.0222C48.8629 57.1729 49.5949 57.3323 50.2182 57.6512C50.8415 57.9701 51.3234 58.423 51.664 59.0101C52.0119 59.5899 52.1858 60.2747 52.1858 61.0647C52.1858 61.8547 52.0119 62.5468 51.664 63.1411C51.3162 63.7281 50.8306 64.1847 50.2073 64.5108C49.5913 64.8369 48.8666 65 48.0331 65H45.9676ZM45.2719 65V57.1729H46.4242V65H45.2719ZM52.5227 65L55.4687 57.1729H56.4689L53.6533 65H52.5227ZM58.5778 65L55.7622 57.1729H56.8167L59.7736 65H58.5778ZM54.012 61.88H58.2082V62.8367H54.012V61.88ZM60.6118 66.6524V66.0871C60.8655 66.0001 61.0394 65.8661 61.1336 65.6849C61.2351 65.5109 61.2858 65.2573 61.2858 64.9239L61.7315 65H60.6009V63.6629H61.9381V64.6739C61.9381 65.1739 61.833 65.5943 61.6228 65.9349C61.4199 66.2755 61.0829 66.5147 60.6118 66.6524ZM66.3508 65V64.0434H68.4054C69.0287 64.0434 69.5614 63.9165 70.0034 63.6629C70.4528 63.4092 70.797 63.0577 71.0362 62.6084C71.2754 62.159 71.3949 61.6372 71.3949 61.0429C71.3949 60.4559 71.2754 59.945 71.0362 59.5101C70.8043 59.0753 70.4637 58.7383 70.0143 58.4991C69.5722 58.2527 69.0359 58.1295 68.4054 58.1295H66.3617V57.1729H68.4054C69.2461 57.1729 69.9781 57.3323 70.6014 57.6512C71.2246 57.9701 71.7066 58.423 72.0472 59.0101C72.3951 59.5899 72.569 60.2747 72.569 61.0647C72.569 61.8547 72.3951 62.5468 72.0472 63.1411C71.6993 63.7281 71.2138 64.1847 70.5905 64.5108C69.9745 64.8369 69.2497 65 68.4163 65H66.3508ZM65.655 65V57.1729H66.8074V65H65.655ZM73.8402 65V57.1729H74.9925V65H73.8402ZM74.4054 65V64.0542H79.2757V65H74.4054ZM74.4054 61.4234V60.4777H78.8843V61.4234H74.4054ZM74.4054 58.1186V57.1729H79.1778V58.1186H74.4054ZM80.7301 65V57.1729H84.0457C84.611 57.1729 85.093 57.2671 85.4916 57.4555C85.8902 57.6439 86.1946 57.9121 86.4048 58.26C86.6222 58.6078 86.7309 59.0209 86.7309 59.4993C86.7309 59.9848 86.6222 60.4052 86.4048 60.7603C86.1946 61.1082 85.8866 61.3799 85.4807 61.5756C85.0821 61.7713 84.6038 61.8691 84.0457 61.8691H81.6106V60.9125H83.9914C84.506 60.9125 84.8973 60.7893 85.1655 60.5429C85.4409 60.2965 85.5786 59.9522 85.5786 59.5101C85.5786 59.0608 85.4445 58.7165 85.1763 58.4774C84.9082 58.2382 84.5132 58.1186 83.9914 58.1186H81.8824V65H80.7301ZM91.3432 65.1087C90.7851 65.1087 90.2742 65.0109 89.8104 64.8152C89.3465 64.6123 88.9443 64.3296 88.6037 63.9673C88.2631 63.6049 87.9949 63.1773 87.7992 62.6845C87.6108 62.1917 87.5166 61.6481 87.5166 61.0538C87.5166 60.2711 87.6796 59.579 88.0058 58.9775C88.3319 58.3759 88.7812 57.9085 89.3538 57.5751C89.9336 57.2345 90.5931 57.0642 91.3323 57.0642C92.086 57.0642 92.7492 57.2345 93.3217 57.5751C93.8942 57.9085 94.3436 58.3759 94.6697 58.9775C95.0031 59.579 95.1698 60.2747 95.1698 61.0647C95.1698 61.6517 95.0719 62.1953 94.8763 62.6953C94.6878 63.1882 94.4233 63.6158 94.0827 63.9781C93.7421 64.3332 93.3362 64.6123 92.8651 64.8152C92.4013 65.0109 91.894 65.1087 91.3432 65.1087ZM91.3323 64.1303C91.8541 64.1303 92.3143 63.9999 92.7129 63.739C93.1115 63.4708 93.4232 63.1048 93.6478 62.641C93.8798 62.1772 93.9957 61.6445 93.9957 61.0429C93.9957 60.4487 93.8834 59.9269 93.6587 59.4775C93.434 59.0209 93.1224 58.6694 92.7238 58.423C92.3252 58.1694 91.8614 58.0425 91.3323 58.0425C90.8033 58.0425 90.3394 58.1694 89.9408 58.423C89.5495 58.6694 89.2414 59.0173 89.0168 59.4667C88.7994 59.916 88.6906 60.4414 88.6906 61.0429C88.6906 61.6517 88.803 62.188 89.0277 62.6519C89.2523 63.1157 89.5603 63.4781 89.9517 63.739C90.3503 63.9999 90.8105 64.1303 91.3323 64.1303ZM96.4421 65V57.1729H97.5944V65H96.4421ZM102.04 65.0978C101.098 65.0978 100.344 64.8732 99.7785 64.4238C99.2132 63.9745 98.8834 63.3331 98.7892 62.4997H99.9089C99.9742 63.0432 100.192 63.4563 100.561 63.739C100.931 64.0216 101.431 64.1629 102.061 64.1629C102.59 64.1629 102.989 64.0651 103.257 63.8694C103.533 63.6737 103.67 63.3947 103.67 63.0323C103.67 62.7062 103.58 62.4489 103.399 62.2605C103.217 62.0648 102.931 61.9054 102.54 61.7822L101.181 61.3473C100.485 61.1227 99.9742 60.84 99.648 60.4994C99.3219 60.1588 99.1588 59.7276 99.1588 59.2057C99.1588 58.7637 99.2676 58.3832 99.485 58.0643C99.7096 57.7454 100.021 57.499 100.42 57.3251C100.826 57.1439 101.297 57.0533 101.833 57.0533C102.659 57.0533 103.319 57.2635 103.812 57.6838C104.312 58.0969 104.598 58.6731 104.67 59.4123H103.551C103.464 58.9195 103.275 58.5607 102.985 58.3361C102.696 58.1041 102.297 57.9882 101.79 57.9882C101.311 57.9882 100.938 58.0824 100.67 58.2708C100.402 58.4593 100.268 58.7238 100.268 59.0644C100.268 59.3398 100.355 59.5717 100.529 59.7602C100.71 59.9414 101.007 60.0972 101.42 60.2276L102.844 60.6842C103.504 60.8944 103.989 61.1806 104.301 61.543C104.62 61.9054 104.779 62.362 104.779 62.9128C104.779 63.6085 104.54 64.1484 104.062 64.5325C103.583 64.9094 102.909 65.0978 102.04 65.0978ZM20.6373 78V77.0434H22.6919C23.3152 77.0434 23.8479 76.9165 24.29 76.6629C24.7393 76.4092 25.0835 76.0577 25.3227 75.6084C25.5619 75.159 25.6814 74.6372 25.6814 74.0429C25.6814 73.4559 25.5619 72.945 25.3227 72.5101C25.0908 72.0753 24.7502 71.7383 24.3008 71.4991C23.8587 71.2527 23.3224 71.1295 22.6919 71.1295H20.6482V70.1729H22.6919C23.5326 70.1729 24.2646 70.3323 24.8879 70.6512C25.5111 70.9701 25.9931 71.423 26.3337 72.0101C26.6816 72.5899 26.8555 73.2747 26.8555 74.0647C26.8555 74.8547 26.6816 75.5468 26.3337 76.1411C25.9858 76.7281 25.5003 77.1847 24.877 77.5108C24.261 77.8369 23.5362 78 22.7028 78H20.6373ZM19.9415 78V70.1729H21.0939V78H19.9415ZM27.1923 78L30.1384 70.1729H31.1385L28.3229 78H27.1923ZM33.2475 78L30.4319 70.1729H31.4864L34.4433 78H33.2475ZM28.6817 74.88H32.8779V75.8367H28.6817V74.88ZM37.745 78V70.1729H39.0821L43.2348 76.8694L42.9739 76.9238V70.1729H44.0828V78H42.7456L38.5929 71.3035L38.8538 71.2491V78H37.745ZM45.6965 78V70.1729H46.8489V78H45.6965ZM46.2618 78V77.0542H51.132V78H46.2618ZM46.2618 74.4234V73.4777H50.7407V74.4234H46.2618ZM46.2618 71.1186V70.1729H51.0342V71.1186H46.2618ZM54.8848 78L51.9388 70.1729H53.1563L55.7436 77.3043H55.4501L58.0374 70.1729H59.1898L56.2328 78H54.8848ZM60.3469 78V70.1729H61.4992V78H60.3469ZM60.9122 78V77.0542H65.7824V78H60.9122ZM60.9122 74.4234V73.4777H65.3911V74.4234H60.9122ZM60.9122 71.1186V70.1729H65.6846V71.1186H60.9122ZM67.2369 78V70.1729H68.3892V78H67.2369ZM67.8021 78V77.0542H72.3245V78H67.8021ZM75.7829 78V70.1729H77.5658L80.1748 77.7174H79.5878L82.1751 70.1729H83.9797V78H82.8382V70.6403H83.0122L80.4901 78H79.2073L76.6852 70.7055H76.8592V78H75.7829ZM85.5923 78V70.1729H86.7447V78H85.5923ZM86.1576 78V77.0542H91.0278V78H86.1576ZM86.1576 74.4234V73.4777H90.6365V74.4234H86.1576ZM86.1576 71.1186V70.1729H90.93V71.1186H86.1576ZM93.178 78V77.0434H95.2326C95.8559 77.0434 96.3886 76.9165 96.8307 76.6629C97.28 76.4092 97.6242 76.0577 97.8634 75.6084C98.1026 75.159 98.2222 74.6372 98.2222 74.0429C98.2222 73.4559 98.1026 72.945 97.8634 72.5101C97.6315 72.0753 97.2909 71.7383 96.8415 71.4991C96.3994 71.2527 95.8631 71.1295 95.2326 71.1295H93.1889V70.1729H95.2326C96.0733 70.1729 96.8053 70.3323 97.4286 70.6512C98.0518 70.9701 98.5338 71.423 98.8744 72.0101C99.2223 72.5899 99.3962 73.2747 99.3962 74.0647C99.3962 74.8547 99.2223 75.5468 98.8744 76.1411C98.5265 76.7281 98.041 77.1847 97.4177 77.5108C96.8017 77.8369 96.0769 78 95.2435 78H93.178ZM92.4823 78V70.1729H93.6346V78H92.4823Z" fill="black"/>
<circle cx="59.5004" cy="94.5536" r="6.55357" fill="url(#paint0_linear_2322_398)"/>
<path d="M26.3449 111.837V111.145H28.2C28.7767 111.145 29.2733 111.029 29.6898 110.799C30.1063 110.562 30.4267 110.232 30.651 109.809C30.8752 109.386 30.9874 108.896 30.9874 108.338C30.9874 107.787 30.8752 107.307 30.651 106.896C30.4267 106.486 30.1063 106.169 29.6898 105.945C29.2797 105.721 28.7831 105.608 28.2 105.608H26.3449V104.916H28.2C28.9241 104.916 29.5552 105.061 30.0935 105.349C30.6317 105.631 31.0482 106.031 31.343 106.55C31.6442 107.063 31.7947 107.665 31.7947 108.357C31.7947 109.049 31.6442 109.658 31.343 110.184C31.0418 110.703 30.6221 111.11 30.0839 111.404C29.552 111.693 28.9273 111.837 28.2096 111.837H26.3449ZM25.874 111.837V104.916H26.6621V111.837H25.874ZM33.0438 111.837V106.935H33.8127V111.837H33.0438ZM32.9861 105.82V104.916H33.8704V105.82H32.9861ZM38.3331 111.837C38.3075 111.728 38.2883 111.603 38.2755 111.462C38.2691 111.321 38.2659 111.142 38.2659 110.924H38.2178V108.578C38.2178 108.207 38.1313 107.934 37.9583 107.761C37.7917 107.582 37.5194 107.492 37.1413 107.492C36.7696 107.492 36.4717 107.569 36.2474 107.723C36.0296 107.87 35.9078 108.082 35.8822 108.357H35.1421C35.1741 107.883 35.3728 107.512 35.738 107.242C36.1032 106.973 36.5806 106.839 37.1701 106.839C37.7789 106.839 38.2306 106.983 38.5254 107.271C38.8201 107.56 38.9675 107.992 38.9675 108.569V110.924C38.9675 111.065 38.9771 111.212 38.9963 111.366C39.0156 111.513 39.0412 111.67 39.0732 111.837H38.3331ZM36.6511 111.933C36.1449 111.933 35.7412 111.811 35.44 111.568C35.1453 111.318 34.9979 110.978 34.9979 110.549C34.9979 110.12 35.1453 109.786 35.44 109.549C35.7348 109.312 36.1641 109.146 36.728 109.049L38.4389 108.761V109.395L36.8433 109.645C36.4845 109.703 36.2122 109.799 36.0263 109.934C35.8405 110.068 35.7476 110.264 35.7476 110.52C35.7476 110.77 35.8309 110.959 35.9975 111.087C36.1705 111.215 36.4236 111.279 36.7568 111.279C37.1862 111.279 37.5354 111.183 37.8045 110.991C38.08 110.792 38.2178 110.536 38.2178 110.222L38.3428 110.904C38.2402 111.231 38.0384 111.484 37.7372 111.664C37.4425 111.843 37.0804 111.933 36.6511 111.933ZM42.0937 111.933C41.4914 111.933 41.0108 111.795 40.652 111.52C40.2931 111.238 40.0881 110.84 40.0368 110.328H40.7769C40.8218 110.642 40.9595 110.882 41.1902 111.049C41.4209 111.215 41.7285 111.299 42.1129 111.299C42.4525 111.299 42.7185 111.234 42.9107 111.106C43.1029 110.978 43.199 110.796 43.199 110.558C43.199 110.392 43.1446 110.248 43.0356 110.126C42.9267 109.998 42.7088 109.892 42.382 109.809L41.5939 109.607C41.1453 109.492 40.8089 109.315 40.5847 109.078C40.3604 108.835 40.2483 108.546 40.2483 108.213C40.2483 107.79 40.4053 107.457 40.7192 107.214C41.0332 106.964 41.4593 106.839 41.9976 106.839C42.5294 106.839 42.9619 106.967 43.2952 107.223C43.6284 107.48 43.8174 107.835 43.8622 108.29H43.1221C43.0773 108.027 42.9555 107.826 42.7569 107.685C42.5583 107.544 42.2955 107.473 41.9687 107.473C41.6548 107.473 41.4113 107.534 41.2383 107.656C41.0653 107.771 40.9787 107.938 40.9787 108.156C40.9787 108.322 41.0396 108.466 41.1614 108.588C41.2895 108.71 41.501 108.812 41.7957 108.896L42.5647 109.107C43.0196 109.229 43.3624 109.415 43.5931 109.665C43.8238 109.914 43.9391 110.216 43.9391 110.568C43.9391 110.997 43.7757 111.334 43.4489 111.577C43.1221 111.814 42.6704 111.933 42.0937 111.933ZM50.464 111.837V110.693L50.5601 110.722C50.4384 111.093 50.2141 111.388 49.8873 111.606C49.5669 111.824 49.1825 111.933 48.7339 111.933C48.2918 111.933 47.9041 111.827 47.5709 111.616C47.2441 111.404 46.9878 111.11 46.802 110.731C46.6226 110.353 46.5328 109.911 46.5328 109.405C46.5328 108.892 46.6258 108.444 46.8116 108.059C46.9974 107.675 47.2569 107.377 47.5901 107.166C47.9233 106.954 48.3142 106.848 48.7627 106.848C49.2241 106.848 49.6118 106.96 49.9258 107.185C50.2397 107.409 50.4544 107.726 50.5697 108.136L50.416 108.156V104.916H51.1849V111.837H50.464ZM48.8781 111.26C49.3715 111.26 49.756 111.093 50.0315 110.76C50.3134 110.421 50.4544 109.959 50.4544 109.376C50.4544 108.806 50.3134 108.354 50.0315 108.021C49.7495 107.688 49.3651 107.521 48.8781 107.521C48.3911 107.521 48.0098 107.688 47.7343 108.021C47.4588 108.354 47.321 108.816 47.321 109.405C47.321 109.982 47.4588 110.437 47.7343 110.77C48.0098 111.097 48.3911 111.26 48.8781 111.26ZM55.7355 111.837C55.7098 111.728 55.6906 111.603 55.6778 111.462C55.6714 111.321 55.6682 111.142 55.6682 110.924H55.6201V108.578C55.6201 108.207 55.5336 107.934 55.3606 107.761C55.194 107.582 54.9217 107.492 54.5436 107.492C54.172 107.492 53.874 107.569 53.6497 107.723C53.4319 107.87 53.3101 108.082 53.2845 108.357H52.5444C52.5764 107.883 52.7751 107.512 53.1403 107.242C53.5056 106.973 53.9829 106.839 54.5725 106.839C55.1812 106.839 55.6329 106.983 55.9277 107.271C56.2225 107.56 56.3698 107.992 56.3698 108.569V110.924C56.3698 111.065 56.3795 111.212 56.3987 111.366C56.4179 111.513 56.4435 111.67 56.4756 111.837H55.7355ZM54.0534 111.933C53.5472 111.933 53.1435 111.811 52.8424 111.568C52.5476 111.318 52.4002 110.978 52.4002 110.549C52.4002 110.12 52.5476 109.786 52.8424 109.549C53.1371 109.312 53.5664 109.146 54.1303 109.049L55.8412 108.761V109.395L54.2457 109.645C53.8868 109.703 53.6145 109.799 53.4287 109.934C53.2429 110.068 53.1499 110.264 53.1499 110.52C53.1499 110.77 53.2332 110.959 53.3998 111.087C53.5729 111.215 53.826 111.279 54.1592 111.279C54.5885 111.279 54.9377 111.183 55.2068 110.991C55.4824 110.792 55.6201 110.536 55.6201 110.222L55.7451 110.904C55.6426 111.231 55.4407 111.484 55.1395 111.664C54.8448 111.843 54.4828 111.933 54.0534 111.933ZM61.439 111.933C60.8367 111.933 60.3561 111.795 59.9973 111.52C59.6384 111.238 59.4334 110.84 59.3821 110.328H60.1222C60.1671 110.642 60.3048 110.882 60.5355 111.049C60.7662 111.215 61.0738 111.299 61.4582 111.299C61.7978 111.299 62.0638 111.234 62.256 111.106C62.4482 110.978 62.5443 110.796 62.5443 110.558C62.5443 110.392 62.4899 110.248 62.3809 110.126C62.272 109.998 62.0542 109.892 61.7274 109.809L60.9392 109.607C60.4907 109.492 60.1542 109.315 59.93 109.078C59.7057 108.835 59.5936 108.546 59.5936 108.213C59.5936 107.79 59.7506 107.457 60.0645 107.214C60.3785 106.964 60.8046 106.839 61.3429 106.839C61.8747 106.839 62.3073 106.967 62.6405 107.223C62.9737 107.48 63.1627 107.835 63.2075 108.29H62.4675C62.4226 108.027 62.3008 107.826 62.1022 107.685C61.9036 107.544 61.6408 107.473 61.3141 107.473C61.0001 107.473 60.7566 107.534 60.5836 107.656C60.4106 107.771 60.3241 107.938 60.3241 108.156C60.3241 108.322 60.3849 108.466 60.5067 108.588C60.6348 108.71 60.8463 108.812 61.141 108.896L61.91 109.107C62.3649 109.229 62.7077 109.415 62.9384 109.665C63.1691 109.914 63.2844 110.216 63.2844 110.568C63.2844 110.997 63.121 111.334 62.7942 111.577C62.4675 111.814 62.0157 111.933 61.439 111.933ZM66.497 111.933C66.0292 111.933 65.6159 111.824 65.2571 111.606C64.8982 111.382 64.6163 111.077 64.4113 110.693C64.2062 110.309 64.1037 109.866 64.1037 109.367C64.1037 108.867 64.203 108.428 64.4016 108.05C64.6067 107.665 64.8918 107.367 65.2571 107.156C65.6223 106.944 66.042 106.839 66.5162 106.839C66.9712 106.839 67.3652 106.938 67.6984 107.137C68.038 107.335 68.2976 107.614 68.477 107.973C68.6628 108.332 68.7557 108.755 68.7557 109.242C68.7557 109.306 68.7525 109.367 68.7461 109.424C68.7461 109.482 68.7397 109.546 68.7269 109.617H64.6804V108.973H68.2559L68.006 109.328C68.006 108.739 67.8746 108.287 67.6119 107.973C67.3556 107.653 66.9904 107.492 66.5162 107.492C66.0292 107.492 65.6351 107.662 65.334 108.002C65.0392 108.335 64.8918 108.787 64.8918 109.357C64.8918 109.94 65.0392 110.408 65.334 110.76C65.6351 111.106 66.0356 111.279 66.5354 111.279C66.8494 111.279 67.1249 111.212 67.362 111.077C67.5991 110.937 67.7721 110.738 67.8811 110.482H68.6115C68.4513 110.93 68.1822 111.286 67.8042 111.548C67.4325 111.805 66.9968 111.933 66.497 111.933ZM69.9135 111.837V106.935H70.6343V108.088H70.6824V111.837H69.9135ZM73.2199 111.837V108.588C73.2199 108.216 73.1366 107.944 72.97 107.771C72.8034 107.598 72.5631 107.512 72.2491 107.512C71.9543 107.512 71.6884 107.582 71.4513 107.723C71.2142 107.864 71.0252 108.059 70.8842 108.309C70.7497 108.559 70.6824 108.851 70.6824 109.184L70.5574 108.021C70.724 107.656 70.974 107.367 71.3072 107.156C71.6404 106.944 72.0024 106.839 72.3933 106.839C72.8674 106.839 73.2519 106.98 73.5467 107.262C73.8414 107.537 73.9888 107.912 73.9888 108.386V111.837H73.2199ZM76.5263 111.837V108.588C76.5263 108.216 76.443 107.944 76.2764 107.771C76.1098 107.598 75.8695 107.512 75.5555 107.512C75.2607 107.512 74.9948 107.582 74.7577 107.723C74.5206 107.864 74.3316 108.059 74.1906 108.309C74.0561 108.559 73.9888 108.851 73.9888 109.184L73.7966 108.021C73.9632 107.656 74.2195 107.367 74.5655 107.156C74.9115 106.944 75.2832 106.839 75.6805 106.839C76.1546 106.839 76.5423 106.98 76.8435 107.262C77.1446 107.537 77.2952 107.912 77.2952 108.386V111.837H76.5263ZM81.7545 111.837C81.7289 111.728 81.7096 111.603 81.6968 111.462C81.6904 111.321 81.6872 111.142 81.6872 110.924H81.6391V108.578C81.6391 108.207 81.5526 107.934 81.3796 107.761C81.213 107.582 80.9407 107.492 80.5626 107.492C80.191 107.492 79.893 107.569 79.6688 107.723C79.4509 107.87 79.3291 108.082 79.3035 108.357H78.5634C78.5955 107.883 78.7941 107.512 79.1593 107.242C79.5246 106.973 80.002 106.839 80.5915 106.839C81.2002 106.839 81.652 106.983 81.9467 107.271C82.2415 107.56 82.3889 107.992 82.3889 108.569V110.924C82.3889 111.065 82.3985 111.212 82.4177 111.366C82.4369 111.513 82.4625 111.67 82.4946 111.837H81.7545ZM80.0724 111.933C79.5662 111.933 79.1625 111.811 78.8614 111.568C78.5666 111.318 78.4192 110.978 78.4192 110.549C78.4192 110.12 78.5666 109.786 78.8614 109.549C79.1561 109.312 79.5855 109.146 80.1493 109.049L81.8602 108.761V109.395L80.2647 109.645C79.9058 109.703 79.6335 109.799 79.4477 109.934C79.2619 110.068 79.169 110.264 79.169 110.52C79.169 110.77 79.2523 110.959 79.4189 111.087C79.5919 111.215 79.845 111.279 80.1782 111.279C80.6075 111.279 80.9567 111.183 81.2258 110.991C81.5014 110.792 81.6391 110.536 81.6391 110.222L81.7641 110.904C81.6616 111.231 81.4597 111.484 81.1586 111.664C80.8638 111.843 80.5018 111.933 80.0724 111.933ZM83.871 111.837V106.935H84.5919V108.088H84.6399V111.837H83.871ZM87.3792 111.837V108.627C87.3792 108.255 87.2863 107.976 87.1005 107.79C86.9147 107.604 86.6392 107.512 86.2739 107.512C85.9535 107.512 85.6684 107.582 85.4185 107.723C85.175 107.864 84.9827 108.059 84.8418 108.309C84.7072 108.559 84.6399 108.851 84.6399 109.184L84.515 108.021C84.6816 107.656 84.9347 107.367 85.2743 107.156C85.6203 106.944 86.0112 106.839 86.4469 106.839C86.9595 106.839 87.3696 106.986 87.6772 107.281C87.9912 107.569 88.1482 107.95 88.1482 108.425V111.837H87.3792ZM92.6051 111.837C92.5795 111.728 92.5603 111.603 92.5475 111.462C92.541 111.321 92.5378 111.142 92.5378 110.924H92.4898V108.578C92.4898 108.207 92.4033 107.934 92.2303 107.761C92.0637 107.582 91.7913 107.492 91.4133 107.492C91.0416 107.492 90.7437 107.569 90.5194 107.723C90.3015 107.87 90.1798 108.082 90.1542 108.357H89.4141C89.4461 107.883 89.6447 107.512 90.01 107.242C90.3752 106.973 90.8526 106.839 91.4421 106.839C92.0509 106.839 92.5026 106.983 92.7974 107.271C93.0921 107.56 93.2395 107.992 93.2395 108.569V110.924C93.2395 111.065 93.2491 111.212 93.2683 111.366C93.2876 111.513 93.3132 111.67 93.3452 111.837H92.6051ZM90.9231 111.933C90.4169 111.933 90.0132 111.811 89.712 111.568C89.4173 111.318 89.2699 110.978 89.2699 110.549C89.2699 110.12 89.4173 109.786 89.712 109.549C90.0068 109.312 90.4361 109.146 91 109.049L92.7109 108.761V109.395L91.1153 109.645C90.7565 109.703 90.4842 109.799 90.2983 109.934C90.1125 110.068 90.0196 110.264 90.0196 110.52C90.0196 110.77 90.1029 110.959 90.2695 111.087C90.4425 111.215 90.6956 111.279 91.0288 111.279C91.4581 111.279 91.8074 111.183 92.0765 110.991C92.352 110.792 92.4898 110.536 92.4898 110.222L92.6147 110.904C92.5122 111.231 92.3104 111.484 92.0092 111.664C91.7144 111.843 91.3524 111.933 90.9231 111.933ZM32.5684 122.933C32.1198 122.933 31.7193 122.824 31.3669 122.606C31.0209 122.382 30.7454 122.077 30.5403 121.693C30.3417 121.302 30.2424 120.86 30.2424 120.367C30.2424 119.873 30.3417 119.437 30.5403 119.059C30.7454 118.681 31.0209 118.383 31.3669 118.166C31.7193 117.948 32.1166 117.839 32.5588 117.839C32.924 117.839 33.2508 117.909 33.5391 118.05C33.8339 118.191 34.0742 118.393 34.26 118.656C34.4523 118.912 34.574 119.213 34.6253 119.559H33.914C33.8499 119.245 33.7025 118.989 33.4719 118.79C33.2412 118.592 32.9432 118.492 32.578 118.492C32.264 118.492 31.9917 118.569 31.761 118.723C31.5303 118.877 31.3509 119.095 31.2227 119.377C31.0946 119.659 31.0305 119.989 31.0305 120.367C31.0305 120.745 31.0946 121.078 31.2227 121.366C31.3509 121.655 31.5303 121.879 31.761 122.039C31.9981 122.199 32.2736 122.279 32.5876 122.279C32.94 122.279 33.2348 122.183 33.4719 121.991C33.709 121.792 33.8595 121.536 33.9236 121.222H34.6349C34.5772 121.562 34.4491 121.863 34.2504 122.126C34.0582 122.382 33.8179 122.58 33.5295 122.721C33.2412 122.862 32.9208 122.933 32.5684 122.933ZM37.7707 122.933C37.2901 122.933 36.8672 122.821 36.5019 122.597C36.1367 122.372 35.8515 122.068 35.6465 121.683C35.4479 121.293 35.3485 120.854 35.3485 120.367C35.3485 119.873 35.4511 119.437 35.6561 119.059C35.8612 118.681 36.1431 118.383 36.5019 118.166C36.8672 117.948 37.2901 117.839 37.7707 117.839C38.2577 117.839 38.6806 117.948 39.0394 118.166C39.4047 118.383 39.6866 118.681 39.8852 119.059C40.0903 119.437 40.1928 119.873 40.1928 120.367C40.1928 120.854 40.0903 121.293 39.8852 121.683C39.6866 122.068 39.4047 122.372 39.0394 122.597C38.6806 122.821 38.2577 122.933 37.7707 122.933ZM37.7707 122.279C38.1039 122.279 38.3922 122.199 38.6357 122.039C38.8792 121.872 39.0682 121.645 39.2028 121.357C39.3374 121.068 39.4047 120.735 39.4047 120.357C39.4047 119.793 39.2541 119.341 38.9529 119.002C38.6581 118.662 38.2641 118.492 37.7707 118.492C37.2837 118.492 36.8896 118.662 36.5884 119.002C36.2873 119.341 36.1367 119.793 36.1367 120.357C36.1367 120.735 36.204 121.068 36.3385 121.357C36.4731 121.645 36.6621 121.872 36.9056 122.039C37.1555 122.199 37.4439 122.279 37.7707 122.279ZM41.3461 122.837V117.935H42.0669V119.088H42.115V122.837H41.3461ZM44.6525 122.837V119.588C44.6525 119.216 44.5692 118.944 44.4026 118.771C44.236 118.598 43.9957 118.512 43.6817 118.512C43.3869 118.512 43.121 118.582 42.8839 118.723C42.6468 118.864 42.4578 119.059 42.3168 119.309C42.1823 119.559 42.115 119.851 42.115 120.184L41.99 119.021C42.1566 118.656 42.4065 118.367 42.7397 118.156C43.0729 117.944 43.435 117.839 43.8259 117.839C44.3 117.839 44.6845 117.98 44.9793 118.262C45.274 118.537 45.4214 118.912 45.4214 119.386V122.837H44.6525ZM47.9589 122.837V119.588C47.9589 119.216 47.8756 118.944 47.709 118.771C47.5424 118.598 47.3021 118.512 46.9881 118.512C46.6933 118.512 46.4274 118.582 46.1903 118.723C45.9532 118.864 45.7642 119.059 45.6232 119.309C45.4887 119.559 45.4214 119.851 45.4214 120.184L45.2292 119.021C45.3958 118.656 45.6521 118.367 45.9981 118.156C46.3441 117.944 46.7158 117.839 47.113 117.839C47.5872 117.839 47.9749 117.98 48.276 118.262C48.5772 118.537 48.7278 118.912 48.7278 119.386V122.837H47.9589ZM54.0725 122.933C53.624 122.933 53.2235 122.824 52.8711 122.606C52.5251 122.382 52.2495 122.077 52.0445 121.693C51.8458 121.302 51.7465 120.86 51.7465 120.367C51.7465 119.873 51.8458 119.437 52.0445 119.059C52.2495 118.681 52.5251 118.383 52.8711 118.166C53.2235 117.948 53.6208 117.839 54.0629 117.839C54.4282 117.839 54.755 117.909 55.0433 118.05C55.3381 118.191 55.5784 118.393 55.7642 118.656C55.9564 118.912 56.0782 119.213 56.1294 119.559H55.4182C55.3541 119.245 55.2067 118.989 54.976 118.79C54.7454 118.592 54.4474 118.492 54.0822 118.492C53.7682 118.492 53.4958 118.569 53.2652 118.723C53.0345 118.877 52.8551 119.095 52.7269 119.377C52.5988 119.659 52.5347 119.989 52.5347 120.367C52.5347 120.745 52.5988 121.078 52.7269 121.366C52.8551 121.655 53.0345 121.879 53.2652 122.039C53.5023 122.199 53.7778 122.279 54.0918 122.279C54.4442 122.279 54.739 122.183 54.976 121.991C55.2131 121.792 55.3637 121.536 55.4278 121.222H56.139C56.0814 121.562 55.9532 121.863 55.7546 122.126C55.5623 122.382 55.3221 122.58 55.0337 122.721C54.7454 122.862 54.425 122.933 54.0725 122.933ZM59.2748 122.933C58.7943 122.933 58.3714 122.821 58.0061 122.597C57.6409 122.372 57.3557 122.068 57.1507 121.683C56.952 121.293 56.8527 120.854 56.8527 120.367C56.8527 119.873 56.9552 119.437 57.1603 119.059C57.3653 118.681 57.6473 118.383 58.0061 118.166C58.3714 117.948 58.7943 117.839 59.2748 117.839C59.7618 117.839 60.1847 117.948 60.5436 118.166C60.9088 118.383 61.1908 118.681 61.3894 119.059C61.5945 119.437 61.697 119.873 61.697 120.367C61.697 120.854 61.5945 121.293 61.3894 121.683C61.1908 122.068 60.9088 122.372 60.5436 122.597C60.1847 122.821 59.7618 122.933 59.2748 122.933ZM59.2748 122.279C59.608 122.279 59.8964 122.199 60.1399 122.039C60.3834 121.872 60.5724 121.645 60.707 121.357C60.8415 121.068 60.9088 120.735 60.9088 120.357C60.9088 119.793 60.7582 119.341 60.4571 119.002C60.1623 118.662 59.7682 118.492 59.2748 118.492C58.7879 118.492 58.3938 118.662 58.0926 119.002C57.7914 119.341 57.6409 119.793 57.6409 120.357C57.6409 120.735 57.7081 121.068 57.8427 121.357C57.9773 121.645 58.1663 121.872 58.4098 122.039C58.6597 122.199 58.9481 122.279 59.2748 122.279ZM62.8502 122.837V117.935H63.5711V119.088H63.6192V122.837H62.8502ZM66.3585 122.837V119.627C66.3585 119.255 66.2656 118.976 66.0797 118.79C65.8939 118.604 65.6184 118.512 65.2531 118.512C64.9327 118.512 64.6476 118.582 64.3977 118.723C64.1542 118.864 63.962 119.059 63.821 119.309C63.6864 119.559 63.6192 119.851 63.6192 120.184L63.4942 119.021C63.6608 118.656 63.9139 118.367 64.2535 118.156C64.5995 117.944 64.9904 117.839 65.4261 117.839C65.9388 117.839 66.3489 117.986 66.6564 118.281C66.9704 118.569 67.1274 118.95 67.1274 119.425V122.837H66.3585ZM70.2481 122.933C69.6458 122.933 69.1652 122.795 68.8064 122.52C68.4475 122.238 68.2425 121.84 68.1912 121.328H68.9313C68.9762 121.642 69.1139 121.882 69.3446 122.049C69.5753 122.215 69.8829 122.299 70.2673 122.299C70.6069 122.299 70.8729 122.234 71.0651 122.106C71.2573 121.978 71.3535 121.796 71.3535 121.558C71.3535 121.392 71.299 121.248 71.1901 121.126C71.0811 120.998 70.8633 120.892 70.5365 120.809L69.7483 120.607C69.2998 120.492 68.9634 120.315 68.7391 120.078C68.5148 119.835 68.4027 119.546 68.4027 119.213C68.4027 118.79 68.5597 118.457 68.8736 118.214C69.1876 117.964 69.6137 117.839 70.152 117.839C70.6838 117.839 71.1164 117.967 71.4496 118.223C71.7828 118.48 71.9718 118.835 72.0167 119.29H71.2766C71.2317 119.027 71.11 118.826 70.9113 118.685C70.7127 118.544 70.45 118.473 70.1232 118.473C69.8092 118.473 69.5657 118.534 69.3927 118.656C69.2197 118.771 69.1332 118.938 69.1332 119.156C69.1332 119.322 69.194 119.466 69.3158 119.588C69.4439 119.71 69.6554 119.812 69.9502 119.896L70.7191 120.107C71.174 120.229 71.5169 120.415 71.7475 120.665C71.9782 120.914 72.0935 121.216 72.0935 121.568C72.0935 121.997 71.9302 122.334 71.6034 122.577C71.2766 122.814 70.8248 122.933 70.2481 122.933ZM74.7895 122.933C74.4691 122.933 74.184 122.869 73.9341 122.741C73.6842 122.606 73.4888 122.42 73.3478 122.183C73.2068 121.94 73.1363 121.661 73.1363 121.347V117.935H73.9053V121.145C73.9053 121.517 73.995 121.796 74.1744 121.981C74.3602 122.167 74.6229 122.26 74.9625 122.26C75.2701 122.26 75.5424 122.19 75.7795 122.049C76.0166 121.908 76.2024 121.712 76.337 121.462C76.478 121.206 76.5485 120.914 76.5485 120.588L76.6734 121.751C76.5132 122.116 76.2633 122.404 75.9237 122.616C75.5841 122.827 75.206 122.933 74.7895 122.933ZM76.5965 122.837V121.683H76.5485V117.935H77.3174V122.837H76.5965ZM78.854 122.837V115.916H79.6229V122.837H78.854ZM83.1238 122.923C82.5791 122.923 82.1819 122.802 81.932 122.558C81.6885 122.308 81.5667 121.949 81.5667 121.482V116.791L82.3356 116.503V121.472C82.3356 121.747 82.4061 121.949 82.5471 122.077C82.6881 122.206 82.9188 122.27 83.2391 122.27C83.3673 122.27 83.4762 122.263 83.5659 122.25C83.6621 122.231 83.7389 122.209 83.7966 122.183V122.837C83.7325 122.862 83.6396 122.882 83.5179 122.894C83.4025 122.914 83.2712 122.923 83.1238 122.923ZM80.5575 118.588V117.935H83.7966V118.588H80.5575ZM87.7946 122.837C87.769 122.728 87.7498 122.603 87.7369 122.462C87.7305 122.321 87.7273 122.142 87.7273 121.924H87.6793V119.578C87.6793 119.207 87.5928 118.934 87.4198 118.761C87.2532 118.582 86.9808 118.492 86.6028 118.492C86.2311 118.492 85.9332 118.569 85.7089 118.723C85.491 118.87 85.3693 119.082 85.3436 119.357H84.6035C84.6356 118.883 84.8342 118.512 85.1995 118.242C85.5647 117.973 86.0421 117.839 86.6316 117.839C87.2403 117.839 87.6921 117.983 87.9868 118.271C88.2816 118.56 88.429 118.992 88.429 119.569V121.924C88.429 122.065 88.4386 122.212 88.4578 122.366C88.477 122.513 88.5027 122.67 88.5347 122.837H87.7946ZM86.1126 122.933C85.6064 122.933 85.2027 122.811 84.9015 122.568C84.6067 122.318 84.4594 121.978 84.4594 121.549C84.4594 121.12 84.6067 120.786 84.9015 120.549C85.1963 120.312 85.6256 120.146 86.1895 120.049L87.9003 119.761V120.395L86.3048 120.645C85.946 120.703 85.6736 120.799 85.4878 120.934C85.302 121.068 85.2091 121.264 85.2091 121.52C85.2091 121.77 85.2924 121.959 85.459 122.087C85.632 122.215 85.8851 122.279 86.2183 122.279C86.6476 122.279 86.9968 122.183 87.266 121.991C87.5415 121.792 87.6793 121.536 87.6793 121.222L87.8042 121.904C87.7017 122.231 87.4999 122.484 87.1987 122.664C86.9039 122.843 86.5419 122.933 86.1126 122.933ZM40.98 132.837V127.935H41.7009V129.088H41.7489V132.837H40.98ZM44.2864 132.837V129.588C44.2864 129.216 44.2031 128.944 44.0365 128.771C43.8699 128.598 43.6296 128.512 43.3156 128.512C43.0209 128.512 42.7549 128.582 42.5178 128.723C42.2808 128.864 42.0917 129.059 41.9508 129.309C41.8162 129.559 41.7489 129.851 41.7489 130.184L41.624 129.021C41.7906 128.656 42.0405 128.367 42.3737 128.156C42.7069 127.944 43.0689 127.839 43.4598 127.839C43.934 127.839 44.3184 127.98 44.6132 128.262C44.9079 128.537 45.0553 128.912 45.0553 129.386V132.837H44.2864ZM47.5928 132.837V129.588C47.5928 129.216 47.5095 128.944 47.3429 128.771C47.1763 128.598 46.936 128.512 46.622 128.512C46.3273 128.512 46.0613 128.582 45.8243 128.723C45.5872 128.864 45.3981 129.059 45.2572 129.309C45.1226 129.559 45.0553 129.851 45.0553 130.184L44.8631 129.021C45.0297 128.656 45.286 128.367 45.632 128.156C45.978 127.944 46.3497 127.839 46.747 127.839C47.2211 127.839 47.6088 127.98 47.91 128.262C48.2111 128.537 48.3617 128.912 48.3617 129.386V132.837H47.5928ZM52.821 132.837C52.7954 132.728 52.7761 132.603 52.7633 132.462C52.7569 132.321 52.7537 132.142 52.7537 131.924H52.7057V129.578C52.7057 129.207 52.6192 128.934 52.4461 128.761C52.2795 128.582 52.0072 128.492 51.6292 128.492C51.2575 128.492 50.9595 128.569 50.7353 128.723C50.5174 128.87 50.3957 129.082 50.37 129.357H49.6299C49.662 128.883 49.8606 128.512 50.2259 128.242C50.5911 127.973 51.0685 127.839 51.658 127.839C52.2667 127.839 52.7185 127.983 53.0132 128.271C53.308 128.56 53.4554 128.992 53.4554 129.569V131.924C53.4554 132.065 53.465 132.212 53.4842 132.366C53.5034 132.513 53.5291 132.67 53.5611 132.837H52.821ZM51.139 132.933C50.6328 132.933 50.2291 132.811 49.9279 132.568C49.6331 132.318 49.4858 131.978 49.4858 131.549C49.4858 131.12 49.6331 130.786 49.9279 130.549C50.2227 130.312 50.652 130.146 51.2159 130.049L52.9267 129.761V130.395L51.3312 130.645C50.9724 130.703 50.7 130.799 50.5142 130.934C50.3284 131.068 50.2355 131.264 50.2355 131.52C50.2355 131.77 50.3188 131.959 50.4854 132.087C50.6584 132.215 50.9115 132.279 51.2447 132.279C51.674 132.279 52.0232 132.183 52.2924 131.991C52.5679 131.792 52.7057 131.536 52.7057 131.222L52.8306 131.904C52.7281 132.231 52.5262 132.484 52.2251 132.664C51.9303 132.843 51.5683 132.933 51.139 132.933ZM54.9375 132.837V127.935H55.6584V129.184H55.7064V132.837H54.9375ZM55.7064 130.28L55.5815 129.117C55.6968 128.701 55.9019 128.383 56.1966 128.166C56.4914 127.948 56.831 127.839 57.2155 127.839C57.3757 127.839 57.4846 127.852 57.5423 127.877V128.617C57.5102 128.604 57.4654 128.598 57.4077 128.598C57.35 128.592 57.2796 128.588 57.1963 128.588C56.7093 128.588 56.3376 128.736 56.0813 129.031C55.8314 129.319 55.7064 129.735 55.7064 130.28ZM60.3145 132.933C59.8659 132.933 59.4655 132.824 59.113 132.606C58.767 132.382 58.4915 132.077 58.2864 131.693C58.0878 131.302 57.9885 130.86 57.9885 130.367C57.9885 129.873 58.0878 129.437 58.2864 129.059C58.4915 128.681 58.767 128.383 59.113 128.166C59.4655 127.948 59.8627 127.839 60.3049 127.839C60.6701 127.839 60.9969 127.909 61.2853 128.05C61.58 128.191 61.8203 128.393 62.0061 128.656C62.1984 128.912 62.3201 129.213 62.3714 129.559H61.6601C61.596 129.245 61.4487 128.989 61.218 128.79C60.9873 128.592 60.6893 128.492 60.3241 128.492C60.0101 128.492 59.7378 128.569 59.5071 128.723C59.2764 128.877 59.097 129.095 58.9688 129.377C58.8407 129.659 58.7766 129.989 58.7766 130.367C58.7766 130.745 58.8407 131.078 58.9688 131.366C59.097 131.655 59.2764 131.879 59.5071 132.039C59.7442 132.199 60.0197 132.279 60.3337 132.279C60.6861 132.279 60.9809 132.183 61.218 131.991C61.4551 131.792 61.6056 131.536 61.6697 131.222H62.381C62.3233 131.562 62.1952 131.863 61.9965 132.126C61.8043 132.382 61.564 132.58 61.2756 132.721C60.9873 132.862 60.6669 132.933 60.3145 132.933ZM66.4876 132.837C66.4619 132.728 66.4427 132.603 66.4299 132.462C66.4235 132.321 66.4203 132.142 66.4203 131.924H66.3722V129.578C66.3722 129.207 66.2857 128.934 66.1127 128.761C65.9461 128.582 65.6738 128.492 65.2957 128.492C64.9241 128.492 64.6261 128.569 64.4018 128.723C64.184 128.87 64.0622 129.082 64.0366 129.357H63.2965C63.3285 128.883 63.5272 128.512 63.8924 128.242C64.2577 127.973 64.735 127.839 65.3245 127.839C65.9333 127.839 66.385 127.983 66.6798 128.271C66.9745 128.56 67.1219 128.992 67.1219 129.569V131.924C67.1219 132.065 67.1315 132.212 67.1508 132.366C67.17 132.513 67.1956 132.67 67.2277 132.837H66.4876ZM64.8055 132.933C64.2993 132.933 63.8956 132.811 63.5945 132.568C63.2997 132.318 63.1523 131.978 63.1523 131.549C63.1523 131.12 63.2997 130.786 63.5945 130.549C63.8892 130.312 64.3185 130.146 64.8824 130.049L66.5933 129.761V130.395L64.9978 130.645C64.6389 130.703 64.3666 130.799 64.1808 130.934C63.9949 131.068 63.902 131.264 63.902 131.52C63.902 131.77 63.9853 131.959 64.1519 132.087C64.3249 132.215 64.578 132.279 64.9112 132.279C65.3406 132.279 65.6898 132.183 65.9589 131.991C66.2345 131.792 66.3722 131.536 66.3722 131.222L66.4972 131.904C66.3946 132.231 66.1928 132.484 65.8916 132.664C65.5969 132.843 65.2348 132.933 64.8055 132.933ZM72.17 132.837V131.693L72.2661 131.722C72.1444 132.093 71.9201 132.388 71.5933 132.606C71.2729 132.824 70.8884 132.933 70.4399 132.933C69.9978 132.933 69.6101 132.827 69.2769 132.616C68.9501 132.404 68.6938 132.11 68.508 131.731C68.3285 131.353 68.2388 130.911 68.2388 130.405C68.2388 129.892 68.3317 129.444 68.5176 129.059C68.7034 128.675 68.9629 128.377 69.2961 128.166C69.6293 127.954 70.0202 127.848 70.4687 127.848C70.9301 127.848 71.3178 127.96 71.6317 128.185C71.9457 128.409 72.1604 128.726 72.2757 129.136L72.1219 129.156V125.916H72.8909V132.837H72.17ZM70.5841 132.26C71.0775 132.26 71.4619 132.093 71.7375 131.76C72.0194 131.421 72.1604 130.959 72.1604 130.376C72.1604 129.806 72.0194 129.354 71.7375 129.021C71.4555 128.688 71.0711 128.521 70.5841 128.521C70.0971 128.521 69.7158 128.688 69.4403 129.021C69.1647 129.354 69.027 129.816 69.027 130.405C69.027 130.982 69.1647 131.437 69.4403 131.77C69.7158 132.097 70.0971 132.26 70.5841 132.26ZM77.4414 132.837C77.4158 132.728 77.3966 132.603 77.3838 132.462C77.3774 132.321 77.3742 132.142 77.3742 131.924H77.3261V129.578C77.3261 129.207 77.2396 128.934 77.0666 128.761C76.9 128.582 76.6277 128.492 76.2496 128.492C75.878 128.492 75.58 128.569 75.3557 128.723C75.1379 128.87 75.0161 129.082 74.9905 129.357H74.2504C74.2824 128.883 74.4811 128.512 74.8463 128.242C75.2115 127.973 75.6889 127.839 76.2784 127.839C76.8872 127.839 77.3389 127.983 77.6337 128.271C77.9284 128.56 78.0758 128.992 78.0758 129.569V131.924C78.0758 132.065 78.0854 132.212 78.1046 132.366C78.1239 132.513 78.1495 132.67 78.1815 132.837H77.4414ZM75.7594 132.933C75.2532 132.933 74.8495 132.811 74.5483 132.568C74.2536 132.318 74.1062 131.978 74.1062 131.549C74.1062 131.12 74.2536 130.786 74.5483 130.549C74.8431 130.312 75.2724 130.146 75.8363 130.049L77.5472 129.761V130.395L75.9516 130.645C75.5928 130.703 75.3205 130.799 75.1347 130.934C74.9488 131.068 74.8559 131.264 74.8559 131.52C74.8559 131.77 74.9392 131.959 75.1058 132.087C75.2788 132.215 75.5319 132.279 75.8651 132.279C76.2945 132.279 76.6437 132.183 76.9128 131.991C77.1883 131.792 77.3261 131.536 77.3261 131.222L77.4511 131.904C77.3485 132.231 77.1467 132.484 76.8455 132.664C76.5508 132.843 76.1887 132.933 75.7594 132.933Z" fill="#384769"/>
<circle cx="59.5004" cy="151.325" r="6.55357" fill="#D7E8EF"/>
<path d="M44.6293 168.609V167.916H46.4843C47.061 167.916 47.5576 167.801 47.9741 167.57C48.3906 167.333 48.711 167.003 48.9353 166.58C49.1596 166.158 49.2717 165.667 49.2717 165.11C49.2717 164.559 49.1596 164.078 48.9353 163.668C48.711 163.258 48.3906 162.941 47.9741 162.717C47.564 162.492 47.0674 162.38 46.4843 162.38H44.6293V161.688H46.4843C47.2084 161.688 47.8396 161.832 48.3778 162.121C48.9161 162.403 49.3326 162.803 49.6273 163.322C49.9285 163.835 50.0791 164.437 50.0791 165.129C50.0791 165.821 49.9285 166.43 49.6273 166.955C49.3262 167.474 48.9065 167.881 48.3682 168.176C47.8364 168.464 47.2116 168.609 46.4939 168.609H44.6293ZM44.1583 168.609V161.688H44.9465V168.609H44.1583ZM51.3281 168.609V163.707H52.0971V168.609H51.3281ZM51.2705 162.592V161.688H52.1547V162.592H51.2705ZM56.6175 168.609C56.5918 168.5 56.5726 168.375 56.5598 168.234C56.5534 168.093 56.5502 167.913 56.5502 167.695H56.5021V165.35C56.5021 164.979 56.4156 164.706 56.2426 164.533C56.076 164.354 55.8037 164.264 55.4256 164.264C55.054 164.264 54.756 164.341 54.5317 164.495C54.3139 164.642 54.1921 164.854 54.1665 165.129H53.4264C53.4584 164.655 53.6571 164.283 54.0223 164.014C54.3876 163.745 54.865 163.61 55.4545 163.61C56.0632 163.61 56.5149 163.755 56.8097 164.043C57.1045 164.331 57.2518 164.764 57.2518 165.341V167.695C57.2518 167.836 57.2615 167.984 57.2807 168.138C57.2999 168.285 57.3255 168.442 57.3576 168.609H56.6175ZM54.9354 168.705C54.4292 168.705 54.0255 168.583 53.7244 168.339C53.4296 168.089 53.2822 167.75 53.2822 167.321C53.2822 166.891 53.4296 166.558 53.7244 166.321C54.0191 166.084 54.4484 165.917 55.0123 165.821L56.7232 165.533V166.167L55.1277 166.417C54.7688 166.475 54.4965 166.571 54.3107 166.705C54.1249 166.84 54.0319 167.035 54.0319 167.292C54.0319 167.542 54.1152 167.731 54.2818 167.859C54.4549 167.987 54.708 168.051 55.0412 168.051C55.4705 168.051 55.8197 167.955 56.0888 167.763C56.3644 167.564 56.5021 167.308 56.5021 166.994L56.6271 167.676C56.5246 168.003 56.3227 168.256 56.0216 168.436C55.7268 168.615 55.3648 168.705 54.9354 168.705ZM60.378 168.705C59.7757 168.705 59.2951 168.567 58.9363 168.291C58.5774 168.009 58.3724 167.612 58.3211 167.099H59.0612C59.1061 167.413 59.2439 167.654 59.4745 167.82C59.7052 167.987 60.0128 168.07 60.3973 168.07C60.7369 168.07 61.0028 168.006 61.195 167.878C61.3872 167.75 61.4834 167.567 61.4834 167.33C61.4834 167.164 61.4289 167.019 61.32 166.898C61.211 166.769 60.9932 166.664 60.6664 166.58L59.8782 166.379C59.4297 166.263 59.0933 166.087 58.869 165.85C58.6447 165.606 58.5326 165.318 58.5326 164.985C58.5326 164.562 58.6896 164.229 59.0036 163.985C59.3175 163.735 59.7437 163.61 60.2819 163.61C60.8138 163.61 61.2463 163.739 61.5795 163.995C61.9127 164.251 62.1017 164.607 62.1466 165.062H61.4065C61.3616 164.799 61.2399 164.597 61.0412 164.456C60.8426 164.315 60.5799 164.245 60.2531 164.245C59.9391 164.245 59.6956 164.306 59.5226 164.427C59.3496 164.543 59.2631 164.709 59.2631 164.927C59.2631 165.094 59.324 165.238 59.4457 165.36C59.5739 165.482 59.7853 165.584 60.0801 165.667L60.849 165.879C61.3039 166.001 61.6468 166.186 61.8774 166.436C62.1081 166.686 62.2235 166.987 62.2235 167.34C62.2235 167.769 62.0601 168.106 61.7333 168.349C61.4065 168.586 60.9547 168.705 60.378 168.705ZM68.7483 168.609V167.465L68.8445 167.494C68.7227 167.865 68.4984 168.16 68.1716 168.378C67.8513 168.596 67.4668 168.705 67.0182 168.705C66.5761 168.705 66.1884 168.599 65.8552 168.387C65.5284 168.176 65.2721 167.881 65.0863 167.503C64.9069 167.125 64.8172 166.683 64.8172 166.177C64.8172 165.664 64.9101 165.216 65.0959 164.831C65.2817 164.447 65.5413 164.149 65.8745 163.937C66.2077 163.726 66.5985 163.62 67.0471 163.62C67.5084 163.62 67.8961 163.732 68.2101 163.956C68.5241 164.181 68.7387 164.498 68.8541 164.908L68.7003 164.927V161.688H69.4692V168.609H68.7483ZM67.1624 168.032C67.6558 168.032 68.0403 167.865 68.3158 167.532C68.5978 167.192 68.7387 166.731 68.7387 166.148C68.7387 165.578 68.5978 165.126 68.3158 164.793C68.0339 164.459 67.6494 164.293 67.1624 164.293C66.6754 164.293 66.2942 164.459 66.0186 164.793C65.7431 165.126 65.6053 165.587 65.6053 166.177C65.6053 166.753 65.7431 167.208 66.0186 167.542C66.2942 167.868 66.6754 168.032 67.1624 168.032ZM73.0202 168.705C72.5524 168.705 72.1391 168.596 71.7803 168.378C71.4215 168.154 71.1395 167.849 70.9345 167.465C70.7294 167.08 70.6269 166.638 70.6269 166.138C70.6269 165.639 70.7262 165.2 70.9249 164.822C71.1299 164.437 71.415 164.139 71.7803 163.928C72.1455 163.716 72.5652 163.61 73.0394 163.61C73.4944 163.61 73.8884 163.71 74.2216 163.908C74.5613 164.107 74.8208 164.386 75.0002 164.745C75.186 165.103 75.2789 165.526 75.2789 166.013C75.2789 166.077 75.2757 166.138 75.2693 166.196C75.2693 166.254 75.2629 166.318 75.2501 166.388H71.2036V165.744H74.7791L74.5292 166.1C74.5292 165.51 74.3979 165.059 74.1351 164.745C73.8788 164.424 73.5136 164.264 73.0394 164.264C72.5524 164.264 72.1583 164.434 71.8572 164.773C71.5624 165.107 71.415 165.558 71.415 166.129C71.415 166.712 71.5624 167.18 71.8572 167.532C72.1583 167.878 72.5588 168.051 73.0586 168.051C73.3726 168.051 73.6481 167.984 73.8852 167.849C74.1223 167.708 74.2953 167.51 74.4043 167.253H75.1347C74.9746 167.702 74.7054 168.057 74.3274 168.32C73.9557 168.576 73.52 168.705 73.0202 168.705ZM27.989 179.609C27.9634 179.5 27.9442 179.375 27.9314 179.234C27.925 179.093 27.9218 178.913 27.9218 178.695H27.8737V176.35C27.8737 175.979 27.7872 175.706 27.6142 175.533C27.4476 175.354 27.1753 175.264 26.7972 175.264C26.4256 175.264 26.1276 175.341 25.9033 175.495C25.6855 175.642 25.5637 175.854 25.5381 176.129H24.798C24.83 175.655 25.0287 175.283 25.3939 175.014C25.7591 174.745 26.2365 174.61 26.826 174.61C27.4348 174.61 27.8865 174.755 28.1813 175.043C28.476 175.331 28.6234 175.764 28.6234 176.341V178.695C28.6234 178.836 28.633 178.984 28.6522 179.138C28.6715 179.285 28.6971 179.442 28.7291 179.609H27.989ZM26.307 179.705C25.8008 179.705 25.3971 179.583 25.0959 179.339C24.8012 179.089 24.6538 178.75 24.6538 178.321C24.6538 177.891 24.8012 177.558 25.0959 177.321C25.3907 177.084 25.82 176.917 26.3839 176.821L28.0948 176.533V177.167L26.4992 177.417C26.1404 177.475 25.8681 177.571 25.6823 177.705C25.4964 177.84 25.4035 178.035 25.4035 178.292C25.4035 178.542 25.4868 178.731 25.6534 178.859C25.8264 178.987 26.0795 179.051 26.4127 179.051C26.8421 179.051 27.1913 178.955 27.4604 178.763C27.7359 178.564 27.8737 178.308 27.8737 177.994L27.9987 178.676C27.8961 179.003 27.6943 179.256 27.3931 179.436C27.0984 179.615 26.7363 179.705 26.307 179.705ZM32.0567 181.675C31.4736 181.675 30.9866 181.537 30.5958 181.262C30.2113 180.993 29.9774 180.634 29.8941 180.185H30.6246C30.6951 180.442 30.8521 180.643 31.0956 180.791C31.3455 180.945 31.6819 181.021 32.1048 181.021C32.6046 181.021 32.9826 180.884 33.239 180.608C33.4953 180.339 33.6234 179.942 33.6234 179.416V178.369L33.7195 178.388C33.6106 178.759 33.3927 179.057 33.0659 179.282C32.7391 179.5 32.3515 179.609 31.9029 179.609C31.4736 179.609 31.0956 179.506 30.7688 179.301C30.442 179.089 30.1889 178.798 30.0094 178.426C29.83 178.055 29.7403 177.622 29.7403 177.129C29.7403 176.629 29.8332 176.19 30.0191 175.812C30.2049 175.434 30.4644 175.142 30.7976 174.937C31.1372 174.726 31.5313 174.62 31.9798 174.62C32.4412 174.62 32.8257 174.732 33.1332 174.956C33.4472 175.181 33.6555 175.501 33.758 175.918L33.6715 175.927V174.707H34.3924V179.416C34.3924 180.115 34.1841 180.666 33.7676 181.069C33.3511 181.473 32.7808 181.675 32.0567 181.675ZM32.0952 178.945C32.5758 178.945 32.957 178.779 33.239 178.446C33.5209 178.112 33.6619 177.661 33.6619 177.09C33.6619 176.533 33.5209 176.094 33.239 175.773C32.957 175.447 32.5758 175.283 32.0952 175.283C31.6082 175.283 31.2237 175.447 30.9418 175.773C30.6662 176.1 30.5285 176.549 30.5285 177.119C30.5285 177.677 30.6694 178.122 30.9514 178.455C31.2333 178.782 31.6146 178.945 32.0952 178.945ZM37.9433 179.705C37.4756 179.705 37.0623 179.596 36.7034 179.378C36.3446 179.154 36.0626 178.849 35.8576 178.465C35.6526 178.08 35.55 177.638 35.55 177.138C35.55 176.639 35.6493 176.2 35.848 175.822C36.053 175.437 36.3382 175.139 36.7034 174.928C37.0687 174.716 37.4884 174.61 37.9626 174.61C38.4175 174.61 38.8116 174.71 39.1448 174.908C39.4844 175.107 39.7439 175.386 39.9233 175.745C40.1092 176.103 40.2021 176.526 40.2021 177.013C40.2021 177.077 40.1989 177.138 40.1925 177.196C40.1925 177.254 40.186 177.318 40.1732 177.388H36.1267V176.744H39.7023L39.4524 177.1C39.4524 176.51 39.321 176.059 39.0583 175.745C38.802 175.424 38.4367 175.264 37.9626 175.264C37.4756 175.264 37.0815 175.434 36.7803 175.773C36.4856 176.107 36.3382 176.558 36.3382 177.129C36.3382 177.712 36.4856 178.18 36.7803 178.532C37.0815 178.878 37.482 179.051 37.9818 179.051C38.2958 179.051 38.5713 178.984 38.8084 178.849C39.0455 178.708 39.2185 178.51 39.3274 178.253H40.0579C39.8977 178.702 39.6286 179.057 39.2505 179.32C38.8789 179.576 38.4431 179.705 37.9433 179.705ZM41.3598 179.609V174.707H42.0807V175.86H42.1287V179.609H41.3598ZM44.8681 179.609V176.398C44.8681 176.027 44.7752 175.748 44.5893 175.562C44.4035 175.376 44.128 175.283 43.7627 175.283C43.4423 175.283 43.1572 175.354 42.9073 175.495C42.6638 175.636 42.4716 175.831 42.3306 176.081C42.196 176.331 42.1287 176.623 42.1287 176.956L42.0038 175.793C42.1704 175.427 42.4235 175.139 42.7631 174.928C43.1091 174.716 43.5 174.61 43.9357 174.61C44.4484 174.61 44.8585 174.758 45.166 175.053C45.48 175.341 45.637 175.722 45.637 176.196V179.609H44.8681ZM50.6796 179.609V178.465L50.7757 178.494C50.6539 178.865 50.4297 179.16 50.1029 179.378C49.7825 179.596 49.398 179.705 48.9495 179.705C48.5073 179.705 48.1197 179.599 47.7865 179.387C47.4597 179.176 47.2034 178.881 47.0175 178.503C46.8381 178.125 46.7484 177.683 46.7484 177.177C46.7484 176.664 46.8413 176.216 47.0272 175.831C47.213 175.447 47.4725 175.149 47.8057 174.937C48.1389 174.726 48.5298 174.62 48.9783 174.62C49.4397 174.62 49.8273 174.732 50.1413 174.956C50.4553 175.181 50.67 175.498 50.7853 175.908L50.6315 175.927V172.688H51.4005V179.609H50.6796ZM49.0937 179.032C49.5871 179.032 49.9715 178.865 50.2471 178.532C50.529 178.192 50.67 177.731 50.67 177.148C50.67 176.578 50.529 176.126 50.2471 175.793C49.9651 175.459 49.5806 175.293 49.0937 175.293C48.6067 175.293 48.2254 175.459 47.9499 175.793C47.6743 176.126 47.5366 176.587 47.5366 177.177C47.5366 177.753 47.6743 178.208 47.9499 178.542C48.2254 178.868 48.6067 179.032 49.0937 179.032ZM55.951 179.609C55.9254 179.5 55.9062 179.375 55.8934 179.234C55.887 179.093 55.8838 178.913 55.8838 178.695H55.8357V176.35C55.8357 175.979 55.7492 175.706 55.5762 175.533C55.4096 175.354 55.1373 175.264 54.7592 175.264C54.3875 175.264 54.0896 175.341 53.8653 175.495C53.6474 175.642 53.5257 175.854 53.5001 176.129H52.76C52.792 175.655 52.9907 175.283 53.3559 175.014C53.7211 174.745 54.1985 174.61 54.788 174.61C55.3968 174.61 55.8485 174.755 56.1433 175.043C56.438 175.331 56.5854 175.764 56.5854 176.341V178.695C56.5854 178.836 56.595 178.984 56.6142 179.138C56.6335 179.285 56.6591 179.442 56.6911 179.609H55.951ZM54.269 179.705C53.7628 179.705 53.3591 179.583 53.0579 179.339C52.7632 179.089 52.6158 178.75 52.6158 178.321C52.6158 177.891 52.7632 177.558 53.0579 177.321C53.3527 177.084 53.782 176.917 54.3459 176.821L56.0568 176.533V177.167L54.4612 177.417C54.1024 177.475 53.8301 177.571 53.6442 177.705C53.4584 177.84 53.3655 178.035 53.3655 178.292C53.3655 178.542 53.4488 178.731 53.6154 178.859C53.7884 178.987 54.0415 179.051 54.3747 179.051C54.8041 179.051 55.1533 178.955 55.4224 178.763C55.6979 178.564 55.8357 178.308 55.8357 177.994L55.9607 178.676C55.8581 179.003 55.6563 179.256 55.3551 179.436C55.0604 179.615 54.6983 179.705 54.269 179.705ZM60.3954 179.609V174.015C60.3954 173.566 60.5236 173.217 60.7799 172.967C61.0426 172.717 61.4399 172.592 61.9718 172.592C62.0999 172.592 62.1992 172.598 62.2697 172.611C62.3466 172.624 62.4107 172.64 62.462 172.659V173.265C62.4171 173.252 62.353 173.239 62.2697 173.226C62.1928 173.214 62.1095 173.207 62.0198 173.207C61.7251 173.207 61.5072 173.281 61.3662 173.428C61.2317 173.576 61.1644 173.784 61.1644 174.053V179.609H60.3954ZM59.3862 175.36V174.707H62.3562V175.36H59.3862ZM65.2107 179.705C64.743 179.705 64.3297 179.596 63.9708 179.378C63.612 179.154 63.3301 178.849 63.125 178.465C62.92 178.08 62.8174 177.638 62.8174 177.138C62.8174 176.639 62.9168 176.2 63.1154 175.822C63.3204 175.437 63.6056 175.139 63.9708 174.928C64.3361 174.716 64.7558 174.61 65.23 174.61C65.6849 174.61 66.079 174.71 66.4122 174.908C66.7518 175.107 67.0113 175.386 67.1907 175.745C67.3766 176.103 67.4695 176.526 67.4695 177.013C67.4695 177.077 67.4663 177.138 67.4599 177.196C67.4599 177.254 67.4534 177.318 67.4406 177.388H63.3941V176.744H66.9697L66.7198 177.1C66.7198 176.51 66.5884 176.059 66.3257 175.745C66.0694 175.424 65.7041 175.264 65.23 175.264C64.743 175.264 64.3489 175.434 64.0477 175.773C63.753 176.107 63.6056 176.558 63.6056 177.129C63.6056 177.712 63.753 178.18 64.0477 178.532C64.3489 178.878 64.7494 179.051 65.2492 179.051C65.5632 179.051 65.8387 178.984 66.0758 178.849C66.3129 178.708 66.4859 178.51 66.5948 178.253H67.3253C67.1651 178.702 66.896 179.057 66.5179 179.32C66.1463 179.576 65.7105 179.705 65.2107 179.705ZM70.5688 179.705C70.1202 179.705 69.7197 179.596 69.3673 179.378C69.0213 179.154 68.7458 178.849 68.5407 178.465C68.3421 178.074 68.2427 177.632 68.2427 177.138C68.2427 176.645 68.3421 176.209 68.5407 175.831C68.7458 175.453 69.0213 175.155 69.3673 174.937C69.7197 174.719 70.117 174.61 70.5592 174.61C70.9244 174.61 71.2512 174.681 71.5395 174.822C71.8343 174.963 72.0746 175.165 72.2604 175.427C72.4526 175.684 72.5744 175.985 72.6257 176.331H71.9144C71.8503 176.017 71.7029 175.761 71.4723 175.562C71.2416 175.363 70.9436 175.264 70.5784 175.264C70.2644 175.264 69.9921 175.341 69.7614 175.495C69.5307 175.649 69.3513 175.866 69.2231 176.148C69.095 176.43 69.0309 176.76 69.0309 177.138C69.0309 177.516 69.095 177.85 69.2231 178.138C69.3513 178.426 69.5307 178.651 69.7614 178.811C69.9985 178.971 70.274 179.051 70.588 179.051C70.9404 179.051 71.2352 178.955 71.4723 178.763C71.7093 178.564 71.8599 178.308 71.924 177.994H72.6353C72.5776 178.333 72.4494 178.635 72.2508 178.897C72.0586 179.154 71.8183 179.352 71.5299 179.493C71.2416 179.634 70.9212 179.705 70.5688 179.705ZM73.7522 179.609V172.688H74.5211V179.609H73.7522ZM77.2604 179.609V176.398C77.2604 176.027 77.1675 175.748 76.9817 175.562C76.7959 175.376 76.5203 175.283 76.1551 175.283C75.8347 175.283 75.5496 175.354 75.2996 175.495C75.0562 175.636 74.8639 175.831 74.7229 176.081C74.5884 176.331 74.5211 176.623 74.5211 176.956L74.3962 175.793C74.5628 175.427 74.8159 175.139 75.1555 174.928C75.5015 174.716 75.8924 174.61 76.3281 174.61C76.8407 174.61 77.2508 174.758 77.5584 175.053C77.8724 175.341 78.0294 175.722 78.0294 176.196V179.609H77.2604ZM82.4863 179.609C82.4607 179.5 82.4414 179.375 82.4286 179.234C82.4222 179.093 82.419 178.913 82.419 178.695H82.371V176.35C82.371 175.979 82.2845 175.706 82.1114 175.533C81.9448 175.354 81.6725 175.264 81.2945 175.264C80.9228 175.264 80.6248 175.341 80.4006 175.495C80.1827 175.642 80.061 175.854 80.0353 176.129H79.2952C79.3273 175.655 79.5259 175.283 79.8912 175.014C80.2564 174.745 80.7338 174.61 81.3233 174.61C81.932 174.61 82.3838 174.755 82.6785 175.043C82.9733 175.331 83.1207 175.764 83.1207 176.341V178.695C83.1207 178.836 83.1303 178.984 83.1495 179.138C83.1687 179.285 83.1944 179.442 83.2264 179.609H82.4863ZM80.8043 179.705C80.2981 179.705 79.8944 179.583 79.5932 179.339C79.2984 179.089 79.1511 178.75 79.1511 178.321C79.1511 177.891 79.2984 177.558 79.5932 177.321C79.888 177.084 80.3173 176.917 80.8812 176.821L82.592 176.533V177.167L80.9965 177.417C80.6377 177.475 80.3653 177.571 80.1795 177.705C79.9937 177.84 79.9008 178.035 79.9008 178.292C79.9008 178.542 79.9841 178.731 80.1507 178.859C80.3237 178.987 80.5768 179.051 80.91 179.051C81.3393 179.051 81.6885 178.955 81.9577 178.763C82.2332 178.564 82.371 178.308 82.371 177.994L82.4959 178.676C82.3934 179.003 82.1915 179.256 81.8904 179.436C81.5956 179.615 81.2336 179.705 80.8043 179.705ZM88.1687 179.609V178.465L88.2649 178.494C88.1431 178.865 87.9188 179.16 87.592 179.378C87.2716 179.596 86.8872 179.705 86.4386 179.705C85.9965 179.705 85.6088 179.599 85.2756 179.387C84.9488 179.176 84.6925 178.881 84.5067 178.503C84.3273 178.125 84.2376 177.683 84.2376 177.177C84.2376 176.664 84.3305 176.216 84.5163 175.831C84.7021 175.447 84.9617 175.149 85.2949 174.937C85.6281 174.726 86.0189 174.62 86.4675 174.62C86.9288 174.62 87.3165 174.732 87.6305 174.956C87.9445 175.181 88.1591 175.498 88.2745 175.908L88.1207 175.927V172.688H88.8896V179.609H88.1687ZM86.5828 179.032C87.0762 179.032 87.4607 178.865 87.7362 178.532C88.0182 178.192 88.1591 177.731 88.1591 177.148C88.1591 176.578 88.0182 176.126 87.7362 175.793C87.4543 175.459 87.0698 175.293 86.5828 175.293C86.0958 175.293 85.7146 175.459 85.439 175.793C85.1635 176.126 85.0257 176.587 85.0257 177.177C85.0257 177.753 85.1635 178.208 85.439 178.542C85.7146 178.868 86.0958 179.032 86.5828 179.032ZM93.4402 179.609C93.4146 179.5 93.3953 179.375 93.3825 179.234C93.3761 179.093 93.3729 178.913 93.3729 178.695H93.3249V176.35C93.3249 175.979 93.2383 175.706 93.0653 175.533C92.8987 175.354 92.6264 175.264 92.2484 175.264C91.8767 175.264 91.5787 175.341 91.3545 175.495C91.1366 175.642 91.0149 175.854 90.9892 176.129H90.2491C90.2812 175.655 90.4798 175.283 90.8451 175.014C91.2103 174.745 91.6877 174.61 92.2772 174.61C92.8859 174.61 93.3377 174.755 93.6324 175.043C93.9272 175.331 94.0746 175.764 94.0746 176.341V178.695C94.0746 178.836 94.0842 178.984 94.1034 179.138C94.1226 179.285 94.1483 179.442 94.1803 179.609H93.4402ZM91.7582 179.705C91.2519 179.705 90.8483 179.583 90.5471 179.339C90.2523 179.089 90.105 178.75 90.105 178.321C90.105 177.891 90.2523 177.558 90.5471 177.321C90.8418 177.084 91.2712 176.917 91.8351 176.821L93.5459 176.533V177.167L91.9504 177.417C91.5916 177.475 91.3192 177.571 91.1334 177.705C90.9476 177.84 90.8547 178.035 90.8547 178.292C90.8547 178.542 90.938 178.731 91.1046 178.859C91.2776 178.987 91.5307 179.051 91.8639 179.051C92.2932 179.051 92.6424 178.955 92.9116 178.763C93.1871 178.564 93.3249 178.308 93.3249 177.994L93.4498 178.676C93.3473 179.003 93.1454 179.256 92.8443 179.436C92.5495 179.615 92.1875 179.705 91.7582 179.705Z" fill="#384769"/>
<defs>
<linearGradient id="paint0_linear_2322_398" x1="53.565" y1="86.9209" x2="68.5109" y2="90.7653" gradientUnits="userSpaceOnUse">
<stop stop-color="#06C4FE"/>
<stop offset="1" stop-color="#2D5AD8"/>
</linearGradient>
</defs>
</svg>
