<svg width="357" height="250" viewBox="0 0 357 250" fill="none" xmlns="http://www.w3.org/2000/svg">
<path opacity="0.3" d="M356.768 115.385C356.87 117.398 356.936 119.419 356.971 121.449L356.475 121.458C356.492 122.47 356.5 123.484 356.5 124.5C356.5 125.516 356.492 126.53 356.475 127.542L356.971 127.55C356.936 129.58 356.87 131.601 356.768 133.614L356.27 133.59C356.166 135.618 356.029 137.638 355.857 139.647L356.352 139.688C356.179 141.714 355.972 143.73 355.731 145.735L355.239 145.677C354.998 147.686 354.723 149.686 354.415 151.674L354.908 151.749C354.597 153.759 354.25 155.758 353.871 157.746L353.383 157.653C353.004 159.643 352.591 161.621 352.146 163.587L352.629 163.696C352.18 165.675 351.699 167.642 351.185 169.596L350.704 169.47C350.188 171.428 349.64 173.374 349.059 175.306L349.535 175.449C348.95 177.394 348.333 179.324 347.684 181.24L347.212 181.08C346.562 182.996 345.88 184.898 345.167 186.784L345.632 186.959C344.914 188.857 344.164 190.739 343.384 192.605L342.926 192.415C342.145 194.282 341.333 196.134 340.49 197.968L340.941 198.175C340.095 200.018 339.218 201.845 338.311 203.653L337.865 203.431C336.958 205.238 336.021 207.027 335.055 208.798L335.493 209.037C334.521 210.818 333.518 212.58 332.487 214.323L332.06 214.07C331.031 215.811 329.972 217.532 328.886 219.234L329.304 219.501C328.213 221.21 327.094 222.899 325.946 224.567L325.537 224.286C324.392 225.952 323.218 227.598 322.018 229.222L322.417 229.517C321.212 231.147 319.981 232.757 318.722 234.344L318.332 234.034C317.076 235.617 315.793 237.179 314.484 238.718L314.865 239.042C313.552 240.586 312.212 242.105 310.848 243.604L310.48 243.269C309.12 244.763 307.734 246.233 306.323 247.68L306.679 248.026C305.264 249.477 303.825 250.904 302.362 252.307L302.02 251.948C300.561 253.346 299.078 254.72 297.572 256.068L297.903 256.438C296.394 257.789 294.863 259.116 293.308 260.416L292.988 260.034C291.439 261.33 289.867 262.6 288.273 263.843L288.58 264.236C286.983 265.482 285.365 266.701 283.725 267.894L283.432 267.49C281.798 268.678 280.143 269.838 278.468 270.971L278.745 271.383C277.068 272.517 275.371 273.622 273.654 274.7L273.391 274.279C271.681 275.353 269.951 276.398 268.202 277.414L268.452 277.844C266.702 278.861 264.932 279.851 263.145 280.811L262.909 280.372C261.131 281.326 259.335 282.251 257.521 283.146L257.741 283.594C255.927 284.489 254.095 285.354 252.247 286.188L252.042 285.734C250.203 286.565 248.347 287.366 246.475 288.136L246.662 288.596C244.791 289.365 242.904 290.103 241.002 290.811L240.829 290.346C238.94 291.048 237.035 291.72 235.115 292.359L235.272 292.831C233.353 293.471 231.42 294.08 229.473 294.656L229.332 294.178C227.397 294.75 225.449 295.291 223.487 295.799L223.611 296.28C221.656 296.787 219.688 297.26 217.707 297.701L217.6 297.217C215.632 297.655 213.652 298.061 211.661 298.434L211.753 298.923C209.764 299.296 207.764 299.637 205.752 299.943L205.678 299.45C203.689 299.753 201.689 300.023 199.679 300.26L199.736 300.754C197.731 300.99 195.715 301.193 193.689 301.362L193.648 300.868C191.639 301.037 189.619 301.172 187.591 301.273L187.614 301.771C185.601 301.872 183.58 301.937 181.55 301.971L181.543 301.475C180.531 301.491 179.516 301.5 178.5 301.5C177.484 301.5 176.469 301.491 175.457 301.475L175.449 301.971C173.419 301.937 171.398 301.872 169.385 301.771L169.409 301.273C167.381 301.172 165.361 301.037 163.352 300.868L163.31 301.362C161.284 301.193 159.268 300.99 157.263 300.754L157.321 300.26C155.311 300.023 153.311 299.753 151.322 299.45L151.247 299.943C149.235 299.637 147.235 299.296 145.246 298.923L145.339 298.434C143.348 298.061 141.368 297.655 139.4 297.217L139.292 297.701C137.311 297.26 135.343 296.787 133.388 296.28L133.513 295.799C131.551 295.291 129.603 294.75 127.668 294.178L127.526 294.656C125.579 294.08 123.646 293.471 121.727 292.831L121.885 292.359C119.965 291.72 118.06 291.048 116.171 290.346L115.997 290.811C114.095 290.103 112.208 289.365 110.337 288.596L110.525 288.136C108.653 287.366 106.797 286.565 104.958 285.734L104.752 286.188C102.904 285.354 101.072 284.489 99.2578 283.594L99.4785 283.146C97.665 282.251 95.8687 281.326 94.0908 280.372L93.8545 280.811C92.0665 279.851 90.2975 278.861 88.5469 277.844L88.7979 277.414C87.0494 276.398 85.3192 275.353 83.6094 274.279L83.3447 274.7C81.6278 273.622 79.9306 272.517 78.2539 271.383L78.5322 270.971C76.857 269.838 75.202 268.678 73.5684 267.49L73.2744 267.894C71.6344 266.701 70.0158 265.482 68.4189 264.236L68.7266 263.843C67.1328 262.6 65.5611 261.33 64.0117 260.034L63.6914 260.416C62.1364 259.116 60.6048 257.789 59.0957 256.438L59.4277 256.068C57.922 254.72 56.439 253.346 54.9805 251.948L54.6367 252.307C53.1737 250.904 51.7347 249.477 50.3203 248.026L50.6768 247.68C49.2663 246.233 47.88 244.763 46.5195 243.269L46.1514 243.604C44.7873 242.106 43.4474 240.586 42.1348 239.042L42.5156 238.718C41.207 237.179 39.924 235.617 38.668 234.034L38.2773 234.344C37.0183 232.757 35.7871 231.147 34.582 229.517L34.9824 229.222C33.7818 227.598 32.6084 225.952 31.4629 224.286L31.0527 224.567C29.9054 222.899 28.7862 221.21 27.6953 219.501L28.1143 219.234C27.0277 217.532 25.9695 215.811 24.9404 214.07L24.5107 214.322C23.4802 212.579 22.4775 210.818 21.5059 209.037L21.9453 208.798C20.9788 207.027 20.0416 205.238 19.1348 203.431L18.6885 203.653C17.7808 201.845 16.9044 200.018 16.0576 198.175L16.5098 197.968C15.6671 196.134 14.8551 194.282 14.0742 192.415L13.6152 192.605C12.8347 190.739 12.0848 188.857 11.3672 186.959L11.833 186.784C11.1199 184.898 10.4377 182.996 9.78809 181.08L9.31543 181.24C8.66588 179.324 8.04881 177.394 7.46387 175.449L7.94141 175.306C7.36033 173.374 6.81179 171.428 6.2959 169.47L5.81445 169.596C5.29995 167.642 4.81874 165.675 4.37012 163.696L4.85449 163.587C4.40893 161.621 3.99636 159.643 3.61719 157.653L3.12793 157.746C2.74919 155.758 2.40231 153.759 2.09082 151.749L2.58496 151.674C2.27689 149.686 2.00168 147.686 1.76074 145.677L1.26758 145.735C1.02712 143.73 0.820084 141.714 0.647461 139.688L1.14258 139.647C0.971292 137.638 0.83365 135.618 0.730469 133.59L0.231445 133.614C0.129066 131.601 0.0627129 129.58 0.0283203 127.55L0.525391 127.542C0.508242 126.53 0.5 125.516 0.5 124.5C0.5 123.484 0.508242 122.47 0.525391 121.458L0.0283203 121.449C0.0499031 120.176 0.0824387 118.905 0.130859 117.639L0.231445 115.385L0.730469 115.41C0.83365 113.382 0.971292 111.362 1.14258 109.353L0.647461 109.311C0.820094 107.285 1.02711 105.269 1.26758 103.264L1.76074 103.323C2.00168 101.314 2.27689 99.3144 2.58496 97.3262L2.09082 97.25C2.40232 95.2396 2.74918 93.2405 3.12793 91.2529L3.61719 91.3467C3.99636 89.3568 4.40893 87.3788 4.85449 85.4131L4.37012 85.3027C4.81875 83.3236 5.29994 81.3568 5.81445 79.4033L6.2959 79.5303C6.81179 77.5715 7.36033 75.626 7.94141 73.6943L7.46387 73.5498C8.04882 71.6053 8.66587 69.6747 9.31543 67.7588L9.78809 67.9199C10.4377 66.0039 11.1199 64.1019 11.833 62.2158L11.3672 62.04C12.0848 60.1421 12.8347 58.2599 13.6152 56.3936L14.0742 56.585C14.8551 54.7178 15.6671 52.8665 16.5098 51.0322L16.0576 50.8242C16.9044 48.9811 17.7808 47.1544 18.6885 45.3457L19.1348 45.5693C20.0416 43.7624 20.9788 41.9732 21.9453 40.2021L21.5059 39.9619C22.4778 38.181 23.481 36.4193 24.5117 34.6758L24.9404 34.9297C25.9695 33.1891 27.0277 31.4675 28.1143 29.7656L27.6953 29.498C28.7862 27.7893 29.9054 26.1002 31.0527 24.4316L31.4629 24.7139C32.6084 23.0481 33.7818 21.4025 34.9824 19.7783L34.582 19.4824C35.7871 17.8522 37.0183 16.2424 38.2773 14.6553L38.668 14.9658C39.924 13.3825 41.207 11.8212 42.5156 10.2822L42.1348 9.95801C43.4476 8.41411 44.7872 6.89354 46.1514 5.39551L46.5195 5.73145C47.88 4.23747 49.2663 2.76721 50.6768 1.32031L50.3203 0.972656C51.7347 -0.478287 53.1737 -1.90522 54.6367 -3.30762L54.9805 -2.94824C56.439 -4.34631 57.922 -5.72001 59.4277 -7.06836L59.0957 -7.43848C60.6048 -8.78983 62.1364 -10.1168 63.6914 -11.417L64.0117 -11.0342C65.5611 -12.3297 67.1328 -13.5995 68.7266 -14.8428L68.4189 -15.2373C70.0158 -16.483 71.6344 -17.7025 73.2744 -18.8945L73.5684 -18.4902C75.202 -19.6777 76.857 -20.838 78.5322 -21.9707L78.2539 -22.3838C79.9306 -23.5175 81.6278 -24.6234 83.3447 -25.7012L83.6094 -25.2793C85.3192 -26.3526 87.0494 -27.3977 88.7979 -28.4141L88.5469 -28.8447C90.2975 -29.8624 92.0665 -30.8521 93.8545 -31.8115L94.0908 -31.3721C95.8687 -32.3261 97.665 -33.2506 99.4785 -34.1455L99.2578 -34.5947C101.072 -35.4899 102.904 -36.3545 104.752 -37.1895L104.958 -36.7344C106.797 -37.5652 108.653 -38.366 110.525 -39.1357L110.337 -39.5967C112.208 -40.366 114.095 -41.1043 115.997 -41.8115L116.171 -41.3457C118.06 -42.0482 119.965 -42.7195 121.885 -43.3594L121.727 -43.832C123.646 -44.4718 125.579 -45.0812 127.526 -45.6572L127.668 -45.1777C129.603 -45.75 131.551 -46.2909 133.513 -46.7988L133.388 -47.2812C135.343 -47.7876 137.311 -48.2607 139.292 -48.7021L139.4 -48.2168C141.368 -48.6552 143.348 -49.0605 145.339 -49.4336L145.246 -49.9238C147.235 -50.2965 149.235 -50.6379 151.247 -50.9443L151.322 -50.4502C153.311 -50.7532 155.311 -51.0228 157.321 -51.2598L157.263 -51.7549C159.268 -51.9913 161.284 -52.1935 163.31 -52.3633L163.352 -51.8682C165.361 -52.0366 167.381 -52.172 169.409 -52.2734L169.385 -52.7725C171.398 -52.8731 173.419 -52.9379 175.449 -52.9717L175.457 -52.4746C176.469 -52.4915 177.484 -52.5 178.5 -52.5C179.516 -52.5 180.531 -52.4915 181.543 -52.4746L181.55 -52.9717C183.58 -52.9379 185.601 -52.8731 187.614 -52.7725L187.591 -52.2734C189.619 -52.172 191.639 -52.0366 193.648 -51.8682L193.689 -52.3633C195.715 -52.1936 197.731 -51.9913 199.736 -51.7549L199.679 -51.2598C201.689 -51.0228 203.689 -50.7532 205.678 -50.4502L205.752 -50.9443C207.764 -50.6379 209.764 -50.2965 211.753 -49.9238L211.661 -49.4336C213.652 -49.0605 215.632 -48.6552 217.6 -48.2168L217.707 -48.7021C219.688 -48.2607 221.656 -47.7876 223.611 -47.2812L223.487 -46.7988C225.449 -46.2909 227.397 -45.75 229.332 -45.1777L229.473 -45.6572C231.42 -45.0812 233.353 -44.4718 235.272 -43.832L235.115 -43.3594C237.035 -42.7195 238.94 -42.0482 240.829 -41.3457L241.002 -41.8115C242.904 -41.1043 244.791 -40.366 246.662 -39.5967L246.475 -39.1357C248.347 -38.366 250.203 -37.5652 252.042 -36.7344L252.247 -37.1895C254.095 -36.3545 255.927 -35.4899 257.741 -34.5947L257.521 -34.1455C259.335 -33.2506 261.131 -32.3261 262.909 -31.3721L263.145 -31.8115C264.932 -30.8521 266.702 -29.8624 268.452 -28.8447L268.202 -28.4141C269.951 -27.3977 271.681 -26.3526 273.391 -25.2793L273.654 -25.7012C275.371 -24.6234 277.068 -23.5175 278.745 -22.3838L278.468 -21.9707C280.143 -20.838 281.798 -19.6777 283.432 -18.4902L283.725 -18.8945C285.365 -17.7025 286.983 -16.483 288.58 -15.2373L288.273 -14.8428C289.867 -13.5995 291.439 -12.3297 292.988 -11.0342L293.308 -11.417C294.863 -10.1168 296.394 -8.78982 297.903 -7.43848L297.572 -7.06836C299.078 -5.72001 300.561 -4.34631 302.02 -2.94824L302.362 -3.30762C303.825 -1.90522 305.264 -0.478287 306.679 0.972656L306.323 1.32031C307.734 2.76721 309.12 4.23747 310.48 5.73145L310.848 5.39551C312.212 6.8937 313.552 8.41395 314.865 9.95801L314.484 10.2822C315.793 11.8212 317.076 13.3825 318.332 14.9658L318.722 14.6553C319.981 16.2424 321.212 17.8522 322.417 19.4824L322.018 19.7783C323.218 21.4025 324.392 23.0481 325.537 24.7139L325.946 24.4316C327.094 26.1002 328.213 27.7893 329.304 29.498L328.886 29.7656C329.972 31.4675 331.031 33.1891 332.06 34.9297L332.488 34.6768C333.519 36.4199 334.521 38.1813 335.493 39.9619L335.055 40.2021C336.021 41.9732 336.958 43.7624 337.865 45.5693L338.311 45.3457C339.218 47.1544 340.095 48.9811 340.941 50.8242L340.49 51.0322C341.333 52.8665 342.145 54.7178 342.926 56.585L343.384 56.3936C344.164 58.2599 344.914 60.1421 345.632 62.04L345.167 62.2158C345.88 64.1019 346.562 66.0039 347.212 67.9199L347.684 67.7588C348.333 69.6747 348.95 71.6053 349.535 73.5498L349.059 73.6943C349.64 75.626 350.188 77.5715 350.704 79.5303L351.185 79.4033C351.699 81.3568 352.18 83.3236 352.629 85.3027L352.146 85.4131C352.591 87.3788 353.004 89.3568 353.383 91.3467L353.871 91.2529C354.25 93.2405 354.597 95.2395 354.908 97.25L354.415 97.3262C354.723 99.3144 354.998 101.314 355.239 103.323L355.731 103.264C355.972 105.269 356.179 107.285 356.352 109.311L355.857 109.353C356.029 111.362 356.166 113.382 356.27 115.41L356.768 115.385Z" stroke="#94CEE4" stroke-dasharray="6 6"/>
<circle opacity="0.5" cx="178.5" cy="124.5" r="147" stroke="#94CEE4" stroke-dasharray="6 6"/>
<circle opacity="0.75" cx="178.5" cy="124.5" r="117" stroke="#94CEE4" stroke-dasharray="6 6"/>
<circle cx="178.5" cy="124.5" r="85" stroke="#94CEE4" stroke-dasharray="6 6"/>
<circle cx="178.5" cy="124.5" r="62" stroke="#94CEE4" stroke-dasharray="6 6"/>
</svg>
