<svg width="351" height="218" viewBox="0 0 351 218" fill="none" xmlns="http://www.w3.org/2000/svg">
<g clip-path="url(#clip0_2322_122)">
<rect width="351" height="218" rx="20" fill="#D8F2FC"/>
<path d="M17.5 0L17.5 217M46.5 8.6909e-09L46.5 217M76.5 8.49263e-09L76.5 217M104.5 8.6909e-09L104.5 217M133.5 8.59347e-09L133.5 217M162.5 8.49684e-09L162.5 217M192.5 8.49263e-09L192.5 217M221.5 8.49263e-09L221.5 217M250.5 8.49263e-09L250.5 217M278.5 8.49684e-09V217M308.5 9.15202e-09V217M337.5 9.74126e-09V217" stroke="url(#paint0_linear_2322_122)" stroke-width="0.5"/>
<path opacity="0.8" d="M350 219L352 27.0001C313 52.0001 325.508 46.985 309 80.0001C285 128 275 110 219.5 107.5C164 105 125 153 111 167.5C97 182 101.5 177 76 191C55.6 202.2 15.8333 178.333 -1.5 165V219H350Z" fill="url(#paint1_radial_2322_122)"/>
<path d="M-4 160.751C14.9744 180.385 62.0513 211.457 98.5641 178.677C144.205 137.703 156.513 116.192 200.103 108.509C243.692 100.827 259.59 124.387 285.744 108.509C311.897 92.6317 311.385 60.3646 324.718 46.5359C335.385 35.4729 346.517 29.4025 352.5 26.5001" stroke="url(#paint2_radial_2322_122)" stroke-width="3"/>
<path d="M19.6215 42.0001V24.0986H27.8337C29.5529 24.0986 30.9383 24.5576 31.9899 25.4756C33.0581 26.3936 33.5923 27.5954 33.5923 29.081C33.5923 31.3677 32.499 32.8115 30.3124 33.4124V33.4875C31.1637 33.7379 31.7979 34.1385 32.2152 34.6893C32.6492 35.2234 32.9246 36.0246 33.0415 37.0928C33.0748 37.4934 33.1082 37.9691 33.1416 38.52C33.1917 39.0541 33.2251 39.4797 33.2418 39.7969C33.2751 40.114 33.3085 40.4311 33.3419 40.7483C33.392 41.0654 33.4504 41.3158 33.5172 41.4994C33.6006 41.6663 33.7008 41.7748 33.8176 41.8249V42.0001H30.3374C30.2707 41.9667 30.2123 41.9083 30.1622 41.8249C30.1121 41.7247 30.0704 41.5912 30.037 41.4243C30.0036 41.2574 29.9702 41.0904 29.9368 40.9235C29.9202 40.7399 29.8951 40.5146 29.8617 40.2475C29.845 39.9638 29.8284 39.7217 29.8117 39.5214C29.795 39.3045 29.7699 39.029 29.7366 38.6952C29.7199 38.3447 29.7032 38.0693 29.6865 37.869C29.5363 35.8326 28.3679 34.8145 26.1813 34.8145H23.2519V42.0001H19.6215ZM23.2519 27.0279V32.0103H27.1077C28.0591 32.0103 28.7851 31.785 29.2859 31.3343C29.8033 30.8836 30.062 30.2911 30.062 29.5567C30.062 28.8056 29.82 28.1963 29.336 27.729C28.8519 27.2616 28.1425 27.0279 27.2078 27.0279H23.2519ZM41.5883 44.4287V42.2755C39.552 42.1587 37.9746 41.6162 36.8563 40.6481C35.738 39.6633 35.1538 38.328 35.1037 36.6422H38.5087C38.6256 37.5268 38.926 38.2028 39.4101 38.6702C39.9108 39.1209 40.6369 39.3963 41.5883 39.4964V34.7394C41.5215 34.7394 41.4798 34.731 41.4631 34.7143C40.7287 34.5474 40.1278 34.3972 39.6604 34.2636C39.1931 34.1301 38.6673 33.9298 38.0831 33.6628C37.5156 33.379 37.0649 33.0786 36.7311 32.7614C36.414 32.4276 36.1386 31.9936 35.9049 31.4595C35.6879 30.9087 35.5794 30.2911 35.5794 29.6067C35.5794 28.0377 36.1219 26.8109 37.2068 25.9263C38.3084 25.0416 39.7689 24.5576 41.5883 24.4741V22.9969H43.0905V24.4992C44.7931 24.6494 46.1367 25.1835 47.1215 26.1015C48.123 27.0029 48.6822 28.238 48.799 29.807H45.4691C45.3022 28.4383 44.5093 27.6121 43.0905 27.3284V31.6598C43.1239 31.6765 43.174 31.6848 43.2408 31.6848C44.1588 31.8684 44.9349 32.0687 45.5692 32.2857C46.2035 32.5027 46.8211 32.8031 47.422 33.1871C48.0229 33.571 48.4735 34.0717 48.774 34.6893C49.0744 35.3069 49.2246 36.0413 49.2246 36.8925C49.2246 38.5283 48.6571 39.8219 47.5221 40.7733C46.4038 41.708 44.9266 42.2171 43.0905 42.3006V44.4287H41.5883ZM45.7194 37.3182C45.7194 36.7173 45.5024 36.2583 45.0685 35.9411C44.6512 35.624 43.9919 35.3486 43.0905 35.1149V39.4964C43.875 39.413 44.5093 39.196 44.9934 38.8454C45.4774 38.4782 45.7194 37.9691 45.7194 37.3182ZM39.7356 27.9042C39.2849 28.238 39.0596 28.6804 39.0596 29.2312C39.0596 29.782 39.2515 30.216 39.6354 30.5331C40.036 30.8336 40.687 31.1006 41.5883 31.3343V27.2532C40.8038 27.3367 40.1862 27.5537 39.7356 27.9042ZM58.6943 42.0001V30.0324H54.8136V27.779C57.3841 27.6789 58.8279 26.6607 59.145 24.7245H62.1244V42.0001H58.6943ZM71.8539 42.4007C69.6673 42.4007 67.9231 41.5912 66.6211 39.9721C65.3359 38.353 64.6933 36.1748 64.6933 33.4374C64.6933 30.7 65.3442 28.5218 66.6462 26.9027C67.9481 25.2837 69.6924 24.4741 71.8789 24.4741C74.0822 24.4741 75.8181 25.2837 77.0867 26.9027C78.3719 28.5051 79.0145 30.6833 79.0145 33.4374C79.0145 36.1748 78.3719 38.353 77.0867 39.9721C75.8181 41.5912 74.0739 42.4007 71.8539 42.4007ZM71.8789 39.4964C74.2658 39.4964 75.4592 37.4767 75.4592 33.4374C75.4592 31.5346 75.1671 30.0491 74.5829 28.9808C73.9987 27.9126 73.0974 27.3784 71.8789 27.3784C70.6438 27.3784 69.7257 27.9126 69.1249 28.9808C68.5407 30.0491 68.2486 31.5346 68.2486 33.4374C68.2486 35.3402 68.5407 36.8258 69.1249 37.894C69.7257 38.9623 70.6438 39.4964 71.8789 39.4964ZM87.6733 42.4007C85.4867 42.4007 83.7424 41.5912 82.4405 39.9721C81.1553 38.353 80.5126 36.1748 80.5126 33.4374C80.5126 30.7 81.1636 28.5218 82.4655 26.9027C83.7675 25.2837 85.5117 24.4741 87.6983 24.4741C89.9016 24.4741 91.6375 25.2837 92.906 26.9027C94.1913 28.5051 94.8339 30.6833 94.8339 33.4374C94.8339 36.1748 94.1913 38.353 92.906 39.9721C91.6375 41.5912 89.8932 42.4007 87.6733 42.4007ZM87.6983 39.4964C90.0852 39.4964 91.2786 37.4767 91.2786 33.4374C91.2786 31.5346 90.9865 30.0491 90.4023 28.9808C89.8181 27.9126 88.9168 27.3784 87.6983 27.3784C86.4631 27.3784 85.5451 27.9126 84.9442 28.9808C84.36 30.0491 84.0679 31.5346 84.0679 33.4374C84.0679 35.3402 84.36 36.8258 84.9442 37.894C85.5451 38.9623 86.4631 39.4964 87.6983 39.4964ZM95.9932 42.0001V38.3697H99.6486V42.0001H95.9932ZM107.967 42.4007C105.78 42.4007 104.036 41.5912 102.734 39.9721C101.449 38.353 100.806 36.1748 100.806 33.4374C100.806 30.7 101.457 28.5218 102.759 26.9027C104.061 25.2837 105.805 24.4741 107.992 24.4741C110.195 24.4741 111.931 25.2837 113.2 26.9027C114.485 28.5051 115.128 30.6833 115.128 33.4374C115.128 36.1748 114.485 38.353 113.2 39.9721C111.931 41.5912 110.187 42.4007 107.967 42.4007ZM107.992 39.4964C110.379 39.4964 111.572 37.4767 111.572 33.4374C111.572 31.5346 111.28 30.0491 110.696 28.9808C110.112 27.9126 109.211 27.3784 107.992 27.3784C106.757 27.3784 105.839 27.9126 105.238 28.9808C104.654 30.0491 104.362 31.5346 104.362 33.4374C104.362 35.3402 104.654 36.8258 105.238 37.894C105.839 38.9623 106.757 39.4964 107.992 39.4964ZM123.786 42.4007C121.6 42.4007 119.856 41.5912 118.554 39.9721C117.268 38.353 116.626 36.1748 116.626 33.4374C116.626 30.7 117.277 28.5218 118.579 26.9027C119.881 25.2837 121.625 24.4741 123.811 24.4741C126.015 24.4741 127.751 25.2837 129.019 26.9027C130.304 28.5051 130.947 30.6833 130.947 33.4374C130.947 36.1748 130.304 38.353 129.019 39.9721C127.751 41.5912 126.006 42.4007 123.786 42.4007ZM123.811 39.4964C126.198 39.4964 127.392 37.4767 127.392 33.4374C127.392 31.5346 127.1 30.0491 126.515 28.9808C125.931 27.9126 125.03 27.3784 123.811 27.3784C122.576 27.3784 121.658 27.9126 121.057 28.9808C120.473 30.0491 120.181 31.5346 120.181 33.4374C120.181 35.3402 120.473 36.8258 121.057 37.894C121.658 38.9623 122.576 39.4964 123.811 39.4964ZM139.606 42.4007C137.419 42.4007 135.675 41.5912 134.373 39.9721C133.088 38.353 132.445 36.1748 132.445 33.4374C132.445 30.7 133.096 28.5218 134.398 26.9027C135.7 25.2837 137.444 24.4741 139.631 24.4741C141.834 24.4741 143.57 25.2837 144.839 26.9027C146.124 28.5051 146.766 30.6833 146.766 33.4374C146.766 36.1748 146.124 38.353 144.839 39.9721C143.57 41.5912 141.826 42.4007 139.606 42.4007ZM139.631 39.4964C142.018 39.4964 143.211 37.4767 143.211 33.4374C143.211 31.5346 142.919 30.0491 142.335 28.9808C141.751 27.9126 140.849 27.3784 139.631 27.3784C138.396 27.3784 137.478 27.9126 136.877 28.9808C136.293 30.0491 136 31.5346 136 33.4374C136 35.3402 136.293 36.8258 136.877 37.894C137.478 38.9623 138.396 39.4964 139.631 39.4964ZM147.951 46.1563V44.9295C149.153 44.3119 149.753 43.3354 149.753 42.0001H147.926V38.3697H151.581V41.7998C151.581 43.0016 151.231 43.9781 150.53 44.7292C149.845 45.497 148.986 45.9727 147.951 46.1563ZM159.9 42.4007C157.713 42.4007 155.969 41.5912 154.667 39.9721C153.382 38.353 152.739 36.1748 152.739 33.4374C152.739 30.7 153.39 28.5218 154.692 26.9027C155.994 25.2837 157.738 24.4741 159.925 24.4741C162.128 24.4741 163.864 25.2837 165.132 26.9027C166.418 28.5051 167.06 30.6833 167.06 33.4374C167.06 36.1748 166.418 38.353 165.132 39.9721C163.864 41.5912 162.119 42.4007 159.9 42.4007ZM159.925 39.4964C162.311 39.4964 163.505 37.4767 163.505 33.4374C163.505 31.5346 163.213 30.0491 162.629 28.9808C162.044 27.9126 161.143 27.3784 159.925 27.3784C158.689 27.3784 157.771 27.9126 157.17 28.9808C156.586 30.0491 156.294 31.5346 156.294 33.4374C156.294 35.3402 156.586 36.8258 157.17 37.894C157.771 38.9623 158.689 39.4964 159.925 39.4964ZM175.719 42.4007C173.532 42.4007 171.788 41.5912 170.486 39.9721C169.201 38.353 168.558 36.1748 168.558 33.4374C168.558 30.7 169.209 28.5218 170.511 26.9027C171.813 25.2837 173.557 24.4741 175.744 24.4741C177.947 24.4741 179.683 25.2837 180.952 26.9027C182.237 28.5051 182.88 30.6833 182.88 33.4374C182.88 36.1748 182.237 38.353 180.952 39.9721C179.683 41.5912 177.939 42.4007 175.719 42.4007ZM175.744 39.4964C178.131 39.4964 179.324 37.4767 179.324 33.4374C179.324 31.5346 179.032 30.0491 178.448 28.9808C177.864 27.9126 176.962 27.3784 175.744 27.3784C174.509 27.3784 173.591 27.9126 172.99 28.9808C172.406 30.0491 172.114 31.5346 172.114 33.4374C172.114 35.3402 172.406 36.8258 172.99 37.894C173.591 38.9623 174.509 39.4964 175.744 39.4964Z" fill="#232E48"/>
<path d="M20.561 53.9886C20.9895 53.2465 22.0607 53.2465 22.4892 53.9886L24.8994 58.1632C25.3279 58.9054 24.7923 59.8331 23.9353 59.8331H19.1149C18.2579 59.8331 17.7223 58.9054 18.1508 58.1632L20.561 53.9886Z" fill="url(#paint3_radial_2322_122)"/>
<path d="M27.972 60.1324V52.7138H33.0043V53.5335H28.9058V55.8473H32.3195V56.6358H28.9058V60.1324H27.972ZM37.5925 60.1843C37.0598 60.1843 36.752 59.918 36.669 59.3854H36.6586C36.2159 59.9526 35.6211 60.2362 34.874 60.2362C34.3414 60.2362 33.9056 60.1082 33.5667 59.8523C33.2277 59.5964 33.0583 59.2263 33.0583 58.7421C33.0583 58.4931 33.0963 58.2786 33.1724 58.0988C33.2554 57.912 33.3592 57.7633 33.4837 57.6526C33.6082 57.5351 33.7776 57.4348 33.9921 57.3517C34.2134 57.2618 34.4244 57.1961 34.625 57.1546C34.8256 57.1062 35.0815 57.0578 35.3928 57.0093C35.5934 56.9817 35.7352 56.9609 35.8182 56.9471C35.9081 56.9263 36.0223 56.8987 36.1606 56.8641C36.2989 56.8226 36.3958 56.7776 36.4511 56.7292C36.5065 56.6808 36.5583 56.6151 36.6068 56.5321C36.6552 56.4491 36.6794 56.3522 36.6794 56.2415C36.6794 55.9372 36.5722 55.7055 36.3577 55.5464C36.1502 55.3804 35.8562 55.2973 35.4758 55.2973C34.6112 55.2973 34.165 55.6916 34.1373 56.4802H33.328C33.3419 55.9337 33.5286 55.4945 33.8883 55.1625C34.2549 54.8304 34.7806 54.6644 35.4654 54.6644C36.7866 54.6644 37.4472 55.2316 37.4472 56.366V58.9185C37.4472 59.1537 37.4852 59.3197 37.5613 59.4165C37.6443 59.5134 37.7965 59.5376 38.0179 59.4891H38.049V60.1013C37.9106 60.1567 37.7585 60.1843 37.5925 60.1843ZM35.0608 59.5929C35.5796 59.5929 35.9808 59.4442 36.2644 59.1468C36.548 58.8424 36.6898 58.5104 36.6898 58.1507V57.2376C36.4338 57.3967 36.0257 57.5281 35.4654 57.6319C35.2579 57.6734 35.0954 57.708 34.9778 57.7356C34.8602 57.7564 34.7253 57.7979 34.5731 57.8602C34.4209 57.9155 34.3068 57.9777 34.2307 58.0469C34.1546 58.1161 34.0889 58.2095 34.0336 58.3271C33.9782 58.4377 33.9506 58.5692 33.9506 58.7213C33.9506 59.3024 34.3206 59.5929 35.0608 59.5929ZM38.2254 55.453V54.7682H39.0036V53.0769H39.844V54.7682H40.8816V55.453H39.844V58.9392C39.844 59.2713 40.0238 59.4373 40.3835 59.4373C40.5357 59.4373 40.6844 59.4131 40.8297 59.3646H40.8608V60.0909C40.6326 60.1394 40.4077 60.1636 40.1864 60.1636C39.3978 60.1636 39.0036 59.8177 39.0036 59.126V55.453H38.2254ZM46.0035 60.1324H45.163V59.3958H45.1423C44.7203 59.9699 44.1808 60.257 43.5237 60.257C42.9703 60.257 42.531 60.1013 42.2059 59.79C41.8808 59.4719 41.7183 59.0361 41.7183 58.4827V54.7682H42.5587V58.462C42.5587 58.8078 42.6625 59.0776 42.87 59.2713C43.0844 59.4649 43.3819 59.5618 43.7623 59.5618C44.1842 59.5618 44.5232 59.42 44.7791 59.1364C45.0351 58.8528 45.163 58.4965 45.163 58.0677V54.7682H46.0035V60.1324ZM47.9804 54.7682V55.6605H48.0011C48.174 55.3769 48.3989 55.1486 48.6755 54.9757C48.9522 54.7959 49.26 54.7059 49.599 54.7059C49.7235 54.7059 49.8376 54.7267 49.9414 54.7682V55.5775H49.9103C49.8065 55.5429 49.682 55.5256 49.5367 55.5256C49.1079 55.5256 48.7413 55.6778 48.4369 55.9821C48.1325 56.2796 47.9804 56.6704 47.9804 57.1546V60.1324H47.1399V54.7682H47.9804ZM54.7064 60.1843C54.1737 60.1843 53.8659 59.918 53.7829 59.3854H53.7725C53.3298 59.9526 52.735 60.2362 51.9879 60.2362C51.4553 60.2362 51.0195 60.1082 50.6806 59.8523C50.3416 59.5964 50.1722 59.2263 50.1722 58.7421C50.1722 58.4931 50.2102 58.2786 50.2863 58.0988C50.3693 57.912 50.4731 57.7633 50.5976 57.6526C50.7221 57.5351 50.8915 57.4348 51.106 57.3517C51.3273 57.2618 51.5383 57.1961 51.7389 57.1546C51.9395 57.1062 52.1954 57.0578 52.5067 57.0093C52.7073 56.9817 52.8491 56.9609 52.9321 56.9471C53.022 56.9263 53.1362 56.8987 53.2745 56.8641C53.4129 56.8226 53.5097 56.7776 53.565 56.7292C53.6204 56.6808 53.6722 56.6151 53.7207 56.5321C53.7691 56.4491 53.7933 56.3522 53.7933 56.2415C53.7933 55.9372 53.6861 55.7055 53.4717 55.5464C53.2641 55.3804 52.9702 55.2973 52.5897 55.2973C51.7251 55.2973 51.2789 55.6916 51.2512 56.4802H50.4419C50.4558 55.9337 50.6425 55.4945 51.0022 55.1625C51.3688 54.8304 51.8945 54.6644 52.5793 54.6644C53.9005 54.6644 54.5611 55.2316 54.5611 56.366V58.9185C54.5611 59.1537 54.5992 59.3197 54.6752 59.4165C54.7582 59.5134 54.9104 59.5376 55.1318 59.4891H55.1629V60.1013C55.0246 60.1567 54.8724 60.1843 54.7064 60.1843ZM52.1747 59.5929C52.6935 59.5929 53.0947 59.4442 53.3783 59.1468C53.6619 58.8424 53.8037 58.5104 53.8037 58.1507V57.2376C53.5477 57.3967 53.1396 57.5281 52.5793 57.6319C52.3718 57.6734 52.2093 57.708 52.0917 57.7356C51.9741 57.7564 51.8392 57.7979 51.687 57.8602C51.5348 57.9155 51.4207 57.9777 51.3446 58.0469C51.2685 58.1161 51.2028 58.2095 51.1475 58.3271C51.0921 58.4377 51.0645 58.5692 51.0645 58.7213C51.0645 59.3024 51.4345 59.5929 52.1747 59.5929ZM57.8582 60.2881C57.1249 60.2881 56.5439 60.0356 56.115 59.5307C55.6931 59.0188 55.4821 58.3305 55.4821 57.4659C55.4821 56.5943 55.7035 55.9061 56.1462 55.4011C56.5889 54.8962 57.1526 54.6437 57.8374 54.6437C58.5637 54.6437 59.124 54.9377 59.5183 55.5256H59.539V52.7138H60.3795V60.1324H59.539V59.4788H59.5183C59.0963 60.0183 58.543 60.2881 57.8582 60.2881ZM57.8893 59.5825C58.4634 59.5825 58.8888 59.3923 59.1655 59.0119C59.4491 58.6314 59.5909 58.1196 59.5909 57.4763C59.5909 56.8399 59.4387 56.328 59.1344 55.9406C58.8369 55.5533 58.4185 55.3596 57.8789 55.3596C57.3878 55.3596 57.0073 55.5567 56.7376 55.951C56.4747 56.3384 56.3433 56.8468 56.3433 57.4763C56.3433 58.1057 56.4747 58.6141 56.7376 59.0015C57.0073 59.3889 57.3913 59.5825 57.8893 59.5825ZM65.6891 59.4684C65.2187 60.0079 64.5927 60.2777 63.8111 60.2777C63.0294 60.2777 62.4 60.0079 61.9227 59.4684C61.4523 58.9289 61.2171 58.2579 61.2171 57.4555C61.2171 56.6531 61.4523 55.9821 61.9227 55.4426C62.4 54.9031 63.0294 54.6333 63.8111 54.6333C64.5927 54.6333 65.2187 54.9031 65.6891 55.4426C66.1595 55.9821 66.3946 56.6531 66.3946 57.4555C66.3946 58.2579 66.1595 58.9289 65.6891 59.4684ZM62.5245 58.9807C62.8288 59.375 63.2577 59.5722 63.8111 59.5722C64.3645 59.5722 64.7899 59.375 65.0873 58.9807C65.3847 58.5795 65.5335 58.0711 65.5335 57.4555C65.5335 56.833 65.3813 56.3245 65.0769 55.9303C64.7795 55.5291 64.3575 55.3285 63.8111 55.3285C63.2577 55.3285 62.8288 55.5291 62.5245 55.9303C62.2271 56.3315 62.0783 56.8399 62.0783 57.4555C62.0783 58.0711 62.2271 58.5795 62.5245 58.9807ZM69.2665 60.2881C68.5332 60.2881 67.9626 60.1255 67.5545 59.8004C67.1533 59.4684 66.9319 58.998 66.8904 58.3893H67.7516C67.8484 59.1848 68.3603 59.5825 69.2872 59.5825C69.7092 59.5825 70.0204 59.503 70.221 59.3439C70.4285 59.1779 70.5323 58.9634 70.5323 58.7006C70.5323 58.417 70.432 58.2129 70.2314 58.0884C70.0308 57.9639 69.6642 57.8463 69.1316 57.7356C68.9102 57.6872 68.7338 57.6492 68.6024 57.6215C68.4779 57.5869 68.3257 57.542 68.1459 57.4866C67.966 57.4244 67.8242 57.3587 67.7205 57.2895C67.6236 57.2134 67.5233 57.1235 67.4196 57.0197C67.3158 56.916 67.2397 56.788 67.1913 56.6358C67.1498 56.4836 67.1291 56.3142 67.1291 56.1274C67.1291 55.6709 67.2951 55.3112 67.6271 55.0483C67.966 54.7855 68.4433 54.6541 69.0589 54.6541C70.3317 54.6541 71.0338 55.2143 71.1652 56.3349H70.304C70.2625 55.9821 70.1415 55.7262 69.9409 55.5671C69.7403 55.4011 69.4394 55.3181 69.0382 55.3181C68.6716 55.3181 68.3984 55.3907 68.2185 55.536C68.0456 55.6743 67.9591 55.8576 67.9591 56.0859C67.9591 56.3488 68.0629 56.5355 68.2704 56.6462C68.4779 56.75 68.8549 56.8572 69.4013 56.9678C69.7334 57.037 69.9928 57.1027 70.1795 57.165C70.3732 57.2203 70.5738 57.3102 70.7813 57.4348C70.9888 57.5523 71.141 57.7114 71.2379 57.912C71.3347 58.1126 71.3831 58.3617 71.3831 58.6591C71.3831 59.1848 71.1894 59.5894 70.8021 59.8731C70.4147 60.1497 69.9028 60.2881 69.2665 60.2881ZM74.6797 54.7682V55.4737H74.7004C75.1155 54.9204 75.6827 54.6437 76.4021 54.6437C76.9693 54.6437 77.412 54.7924 77.7302 55.0898C78.0483 55.3873 78.2074 55.8127 78.2074 56.366V60.1324H77.367V56.4387C77.367 56.0928 77.2598 55.8265 77.0454 55.6397C76.8309 55.4461 76.5335 55.3492 76.153 55.3492C75.7242 55.3492 75.3714 55.4876 75.0947 55.7643C74.818 56.0409 74.6797 56.3972 74.6797 56.833V60.1324H73.8392V54.7682H74.6797ZM83.492 59.4684C83.0217 60.0079 82.3956 60.2777 81.614 60.2777C80.8324 60.2777 80.2029 60.0079 79.7256 59.4684C79.2553 58.9289 79.0201 58.2579 79.0201 57.4555C79.0201 56.6531 79.2553 55.9821 79.7256 55.4426C80.2029 54.9031 80.8324 54.6333 81.614 54.6333C82.3956 54.6333 83.0217 54.9031 83.492 55.4426C83.9624 55.9821 84.1976 56.6531 84.1976 57.4555C84.1976 58.2579 83.9624 58.9289 83.492 59.4684ZM80.3274 58.9807C80.6318 59.375 81.0606 59.5722 81.614 59.5722C82.1674 59.5722 82.5928 59.375 82.8902 58.9807C83.1877 58.5795 83.3364 58.0711 83.3364 57.4555C83.3364 56.833 83.1842 56.3245 82.8799 55.9303C82.5824 55.5291 82.1605 55.3285 81.614 55.3285C81.0606 55.3285 80.6318 55.5291 80.3274 55.9303C80.03 56.3315 79.8813 56.8399 79.8813 57.4555C79.8813 58.0711 80.03 58.5795 80.3274 58.9807ZM86.6873 60.1324V54.7682H87.5278V55.536H87.5485C87.7215 55.2662 87.9463 55.0518 88.223 54.8927C88.4996 54.7267 88.8005 54.6437 89.1256 54.6437C89.8243 54.6437 90.2912 54.9619 90.5264 55.5982H90.5471C90.7131 55.3008 90.9449 55.0691 91.2423 54.9031C91.5397 54.7301 91.8545 54.6437 92.1865 54.6437C92.6776 54.6437 93.0719 54.7959 93.3693 55.1002C93.6668 55.3976 93.8155 55.8196 93.8155 56.366V60.1324H92.975V56.4076C92.975 56.0824 92.8782 55.8265 92.6845 55.6397C92.4978 55.4461 92.266 55.3492 91.9894 55.3492C91.6366 55.3492 91.3288 55.4876 91.0659 55.7643C90.8031 56.0409 90.6716 56.3833 90.6716 56.7915V60.1324H89.8312V56.4076C89.8312 56.0824 89.7447 55.8265 89.5718 55.6397C89.4058 55.4461 89.1844 55.3492 88.9078 55.3492C88.5619 55.3492 88.2437 55.491 87.9532 55.7746C87.6696 56.0513 87.5278 56.3903 87.5278 56.7915V60.1324H86.6873ZM97.2182 60.2777C96.4227 60.2777 95.7898 60.0114 95.3194 59.4788C94.8559 58.9392 94.6242 58.2648 94.6242 57.4555C94.6242 56.66 94.8594 55.9925 95.3298 55.453C95.8071 54.9065 96.4192 54.6333 97.1663 54.6333C97.9548 54.6333 98.5636 54.91 98.9924 55.4634C99.4213 56.0098 99.6357 56.7396 99.6357 57.6526H95.4854C95.52 58.2198 95.686 58.6833 95.9834 59.043C96.2878 59.3958 96.6994 59.5722 97.2182 59.5722C98.0206 59.5722 98.5151 59.2055 98.7019 58.4723H99.5216C99.3971 59.0465 99.1342 59.4926 98.733 59.8108C98.3318 60.1221 97.8269 60.2777 97.2182 60.2777ZM98.2869 55.7539C98.0171 55.4495 97.6436 55.2973 97.1663 55.2973C96.689 55.2973 96.3086 55.4564 96.0249 55.7746C95.7483 56.0928 95.5753 56.5079 95.5062 57.0197H98.733C98.7054 56.4802 98.5566 56.0582 98.2869 55.7539ZM95.7448 53.8862L96.7097 52.7864H97.6643L98.5878 53.8862H97.6851L97.1767 53.2326H97.1559L96.6267 53.8862H95.7448ZM102.491 60.2881C101.758 60.2881 101.187 60.1255 100.779 59.8004C100.378 59.4684 100.157 58.998 100.115 58.3893H100.976C101.073 59.1848 101.585 59.5825 102.512 59.5825C102.934 59.5825 103.245 59.503 103.446 59.3439C103.653 59.1779 103.757 58.9634 103.757 58.7006C103.757 58.417 103.657 58.2129 103.456 58.0884C103.256 57.9639 102.889 57.8463 102.356 57.7356C102.135 57.6872 101.959 57.6492 101.827 57.6215C101.703 57.5869 101.55 57.542 101.371 57.4866C101.191 57.4244 101.049 57.3587 100.945 57.2895C100.848 57.2134 100.748 57.1235 100.644 57.0197C100.541 56.916 100.464 56.788 100.416 56.6358C100.375 56.4836 100.354 56.3142 100.354 56.1274C100.354 55.6709 100.52 55.3112 100.852 55.0483C101.191 54.7855 101.668 54.6541 102.284 54.6541C103.556 54.6541 104.258 55.2143 104.39 56.3349H103.529C103.487 55.9821 103.366 55.7262 103.166 55.5671C102.965 55.4011 102.664 55.3181 102.263 55.3181C101.896 55.3181 101.623 55.3907 101.443 55.536C101.27 55.6743 101.184 55.8576 101.184 56.0859C101.184 56.3488 101.288 56.5355 101.495 56.6462C101.703 56.75 102.08 56.8572 102.626 56.9678C102.958 57.037 103.217 57.1027 103.404 57.165C103.598 57.2203 103.798 57.3102 104.006 57.4348C104.214 57.5523 104.366 57.7114 104.463 57.912C104.559 58.1126 104.608 58.3617 104.608 58.6591C104.608 59.1848 104.414 59.5894 104.027 59.8731C103.639 60.1497 103.128 60.2881 102.491 60.2881ZM109.139 60.2881C108.406 60.2881 107.825 60.0356 107.396 59.5307C106.974 59.0188 106.763 58.3305 106.763 57.4659C106.763 56.5943 106.984 55.9061 107.427 55.4011C107.87 54.8962 108.434 54.6437 109.118 54.6437C109.845 54.6437 110.405 54.9377 110.799 55.5256H110.82V52.7138H111.66V60.1324H110.82V59.4788H110.799C110.377 60.0183 109.824 60.2881 109.139 60.2881ZM109.17 59.5825C109.744 59.5825 110.17 59.3923 110.446 59.0119C110.73 58.6314 110.872 58.1196 110.872 57.4763C110.872 56.8399 110.72 56.328 110.415 55.9406C110.118 55.5533 109.699 55.3596 109.16 55.3596C108.669 55.3596 108.288 55.5567 108.019 55.951C107.756 56.3384 107.624 56.8468 107.624 57.4763C107.624 58.1057 107.756 58.6141 108.019 59.0015C108.288 59.3889 108.672 59.5825 109.17 59.5825ZM115.092 60.2777C114.297 60.2777 113.664 60.0114 113.193 59.4788C112.73 58.9392 112.498 58.2648 112.498 57.4555C112.498 56.66 112.733 55.9925 113.204 55.453C113.681 54.9065 114.293 54.6333 115.04 54.6333C115.829 54.6333 116.437 54.91 116.866 55.4634C117.295 56.0098 117.51 56.7396 117.51 57.6526H113.359C113.394 58.2198 113.56 58.6833 113.857 59.043C114.162 59.3958 114.573 59.5722 115.092 59.5722C115.894 59.5722 116.389 59.2055 116.576 58.4723H117.395C117.271 59.0465 117.008 59.4926 116.607 59.8108C116.206 60.1221 115.701 60.2777 115.092 60.2777ZM116.161 55.7539C115.891 55.4495 115.517 55.2973 115.04 55.2973C114.563 55.2973 114.182 55.4564 113.899 55.7746C113.622 56.0928 113.449 56.5079 113.38 57.0197H116.607C116.579 56.4802 116.43 56.0582 116.161 55.7539ZM120.107 60.1324V52.7138H121.301L123.708 58.877H123.729L126.115 52.7138H127.329V60.1324H126.437V54.0315H126.416C126.284 54.4189 126.174 54.7301 126.084 54.9653L124.05 60.1324H123.334L121.301 54.9653L120.969 54.0315H120.948V60.1324H120.107ZM132.808 60.1843C132.276 60.1843 131.968 59.918 131.885 59.3854H131.874C131.432 59.9526 130.837 60.2362 130.09 60.2362C129.557 60.2362 129.121 60.1082 128.782 59.8523C128.443 59.5964 128.274 59.2263 128.274 58.7421C128.274 58.4931 128.312 58.2786 128.388 58.0988C128.471 57.912 128.575 57.7633 128.699 57.6526C128.824 57.5351 128.993 57.4348 129.208 57.3517C129.429 57.2618 129.64 57.1961 129.841 57.1546C130.041 57.1062 130.297 57.0578 130.609 57.0093C130.809 56.9817 130.951 56.9609 131.034 56.9471C131.124 56.9263 131.238 56.8987 131.376 56.8641C131.515 56.8226 131.612 56.7776 131.667 56.7292C131.722 56.6808 131.774 56.6151 131.823 56.5321C131.871 56.4491 131.895 56.3522 131.895 56.2415C131.895 55.9372 131.788 55.7055 131.573 55.5464C131.366 55.3804 131.072 55.2973 130.692 55.2973C129.827 55.2973 129.381 55.6916 129.353 56.4802H128.544C128.558 55.9337 128.744 55.4945 129.104 55.1625C129.471 54.8304 129.996 54.6644 130.681 54.6644C132.002 54.6644 132.663 55.2316 132.663 56.366V58.9185C132.663 59.1537 132.701 59.3197 132.777 59.4165C132.86 59.5134 133.012 59.5376 133.234 59.4891H133.265V60.1013C133.126 60.1567 132.974 60.1843 132.808 60.1843ZM130.277 59.5929C130.795 59.5929 131.196 59.4442 131.48 59.1468C131.764 58.8424 131.906 58.5104 131.906 58.1507V57.2376C131.65 57.3967 131.241 57.5281 130.681 57.6319C130.474 57.6734 130.311 57.708 130.194 57.7356C130.076 57.7564 129.941 57.7979 129.789 57.8602C129.637 57.9155 129.523 57.9777 129.446 58.0469C129.37 58.1161 129.305 58.2095 129.249 58.3271C129.194 58.4377 129.166 58.5692 129.166 58.7213C129.166 59.3024 129.536 59.5929 130.277 59.5929ZM133.885 60.1324V54.7682H134.725V60.1324H133.885ZM133.885 53.7514V52.7138H134.725V53.7514H133.885ZM140.042 59.4684C139.572 60.0079 138.946 60.2777 138.164 60.2777C137.382 60.2777 136.753 60.0079 136.275 59.4684C135.805 58.9289 135.57 58.2579 135.57 57.4555C135.57 56.6531 135.805 55.9821 136.275 55.4426C136.753 54.9031 137.382 54.6333 138.164 54.6333C138.946 54.6333 139.572 54.9031 140.042 55.4426C140.512 55.9821 140.747 56.6531 140.747 57.4555C140.747 58.2579 140.512 58.9289 140.042 59.4684ZM136.877 58.9807C137.182 59.375 137.61 59.5722 138.164 59.5722C138.717 59.5722 139.143 59.375 139.44 58.9807C139.738 58.5795 139.886 58.0711 139.886 57.4555C139.886 56.833 139.734 56.3245 139.43 55.9303C139.132 55.5291 138.71 55.3285 138.164 55.3285C137.61 55.3285 137.182 55.5291 136.877 55.9303C136.58 56.3315 136.431 56.8399 136.431 57.4555C136.431 58.0711 136.58 58.5795 136.877 58.9807Z" fill="#232E48"/>
<rect x="18" y="72.3778" width="99.6211" height="20.6211" rx="10.3106" fill="black" fill-opacity="0.01"/>
<path d="M27.1355 85.1886V81.7089H26.0071V81.0537C26.7545 81.0246 27.1743 80.7285 27.2665 80.1656H28.1328V85.1886H27.1355ZM28.8506 85.1886C28.8603 84.8926 28.9307 84.6135 29.0617 84.3514C29.1927 84.0845 29.3335 83.871 29.4839 83.7108C29.6392 83.5507 29.8285 83.3832 30.0517 83.2085C30.1294 83.1454 30.2507 83.0532 30.4157 82.9319C30.5856 82.8105 30.7118 82.7159 30.7943 82.648C30.8768 82.58 30.969 82.4951 31.0709 82.3932C31.1777 82.2864 31.2529 82.1796 31.2966 82.0729C31.3403 81.9612 31.3621 81.8448 31.3621 81.7234C31.3621 81.4856 31.3014 81.2964 31.1801 81.1556C31.0588 81.0149 30.8889 80.9445 30.6705 80.9445C30.4182 80.9445 30.2192 81.0319 30.0736 81.2066C29.9328 81.3813 29.86 81.6312 29.8552 81.9564H28.9234C28.9234 81.374 29.0714 80.9202 29.3674 80.5951C29.6683 80.2651 30.11 80.1 30.6924 80.1C31.2165 80.1 31.629 80.2529 31.9299 80.5587C32.2357 80.8644 32.3885 81.243 32.3885 81.6943C32.3885 81.9176 32.3546 82.1214 32.2866 82.3058C32.2235 82.4854 32.1216 82.6504 31.9809 82.8008C31.8401 82.9513 31.714 83.0702 31.6023 83.1575C31.4907 83.2449 31.3354 83.3541 31.1364 83.4851C30.5929 83.8346 30.258 84.1306 30.1318 84.3733H32.4322V85.1886H28.8506ZM34.1855 86.4116V81.4541H35.1392V81.92H35.161C35.4376 81.5414 35.804 81.3522 36.2602 81.3522C36.7504 81.3522 37.1435 81.5342 37.4396 81.8981C37.7356 82.2621 37.8836 82.7377 37.8836 83.325C37.8836 83.9268 37.7356 84.4072 37.4396 84.7664C37.1435 85.1207 36.7528 85.2978 36.2675 85.2978C35.7822 85.2978 35.4231 85.1207 35.1901 84.7664H35.1756V86.4116H34.1855ZM36.0564 84.4752C36.3088 84.4752 36.5078 84.3757 36.6534 84.1767C36.8038 83.9777 36.879 83.7035 36.879 83.3541C36.879 82.9804 36.8087 82.6868 36.6679 82.4732C36.5272 82.2597 36.3112 82.1529 36.02 82.1529C35.724 82.1529 35.5056 82.2646 35.3648 82.4878C35.2241 82.7062 35.1537 82.995 35.1537 83.3541C35.1537 83.6987 35.2314 83.9729 35.3867 84.1767C35.542 84.3757 35.7652 84.4752 36.0564 84.4752ZM39.298 81.4541V82.051H39.3198C39.4363 81.8326 39.5649 81.6725 39.7057 81.5706C39.8464 81.4638 40.0236 81.4104 40.2371 81.4104C40.339 81.4104 40.4167 81.4201 40.47 81.4395V82.3058H40.4482C40.1133 82.2718 39.844 82.3446 39.6402 82.5242C39.4363 82.7038 39.3344 82.9853 39.3344 83.3687V85.1886H38.3444V81.4541H39.298ZM43.9639 84.7373C43.5999 85.1109 43.1316 85.2978 42.5589 85.2978C41.9862 85.2978 41.5179 85.1109 41.1539 84.7373C40.7899 84.3587 40.6079 83.8879 40.6079 83.325C40.6079 82.762 40.7899 82.2937 41.1539 81.92C41.5179 81.5414 41.9862 81.3522 42.5589 81.3522C43.1316 81.3522 43.5999 81.5414 43.9639 81.92C44.3279 82.2937 44.5099 82.762 44.5099 83.325C44.5099 83.8879 44.3279 84.3587 43.9639 84.7373ZM42.5589 84.5407C42.8549 84.5407 43.0855 84.4315 43.2505 84.2131C43.4203 83.9899 43.5053 83.6938 43.5053 83.325C43.5053 82.9561 43.4203 82.6601 43.2505 82.4368C43.0855 82.2136 42.8549 82.102 42.5589 82.102C42.258 82.102 42.025 82.2136 41.86 82.4368C41.695 82.6552 41.6125 82.9513 41.6125 83.325C41.6125 83.6938 41.695 83.9899 41.86 84.2131C42.025 84.4315 42.258 84.5407 42.5589 84.5407ZM46.7027 85.2978C46.1251 85.2978 45.6617 85.1109 45.3122 84.7373C44.9628 84.3636 44.7881 83.8928 44.7881 83.325C44.7881 82.7572 44.9579 82.2864 45.2977 81.9127C45.6422 81.539 46.0936 81.3522 46.6517 81.3522C47.1225 81.3522 47.5059 81.4759 47.8019 81.7234C48.0979 81.9709 48.2799 82.3034 48.3479 82.7208H47.3797C47.3457 82.5509 47.2681 82.4126 47.1467 82.3058C47.0254 82.199 46.8749 82.1457 46.6954 82.1457C46.4042 82.1457 46.1809 82.25 46.0256 82.4587C45.8703 82.6674 45.7927 82.9561 45.7927 83.325C45.7927 83.689 45.8679 83.9777 46.0184 84.1913C46.1688 84.4 46.3896 84.5043 46.6808 84.5043C47.1128 84.5043 47.3627 84.2932 47.4306 83.871H48.3843C48.3503 84.2835 48.1829 84.6256 47.882 84.8974C47.5811 85.1643 47.188 85.2978 46.7027 85.2978ZM50.5705 85.2978C49.9688 85.2978 49.4956 85.1134 49.151 84.7445C48.8064 84.3708 48.6341 83.8952 48.6341 83.3177C48.6341 82.7596 48.8064 82.2937 49.151 81.92C49.4956 81.5414 49.9372 81.3522 50.4759 81.3522C51.0631 81.3522 51.5169 81.556 51.8372 81.9637C52.1575 82.3713 52.3177 82.9173 52.3177 83.6016H49.6096C49.6484 83.8977 49.7479 84.1282 49.9081 84.2932C50.0682 84.4533 50.2866 84.5334 50.5633 84.5334C50.9273 84.5334 51.1675 84.3805 51.284 84.0748H52.2594C52.1867 84.4242 52.0022 84.7154 51.7062 84.9484C51.4101 85.1813 51.0316 85.2978 50.5705 85.2978ZM50.4905 82.1165C50.01 82.1165 49.7212 82.3835 49.6242 82.9173H51.284C51.2694 82.6795 51.1893 82.4878 51.0437 82.3422C50.8981 82.1918 50.7137 82.1165 50.4905 82.1165ZM54.1736 85.2978C53.7029 85.2978 53.3219 85.1207 53.0307 84.7664C52.7395 84.4072 52.5939 83.9268 52.5939 83.325C52.5939 82.7426 52.7419 82.2694 53.038 81.9054C53.3389 81.5366 53.7223 81.3522 54.1882 81.3522C54.6541 81.3522 55.0059 81.5366 55.2438 81.9054H55.2656V79.9836H56.2556V85.1886H55.302V84.7009H55.2874C55.0448 85.0988 54.6735 85.2978 54.1736 85.2978ZM54.392 84.4679C54.6832 84.4679 54.904 84.3684 55.0545 84.1694C55.2098 83.9705 55.2874 83.6962 55.2874 83.3468C55.2874 82.5509 54.9987 82.1529 54.4211 82.1529C54.1542 82.1529 53.9504 82.2597 53.8096 82.4732C53.6689 82.6868 53.5985 82.9707 53.5985 83.325C53.5985 83.689 53.6665 83.9705 53.8024 84.1694C53.9431 84.3684 54.1397 84.4679 54.392 84.4679ZM56.8992 85.1886V81.4541H57.8893V85.1886H56.8992ZM56.8992 80.8717V79.9836H57.8893V80.8717H56.8992ZM58.5272 85.1886V81.4541H59.4809V81.9564H59.5027C59.7405 81.5536 60.1021 81.3522 60.5874 81.3522C60.8203 81.3522 61.0266 81.4128 61.2062 81.5342C61.3906 81.6506 61.5289 81.8084 61.6211 82.0073H61.6357C61.9074 81.5706 62.2811 81.3522 62.7567 81.3522C63.145 81.3522 63.4459 81.4711 63.6594 81.7089C63.8778 81.9418 63.987 82.2646 63.987 82.6771V85.1886H62.997V82.8445C62.997 82.4174 62.8053 82.2039 62.4219 82.2039C62.2132 82.2039 62.0482 82.2791 61.9269 82.4296C61.8104 82.5752 61.7521 82.7717 61.7521 83.0192V85.1886H60.7621V82.8445C60.7621 82.4174 60.5704 82.2039 60.187 82.2039C59.988 82.2039 59.8254 82.2791 59.6992 82.4296C59.5779 82.5752 59.5173 82.7717 59.5173 83.0192V85.1886H58.5272ZM66.3528 85.2978C65.751 85.2978 65.2779 85.1134 64.9333 84.7445C64.5887 84.3708 64.4164 83.8952 64.4164 83.3177C64.4164 82.7596 64.5887 82.2937 64.9333 81.92C65.2779 81.5414 65.7195 81.3522 66.2582 81.3522C66.8454 81.3522 67.2992 81.556 67.6195 81.9637C67.9398 82.3713 68.1 82.9173 68.1 83.6016H65.3919C65.4307 83.8977 65.5302 84.1282 65.6904 84.2932C65.8505 84.4533 66.0689 84.5334 66.3456 84.5334C66.7095 84.5334 66.9498 84.3805 67.0663 84.0748H68.0417C67.9689 84.4242 67.7845 84.7154 67.4885 84.9484C67.1924 85.1813 66.8139 85.2978 66.3528 85.2978ZM66.2728 82.1165C65.7923 82.1165 65.5035 82.3835 65.4065 82.9173H67.0663C67.0517 82.6795 66.9716 82.4878 66.826 82.3422C66.6804 82.1918 66.496 82.1165 66.2728 82.1165ZM69.5264 81.4541V81.9637H69.5483C69.8055 81.556 70.1743 81.3522 70.6548 81.3522C71.0382 81.3522 71.3488 81.4832 71.5866 81.7453C71.8244 82.0025 71.9433 82.3374 71.9433 82.7499V85.1886H70.9532V82.8955C70.9532 82.6916 70.895 82.5266 70.7785 82.4005C70.6669 82.2743 70.5092 82.2112 70.3053 82.2112C70.087 82.2112 69.905 82.2913 69.7594 82.4514C69.6186 82.6116 69.5483 82.8178 69.5483 83.0702V85.1886H68.5582V81.4541H69.5264ZM72.2641 82.1093V81.4541H72.7809V80.2893H73.7491V81.4541H74.3897V82.1093H73.7491V84.0894C73.7491 84.3369 73.8729 84.4606 74.1204 84.4606L74.4116 84.4533V85.1813C74.2611 85.191 74.0549 85.1959 73.7928 85.1959C73.5065 85.1959 73.2662 85.1279 73.0721 84.992C72.878 84.8513 72.7809 84.6208 72.7809 84.3005V82.1093H72.2641ZM78.038 84.7373C77.674 85.1109 77.2057 85.2978 76.633 85.2978C76.0603 85.2978 75.592 85.1109 75.228 84.7373C74.864 84.3587 74.682 83.8879 74.682 83.325C74.682 82.762 74.864 82.2937 75.228 81.92C75.592 81.5414 76.0603 81.3522 76.633 81.3522C77.2057 81.3522 77.674 81.5414 78.038 81.92C78.402 82.2937 78.584 82.762 78.584 83.325C78.584 83.8879 78.402 84.3587 78.038 84.7373ZM76.633 84.5407C76.929 84.5407 77.1596 84.4315 77.3246 84.2131C77.4944 83.9899 77.5794 83.6938 77.5794 83.325C77.5794 82.9561 77.4944 82.6601 77.3246 82.4368C77.1596 82.2136 76.929 82.102 76.633 82.102C76.3321 82.102 76.0991 82.2136 75.9341 82.4368C75.7691 82.6552 75.6866 82.9513 75.6866 83.325C75.6866 83.6938 75.7691 83.9899 75.9341 84.2131C76.0991 84.4315 76.3321 84.5407 76.633 84.5407ZM80.0486 82.1384V81.4541H80.5581V81.1192C80.5581 80.6824 80.7086 80.3718 81.0095 80.1874C81.3104 80.003 81.7132 79.9375 82.2179 79.9909V80.7552C81.9704 80.7455 81.7957 80.7674 81.6938 80.8207C81.5967 80.8741 81.5482 80.993 81.5482 81.1775V81.4541H82.2179V82.1384H81.5482V85.1886H80.5581V82.1384H80.0486ZM84.3176 85.2978C83.7158 85.2978 83.2427 85.1134 82.8981 84.7445C82.5535 84.3708 82.3812 83.8952 82.3812 83.3177C82.3812 82.7596 82.5535 82.2937 82.8981 81.92C83.2427 81.5414 83.6843 81.3522 84.223 81.3522C84.8102 81.3522 85.264 81.556 85.5843 81.9637C85.9046 82.3713 86.0648 82.9173 86.0648 83.6016H83.3567C83.3955 83.8977 83.495 84.1282 83.6552 84.2932C83.8153 84.4533 84.0337 84.5334 84.3104 84.5334C84.6743 84.5334 84.9146 84.3805 85.031 84.0748H86.0065C85.9337 84.4242 85.7493 84.7154 85.4533 84.9484C85.1572 85.1813 84.7787 85.2978 84.3176 85.2978ZM84.2376 82.1165C83.7571 82.1165 83.4683 82.3835 83.3713 82.9173H85.031C85.0165 82.6795 84.9364 82.4878 84.7908 82.3422C84.6452 82.1918 84.4608 82.1165 84.2376 82.1165ZM88.2556 85.2978C87.6781 85.2978 87.2146 85.1109 86.8651 84.7373C86.5157 84.3636 86.341 83.8928 86.341 83.325C86.341 82.7572 86.5109 82.2864 86.8506 81.9127C87.1952 81.539 87.6465 81.3522 88.2046 81.3522C88.6754 81.3522 89.0588 81.4759 89.3548 81.7234C89.6509 81.9709 89.8329 82.3034 89.9008 82.7208H88.9326C88.8986 82.5509 88.821 82.4126 88.6996 82.3058C88.5783 82.199 88.4279 82.1457 88.2483 82.1457C87.9571 82.1457 87.7339 82.25 87.5786 82.4587C87.4233 82.6674 87.3456 82.9561 87.3456 83.325C87.3456 83.689 87.4208 83.9777 87.5713 84.1913C87.7217 84.4 87.9426 84.5043 88.2337 84.5043C88.6657 84.5043 88.9156 84.2932 88.9836 83.871H89.9372C89.9032 84.2835 89.7358 84.6256 89.4349 84.8974C89.134 85.1643 88.7409 85.2978 88.2556 85.2978ZM91.3591 79.9836V81.9418H91.3809C91.5217 81.738 91.6745 81.59 91.8396 81.4978C92.0094 81.4007 92.2181 81.3522 92.4656 81.3522C92.849 81.3522 93.1596 81.4832 93.3974 81.7453C93.6352 82.0025 93.7541 82.3374 93.7541 82.7499V85.1886H92.7641V82.8955C92.7641 82.6916 92.7058 82.5266 92.5894 82.4005C92.4777 82.2743 92.32 82.2112 92.1162 82.2112C91.8978 82.2112 91.7158 82.2913 91.5702 82.4514C91.4295 82.6116 91.3591 82.8178 91.3591 83.0702V85.1886H90.369V79.9836H91.3591ZM96.7157 85.1886C96.6672 85.1255 96.6284 84.9872 96.5993 84.7737H96.5847C96.4779 84.9338 96.3421 85.0576 96.177 85.1449C96.012 85.2323 95.7815 85.276 95.4855 85.276C95.0924 85.276 94.7769 85.1765 94.5391 84.9775C94.3013 84.7785 94.1824 84.497 94.1824 84.133C94.1824 83.7545 94.3134 83.4779 94.5755 83.3031C94.8376 83.1236 95.2064 82.9998 95.682 82.9319C96.0314 82.8833 96.2693 82.8348 96.3954 82.7863C96.5216 82.7329 96.5847 82.6407 96.5847 82.5096C96.5847 82.3738 96.5313 82.267 96.4246 82.1893C96.3178 82.1068 96.1625 82.0656 95.9587 82.0656C95.5073 82.0656 95.2671 82.2403 95.238 82.5897H94.3571C94.3717 82.2354 94.5148 81.9418 94.7866 81.7089C95.0584 81.4759 95.4515 81.3594 95.9659 81.3594C97.0142 81.3594 97.5384 81.8181 97.5384 82.7353V84.6353C97.5384 84.9168 97.582 85.0891 97.6694 85.1522V85.1886H96.7157ZM95.7257 84.5844C95.9975 84.5844 96.211 84.514 96.3663 84.3733C96.5265 84.2325 96.6066 84.0651 96.6066 83.871V83.3104C96.4998 83.3735 96.2693 83.4463 95.915 83.5288C95.6335 83.5919 95.4345 83.6647 95.318 83.7472C95.2016 83.8249 95.1433 83.9462 95.1433 84.1112C95.1433 84.4267 95.3374 84.5844 95.7257 84.5844ZM99.5655 85.2978C99.0947 85.2978 98.7138 85.1207 98.4226 84.7664C98.1314 84.4072 97.9858 83.9268 97.9858 83.325C97.9858 82.7426 98.1338 82.2694 98.4298 81.9054C98.7307 81.5366 99.1141 81.3522 99.58 81.3522C100.046 81.3522 100.398 81.5366 100.636 81.9054H100.657V79.9836H101.648V85.1886H100.694V84.7009H100.679C100.437 85.0988 100.065 85.2978 99.5655 85.2978ZM99.7839 84.4679C100.075 84.4679 100.296 84.3684 100.446 84.1694C100.602 83.9705 100.679 83.6962 100.679 83.3468C100.679 82.5509 100.391 82.1529 99.813 82.1529C99.5461 82.1529 99.3422 82.2597 99.2015 82.4732C99.0608 82.6868 98.9904 82.9707 98.9904 83.325C98.9904 83.689 99.0583 83.9705 99.1942 84.1694C99.335 84.3684 99.5315 84.4679 99.7839 84.4679ZM105.465 84.7373C105.101 85.1109 104.633 85.2978 104.06 85.2978C103.487 85.2978 103.019 85.1109 102.655 84.7373C102.291 84.3587 102.109 83.8879 102.109 83.325C102.109 82.762 102.291 82.2937 102.655 81.92C103.019 81.5414 103.487 81.3522 104.06 81.3522C104.633 81.3522 105.101 81.5414 105.465 81.92C105.829 82.2937 106.011 82.762 106.011 83.325C106.011 83.8879 105.829 84.3587 105.465 84.7373ZM104.06 84.5407C104.356 84.5407 104.587 84.4315 104.752 84.2131C104.921 83.9899 105.006 83.6938 105.006 83.325C105.006 82.9561 104.921 82.6601 104.752 82.4368C104.587 82.2136 104.356 82.102 104.06 82.102C103.759 82.102 103.526 82.2136 103.361 82.4368C103.196 82.6552 103.114 82.9513 103.114 83.325C103.114 83.6938 103.196 83.9899 103.361 84.2131C103.526 84.4315 103.759 84.5407 104.06 84.5407ZM107.985 85.2978C107.452 85.2978 107.034 85.1813 106.733 84.9484C106.432 84.7106 106.267 84.3878 106.238 83.9802H107.156C107.219 84.3927 107.49 84.5989 107.971 84.5989C108.189 84.5989 108.357 84.5601 108.473 84.4825C108.595 84.4048 108.655 84.3005 108.655 84.1694C108.655 84.1209 108.645 84.0772 108.626 84.0384C108.611 83.9996 108.582 83.9656 108.539 83.9365C108.5 83.9025 108.463 83.8758 108.43 83.8564C108.4 83.837 108.347 83.8176 108.269 83.7982C108.192 83.7788 108.131 83.7642 108.087 83.7545C108.049 83.7448 107.978 83.7326 107.876 83.7181C107.779 83.6987 107.711 83.6841 107.672 83.6744C107.469 83.6356 107.301 83.5968 107.17 83.5579C107.044 83.5143 106.91 83.4536 106.77 83.3759C106.629 83.2934 106.522 83.1842 106.449 83.0483C106.381 82.9076 106.347 82.7402 106.347 82.546C106.347 82.1578 106.488 81.8617 106.77 81.6579C107.056 81.4541 107.422 81.3522 107.869 81.3522C108.349 81.3522 108.726 81.4638 108.997 81.687C109.274 81.9054 109.432 82.2063 109.471 82.5897H108.575C108.536 82.2257 108.296 82.0437 107.854 82.0437C107.655 82.0437 107.498 82.0801 107.381 82.1529C107.27 82.2257 107.214 82.3277 107.214 82.4587C107.214 82.5024 107.221 82.5436 107.236 82.5824C107.255 82.6164 107.284 82.648 107.323 82.6771C107.367 82.7013 107.408 82.7232 107.447 82.7426C107.486 82.7572 107.541 82.7741 107.614 82.7936C107.687 82.8081 107.75 82.8227 107.803 82.8372C107.857 82.8469 107.93 82.8615 108.022 82.8809C108.114 82.8955 108.187 82.9076 108.24 82.9173C108.396 82.9513 108.522 82.9828 108.619 83.012C108.721 83.0362 108.837 83.0799 108.968 83.143C109.099 83.2012 109.201 83.2692 109.274 83.3468C109.352 83.4196 109.417 83.5215 109.471 83.6526C109.529 83.7788 109.558 83.9268 109.558 84.0966C109.558 84.4655 109.412 84.7591 109.121 84.9775C108.835 85.191 108.456 85.2978 107.985 85.2978Z" fill="#232E48"/>
<rect x="124.3" y="72.3778" width="88.6211" height="20.6211" rx="10.3106" fill="black" fill-opacity="0.01"/>
<path d="M132.3 85.1886C132.31 84.8926 132.38 84.6135 132.511 84.3514C132.642 84.0845 132.783 83.871 132.933 83.7108C133.089 83.5507 133.278 83.3832 133.501 83.2085C133.579 83.1454 133.7 83.0532 133.865 82.9319C134.035 82.8105 134.161 82.7159 134.244 82.648C134.326 82.58 134.419 82.4951 134.52 82.3932C134.627 82.2864 134.702 82.1796 134.746 82.0729C134.79 81.9612 134.812 81.8448 134.812 81.7234C134.812 81.4856 134.751 81.2964 134.63 81.1556C134.508 81.0149 134.338 80.9445 134.12 80.9445C133.868 80.9445 133.669 81.0319 133.523 81.2066C133.382 81.3813 133.31 81.6312 133.305 81.9564H132.373C132.373 81.374 132.521 80.9202 132.817 80.5951C133.118 80.2651 133.56 80.1 134.142 80.1C134.666 80.1 135.079 80.2529 135.379 80.5587C135.685 80.8644 135.838 81.243 135.838 81.6943C135.838 81.9176 135.804 82.1214 135.736 82.3058C135.673 82.4854 135.571 82.6504 135.43 82.8008C135.29 82.9513 135.163 83.0702 135.052 83.1575C134.94 83.2449 134.785 83.3541 134.586 83.4851C134.042 83.8346 133.708 84.1306 133.581 84.3733H135.882V85.1886H132.3ZM136.317 85.1886C136.326 84.8926 136.397 84.6135 136.528 84.3514C136.659 84.0845 136.8 83.871 136.95 83.7108C137.105 83.5507 137.295 83.3832 137.518 83.2085C137.596 83.1454 137.717 83.0532 137.882 82.9319C138.052 82.8105 138.178 82.7159 138.26 82.648C138.343 82.58 138.435 82.4951 138.537 82.3932C138.644 82.2864 138.719 82.1796 138.763 82.0729C138.806 81.9612 138.828 81.8448 138.828 81.7234C138.828 81.4856 138.768 81.2964 138.646 81.1556C138.525 81.0149 138.355 80.9445 138.137 80.9445C137.884 80.9445 137.685 81.0319 137.54 81.2066C137.399 81.3813 137.326 81.6312 137.321 81.9564H136.39C136.39 81.374 136.538 80.9202 136.834 80.5951C137.135 80.2651 137.576 80.1 138.159 80.1C138.683 80.1 139.095 80.2529 139.396 80.5587C139.702 80.8644 139.855 81.243 139.855 81.6943C139.855 81.9176 139.821 82.1214 139.753 82.3058C139.69 82.4854 139.588 82.6504 139.447 82.8008C139.306 82.9513 139.18 83.0702 139.069 83.1575C138.957 83.2449 138.802 83.3541 138.603 83.4851C138.059 83.8346 137.724 84.1306 137.598 84.3733H139.898V85.1886H136.317ZM143.384 85.2978C142.807 85.2978 142.343 85.1109 141.994 84.7373C141.644 84.3636 141.47 83.8928 141.47 83.325C141.47 82.7572 141.64 82.2864 141.979 81.9127C142.324 81.539 142.775 81.3522 143.333 81.3522C143.804 81.3522 144.187 81.4759 144.484 81.7234C144.78 81.9709 144.962 82.3034 145.03 82.7208H144.061C144.027 82.5509 143.95 82.4126 143.828 82.3058C143.707 82.199 143.557 82.1457 143.377 82.1457C143.086 82.1457 142.863 82.25 142.707 82.4587C142.552 82.6674 142.474 82.9561 142.474 83.325C142.474 83.689 142.55 83.9777 142.7 84.1913C142.85 84.4 143.071 84.5043 143.362 84.5043C143.794 84.5043 144.044 84.2932 144.112 83.871H145.066C145.032 84.2835 144.865 84.6256 144.564 84.8974C144.263 85.1643 143.87 85.2978 143.384 85.2978ZM148.672 84.7373C148.308 85.1109 147.839 85.2978 147.267 85.2978C146.694 85.2978 146.226 85.1109 145.862 84.7373C145.498 84.3587 145.316 83.8879 145.316 83.325C145.316 82.762 145.498 82.2937 145.862 81.92C146.226 81.5414 146.694 81.3522 147.267 81.3522C147.839 81.3522 148.308 81.5414 148.672 81.92C149.036 82.2937 149.218 82.762 149.218 83.325C149.218 83.8879 149.036 84.3587 148.672 84.7373ZM147.267 84.5407C147.563 84.5407 147.793 84.4315 147.958 84.2131C148.128 83.9899 148.213 83.6938 148.213 83.325C148.213 82.9561 148.128 82.6601 147.958 82.4368C147.793 82.2136 147.563 82.102 147.267 82.102C146.966 82.102 146.733 82.2136 146.568 82.4368C146.403 82.6552 146.32 82.9513 146.32 83.325C146.32 83.6938 146.403 83.9899 146.568 84.2131C146.733 84.4315 146.966 84.5407 147.267 84.5407ZM150.646 81.4541V81.9637H150.668C150.925 81.556 151.294 81.3522 151.774 81.3522C152.158 81.3522 152.468 81.4832 152.706 81.7453C152.944 82.0025 153.063 82.3374 153.063 82.7499V85.1886H152.073V82.8955C152.073 82.6916 152.015 82.5266 151.898 82.4005C151.787 82.2743 151.629 82.2112 151.425 82.2112C151.207 82.2112 151.025 82.2913 150.879 82.4514C150.738 82.6116 150.668 82.8178 150.668 83.0702V85.1886H149.678V81.4541H150.646ZM155.187 85.2978C154.654 85.2978 154.236 85.1813 153.935 84.9484C153.634 84.7106 153.469 84.3878 153.44 83.9802H154.358C154.421 84.3927 154.692 84.5989 155.173 84.5989C155.391 84.5989 155.559 84.5601 155.675 84.4825C155.797 84.4048 155.857 84.3005 155.857 84.1694C155.857 84.1209 155.847 84.0772 155.828 84.0384C155.814 83.9996 155.784 83.9656 155.741 83.9365C155.702 83.9025 155.665 83.8758 155.632 83.8564C155.602 83.837 155.549 83.8176 155.471 83.7982C155.394 83.7788 155.333 83.7642 155.289 83.7545C155.251 83.7448 155.18 83.7326 155.078 83.7181C154.981 83.6987 154.913 83.6841 154.874 83.6744C154.671 83.6356 154.503 83.5968 154.372 83.5579C154.246 83.5143 154.112 83.4536 153.972 83.3759C153.831 83.2934 153.724 83.1842 153.651 83.0483C153.583 82.9076 153.55 82.7402 153.55 82.546C153.55 82.1578 153.69 81.8617 153.972 81.6579C154.258 81.4541 154.624 81.3522 155.071 81.3522C155.551 81.3522 155.928 81.4638 156.199 81.687C156.476 81.9054 156.634 82.2063 156.673 82.5897H155.777C155.738 82.2257 155.498 82.0437 155.056 82.0437C154.857 82.0437 154.7 82.0801 154.583 82.1529C154.472 82.2257 154.416 82.3277 154.416 82.4587C154.416 82.5024 154.423 82.5436 154.438 82.5824C154.457 82.6164 154.486 82.648 154.525 82.6771C154.569 82.7013 154.61 82.7232 154.649 82.7426C154.688 82.7572 154.743 82.7741 154.816 82.7936C154.889 82.8081 154.952 82.8227 155.005 82.8372C155.059 82.8469 155.132 82.8615 155.224 82.8809C155.316 82.8955 155.389 82.9076 155.442 82.9173C155.598 82.9513 155.724 82.9828 155.821 83.012C155.923 83.0362 156.039 83.0799 156.17 83.143C156.301 83.2012 156.403 83.2692 156.476 83.3468C156.554 83.4196 156.619 83.5215 156.673 83.6526C156.731 83.7788 156.76 83.9268 156.76 84.0966C156.76 84.4655 156.614 84.7591 156.323 84.9775C156.037 85.191 155.658 85.2978 155.187 85.2978ZM160.519 85.1886H159.565V84.7518H159.543C159.407 84.9362 159.257 85.0721 159.092 85.1595C158.932 85.2468 158.726 85.2905 158.473 85.2905C158.066 85.2905 157.748 85.1692 157.52 84.9265C157.291 84.6839 157.177 84.3563 157.177 83.9438V81.4541H158.16V83.7763C158.16 84.2277 158.366 84.4533 158.779 84.4533C159.007 84.4533 159.189 84.3757 159.325 84.2204C159.461 84.0651 159.529 83.8613 159.529 83.6089V81.4541H160.519V85.1886ZM161.174 85.1886V79.9836H162.164V85.1886H161.174ZM162.597 82.1093V81.4541H163.114V80.2893H164.082V81.4541H164.723V82.1093H164.082V84.0894C164.082 84.3369 164.206 84.4606 164.454 84.4606L164.745 84.4533V85.1813C164.594 85.191 164.388 85.1959 164.126 85.1959C163.84 85.1959 163.599 85.1279 163.405 84.992C163.211 84.8513 163.114 84.6208 163.114 84.3005V82.1093H162.597ZM167.62 85.1886C167.571 85.1255 167.532 84.9872 167.503 84.7737H167.489C167.382 84.9338 167.246 85.0576 167.081 85.1449C166.916 85.2323 166.685 85.276 166.389 85.276C165.996 85.276 165.681 85.1765 165.443 84.9775C165.205 84.7785 165.086 84.497 165.086 84.133C165.086 83.7545 165.217 83.4779 165.479 83.3031C165.741 83.1236 166.11 82.9998 166.586 82.9319C166.935 82.8833 167.173 82.8348 167.299 82.7863C167.426 82.7329 167.489 82.6407 167.489 82.5096C167.489 82.3738 167.435 82.267 167.328 82.1893C167.222 82.1068 167.066 82.0656 166.863 82.0656C166.411 82.0656 166.171 82.2403 166.142 82.5897H165.261C165.276 82.2354 165.419 81.9418 165.69 81.7089C165.962 81.4759 166.355 81.3594 166.87 81.3594C167.918 81.3594 168.442 81.8181 168.442 82.7353V84.6353C168.442 84.9168 168.486 85.0891 168.573 85.1522V85.1886H167.62ZM166.63 84.5844C166.901 84.5844 167.115 84.514 167.27 84.3733C167.43 84.2325 167.51 84.0651 167.51 83.871V83.3104C167.404 83.3735 167.173 83.4463 166.819 83.5288C166.537 83.5919 166.338 83.6647 166.222 83.7472C166.105 83.8249 166.047 83.9462 166.047 84.1112C166.047 84.4267 166.241 84.5844 166.63 84.5844ZM170.586 85.2978C170.052 85.2978 169.635 85.1813 169.334 84.9484C169.033 84.7106 168.868 84.3878 168.839 83.9802H169.756C169.819 84.3927 170.091 84.5989 170.571 84.5989C170.79 84.5989 170.957 84.5601 171.074 84.4825C171.195 84.4048 171.256 84.3005 171.256 84.1694C171.256 84.1209 171.246 84.0772 171.226 84.0384C171.212 83.9996 171.183 83.9656 171.139 83.9365C171.1 83.9025 171.064 83.8758 171.03 83.8564C171.001 83.837 170.947 83.8176 170.87 83.7982C170.792 83.7788 170.731 83.7642 170.688 83.7545C170.649 83.7448 170.579 83.7326 170.477 83.7181C170.38 83.6987 170.312 83.6841 170.273 83.6744C170.069 83.6356 169.902 83.5968 169.771 83.5579C169.644 83.5143 169.511 83.4536 169.37 83.3759C169.229 83.2934 169.123 83.1842 169.05 83.0483C168.982 82.9076 168.948 82.7402 168.948 82.546C168.948 82.1578 169.089 81.8617 169.37 81.6579C169.656 81.4541 170.023 81.3522 170.469 81.3522C170.95 81.3522 171.326 81.4638 171.598 81.687C171.874 81.9054 172.032 82.2063 172.071 82.5897H171.176C171.137 82.2257 170.896 82.0437 170.455 82.0437C170.256 82.0437 170.098 82.0801 169.982 82.1529C169.87 82.2257 169.814 82.3277 169.814 82.4587C169.814 82.5024 169.821 82.5436 169.836 82.5824C169.855 82.6164 169.885 82.648 169.923 82.6771C169.967 82.7013 170.008 82.7232 170.047 82.7426C170.086 82.7572 170.142 82.7741 170.215 82.7936C170.287 82.8081 170.35 82.8227 170.404 82.8372C170.457 82.8469 170.53 82.8615 170.622 82.8809C170.714 82.8955 170.787 82.9076 170.841 82.9173C170.996 82.9513 171.122 82.9828 171.219 83.012C171.321 83.0362 171.438 83.0799 171.569 83.143C171.7 83.2012 171.802 83.2692 171.874 83.3468C171.952 83.4196 172.018 83.5215 172.071 83.6526C172.129 83.7788 172.158 83.9268 172.158 84.0966C172.158 84.4655 172.013 84.7591 171.721 84.9775C171.435 85.191 171.057 85.2978 170.586 85.2978ZM173.828 85.1886V81.4541H174.781V81.9564H174.803C175.041 81.5536 175.403 81.3522 175.888 81.3522C176.121 81.3522 176.327 81.4128 176.507 81.5342C176.691 81.6506 176.829 81.8084 176.922 82.0073H176.936C177.208 81.5706 177.582 81.3522 178.057 81.3522C178.445 81.3522 178.746 81.4711 178.96 81.7089C179.178 81.9418 179.287 82.2646 179.287 82.6771V85.1886H178.297V82.8445C178.297 82.4174 178.106 82.2039 177.722 82.2039C177.514 82.2039 177.349 82.2791 177.227 82.4296C177.111 82.5752 177.053 82.7717 177.053 83.0192V85.1886H176.063V82.8445C176.063 82.4174 175.871 82.2039 175.487 82.2039C175.288 82.2039 175.126 82.2791 175 82.4296C174.878 82.5752 174.818 82.7717 174.818 83.0192V85.1886H173.828ZM182.25 85.1886C182.202 85.1255 182.163 84.9872 182.134 84.7737H182.119C182.012 84.9338 181.877 85.0576 181.712 85.1449C181.547 85.2323 181.316 85.276 181.02 85.276C180.627 85.276 180.311 85.1765 180.074 84.9775C179.836 84.7785 179.717 84.497 179.717 84.133C179.717 83.7545 179.848 83.4779 180.11 83.3031C180.372 83.1236 180.741 82.9998 181.217 82.9319C181.566 82.8833 181.804 82.8348 181.93 82.7863C182.056 82.7329 182.119 82.6407 182.119 82.5096C182.119 82.3738 182.066 82.267 181.959 82.1893C181.852 82.1068 181.697 82.0656 181.493 82.0656C181.042 82.0656 180.802 82.2403 180.772 82.5897H179.892C179.906 82.2354 180.049 81.9418 180.321 81.7089C180.593 81.4759 180.986 81.3594 181.5 81.3594C182.549 81.3594 183.073 81.8181 183.073 82.7353V84.6353C183.073 84.9168 183.117 85.0891 183.204 85.1522V85.1886H182.25ZM181.26 84.5844C181.532 84.5844 181.746 84.514 181.901 84.3733C182.061 84.2325 182.141 84.0651 182.141 83.871V83.3104C182.034 83.3735 181.804 83.4463 181.449 83.5288C181.168 83.5919 180.969 83.6647 180.853 83.7472C180.736 83.8249 180.678 83.9462 180.678 84.1112C180.678 84.4267 180.872 84.5844 181.26 84.5844ZM184.656 81.4541V82.051H184.678C184.794 81.8326 184.923 81.6725 185.064 81.5706C185.204 81.4638 185.381 81.4104 185.595 81.4104C185.697 81.4104 185.775 81.4201 185.828 81.4395V82.3058H185.806C185.471 82.2718 185.202 82.3446 184.998 82.5242C184.794 82.7038 184.692 82.9853 184.692 83.3687V85.1886H183.702V81.4541H184.656ZM187.88 85.2978C187.303 85.2978 186.839 85.1109 186.49 84.7373C186.141 84.3636 185.966 83.8928 185.966 83.325C185.966 82.7572 186.136 82.2864 186.475 81.9127C186.82 81.539 187.271 81.3522 187.829 81.3522C188.3 81.3522 188.684 81.4759 188.98 81.7234C189.276 81.9709 189.458 82.3034 189.526 82.7208H188.557C188.523 82.5509 188.446 82.4126 188.324 82.3058C188.203 82.199 188.053 82.1457 187.873 82.1457C187.582 82.1457 187.359 82.25 187.203 82.4587C187.048 82.6674 186.97 82.9561 186.97 83.325C186.97 83.689 187.046 83.9777 187.196 84.1913C187.347 84.4 187.567 84.5043 187.859 84.5043C188.29 84.5043 188.54 84.2932 188.608 83.871H189.562C189.528 84.2835 189.361 84.6256 189.06 84.8974C188.759 85.1643 188.366 85.2978 187.88 85.2978ZM192.416 85.1886C192.368 85.1255 192.329 84.9872 192.3 84.7737H192.285C192.179 84.9338 192.043 85.0576 191.878 85.1449C191.713 85.2323 191.482 85.276 191.186 85.276C190.793 85.276 190.477 85.1765 190.24 84.9775C190.002 84.7785 189.883 84.497 189.883 84.133C189.883 83.7545 190.014 83.4779 190.276 83.3031C190.538 83.1236 190.907 82.9998 191.383 82.9319C191.732 82.8833 191.97 82.8348 192.096 82.7863C192.222 82.7329 192.285 82.6407 192.285 82.5096C192.285 82.3738 192.232 82.267 192.125 82.1893C192.018 82.1068 191.863 82.0656 191.659 82.0656C191.208 82.0656 190.968 82.2403 190.939 82.5897H190.058C190.072 82.2354 190.215 81.9418 190.487 81.7089C190.759 81.4759 191.152 81.3594 191.666 81.3594C192.715 81.3594 193.239 81.8181 193.239 82.7353V84.6353C193.239 84.9168 193.283 85.0891 193.37 85.1522V85.1886H192.416ZM191.426 84.5844C191.698 84.5844 191.912 84.514 192.067 84.3733C192.227 84.2325 192.307 84.0651 192.307 83.871V83.3104C192.2 83.3735 191.97 83.4463 191.616 83.5288C191.334 83.5919 191.135 83.6647 191.019 83.7472C190.902 83.8249 190.844 83.9462 190.844 84.1112C190.844 84.4267 191.038 84.5844 191.426 84.5844ZM195.266 85.2978C194.795 85.2978 194.414 85.1207 194.123 84.7664C193.832 84.4072 193.686 83.9268 193.686 83.325C193.686 82.7426 193.834 82.2694 194.13 81.9054C194.431 81.5366 194.815 81.3522 195.281 81.3522C195.747 81.3522 196.098 81.5366 196.336 81.9054H196.358V79.9836H197.348V85.1886H196.394V84.7009H196.38C196.137 85.0988 195.766 85.2978 195.266 85.2978ZM195.484 84.4679C195.776 84.4679 195.996 84.3684 196.147 84.1694C196.302 83.9705 196.38 83.6962 196.38 83.3468C196.38 82.5509 196.091 82.1529 195.514 82.1529C195.247 82.1529 195.043 82.2597 194.902 82.4732C194.761 82.6868 194.691 82.9707 194.691 83.325C194.691 83.689 194.759 83.9705 194.895 84.1694C195.036 84.3684 195.232 84.4679 195.484 84.4679ZM200.343 85.1886C200.294 85.1255 200.256 84.9872 200.227 84.7737H200.212C200.105 84.9338 199.969 85.0576 199.804 85.1449C199.639 85.2323 199.409 85.276 199.113 85.276C198.72 85.276 198.404 85.1765 198.166 84.9775C197.929 84.7785 197.81 84.497 197.81 84.133C197.81 83.7545 197.941 83.4779 198.203 83.3031C198.465 83.1236 198.834 82.9998 199.309 82.9319C199.659 82.8833 199.897 82.8348 200.023 82.7863C200.149 82.7329 200.212 82.6407 200.212 82.5096C200.212 82.3738 200.159 82.267 200.052 82.1893C199.945 82.1068 199.79 82.0656 199.586 82.0656C199.135 82.0656 198.894 82.2403 198.865 82.5897H197.984C197.999 82.2354 198.142 81.9418 198.414 81.7089C198.686 81.4759 199.079 81.3594 199.593 81.3594C200.641 81.3594 201.166 81.8181 201.166 82.7353V84.6353C201.166 84.9168 201.209 85.0891 201.297 85.1522V85.1886H200.343ZM199.353 84.5844C199.625 84.5844 199.838 84.514 199.994 84.3733C200.154 84.2325 200.234 84.0651 200.234 83.871V83.3104C200.127 83.3735 199.897 83.4463 199.542 83.5288C199.261 83.5919 199.062 83.6647 198.945 83.7472C198.829 83.8249 198.771 83.9462 198.771 84.1112C198.771 84.4267 198.965 84.5844 199.353 84.5844ZM203.309 85.2978C202.775 85.2978 202.358 85.1813 202.057 84.9484C201.756 84.7106 201.591 84.3878 201.562 83.9802H202.479C202.542 84.3927 202.814 84.5989 203.295 84.5989C203.513 84.5989 203.68 84.5601 203.797 84.4825C203.918 84.4048 203.979 84.3005 203.979 84.1694C203.979 84.1209 203.969 84.0772 203.95 84.0384C203.935 83.9996 203.906 83.9656 203.862 83.9365C203.824 83.9025 203.787 83.8758 203.753 83.8564C203.724 83.837 203.671 83.8176 203.593 83.7982C203.515 83.7788 203.455 83.7642 203.411 83.7545C203.372 83.7448 203.302 83.7326 203.2 83.7181C203.103 83.6987 203.035 83.6841 202.996 83.6744C202.792 83.6356 202.625 83.5968 202.494 83.5579C202.368 83.5143 202.234 83.4536 202.093 83.3759C201.953 83.2934 201.846 83.1842 201.773 83.0483C201.705 82.9076 201.671 82.7402 201.671 82.546C201.671 82.1578 201.812 81.8617 202.093 81.6579C202.38 81.4541 202.746 81.3522 203.193 81.3522C203.673 81.3522 204.049 81.4638 204.321 81.687C204.598 81.9054 204.755 82.2063 204.794 82.5897H203.899C203.86 82.2257 203.62 82.0437 203.178 82.0437C202.979 82.0437 202.821 82.0801 202.705 82.1529C202.593 82.2257 202.538 82.3277 202.538 82.4587C202.538 82.5024 202.545 82.5436 202.559 82.5824C202.579 82.6164 202.608 82.648 202.647 82.6771C202.69 82.7013 202.732 82.7232 202.771 82.7426C202.809 82.7572 202.865 82.7741 202.938 82.7936C203.011 82.8081 203.074 82.8227 203.127 82.8372C203.181 82.8469 203.253 82.8615 203.346 82.8809C203.438 82.8955 203.511 82.9076 203.564 82.9173C203.719 82.9513 203.845 82.9828 203.943 83.012C204.044 83.0362 204.161 83.0799 204.292 83.143C204.423 83.2012 204.525 83.2692 204.598 83.3468C204.675 83.4196 204.741 83.5215 204.794 83.6526C204.853 83.7788 204.882 83.9268 204.882 84.0966C204.882 84.4655 204.736 84.7591 204.445 84.9775C204.159 85.191 203.78 85.2978 203.309 85.2978Z" fill="#232E48"/>
</g>
<defs>
<linearGradient id="paint0_linear_2322_122" x1="336.5" y1="-3.06398e-08" x2="336.5" y2="217" gradientUnits="userSpaceOnUse">
<stop stop-color="#B3E8FF"/>
<stop offset="0.703465" stop-color="#B3E8FF" stop-opacity="0"/>
</linearGradient>
<radialGradient id="paint1_radial_2322_122" cx="0" cy="0" r="1" gradientUnits="userSpaceOnUse" gradientTransform="translate(229 33.5002) rotate(71.3626) scale(223.733 474.09)">
<stop offset="0.109145" stop-color="#CAF3FF"/>
<stop offset="0.593158" stop-color="#00AEFF" stop-opacity="0.2"/>
<stop offset="1" stop-color="#3C3CCE" stop-opacity="0"/>
</radialGradient>
<radialGradient id="paint2_radial_2322_122" cx="0" cy="0" r="1" gradientTransform="matrix(314.389 395.144 -173.234 569.449 103.296 -117.722)" gradientUnits="userSpaceOnUse">
<stop offset="0.0327964" stop-color="#CAF3FF"/>
<stop offset="0.386144" stop-color="#00AEFF"/>
<stop offset="1" stop-color="#3C3CCE"/>
</radialGradient>
<radialGradient id="paint3_radial_2322_122" cx="0" cy="0" r="1" gradientTransform="matrix(6.21741 15.1913 -3.4259 21.8924 20.1219 47.8874)" gradientUnits="userSpaceOnUse">
<stop offset="0.0327964" stop-color="#CAF3FF"/>
<stop offset="0.386144" stop-color="#00AEFF"/>
<stop offset="1" stop-color="#3C3CCE"/>
</radialGradient>
<clipPath id="clip0_2322_122">
<rect width="351" height="218" rx="20" fill="white"/>
</clipPath>
</defs>
</svg>
