<svg width="179" height="218" viewBox="0 0 179 218" fill="none" xmlns="http://www.w3.org/2000/svg">
<rect width="179" height="218" rx="20" fill="#D8F2FC"/>
<path d="M89.5 17C93.6421 17.0001 97 20.3579 97 24.5C97 28.6421 93.6421 31.9999 89.5 32C74.954 32 61.8013 37.9058 52.2852 47.4688L51.4092 48.3701C42.4716 57.7889 37 70.4989 37 84.5C37 103.04 46.6055 119.342 61.1465 128.693C69.32 133.95 79.0422 137 89.5 137C93.6421 137 96.9999 140.358 97 144.5C96.9999 148.642 93.6421 152 89.5 152C76.0799 152 63.553 148.076 53.0322 141.31C34.381 129.315 22 108.355 22 84.5C22 66.213 29.2818 49.6128 41.0869 37.4639L41.6523 36.8887C53.8683 24.6126 70.8023 17 89.5 17Z" fill="#1274F1"/>
<path d="M133.233 113.557C135.529 110.11 140.185 109.176 143.633 111.472C147.08 113.768 148.014 118.424 145.718 121.872C133.634 140.017 112.968 152 89.5 152.001C85.3581 152.001 82.0003 148.642 82 144.501C82 140.358 85.3579 137.001 89.5 137.001C107.74 137 123.812 127.704 133.233 113.557Z" fill="#1AB6FD"/>
<path d="M89.5 17C98.3226 17 106.768 18.6966 114.513 21.7881C114.742 21.8796 114.964 21.9819 115.179 22.0928C139.709 32.1911 157 56.3327 157 84.5322C157 98.3396 152.846 111.2 145.719 121.903C144.49 123.748 142.585 124.872 140.551 125.167C140.213 125.216 139.872 125.243 139.529 125.246C139.405 125.247 139.281 125.246 139.157 125.241C137.831 125.186 136.503 124.778 135.318 123.989C134.611 123.518 134.012 122.946 133.522 122.308C133.266 121.973 133.039 121.621 132.845 121.254C132.619 120.826 132.436 120.379 132.297 119.919C132.193 119.574 132.113 119.223 132.06 118.867C131.988 118.393 131.961 117.911 131.981 117.429C131.986 117.308 131.994 117.187 132.005 117.066C132.048 116.585 132.14 116.105 132.278 115.633C132.452 115.043 132.7 114.466 133.027 113.916C133.093 113.806 133.162 113.698 133.233 113.59C133.407 113.33 133.577 113.068 133.746 112.805C134.083 112.278 134.411 111.746 134.729 111.207C135.048 110.668 135.358 110.123 135.657 109.572C136.107 108.746 136.534 107.906 136.939 107.054C137.21 106.485 137.47 105.911 137.721 105.332C137.971 104.752 138.212 104.167 138.441 103.577C138.901 102.397 139.319 101.196 139.693 99.9766C140.068 98.7564 140.4 97.5173 140.687 96.2607C140.83 95.6325 140.962 94.9999 141.082 94.3633C141.684 91.1801 142 87.8941 142 84.5322C142 62.4222 128.329 43.4869 108.952 35.752C108.776 35.6814 108.604 35.6026 108.436 35.5205C102.571 33.2514 96.1901 32 89.5 32C85.358 31.9999 82 28.642 82 24.5C82 20.358 85.358 17.0001 89.5 17Z" fill="#0850AB"/>
<g filter="url(#filter0_i_2322_169)">
<circle cx="90" cy="85" r="46.5" fill="#F3FCFF"/>
</g>
<path d="M55.78 79.5V66.2396H61.8631C63.1366 66.2396 64.1628 66.5796 64.9418 67.2596C65.7331 67.9396 66.1287 68.8299 66.1287 69.9303C66.1287 71.6241 65.3189 72.6936 63.6992 73.1387V73.1944C64.3297 73.3798 64.7996 73.6765 65.1087 74.0846C65.4301 74.4802 65.6342 75.0737 65.7207 75.865C65.7454 76.1617 65.7702 76.5141 65.7949 76.9221C65.832 77.3178 65.8567 77.633 65.8691 77.8679C65.8938 78.1029 65.9185 78.3378 65.9433 78.5727C65.9803 78.8076 66.0236 78.9931 66.0731 79.1291C66.1349 79.2527 66.2091 79.3331 66.2956 79.3702V79.5H63.7177C63.6683 79.4753 63.625 79.432 63.5879 79.3702C63.5508 79.296 63.5199 79.1971 63.4952 79.0734C63.4704 78.9498 63.4457 78.8262 63.421 78.7025C63.4086 78.5665 63.3901 78.3996 63.3654 78.2018C63.353 77.9916 63.3406 77.8123 63.3283 77.6639C63.3159 77.5032 63.2974 77.2992 63.2726 77.0519C63.2603 76.7923 63.2479 76.5883 63.2355 76.4399C63.1243 74.9315 62.2588 74.1773 60.6391 74.1773H58.4692V79.5H55.78ZM58.4692 68.4095V72.1001H61.3253C62.03 72.1001 62.5679 71.9332 62.9388 71.5994C63.3221 71.2656 63.5137 70.8266 63.5137 70.2826C63.5137 69.7262 63.3344 69.275 62.9759 68.9288C62.6173 68.5826 62.0919 68.4095 61.3995 68.4095H58.4692ZM72.0517 81.299V79.704C70.5433 79.6175 69.3749 79.2156 68.5465 78.4985C67.7181 77.769 67.2854 76.7799 67.2483 75.5312H69.7705C69.8571 76.1864 70.0796 76.6872 70.4382 77.0334C70.8091 77.3672 71.347 77.5712 72.0517 77.6454V74.1217C72.0022 74.1217 71.9713 74.1155 71.959 74.1031C71.415 73.9795 70.9699 73.8682 70.6237 73.7693C70.2775 73.6704 69.888 73.522 69.4553 73.3242C69.0349 73.114 68.7011 72.8914 68.4538 72.6565C68.2189 72.4092 68.0149 72.0878 67.8418 71.6921C67.681 71.2841 67.6007 70.8266 67.6007 70.3197C67.6007 69.1575 68.0025 68.2487 68.8061 67.5935C69.6222 66.9382 70.704 66.5796 72.0517 66.5178V65.4236H73.1645V66.5363C74.4256 66.6476 75.4209 67.0433 76.1504 67.7233C76.8922 68.3909 77.3064 69.3059 77.393 70.4681H74.9263C74.8027 69.4542 74.2154 68.8422 73.1645 68.632V71.8405C73.1892 71.8529 73.2263 71.859 73.2757 71.859C73.9558 71.995 74.5307 72.1434 75.0005 72.3041C75.4704 72.4649 75.9278 72.6874 76.3729 72.9718C76.818 73.2562 77.1519 73.6271 77.3744 74.0846C77.597 74.542 77.7082 75.086 77.7082 75.7166C77.7082 76.9283 77.2879 77.8865 76.4471 78.5912C75.6187 79.2836 74.5245 79.6607 73.1645 79.7226V81.299H72.0517ZM75.1118 76.0319C75.1118 75.5868 74.9511 75.2468 74.6296 75.0119C74.3205 74.7769 73.8321 74.5729 73.1645 74.3998V77.6454C73.7456 77.5836 74.2154 77.4228 74.574 77.1632C74.9325 76.8912 75.1118 76.5141 75.1118 76.0319ZM70.6793 69.0586C70.3455 69.3059 70.1786 69.6335 70.1786 70.0415C70.1786 70.4495 70.3207 70.771 70.6051 71.0059C70.9018 71.2285 71.384 71.4263 72.0517 71.5994V68.5764C71.4706 68.6382 71.0131 68.7989 70.6793 69.0586ZM84.7228 79.5V70.635H81.8482V68.9659C83.7523 68.8917 84.8218 68.1375 85.0567 66.7032H87.2636V79.5H84.7228ZM94.4707 79.7967C92.851 79.7967 91.5589 79.1971 90.5945 77.9978C89.6425 76.7985 89.1665 75.185 89.1665 73.1573C89.1665 71.1296 89.6487 69.5161 90.6131 68.3167C91.5775 67.1174 92.8695 66.5178 94.4892 66.5178C96.1213 66.5178 97.4071 67.1174 98.3468 68.3167C99.2988 69.5037 99.7748 71.1172 99.7748 73.1573C99.7748 75.185 99.2988 76.7985 98.3468 77.9978C97.4071 79.1971 96.1151 79.7967 94.4707 79.7967ZM94.4892 77.6454C96.2573 77.6454 97.1413 76.1494 97.1413 73.1573C97.1413 71.7478 96.9249 70.6474 96.4922 69.8561C96.0594 69.0648 95.3918 68.6691 94.4892 68.6691C93.5743 68.6691 92.8942 69.0648 92.4491 69.8561C92.0164 70.6474 91.8 71.7478 91.8 73.1573C91.8 74.5668 92.0164 75.6672 92.4491 76.4585C92.8942 77.2497 93.5743 77.6454 94.4892 77.6454ZM106.189 79.7967C104.569 79.7967 103.277 79.1971 102.313 77.9978C101.361 76.7985 100.885 75.185 100.885 73.1573C100.885 71.1296 101.367 69.5161 102.331 68.3167C103.296 67.1174 104.588 66.5178 106.207 66.5178C107.839 66.5178 109.125 67.1174 110.065 68.3167C111.017 69.5037 111.493 71.1172 111.493 73.1573C111.493 75.185 111.017 76.7985 110.065 77.9978C109.125 79.1971 107.833 79.7967 106.189 79.7967ZM106.207 77.6454C107.975 77.6454 108.859 76.1494 108.859 73.1573C108.859 71.7478 108.643 70.6474 108.21 69.8561C107.777 69.0648 107.11 68.6691 106.207 68.6691C105.292 68.6691 104.612 69.0648 104.167 69.8561C103.734 70.6474 103.518 71.7478 103.518 73.1573C103.518 74.5668 103.734 75.6672 104.167 76.4585C104.612 77.2497 105.292 77.6454 106.207 77.6454ZM113.066 79.5V66.2396H115.755V71.5252L120.856 66.2396H124.194L119.001 71.5438L124.528 79.5H121.375L117.109 73.3056L115.755 74.678V79.5H113.066Z" fill="#232E48"/>
<path d="M63.5908 86.9704V87.7339H63.6086C63.7565 87.4913 63.9489 87.2959 64.1857 87.148C64.4224 86.9941 64.6858 86.9171 64.9758 86.9171C65.0824 86.9171 65.18 86.9349 65.2688 86.9704V87.6629H65.2422C65.1534 87.6333 65.0469 87.6185 64.9226 87.6185C64.5556 87.6185 64.2419 87.7487 63.9814 88.0092C63.721 88.2637 63.5908 88.5981 63.5908 89.0124V91.5605H62.8716V86.9704H63.5908ZM67.7037 91.6848C67.023 91.6848 66.4814 91.457 66.0789 91.0012C65.6823 90.5395 65.4841 89.9624 65.4841 89.2699C65.4841 88.5892 65.6853 88.0181 66.0878 87.5564C66.4962 87.0888 67.02 86.855 67.6593 86.855C68.334 86.855 68.8549 87.0917 69.2219 87.5653C69.5888 88.0329 69.7723 88.6573 69.7723 89.4386H66.221C66.2506 89.924 66.3926 90.3205 66.6471 90.6283C66.9076 90.9302 67.2597 91.0811 67.7037 91.0811C68.3903 91.0811 68.8135 90.7674 68.9733 90.14H69.6747C69.5681 90.6313 69.3432 91.013 68.9999 91.2853C68.6566 91.5517 68.2245 91.6848 67.7037 91.6848ZM68.6181 87.8139C68.3873 87.5534 68.0677 87.4232 67.6593 87.4232C67.2509 87.4232 66.9253 87.5593 66.6826 87.8316C66.4459 88.1039 66.2979 88.459 66.2387 88.897H68.9999C68.9762 88.4353 68.849 88.0743 68.6181 87.8139ZM72.4377 91.6848C71.7688 91.6848 71.2302 91.454 70.8218 90.9923C70.4193 90.5307 70.2181 89.9565 70.2181 89.2699C70.2181 88.5833 70.4193 88.0092 70.8218 87.5475C71.2302 87.0858 71.7688 86.855 72.4377 86.855C72.9763 86.855 73.4172 87 73.7605 87.29C74.1038 87.5741 74.3169 87.9618 74.3998 88.4531H73.6718C73.6185 88.1394 73.4853 87.8938 73.2722 87.7162C73.0591 87.5386 72.781 87.4498 72.4377 87.4498C71.9641 87.4498 71.5972 87.6215 71.3367 87.9648C71.0822 88.3081 70.955 88.7431 70.955 89.2699C70.955 89.7967 71.0822 90.2317 71.3367 90.575C71.5972 90.9124 71.9641 91.0811 72.4377 91.0811C72.8046 91.0811 73.0976 90.9834 73.3166 90.7881C73.5356 90.5869 73.6599 90.3057 73.6895 89.9447H74.3998C74.3524 90.4951 74.1571 90.9243 73.8138 91.232C73.4705 91.5339 73.0118 91.6848 72.4377 91.6848ZM77.0416 91.6848C76.3609 91.6848 75.8193 91.457 75.4168 91.0012C75.0203 90.5395 74.822 89.9624 74.822 89.2699C74.822 88.5892 75.0232 88.0181 75.4257 87.5564C75.8341 87.0888 76.358 86.855 76.9972 86.855C77.672 86.855 78.1928 87.0917 78.5598 87.5653C78.9268 88.0329 79.1103 88.6573 79.1103 89.4386H75.5589C75.5885 89.924 75.7306 90.3205 75.9851 90.6283C76.2455 90.9302 76.5977 91.0811 77.0416 91.0811C77.7282 91.0811 78.1514 90.7674 78.3112 90.14H79.0126C78.9061 90.6313 78.6811 91.013 78.3378 91.2853C77.9945 91.5517 77.5625 91.6848 77.0416 91.6848ZM77.9561 87.8139C77.7252 87.5534 77.4056 87.4232 76.9972 87.4232C76.5888 87.4232 76.2633 87.5593 76.0206 87.8316C75.7838 88.1039 75.6358 88.459 75.5767 88.897H78.3378C78.3142 88.4353 78.1869 88.0743 77.9561 87.8139ZM79.8135 91.5605V86.9704H80.5326V91.5605H79.8135ZM79.8135 86.1003V85.2125H80.5326V86.1003H79.8135ZM81.2199 87.5564V86.9704H81.8857V85.5232H82.6049V86.9704H83.4927V87.5564H82.6049V90.5395C82.6049 90.8236 82.7588 90.9657 83.0666 90.9657C83.1968 90.9657 83.324 90.945 83.4483 90.9035H83.475V91.525C83.2797 91.5665 83.0873 91.5872 82.8979 91.5872C82.2231 91.5872 81.8857 91.2912 81.8857 90.6993V87.5564H81.2199ZM87.84 91.6049C87.3842 91.6049 87.1208 91.3771 87.0498 90.9213H87.0409C86.6621 91.4067 86.1531 91.6493 85.5138 91.6493C85.0581 91.6493 84.6852 91.5398 84.3951 91.3208C84.1051 91.1018 83.9601 90.7852 83.9601 90.3708C83.9601 90.1578 83.9927 89.9743 84.0578 89.8204C84.1288 89.6606 84.2176 89.5333 84.3241 89.4386C84.4307 89.338 84.5757 89.2522 84.7592 89.1811C84.9486 89.1042 85.1291 89.048 85.3007 89.0124C85.4724 88.971 85.6914 88.9296 85.9577 88.8881C86.1294 88.8645 86.2507 88.8467 86.3218 88.8349C86.3987 88.8171 86.4964 88.7934 86.6148 88.7638C86.7331 88.7283 86.816 88.6899 86.8633 88.6484C86.9107 88.607 86.9551 88.5508 86.9965 88.4797C87.038 88.4087 87.0587 88.3258 87.0587 88.2311C87.0587 87.9707 86.9669 87.7724 86.7834 87.6363C86.6059 87.4942 86.3543 87.4232 86.0288 87.4232C85.2889 87.4232 84.9071 87.7606 84.8835 88.4353H84.1909C84.2028 87.9677 84.3626 87.5919 84.6704 87.3078C84.9841 87.0237 85.4339 86.8816 86.0199 86.8816C87.1504 86.8816 87.7157 87.367 87.7157 88.3377V90.5218C87.7157 90.723 87.7482 90.8651 87.8133 90.9479C87.8844 91.0308 88.0146 91.0515 88.204 91.0101H88.2306V91.5339C88.1122 91.5813 87.982 91.6049 87.84 91.6049ZM85.6736 91.0989C86.1176 91.0989 86.4609 90.9716 86.7035 90.7171C86.9462 90.4567 87.0676 90.1726 87.0676 89.8648V89.0835C86.8485 89.2196 86.4993 89.3321 86.0199 89.4208C85.8423 89.4564 85.7032 89.486 85.6026 89.5096C85.502 89.5274 85.3866 89.5629 85.2564 89.6162C85.1261 89.6635 85.0285 89.7168 84.9634 89.776C84.8983 89.8352 84.842 89.9151 84.7947 90.0157C84.7473 90.1104 84.7236 90.2229 84.7236 90.3531C84.7236 90.8503 85.0403 91.0989 85.6736 91.0989ZM91.9502 91.6937C91.3228 91.6937 90.8256 91.4777 90.4586 91.0456C90.0976 90.6076 89.917 90.0187 89.917 89.2788C89.917 88.533 90.1064 87.9441 90.4853 87.512C90.8641 87.0799 91.3465 86.8639 91.9324 86.8639C92.5539 86.8639 93.0334 87.1154 93.3707 87.6185H93.3885V85.2125H94.1076V91.5605H93.3885V91.0012H93.3707C93.0097 91.4629 92.5362 91.6937 91.9502 91.6937ZM91.9768 91.09C92.4681 91.09 92.8321 90.9272 93.0689 90.6017C93.3115 90.2761 93.4329 89.8381 93.4329 89.2877C93.4329 88.7431 93.3027 88.3051 93.0422 87.9737C92.7877 87.6422 92.4296 87.4765 91.9679 87.4765C91.5477 87.4765 91.2222 87.6452 90.9913 87.9825C90.7664 88.314 90.6539 88.749 90.6539 89.2877C90.6539 89.8263 90.7664 90.2613 90.9913 90.5928C91.2222 90.9243 91.5507 91.09 91.9768 91.09ZM98.651 90.9923C98.2486 91.454 97.7129 91.6848 97.044 91.6848C96.3752 91.6848 95.8366 91.454 95.4282 90.9923C95.0257 90.5307 94.8244 89.9565 94.8244 89.2699C94.8244 88.5833 95.0257 88.0092 95.4282 87.5475C95.8366 87.0858 96.3752 86.855 97.044 86.855C97.7129 86.855 98.2486 87.0858 98.651 87.5475C99.0535 88.0092 99.2548 88.5833 99.2548 89.2699C99.2548 89.9565 99.0535 90.5307 98.651 90.9923ZM95.9431 90.575C96.2036 90.9124 96.5705 91.0811 97.044 91.0811C97.5176 91.0811 97.8816 90.9124 98.1361 90.575C98.3906 90.2317 98.5179 89.7967 98.5179 89.2699C98.5179 88.7372 98.3876 88.3022 98.1272 87.9648C97.8727 87.6215 97.5116 87.4498 97.044 87.4498C96.5705 87.4498 96.2036 87.6215 95.9431 87.9648C95.6886 88.3081 95.5614 88.7431 95.5614 89.2699C95.5614 89.7967 95.6886 90.2317 95.9431 90.575ZM101.385 91.5605V86.9704H102.104V87.6274H102.122C102.27 87.3966 102.462 87.2131 102.699 87.0769C102.936 86.9349 103.193 86.8639 103.472 86.8639C104.069 86.8639 104.469 87.1361 104.67 87.6807H104.688C104.83 87.4262 105.028 87.2279 105.283 87.0858C105.537 86.9379 105.807 86.8639 106.091 86.8639C106.511 86.8639 106.848 86.9941 107.103 87.2545C107.357 87.509 107.485 87.8701 107.485 88.3377V91.5605H106.766V88.3732C106.766 88.095 106.683 87.876 106.517 87.7162C106.357 87.5505 106.159 87.4676 105.922 87.4676C105.62 87.4676 105.357 87.586 105.132 87.8227C104.907 88.0595 104.795 88.3525 104.795 88.7017V91.5605H104.075V88.3732C104.075 88.095 104.001 87.876 103.853 87.7162C103.711 87.5505 103.522 87.4676 103.285 87.4676C102.989 87.4676 102.717 87.5889 102.468 87.8316C102.226 88.0684 102.104 88.3584 102.104 88.7017V91.5605H101.385ZM110.396 91.6848C109.716 91.6848 109.174 91.457 108.772 91.0012C108.375 90.5395 108.177 89.9624 108.177 89.2699C108.177 88.5892 108.378 88.0181 108.78 87.5564C109.189 87.0888 109.713 86.855 110.352 86.855C111.027 86.855 111.548 87.0917 111.915 87.5653C112.282 88.0329 112.465 88.6573 112.465 89.4386H108.914C108.943 89.924 109.085 90.3205 109.34 90.6283C109.6 90.9302 109.952 91.0811 110.396 91.0811C111.083 91.0811 111.506 90.7674 111.666 90.14H112.367C112.261 90.6313 112.036 91.013 111.693 91.2853C111.349 91.5517 110.917 91.6848 110.396 91.6848ZM111.311 87.8139C111.08 87.5534 110.76 87.4232 110.352 87.4232C109.944 87.4232 109.618 87.5593 109.375 87.8316C109.139 88.1039 108.991 88.459 108.931 88.897H111.693C111.669 88.4353 111.542 88.0743 111.311 87.8139ZM109.136 86.2157L109.961 85.2746H110.778L111.568 86.2157H110.796L110.361 85.6564H110.343L109.89 86.2157H109.136ZM114.908 91.6937C114.281 91.6937 113.793 91.5546 113.443 91.2764C113.1 90.9923 112.911 90.5898 112.875 90.069H113.612C113.695 90.7497 114.133 91.09 114.926 91.09C115.287 91.09 115.554 91.0219 115.725 90.8858C115.903 90.7437 115.992 90.5602 115.992 90.3353C115.992 90.0926 115.906 89.918 115.734 89.8115C115.562 89.705 115.249 89.6043 114.793 89.5096C114.604 89.4682 114.453 89.4356 114.34 89.412C114.234 89.3824 114.103 89.3439 113.95 89.2966C113.796 89.2433 113.674 89.1871 113.586 89.1279C113.503 89.0628 113.417 88.9858 113.328 88.897C113.239 88.8082 113.174 88.6987 113.133 88.5685C113.097 88.4383 113.079 88.2933 113.079 88.1335C113.079 87.7428 113.221 87.435 113.506 87.2101C113.796 86.9852 114.204 86.8727 114.731 86.8727C115.82 86.8727 116.421 87.3522 116.533 88.311H115.796C115.761 88.0092 115.657 87.7902 115.485 87.654C115.314 87.512 115.056 87.441 114.713 87.441C114.399 87.441 114.166 87.5031 114.012 87.6274C113.864 87.7458 113.79 87.9026 113.79 88.098C113.79 88.3229 113.878 88.4827 114.056 88.5774C114.234 88.6662 114.556 88.7579 115.024 88.8526C115.308 88.9118 115.53 88.968 115.69 89.0213C115.855 89.0687 116.027 89.1456 116.205 89.2522C116.382 89.3528 116.512 89.4889 116.595 89.6606C116.678 89.8322 116.72 90.0453 116.72 90.2998C116.72 90.7497 116.554 91.0959 116.222 91.3386C115.891 91.5753 115.453 91.6937 114.908 91.6937Z" fill="#232E48"/>
<path d="M73.2402 103.213V101.987H75.6555V99.4976H76.9306V101.987H79.3583V103.213H76.9306V105.702H75.6555V103.213H73.2402ZM81.8433 106.621V100.76H79.9429V99.657C81.2017 99.608 81.9087 99.1094 82.064 98.1612H83.5231V106.621H81.8433ZM86.6446 106.621V100.76H84.7442V99.657C86.003 99.608 86.71 99.1094 86.8653 98.1612H88.3243V106.621H86.6446ZM89.5333 106.621C89.5496 106.122 89.6681 105.653 89.8888 105.211C90.1095 104.762 90.3466 104.402 90.5999 104.132C90.8615 103.862 91.1803 103.58 91.5563 103.286C91.6871 103.18 91.8914 103.025 92.1693 102.82C92.4554 102.616 92.6679 102.457 92.8069 102.342C92.9458 102.228 93.1011 102.085 93.2728 101.913C93.4526 101.733 93.5793 101.553 93.6529 101.374C93.7264 101.186 93.7632 100.989 93.7632 100.785C93.7632 100.384 93.661 100.066 93.4567 99.8287C93.2523 99.5916 92.9663 99.4731 92.5984 99.4731C92.1734 99.4731 91.8383 99.6203 91.5931 99.9145C91.356 100.209 91.2334 100.63 91.2252 101.177H89.6559C89.6559 100.197 89.9052 99.4323 90.4038 98.8846C90.9106 98.3288 91.6544 98.0509 92.6352 98.0509C93.518 98.0509 94.2128 98.3084 94.7195 98.8233C95.2345 99.3383 95.492 99.9758 95.492 100.736C95.492 101.112 95.4347 101.455 95.3203 101.766C95.214 102.068 95.0424 102.346 94.8054 102.6C94.5683 102.853 94.3558 103.053 94.1678 103.2C93.9798 103.347 93.7182 103.531 93.3831 103.752C92.4677 104.341 91.9037 104.839 91.6911 105.248H95.5655V106.621H89.5333ZM98.6217 102.931C97.9923 102.931 97.4733 102.71 97.0646 102.269C96.6641 101.819 96.4638 101.226 96.4638 100.491C96.4638 99.7551 96.6641 99.1625 97.0646 98.713C97.4733 98.2634 97.9923 98.0386 98.6217 98.0386C99.2592 98.0386 99.7742 98.2634 100.167 98.713C100.567 99.1543 100.767 99.7469 100.767 100.491C100.767 101.226 100.567 101.819 100.167 102.269C99.7742 102.71 99.2592 102.931 98.6217 102.931ZM104.114 106.817C103.485 106.817 102.966 106.597 102.557 106.155C102.157 105.706 101.957 105.113 101.957 104.377C101.957 103.642 102.157 103.049 102.557 102.6C102.966 102.15 103.485 101.925 104.114 101.925C104.752 101.925 105.267 102.15 105.659 102.6C106.06 103.041 106.26 103.634 106.26 104.377C106.26 105.113 106.06 105.706 105.659 106.155C105.267 106.597 104.752 106.817 104.114 106.817ZM98.6952 106.621L102.999 98.2103H104.041L99.7374 106.621H98.6952ZM103.477 105.469C103.624 105.738 103.837 105.873 104.114 105.873C104.392 105.873 104.601 105.738 104.74 105.469C104.887 105.199 104.96 104.835 104.96 104.377C104.96 103.92 104.887 103.552 104.74 103.274C104.593 102.996 104.384 102.857 104.114 102.857C103.837 102.857 103.624 102.996 103.477 103.274C103.338 103.544 103.268 103.911 103.268 104.377C103.268 104.835 103.338 105.199 103.477 105.469ZM97.9841 101.582C98.1313 101.852 98.3438 101.987 98.6217 101.987C98.8996 101.987 99.108 101.852 99.247 101.582C99.3941 101.312 99.4677 100.948 99.4677 100.491C99.4677 100.033 99.3941 99.6652 99.247 99.3873C99.0998 99.1094 98.8914 98.9704 98.6217 98.9704C98.3438 98.9704 98.1313 99.1094 97.9841 99.3873C97.8452 99.657 97.7757 100.025 97.7757 100.491C97.7757 100.948 97.8452 101.312 97.9841 101.582Z" fill="url(#paint0_radial_2322_169)"/>
<path d="M27.4075 166V160.702H28.919L29.6673 163.362C29.7217 163.56 29.776 163.78 29.8303 164.022C29.8896 164.259 29.9341 164.447 29.9637 164.585L30.0007 164.792H30.0156C30.1094 164.284 30.2181 163.807 30.3416 163.362L31.0899 160.702H32.6236V166H31.6234V162.962L31.6678 161.866H31.653C31.574 162.281 31.4974 162.616 31.4233 162.873L30.512 166H29.4821L28.593 162.873L28.3633 161.866H28.3485C28.3781 162.31 28.3929 162.676 28.3929 162.962V166H27.4075ZM35.7537 166C35.7043 165.936 35.6647 165.795 35.6351 165.578H35.6203C35.5116 165.741 35.3733 165.867 35.2054 165.956C35.0374 166.044 34.8028 166.089 34.5015 166.089C34.1014 166.089 33.7803 165.988 33.5383 165.785C33.2963 165.583 33.1752 165.296 33.1752 164.926C33.1752 164.54 33.3086 164.259 33.5753 164.081C33.8421 163.898 34.2175 163.772 34.7015 163.703C35.0572 163.654 35.2992 163.604 35.4276 163.555C35.5561 163.501 35.6203 163.407 35.6203 163.273C35.6203 163.135 35.566 163.026 35.4573 162.947C35.3486 162.863 35.1905 162.821 34.9831 162.821C34.5237 162.821 34.2792 162.999 34.2496 163.355H33.3531C33.3679 162.994 33.5136 162.695 33.7902 162.458C34.0668 162.221 34.4669 162.103 34.9905 162.103C36.0574 162.103 36.5909 162.57 36.5909 163.503V165.437C36.5909 165.723 36.6353 165.899 36.7243 165.963V166H35.7537ZM34.746 165.385C35.0226 165.385 35.2399 165.313 35.398 165.17C35.561 165.027 35.6425 164.857 35.6425 164.659V164.088C35.5338 164.153 35.2992 164.227 34.9386 164.311C34.6521 164.375 34.4496 164.449 34.3311 164.533C34.2125 164.612 34.1533 164.735 34.1533 164.903C34.1533 165.225 34.3508 165.385 34.746 165.385ZM37.2315 166V162.199H38.2392V166H37.2315ZM37.2315 161.606V160.702H38.2392V161.606H37.2315ZM42.1189 165.541C41.7484 165.921 41.2717 166.111 40.6889 166.111C40.106 166.111 39.6294 165.921 39.2589 165.541C38.8884 165.155 38.7032 164.676 38.7032 164.103C38.7032 163.53 38.8884 163.054 39.2589 162.673C39.6294 162.288 40.106 162.095 40.6889 162.095C41.2717 162.095 41.7484 162.288 42.1189 162.673C42.4893 163.054 42.6746 163.53 42.6746 164.103C42.6746 164.676 42.4893 165.155 42.1189 165.541ZM40.6889 165.341C40.9902 165.341 41.2248 165.229 41.3928 165.007C41.5656 164.78 41.6521 164.479 41.6521 164.103C41.6521 163.728 41.5656 163.427 41.3928 163.199C41.2248 162.972 40.9902 162.858 40.6889 162.858C40.3826 162.858 40.1455 162.972 39.9776 163.199C39.8097 163.422 39.7257 163.723 39.7257 164.103C39.7257 164.479 39.8097 164.78 39.9776 165.007C40.1455 165.229 40.3826 165.341 40.6889 165.341ZM44.1136 162.199V162.807H44.1358C44.2543 162.584 44.3852 162.421 44.5285 162.318C44.6717 162.209 44.852 162.155 45.0694 162.155C45.1731 162.155 45.2521 162.164 45.3065 162.184V163.066H45.2842C44.9434 163.031 44.6693 163.105 44.4618 163.288C44.2543 163.471 44.1506 163.757 44.1506 164.148V166H43.143V162.199H44.1136ZM48.7484 166.111C48.1606 166.111 47.6889 165.921 47.3333 165.541C46.9776 165.16 46.7998 164.681 46.7998 164.103C46.7998 163.525 46.9727 163.046 47.3185 162.666C47.6692 162.286 48.1285 162.095 48.6966 162.095C49.1757 162.095 49.5659 162.221 49.8672 162.473C50.1685 162.725 50.3538 163.063 50.4229 163.488H49.4375C49.4029 163.315 49.3239 163.175 49.2004 163.066C49.0769 162.957 48.9238 162.903 48.741 162.903C48.4447 162.903 48.2175 163.009 48.0594 163.222C47.9013 163.434 47.8223 163.728 47.8223 164.103C47.8223 164.474 47.8989 164.768 48.052 164.985C48.2051 165.197 48.4298 165.304 48.7262 165.304C49.1658 165.304 49.4202 165.089 49.4894 164.659H50.46C50.4254 165.079 50.255 165.427 49.9487 165.704C49.6425 165.975 49.2424 166.111 48.7484 166.111ZM51.8701 162.199V162.807H51.8923C52.0109 162.584 52.1418 162.421 52.285 162.318C52.4283 162.209 52.6086 162.155 52.8259 162.155C52.9296 162.155 53.0087 162.164 53.063 162.184V163.066H53.0408C52.6999 163.031 52.4258 163.105 52.2183 163.288C52.0109 163.471 51.9071 163.757 51.9071 164.148V166H50.8995V162.199H51.8701ZM55.1742 166.111C54.5617 166.111 54.0801 165.923 53.7294 165.548C53.3786 165.168 53.2033 164.684 53.2033 164.096C53.2033 163.528 53.3786 163.054 53.7294 162.673C54.0801 162.288 54.5295 162.095 55.0778 162.095C55.6755 162.095 56.1374 162.303 56.4634 162.718C56.7894 163.133 56.9524 163.688 56.9524 164.385H54.1961C54.2357 164.686 54.3369 164.921 54.4999 165.089C54.6629 165.252 54.8852 165.333 55.1667 165.333C55.5372 165.333 55.7817 165.178 55.9003 164.866H56.8931C56.819 165.222 56.6313 165.518 56.33 165.755C56.0287 165.993 55.6434 166.111 55.1742 166.111ZM55.0927 162.873C54.6036 162.873 54.3097 163.145 54.211 163.688H55.9003C55.8854 163.446 55.8039 163.251 55.6558 163.103C55.5076 162.95 55.3199 162.873 55.0927 162.873ZM58.9599 166.111C58.4165 166.111 57.9917 165.993 57.6855 165.755C57.3792 165.513 57.2113 165.185 57.1816 164.77H58.1152C58.1794 165.19 58.456 165.4 58.945 165.4C59.1673 165.4 59.3377 165.36 59.4563 165.281C59.5798 165.202 59.6415 165.096 59.6415 164.963C59.6415 164.913 59.6316 164.869 59.6119 164.829C59.5971 164.79 59.5674 164.755 59.523 164.726C59.4834 164.691 59.4464 164.664 59.4118 164.644C59.3822 164.624 59.3279 164.605 59.2488 164.585C59.1698 164.565 59.108 164.55 59.0636 164.54C59.0241 164.531 58.9525 164.518 58.8487 164.503C58.7499 164.484 58.6808 164.469 58.6413 164.459C58.4338 164.419 58.2634 164.38 58.13 164.34C58.0016 164.296 57.8658 164.234 57.7225 164.155C57.5793 164.071 57.4706 163.96 57.3965 163.822C57.3274 163.678 57.2928 163.508 57.2928 163.31C57.2928 162.915 57.436 162.614 57.7225 162.407C58.0139 162.199 58.3869 162.095 58.8413 162.095C59.3303 162.095 59.7131 162.209 59.9897 162.436C60.2713 162.658 60.4318 162.965 60.4713 163.355H59.56C59.5205 162.984 59.276 162.799 58.8265 162.799C58.624 162.799 58.4634 162.836 58.3449 162.91C58.2313 162.984 58.1745 163.088 58.1745 163.222C58.1745 163.266 58.1819 163.308 58.1967 163.347C58.2165 163.382 58.2461 163.414 58.2856 163.444C58.3301 163.469 58.3721 163.491 58.4116 163.511C58.4511 163.525 58.5079 163.543 58.582 163.562C58.6561 163.577 58.7203 163.592 58.7746 163.607C58.829 163.617 58.9031 163.632 58.9969 163.651C59.0908 163.666 59.1648 163.678 59.2192 163.688C59.3772 163.723 59.5057 163.755 59.6045 163.785C59.7082 163.809 59.8267 163.854 59.9601 163.918C60.0935 163.977 60.1972 164.046 60.2713 164.125C60.3503 164.2 60.417 164.303 60.4713 164.437C60.5306 164.565 60.5603 164.716 60.5603 164.889C60.5603 165.264 60.4121 165.563 60.1157 165.785C59.8243 166.002 59.439 166.111 58.9599 166.111ZM62.8144 166.111C62.2266 166.111 61.7549 165.921 61.3992 165.541C61.0436 165.16 60.8658 164.681 60.8658 164.103C60.8658 163.525 61.0386 163.046 61.3844 162.666C61.7351 162.286 62.1945 162.095 62.7625 162.095C63.2417 162.095 63.6319 162.221 63.9332 162.473C64.2345 162.725 64.4197 163.063 64.4889 163.488H63.5034C63.4689 163.315 63.3898 163.175 63.2664 163.066C63.1429 162.957 62.9897 162.903 62.807 162.903C62.5106 162.903 62.2834 163.009 62.1253 163.222C61.9673 163.434 61.8882 163.728 61.8882 164.103C61.8882 164.474 61.9648 164.768 62.1179 164.985C62.271 165.197 62.4958 165.304 62.7922 165.304C63.2318 165.304 63.4862 165.089 63.5553 164.659H64.5259C64.4913 165.079 64.3209 165.427 64.0147 165.704C63.7084 165.975 63.3083 166.111 62.8144 166.111ZM64.9654 166V162.199H65.9731V166H64.9654ZM64.9654 161.606V160.702H65.9731V161.606H64.9654ZM66.6224 166V162.199H67.593V162.71H67.6152C67.8573 162.3 68.2252 162.095 68.7192 162.095C68.9563 162.095 69.1662 162.157 69.349 162.281C69.5367 162.399 69.6775 162.56 69.7713 162.762H69.7861C70.0627 162.318 70.4431 162.095 70.9271 162.095C71.3223 162.095 71.6286 162.216 71.8459 162.458C72.0682 162.695 72.1793 163.024 72.1793 163.444V166H71.1716V163.614C71.1716 163.18 70.9765 162.962 70.5863 162.962C70.3739 162.962 70.206 163.039 70.0825 163.192C69.9639 163.34 69.9047 163.54 69.9047 163.792V166H68.897V163.614C68.897 163.18 68.7019 162.962 68.3117 162.962C68.1092 162.962 67.9437 163.039 67.8153 163.192C67.6918 163.34 67.63 163.54 67.63 163.792V166H66.6224ZM74.5872 166.111C73.9747 166.111 73.4931 165.923 73.1424 165.548C72.7917 165.168 72.6163 164.684 72.6163 164.096C72.6163 163.528 72.7917 163.054 73.1424 162.673C73.4931 162.288 73.9426 162.095 74.4909 162.095C75.0885 162.095 75.5504 162.303 75.8764 162.718C76.2024 163.133 76.3654 163.688 76.3654 164.385H73.6092C73.6487 164.686 73.7499 164.921 73.9129 165.089C74.0759 165.252 74.2982 165.333 74.5798 165.333C74.9502 165.333 75.1947 165.178 75.3133 164.866H76.3061C76.232 165.222 76.0443 165.518 75.743 165.755C75.4417 165.993 75.0564 166.111 74.5872 166.111ZM74.5057 162.873C74.0167 162.873 73.7228 163.145 73.624 163.688H75.3133C75.2985 163.446 75.217 163.251 75.0688 163.103C74.9206 162.95 74.7329 162.873 74.5057 162.873ZM77.8172 162.199V162.718H77.8394C78.1012 162.303 78.4766 162.095 78.9656 162.095C79.3558 162.095 79.672 162.229 79.914 162.495C80.156 162.757 80.2771 163.098 80.2771 163.518V166H79.2694V163.666C79.2694 163.459 79.2101 163.291 79.0916 163.162C78.978 163.034 78.8174 162.97 78.61 162.97C78.3877 162.97 78.2025 163.051 78.0543 163.214C77.9111 163.377 77.8394 163.587 77.8394 163.844V166H76.8318V162.199H77.8172ZM80.6035 162.866V162.199H81.1296V161.014H82.115V162.199H82.767V162.866H82.115V164.881C82.115 165.133 82.241 165.259 82.4929 165.259L82.7893 165.252V165.993C82.6361 166.002 82.4262 166.007 82.1595 166.007C81.868 166.007 81.6235 165.938 81.426 165.8C81.2284 165.657 81.1296 165.422 81.1296 165.096V162.866H80.6035ZM86.4801 165.541C86.1097 165.921 85.633 166.111 85.0502 166.111C84.4673 166.111 83.9906 165.921 83.6202 165.541C83.2497 165.155 83.0645 164.676 83.0645 164.103C83.0645 163.53 83.2497 163.054 83.6202 162.673C83.9906 162.288 84.4673 162.095 85.0502 162.095C85.633 162.095 86.1097 162.288 86.4801 162.673C86.8506 163.054 87.0358 163.53 87.0358 164.103C87.0358 164.676 86.8506 165.155 86.4801 165.541ZM85.0502 165.341C85.3515 165.341 85.5861 165.229 85.754 165.007C85.9269 164.78 86.0134 164.479 86.0134 164.103C86.0134 163.728 85.9269 163.427 85.754 163.199C85.5861 162.972 85.3515 162.858 85.0502 162.858C84.7439 162.858 84.5068 162.972 84.3389 163.199C84.1709 163.422 84.087 163.723 84.087 164.103C84.087 164.479 84.1709 164.78 84.3389 165.007C84.5068 165.229 84.7439 165.341 85.0502 165.341ZM87.4672 163.77V162.695H88.5489V163.77H87.4672ZM87.4672 166V164.926H88.5489V166H87.4672Z" fill="#232E48"/>
<path d="M27.4075 176V170.702H29.734C30.3366 170.702 30.7985 170.868 31.1195 171.199C31.4357 171.525 31.5937 171.927 31.5937 172.407C31.5937 172.91 31.4357 173.315 31.1195 173.622C30.8034 173.928 30.3712 174.081 29.8229 174.081H28.5189V176H27.4075ZM28.5189 171.636V173.207H29.6303C29.9069 173.207 30.1193 173.138 30.2675 172.999C30.4157 172.856 30.4897 172.661 30.4897 172.414C30.4897 172.167 30.4157 171.977 30.2675 171.843C30.1193 171.705 29.9118 171.636 29.6451 171.636H28.5189ZM33.0142 172.199V172.807H33.0364C33.155 172.584 33.2859 172.421 33.4291 172.318C33.5724 172.209 33.7527 172.155 33.97 172.155C34.0737 172.155 34.1528 172.164 34.2071 172.184V173.066H34.1849C33.844 173.031 33.5699 173.105 33.3624 173.288C33.155 173.471 33.0513 173.757 33.0513 174.148V176H32.0436V172.199H33.0142ZM37.7631 175.541C37.3926 175.921 36.9159 176.111 36.3331 176.111C35.7502 176.111 35.2736 175.921 34.9031 175.541C34.5326 175.155 34.3474 174.676 34.3474 174.103C34.3474 173.53 34.5326 173.054 34.9031 172.673C35.2736 172.288 35.7502 172.095 36.3331 172.095C36.9159 172.095 37.3926 172.288 37.7631 172.673C38.1335 173.054 38.3187 173.53 38.3187 174.103C38.3187 174.676 38.1335 175.155 37.7631 175.541ZM36.3331 175.341C36.6344 175.341 36.869 175.229 37.037 175.007C37.2098 174.78 37.2963 174.479 37.2963 174.103C37.2963 173.728 37.2098 173.427 37.037 173.199C36.869 172.972 36.6344 172.858 36.3331 172.858C36.0268 172.858 35.7897 172.972 35.6218 173.199C35.4538 173.422 35.3699 173.723 35.3699 174.103C35.3699 174.479 35.4538 174.78 35.6218 175.007C35.7897 175.229 36.0268 175.341 36.3331 175.341ZM40.5505 176.111C39.9627 176.111 39.491 175.921 39.1354 175.541C38.7797 175.16 38.6019 174.681 38.6019 174.103C38.6019 173.525 38.7748 173.046 39.1206 172.666C39.4713 172.286 39.9306 172.095 40.4987 172.095C40.9778 172.095 41.368 172.221 41.6693 172.473C41.9706 172.725 42.1559 173.063 42.225 173.488H41.2396C41.205 173.315 41.126 173.175 41.0025 173.066C40.879 172.957 40.7259 172.903 40.5431 172.903C40.2468 172.903 40.0196 173.009 39.8615 173.222C39.7034 173.434 39.6244 173.728 39.6244 174.103C39.6244 174.474 39.701 174.768 39.8541 174.985C40.0072 175.197 40.2319 175.304 40.5283 175.304C40.9679 175.304 41.2223 175.089 41.2915 174.659H42.2621C42.2275 175.079 42.0571 175.427 41.7508 175.704C41.4446 175.975 41.0445 176.111 40.5505 176.111ZM44.4872 176.111C43.8747 176.111 43.3931 175.923 43.0424 175.548C42.6917 175.168 42.5164 174.684 42.5164 174.096C42.5164 173.528 42.6917 173.054 43.0424 172.673C43.3931 172.288 43.8426 172.095 44.3909 172.095C44.9886 172.095 45.4504 172.303 45.7764 172.718C46.1024 173.133 46.2654 173.688 46.2654 174.385H43.5092C43.5487 174.686 43.65 174.921 43.813 175.089C43.976 175.252 44.1983 175.333 44.4798 175.333C44.8503 175.333 45.0948 175.178 45.2133 174.866H46.2062C46.1321 175.222 45.9444 175.518 45.6431 175.755C45.3417 175.993 44.9565 176.111 44.4872 176.111ZM44.4057 172.873C43.9167 172.873 43.6228 173.145 43.524 173.688H45.2133C45.1985 173.446 45.117 173.251 44.9688 173.103C44.8206 172.95 44.6329 172.873 44.4057 172.873ZM48.1544 176.111C47.6752 176.111 47.2875 175.931 46.9911 175.57C46.6948 175.205 46.5466 174.716 46.5466 174.103C46.5466 173.511 46.6972 173.029 46.9985 172.658C47.3048 172.283 47.695 172.095 48.1692 172.095C48.6434 172.095 49.0015 172.283 49.2435 172.658H49.2658V170.702H50.2734V176H49.3028V175.504H49.288C49.041 175.909 48.6631 176.111 48.1544 176.111ZM48.3767 175.266C48.673 175.266 48.8978 175.165 49.0509 174.963C49.209 174.76 49.288 174.481 49.288 174.125C49.288 173.315 48.9941 172.91 48.4063 172.91C48.1346 172.91 47.9272 173.019 47.7839 173.236C47.6407 173.454 47.569 173.743 47.569 174.103C47.569 174.474 47.6382 174.76 47.7765 174.963C47.9197 175.165 48.1198 175.266 48.3767 175.266ZM50.9284 176V172.199H51.9361V176H50.9284ZM50.9284 171.606V170.702H51.9361V171.606H50.9284ZM52.5854 176V172.199H53.556V172.71H53.5782C53.8203 172.3 54.1882 172.095 54.6822 172.095C54.9193 172.095 55.1292 172.157 55.312 172.281C55.4997 172.399 55.6405 172.56 55.7343 172.762H55.7491C56.0257 172.318 56.4061 172.095 56.8901 172.095C57.2853 172.095 57.5915 172.216 57.8089 172.458C58.0312 172.695 58.1423 173.024 58.1423 173.444V176H57.1346V173.614C57.1346 173.18 56.9395 172.962 56.5493 172.962C56.3369 172.962 56.169 173.039 56.0455 173.192C55.9269 173.34 55.8677 173.54 55.8677 173.792V176H54.86V173.614C54.86 173.18 54.6649 172.962 54.2747 172.962C54.0722 172.962 53.9067 173.039 53.7783 173.192C53.6548 173.34 53.593 173.54 53.593 173.792V176H52.5854ZM60.5502 176.111C59.9377 176.111 59.4561 175.923 59.1054 175.548C58.7547 175.168 58.5793 174.684 58.5793 174.096C58.5793 173.528 58.7547 173.054 59.1054 172.673C59.4561 172.288 59.9056 172.095 60.4539 172.095C61.0515 172.095 61.5134 172.303 61.8394 172.718C62.1654 173.133 62.3284 173.688 62.3284 174.385H59.5722C59.6117 174.686 59.7129 174.921 59.8759 175.089C60.0389 175.252 60.2612 175.333 60.5428 175.333C60.9132 175.333 61.1577 175.178 61.2763 174.866H62.2691C62.195 175.222 62.0073 175.518 61.706 175.755C61.4047 175.993 61.0194 176.111 60.5502 176.111ZM60.4687 172.873C59.9797 172.873 59.6858 173.145 59.587 173.688H61.2763C61.2615 173.446 61.18 173.251 61.0318 173.103C60.8836 172.95 60.6959 172.873 60.4687 172.873ZM63.7802 172.199V172.718H63.8024C64.0642 172.303 64.4396 172.095 64.9286 172.095C65.3188 172.095 65.635 172.229 65.877 172.495C66.119 172.757 66.2401 173.098 66.2401 173.518V176H65.2324V173.666C65.2324 173.459 65.1731 173.291 65.0546 173.162C64.941 173.034 64.7804 172.97 64.573 172.97C64.3507 172.97 64.1655 173.051 64.0173 173.214C63.874 173.377 63.8024 173.587 63.8024 173.844V176H62.7948V172.199H63.7802ZM66.5665 172.866V172.199H67.0926V171.014H68.078V172.199H68.73V172.866H68.078V174.881C68.078 175.133 68.204 175.259 68.4559 175.259L68.7522 175.252V175.993C68.5991 176.002 68.3892 176.007 68.1225 176.007C67.831 176.007 67.5865 175.938 67.389 175.8C67.1914 175.657 67.0926 175.422 67.0926 175.096V172.866H66.5665ZM72.4431 175.541C72.0727 175.921 71.596 176.111 71.0132 176.111C70.4303 176.111 69.9536 175.921 69.5832 175.541C69.2127 175.155 69.0275 174.676 69.0275 174.103C69.0275 173.53 69.2127 173.054 69.5832 172.673C69.9536 172.288 70.4303 172.095 71.0132 172.095C71.596 172.095 72.0727 172.288 72.4431 172.673C72.8136 173.054 72.9988 173.53 72.9988 174.103C72.9988 174.676 72.8136 175.155 72.4431 175.541ZM71.0132 175.341C71.3145 175.341 71.5491 175.229 71.717 175.007C71.8899 174.78 71.9764 174.479 71.9764 174.103C71.9764 173.728 71.8899 173.427 71.717 173.199C71.5491 172.972 71.3145 172.858 71.0132 172.858C70.7069 172.858 70.4698 172.972 70.3019 173.199C70.1339 173.422 70.05 173.723 70.05 174.103C70.05 174.479 70.1339 174.78 70.3019 175.007C70.4698 175.229 70.7069 175.341 71.0132 175.341ZM75.0084 176.111C74.465 176.111 74.0402 175.993 73.734 175.755C73.4277 175.513 73.2598 175.185 73.2301 174.77H74.1637C74.2279 175.19 74.5045 175.4 74.9935 175.4C75.2158 175.4 75.3862 175.36 75.5048 175.281C75.6283 175.202 75.69 175.096 75.69 174.963C75.69 174.913 75.6801 174.869 75.6604 174.829C75.6455 174.79 75.6159 174.755 75.5715 174.726C75.5319 174.691 75.4949 174.664 75.4603 174.644C75.4307 174.624 75.3763 174.605 75.2973 174.585C75.2183 174.565 75.1565 174.55 75.1121 174.54C75.0726 174.531 75.0009 174.518 74.8972 174.503C74.7984 174.484 74.7293 174.469 74.6898 174.459C74.4823 174.419 74.3119 174.38 74.1785 174.34C74.0501 174.296 73.9143 174.234 73.771 174.155C73.6278 174.071 73.5191 173.96 73.445 173.822C73.3759 173.678 73.3413 173.508 73.3413 173.31C73.3413 172.915 73.4845 172.614 73.771 172.407C74.0624 172.199 74.4354 172.095 74.8898 172.095C75.3788 172.095 75.7616 172.209 76.0382 172.436C76.3198 172.658 76.4803 172.965 76.5198 173.355H75.6085C75.569 172.984 75.3245 172.799 74.875 172.799C74.6725 172.799 74.5119 172.836 74.3934 172.91C74.2798 172.984 74.223 173.088 74.223 173.222C74.223 173.266 74.2304 173.308 74.2452 173.347C74.265 173.382 74.2946 173.414 74.3341 173.444C74.3786 173.469 74.4206 173.491 74.4601 173.511C74.4996 173.525 74.5564 173.543 74.6305 173.562C74.7046 173.577 74.7688 173.592 74.8231 173.607C74.8775 173.617 74.9515 173.632 75.0454 173.651C75.1392 173.666 75.2133 173.678 75.2677 173.688C75.4257 173.723 75.5542 173.755 75.653 173.785C75.7567 173.809 75.8752 173.854 76.0086 173.918C76.142 173.977 76.2457 174.046 76.3198 174.125C76.3988 174.2 76.4655 174.303 76.5198 174.437C76.5791 174.565 76.6087 174.716 76.6087 174.889C76.6087 175.264 76.4606 175.563 76.1642 175.785C75.8728 176.002 75.4875 176.111 75.0084 176.111Z" fill="#232E48"/>
<path d="M110.727 166.111C109.981 166.111 109.368 165.854 108.889 165.341C108.415 164.822 108.178 164.165 108.178 163.37C108.178 162.57 108.41 161.908 108.874 161.384C109.339 160.86 109.954 160.599 110.719 160.599C111.351 160.599 111.858 160.767 112.238 161.103C112.623 161.433 112.846 161.861 112.905 162.384H111.838C111.789 162.113 111.665 161.898 111.468 161.74C111.275 161.582 111.025 161.503 110.719 161.503C110.25 161.503 109.892 161.675 109.645 162.021C109.398 162.367 109.274 162.817 109.274 163.37C109.274 163.918 109.405 164.365 109.667 164.711C109.934 165.057 110.287 165.229 110.727 165.229C111.038 165.229 111.297 165.145 111.505 164.978C111.712 164.805 111.833 164.577 111.868 164.296H112.92C112.89 164.795 112.695 165.212 112.334 165.548C111.934 165.923 111.398 166.111 110.727 166.111ZM114.362 162.199V162.807H114.384C114.502 162.584 114.633 162.421 114.776 162.318C114.92 162.209 115.1 162.155 115.317 162.155C115.421 162.155 115.5 162.164 115.554 162.184V163.066H115.532C115.191 163.031 114.917 163.105 114.71 163.288C114.502 163.471 114.399 163.757 114.399 164.148V166H113.391V162.199H114.362ZM117.666 166.111C117.053 166.111 116.571 165.923 116.221 165.548C115.87 165.168 115.695 164.684 115.695 164.096C115.695 163.528 115.87 163.054 116.221 162.673C116.571 162.288 117.021 162.095 117.569 162.095C118.167 162.095 118.629 162.303 118.955 162.718C119.281 163.133 119.444 163.688 119.444 164.385H116.688C116.727 164.686 116.828 164.921 116.991 165.089C117.154 165.252 117.377 165.333 117.658 165.333C118.029 165.333 118.273 165.178 118.392 164.866H119.385C119.31 165.222 119.123 165.518 118.821 165.755C118.52 165.993 118.135 166.111 117.666 166.111ZM117.584 162.873C117.095 162.873 116.801 163.145 116.702 163.688H118.392C118.377 163.446 118.295 163.251 118.147 163.103C117.999 162.95 117.811 162.873 117.584 162.873ZM121.451 166.111C120.908 166.111 120.483 165.993 120.177 165.755C119.871 165.513 119.703 165.185 119.673 164.77H120.607C120.671 165.19 120.947 165.4 121.436 165.4C121.659 165.4 121.829 165.36 121.948 165.281C122.071 165.202 122.133 165.096 122.133 164.963C122.133 164.913 122.123 164.869 122.103 164.829C122.088 164.79 122.059 164.755 122.014 164.726C121.975 164.691 121.938 164.664 121.903 164.644C121.874 164.624 121.819 164.605 121.74 164.585C121.661 164.565 121.599 164.55 121.555 164.54C121.515 164.531 121.444 164.518 121.34 164.503C121.241 164.484 121.172 164.469 121.133 164.459C120.925 164.419 120.755 164.38 120.621 164.34C120.493 164.296 120.357 164.234 120.214 164.155C120.071 164.071 119.962 163.96 119.888 163.822C119.819 163.678 119.784 163.508 119.784 163.31C119.784 162.915 119.927 162.614 120.214 162.407C120.505 162.199 120.878 162.095 121.333 162.095C121.822 162.095 122.205 162.209 122.481 162.436C122.763 162.658 122.923 162.965 122.963 163.355H122.051C122.012 162.984 121.767 162.799 121.318 162.799C121.115 162.799 120.955 162.836 120.836 162.91C120.723 162.984 120.666 163.088 120.666 163.222C120.666 163.266 120.673 163.308 120.688 163.347C120.708 163.382 120.738 163.414 120.777 163.444C120.821 163.469 120.863 163.491 120.903 163.511C120.943 163.525 120.999 163.543 121.073 163.562C121.147 163.577 121.212 163.592 121.266 163.607C121.32 163.617 121.394 163.632 121.488 163.651C121.582 163.666 121.656 163.678 121.711 163.688C121.869 163.723 121.997 163.755 122.096 163.785C122.2 163.809 122.318 163.854 122.452 163.918C122.585 163.977 122.689 164.046 122.763 164.125C122.842 164.2 122.908 164.303 122.963 164.437C123.022 164.565 123.052 164.716 123.052 164.889C123.052 165.264 122.903 165.563 122.607 165.785C122.316 166.002 121.93 166.111 121.451 166.111ZM125.306 166.111C124.718 166.111 124.246 165.921 123.891 165.541C123.535 165.16 123.357 164.681 123.357 164.103C123.357 163.525 123.53 163.046 123.876 162.666C124.227 162.286 124.686 162.095 125.254 162.095C125.733 162.095 126.123 162.221 126.425 162.473C126.726 162.725 126.911 163.063 126.98 163.488H125.995C125.96 163.315 125.881 163.175 125.758 163.066C125.634 162.957 125.481 162.903 125.298 162.903C125.002 162.903 124.775 163.009 124.617 163.222C124.459 163.434 124.38 163.728 124.38 164.103C124.38 164.474 124.456 164.768 124.609 164.985C124.762 165.197 124.987 165.304 125.284 165.304C125.723 165.304 125.978 165.089 126.047 164.659H127.017C126.983 165.079 126.812 165.427 126.506 165.704C126.2 165.975 125.8 166.111 125.306 166.111ZM127.457 166V162.199H128.465V166H127.457ZM127.457 161.606V160.702H128.465V161.606H127.457ZM129.114 166V162.199H130.084V162.71H130.107C130.349 162.3 130.717 162.095 131.211 162.095C131.448 162.095 131.658 162.157 131.84 162.281C132.028 162.399 132.169 162.56 132.263 162.762H132.278C132.554 162.318 132.934 162.095 133.419 162.095C133.814 162.095 134.12 162.216 134.337 162.458C134.56 162.695 134.671 163.024 134.671 163.444V166H133.663V163.614C133.663 163.18 133.468 162.962 133.078 162.962C132.865 162.962 132.697 163.039 132.574 163.192C132.455 163.34 132.396 163.54 132.396 163.792V166H131.388V163.614C131.388 163.18 131.193 162.962 130.803 162.962C130.601 162.962 130.435 163.039 130.307 163.192C130.183 163.34 130.121 163.54 130.121 163.792V166H129.114ZM137.079 166.111C136.466 166.111 135.985 165.923 135.634 165.548C135.283 165.168 135.108 164.684 135.108 164.096C135.108 163.528 135.283 163.054 135.634 162.673C135.985 162.288 136.434 162.095 136.982 162.095C137.58 162.095 138.042 162.303 138.368 162.718C138.694 163.133 138.857 163.688 138.857 164.385H136.101C136.14 164.686 136.241 164.921 136.404 165.089C136.567 165.252 136.79 165.333 137.071 165.333C137.442 165.333 137.686 165.178 137.805 164.866H138.798C138.723 165.222 138.536 165.518 138.234 165.755C137.933 165.993 137.548 166.111 137.079 166.111ZM136.997 162.873C136.508 162.873 136.214 163.145 136.115 163.688H137.805C137.79 163.446 137.708 163.251 137.56 163.103C137.412 162.95 137.224 162.873 136.997 162.873ZM140.309 162.199V162.718H140.331C140.593 162.303 140.968 162.095 141.457 162.095C141.847 162.095 142.163 162.229 142.405 162.495C142.647 162.757 142.768 163.098 142.768 163.518V166H141.761V163.666C141.761 163.459 141.702 163.291 141.583 163.162C141.469 163.034 141.309 162.97 141.101 162.97C140.879 162.97 140.694 163.051 140.546 163.214C140.402 163.377 140.331 163.587 140.331 163.844V166H139.323V162.199H140.309ZM143.095 162.866V162.199H143.621V161.014H144.606V162.199H145.258V162.866H144.606V164.881C144.606 165.133 144.732 165.259 144.984 165.259L145.281 165.252V165.993C145.128 166.002 144.918 166.007 144.651 166.007C144.359 166.007 144.115 165.938 143.917 165.8C143.72 165.657 143.621 165.422 143.621 165.096V162.866H143.095ZM148.972 165.541C148.601 165.921 148.124 166.111 147.542 166.111C146.959 166.111 146.482 165.921 146.112 165.541C145.741 165.155 145.556 164.676 145.556 164.103C145.556 163.53 145.741 163.054 146.112 162.673C146.482 162.288 146.959 162.095 147.542 162.095C148.124 162.095 148.601 162.288 148.972 162.673C149.342 163.054 149.527 163.53 149.527 164.103C149.527 164.676 149.342 165.155 148.972 165.541ZM147.542 165.341C147.843 165.341 148.078 165.229 148.245 165.007C148.418 164.78 148.505 164.479 148.505 164.103C148.505 163.728 148.418 163.427 148.245 163.199C148.078 162.972 147.843 162.858 147.542 162.858C147.235 162.858 146.998 162.972 146.83 163.199C146.662 163.422 146.578 163.723 146.578 164.103C146.578 164.479 146.662 164.78 146.83 165.007C146.998 165.229 147.235 165.341 147.542 165.341ZM149.959 163.77V162.695H151.04V163.77H149.959ZM149.959 166V164.926H151.04V166H149.959Z" fill="#232E48"/>
<path d="M108.259 173.94V173.199H109.719V171.695H110.489V173.199H111.957V173.94H110.489V175.444H109.719V173.94H108.259ZM113.458 176V172.458H112.31V171.792C113.071 171.762 113.498 171.461 113.592 170.888H114.473V176H113.458ZM116.36 176V172.458H115.211V171.792C115.972 171.762 116.399 171.461 116.493 170.888H117.375V176H116.36ZM118.105 176C118.115 175.699 118.187 175.415 118.32 175.148C118.454 174.876 118.597 174.659 118.75 174.496C118.908 174.333 119.101 174.163 119.328 173.985C119.407 173.92 119.53 173.827 119.698 173.703C119.871 173.58 120 173.483 120.084 173.414C120.168 173.345 120.261 173.259 120.365 173.155C120.474 173.046 120.55 172.938 120.595 172.829C120.639 172.715 120.662 172.597 120.662 172.473C120.662 172.231 120.6 172.039 120.476 171.895C120.353 171.752 120.18 171.68 119.958 171.68C119.701 171.68 119.498 171.769 119.35 171.947C119.207 172.125 119.133 172.379 119.128 172.71H118.179C118.179 172.118 118.33 171.656 118.631 171.325C118.938 170.989 119.387 170.821 119.98 170.821C120.513 170.821 120.933 170.977 121.239 171.288C121.551 171.599 121.706 171.984 121.706 172.444C121.706 172.671 121.672 172.878 121.603 173.066C121.538 173.249 121.435 173.417 121.291 173.57C121.148 173.723 121.02 173.844 120.906 173.933C120.792 174.022 120.634 174.133 120.432 174.266C119.879 174.622 119.538 174.923 119.409 175.17H121.751V176H118.105ZM123.598 173.77C123.217 173.77 122.904 173.636 122.657 173.37C122.415 173.098 122.294 172.74 122.294 172.295C122.294 171.851 122.415 171.493 122.657 171.221C122.904 170.949 123.217 170.814 123.598 170.814C123.983 170.814 124.294 170.949 124.531 171.221C124.773 171.488 124.894 171.846 124.894 172.295C124.894 172.74 124.773 173.098 124.531 173.37C124.294 173.636 123.983 173.77 123.598 173.77ZM126.917 176.119C126.537 176.119 126.223 175.985 125.976 175.718C125.734 175.447 125.613 175.089 125.613 174.644C125.613 174.2 125.734 173.841 125.976 173.57C126.223 173.298 126.537 173.162 126.917 173.162C127.302 173.162 127.613 173.298 127.85 173.57C128.093 173.837 128.214 174.195 128.214 174.644C128.214 175.089 128.093 175.447 127.85 175.718C127.613 175.985 127.302 176.119 126.917 176.119ZM123.642 176L126.243 170.917H126.872L124.272 176H123.642ZM126.532 175.304C126.621 175.467 126.749 175.548 126.917 175.548C127.085 175.548 127.211 175.467 127.295 175.304C127.384 175.141 127.428 174.921 127.428 174.644C127.428 174.368 127.384 174.145 127.295 173.977C127.206 173.809 127.08 173.725 126.917 173.725C126.749 173.725 126.621 173.809 126.532 173.977C126.448 174.14 126.406 174.363 126.406 174.644C126.406 174.921 126.448 175.141 126.532 175.304ZM123.212 172.955C123.301 173.118 123.43 173.199 123.598 173.199C123.766 173.199 123.891 173.118 123.975 172.955C124.064 172.792 124.109 172.572 124.109 172.295C124.109 172.019 124.064 171.797 123.975 171.629C123.887 171.461 123.761 171.377 123.598 171.377C123.43 171.377 123.301 171.461 123.212 171.629C123.128 171.792 123.086 172.014 123.086 172.295C123.086 172.572 123.128 172.792 123.212 172.955Z" fill="#232E48"/>
<path d="M27.1334 186.606V185.702H31.3937V186.606H29.8007V191H28.7263V186.606H27.1334ZM31.8555 191V187.199H32.8631V191H31.8555ZM31.8555 186.606V185.702H32.8631V186.606H31.8555ZM35.2758 191.111C34.688 191.111 34.2163 190.921 33.8607 190.541C33.505 190.16 33.3272 189.681 33.3272 189.103C33.3272 188.525 33.5001 188.046 33.8458 187.666C34.1965 187.286 34.6559 187.095 35.2239 187.095C35.7031 187.095 36.0933 187.221 36.3946 187.473C36.6959 187.725 36.8811 188.063 36.9503 188.488H35.9649C35.9303 188.315 35.8513 188.175 35.7278 188.066C35.6043 187.957 35.4512 187.903 35.2684 187.903C34.972 187.903 34.7448 188.009 34.5868 188.222C34.4287 188.434 34.3497 188.728 34.3497 189.103C34.3497 189.474 34.4262 189.768 34.5793 189.985C34.7325 190.197 34.9572 190.304 35.2536 190.304C35.6932 190.304 35.9476 190.089 36.0167 189.659H36.9873C36.9528 190.079 36.7824 190.427 36.4761 190.704C36.1699 190.975 35.7698 191.111 35.2758 191.111ZM39.9312 191L38.8643 189.266L38.4271 189.718V191H37.4269V185.702H38.4271V188.636L39.7756 187.199H40.9833L39.5829 188.644L41.1537 191H39.9312ZM42.9967 191.111C42.3842 191.111 41.9026 190.923 41.5519 190.548C41.2012 190.168 41.0258 189.684 41.0258 189.096C41.0258 188.528 41.2012 188.054 41.5519 187.673C41.9026 187.288 42.3521 187.095 42.9004 187.095C43.498 187.095 43.9599 187.303 44.2859 187.718C44.6119 188.133 44.7749 188.688 44.7749 189.385H42.0187C42.0582 189.686 42.1594 189.921 42.3224 190.089C42.4855 190.252 42.7077 190.333 42.9893 190.333C43.3597 190.333 43.6042 190.178 43.7228 189.866H44.7156C44.6415 190.222 44.4538 190.518 44.1525 190.755C43.8512 190.993 43.4659 191.111 42.9967 191.111ZM42.9152 187.873C42.4262 187.873 42.1323 188.145 42.0335 188.688H43.7228C43.708 188.446 43.6265 188.251 43.4783 188.103C43.3301 187.95 43.1424 187.873 42.9152 187.873ZM44.9466 187.866V187.199H45.4727V186.014H46.4581V187.199H47.1101V187.866H46.4581V189.881C46.4581 190.133 46.5841 190.259 46.836 190.259L47.1324 190.252V190.993C46.9792 191.002 46.7693 191.007 46.5026 191.007C46.2112 191.007 45.9666 190.938 45.7691 190.8C45.5715 190.657 45.4727 190.422 45.4727 190.096V187.866H44.9466ZM48.8735 191V187.199H49.8441V187.71H49.8664C50.1084 187.3 50.4764 187.095 50.9703 187.095C51.2074 187.095 51.4174 187.157 51.6001 187.281C51.7878 187.399 51.9286 187.56 52.0225 187.762H52.0373C52.3139 187.318 52.6942 187.095 53.1783 187.095C53.5735 187.095 53.8797 187.216 54.097 187.458C54.3193 187.695 54.4305 188.024 54.4305 188.444V191H53.4228V188.614C53.4228 188.18 53.2277 187.962 52.8375 187.962C52.6251 187.962 52.4571 188.039 52.3336 188.192C52.2151 188.34 52.1558 188.54 52.1558 188.792V191H51.1482V188.614C51.1482 188.18 50.9531 187.962 50.5628 187.962C50.3603 187.962 50.1948 188.039 50.0664 188.192C49.9429 188.34 49.8812 188.54 49.8812 188.792V191H48.8735ZM56.8383 191.111C56.2258 191.111 55.7442 190.923 55.3935 190.548C55.0428 190.168 54.8675 189.684 54.8675 189.096C54.8675 188.528 55.0428 188.054 55.3935 187.673C55.7442 187.288 56.1937 187.095 56.742 187.095C57.3397 187.095 57.8015 187.303 58.1275 187.718C58.4535 188.133 58.6165 188.688 58.6165 189.385H55.8603C55.8998 189.686 56.0011 189.921 56.1641 190.089C56.3271 190.252 56.5494 190.333 56.8309 190.333C57.2014 190.333 57.4459 190.178 57.5644 189.866H58.5573C58.4832 190.222 58.2955 190.518 57.9942 190.755C57.6929 190.993 57.3076 191.111 56.8383 191.111ZM56.7568 187.873C56.2678 187.873 55.9739 188.145 55.8751 188.688H57.5644C57.5496 188.446 57.4681 188.251 57.3199 188.103C57.1717 187.95 56.984 187.873 56.7568 187.873ZM57.9275 185.68L57.1273 186.725H56.3419L56.7494 185.68H57.9275ZM60.5055 191.111C60.0264 191.111 59.6386 190.931 59.3422 190.57C59.0459 190.205 58.8977 189.716 58.8977 189.103C58.8977 188.511 59.0483 188.029 59.3497 187.658C59.6559 187.283 60.0461 187.095 60.5203 187.095C60.9945 187.095 61.3526 187.283 61.5946 187.658H61.6169V185.702H62.6245V191H61.6539V190.504H61.6391C61.3921 190.909 61.0143 191.111 60.5055 191.111ZM60.7278 190.266C61.0241 190.266 61.2489 190.165 61.402 189.963C61.5601 189.76 61.6391 189.481 61.6391 189.125C61.6391 188.315 61.3452 187.91 60.7574 187.91C60.4857 187.91 60.2783 188.019 60.135 188.236C59.9918 188.454 59.9202 188.743 59.9202 189.103C59.9202 189.474 59.9893 189.76 60.1276 189.963C60.2709 190.165 60.4709 190.266 60.7278 190.266ZM63.2796 191V187.199H64.2872V191H63.2796ZM63.2796 186.606V185.702H64.2872V186.606H63.2796ZM68.1669 190.541C67.7965 190.921 67.3198 191.111 66.7369 191.111C66.1541 191.111 65.6774 190.921 65.307 190.541C64.9365 190.155 64.7513 189.676 64.7513 189.103C64.7513 188.53 64.9365 188.054 65.307 187.673C65.6774 187.288 66.1541 187.095 66.7369 187.095C67.3198 187.095 67.7965 187.288 68.1669 187.673C68.5374 188.054 68.7226 188.53 68.7226 189.103C68.7226 189.676 68.5374 190.155 68.1669 190.541ZM66.7369 190.341C67.0382 190.341 67.2729 190.229 67.4408 190.007C67.6137 189.78 67.7001 189.479 67.7001 189.103C67.7001 188.728 67.6137 188.427 67.4408 188.199C67.2729 187.972 67.0382 187.858 66.7369 187.858C66.4307 187.858 66.1936 187.972 66.0257 188.199C65.8577 188.422 65.7737 188.723 65.7737 189.103C65.7737 189.479 65.8577 189.78 66.0257 190.007C66.1936 190.229 66.4307 190.341 66.7369 190.341ZM69.154 188.77V187.695H70.2357V188.77H69.154ZM69.154 191V189.926H70.2357V191H69.154Z" fill="#232E48"/>
<path d="M27.4075 201V195.702H29.8377C30.3465 195.702 30.7565 195.838 31.0677 196.11C31.3838 196.382 31.5419 196.737 31.5419 197.177C31.5419 197.854 31.2183 198.281 30.5712 198.459V198.481C30.8232 198.555 31.0109 198.674 31.1343 198.837C31.2628 198.995 31.3443 199.232 31.3789 199.548C31.3887 199.666 31.3986 199.807 31.4085 199.97C31.4233 200.128 31.4332 200.254 31.4381 200.348C31.448 200.442 31.4579 200.536 31.4678 200.63C31.4826 200.723 31.4999 200.797 31.5196 200.852C31.5443 200.901 31.574 200.933 31.6085 200.948V201H30.5787C30.5589 200.99 30.5416 200.973 30.5268 200.948C30.512 200.918 30.4996 200.879 30.4897 200.83C30.4799 200.78 30.47 200.731 30.4601 200.681C30.4552 200.627 30.4478 200.56 30.4379 200.481C30.4329 200.397 30.428 200.326 30.4231 200.266C30.4181 200.202 30.4107 200.121 30.4008 200.022C30.3959 199.918 30.391 199.837 30.386 199.777C30.3416 199.175 29.9958 198.874 29.3487 198.874H28.4818V201H27.4075ZM28.4818 196.569V198.044H29.6229C29.9044 198.044 30.1193 197.977 30.2675 197.844C30.4206 197.71 30.4972 197.535 30.4972 197.318C30.4972 197.095 30.4255 196.915 30.2823 196.777C30.139 196.638 29.9291 196.569 29.6525 196.569H28.4818ZM33.9081 201.719V201.082C33.3055 201.047 32.8387 200.886 32.5078 200.6C32.1768 200.308 32.0039 199.913 31.9891 199.414H32.9968C33.0314 199.676 33.1203 199.876 33.2635 200.015C33.4117 200.148 33.6266 200.229 33.9081 200.259V198.851C33.8884 198.851 33.876 198.849 33.8711 198.844C33.6537 198.795 33.4759 198.75 33.3376 198.711C33.1993 198.671 33.0437 198.612 32.8708 198.533C32.7029 198.449 32.5695 198.36 32.4707 198.266C32.3769 198.167 32.2954 198.039 32.2262 197.881C32.162 197.718 32.1299 197.535 32.1299 197.332C32.1299 196.868 32.2904 196.505 32.6115 196.243C32.9375 195.981 33.3697 195.838 33.9081 195.814V195.376H34.3527V195.821C34.8565 195.865 35.2541 196.023 35.5456 196.295C35.8419 196.562 36.0074 196.927 36.042 197.392H35.0565C35.0072 196.987 34.7725 196.742 34.3527 196.658V197.94C34.3625 197.945 34.3774 197.947 34.3971 197.947C34.6688 198.002 34.8985 198.061 35.0862 198.125C35.2739 198.189 35.4566 198.278 35.6345 198.392C35.8123 198.506 35.9457 198.654 36.0346 198.837C36.1235 199.019 36.1679 199.237 36.1679 199.489C36.1679 199.973 36 200.355 35.6641 200.637C35.3332 200.914 34.896 201.064 34.3527 201.089V201.719H33.9081ZM35.1306 199.614C35.1306 199.437 35.0664 199.301 34.938 199.207C34.8145 199.113 34.6194 199.032 34.3527 198.962V200.259C34.5848 200.234 34.7725 200.17 34.9158 200.066C35.059 199.958 35.1306 199.807 35.1306 199.614ZM33.3598 196.829C33.2265 196.927 33.1598 197.058 33.1598 197.221C33.1598 197.384 33.2166 197.513 33.3302 197.607C33.4487 197.695 33.6414 197.775 33.9081 197.844V196.636C33.676 196.661 33.4932 196.725 33.3598 196.829ZM38.9703 201V197.458H37.8219V196.792C38.5825 196.762 39.0098 196.461 39.1037 195.888H39.9854V201H38.9703ZM42.8646 201.119C42.2175 201.119 41.7013 200.879 41.3161 200.4C40.9357 199.921 40.7456 199.276 40.7456 198.466C40.7456 197.656 40.9382 197.011 41.3235 196.532C41.7088 196.053 42.2249 195.814 42.872 195.814C43.524 195.814 44.0377 196.053 44.4131 196.532C44.7935 197.006 44.9836 197.651 44.9836 198.466C44.9836 199.276 44.7935 199.921 44.4131 200.4C44.0377 200.879 43.5215 201.119 42.8646 201.119ZM42.872 200.259C43.5784 200.259 43.9315 199.661 43.9315 198.466C43.9315 197.903 43.8451 197.463 43.6722 197.147C43.4993 196.831 43.2326 196.673 42.872 196.673C42.5065 196.673 42.2348 196.831 42.057 197.147C41.8841 197.463 41.7977 197.903 41.7977 198.466C41.7977 199.029 41.8841 199.469 42.057 199.785C42.2348 200.101 42.5065 200.259 42.872 200.259ZM45.3267 201V199.926H46.4085V201H45.3267ZM48.8701 201.119C48.223 201.119 47.7069 200.879 47.3216 200.4C46.9412 199.921 46.7511 199.276 46.7511 198.466C46.7511 197.656 46.9437 197.011 47.329 196.532C47.7143 196.053 48.2305 195.814 48.8775 195.814C49.5295 195.814 50.0432 196.053 50.4186 196.532C50.799 197.006 50.9892 197.651 50.9892 198.466C50.9892 199.276 50.799 199.921 50.4186 200.4C50.0432 200.879 49.5271 201.119 48.8701 201.119ZM48.8775 200.259C49.5839 200.259 49.937 199.661 49.937 198.466C49.937 197.903 49.8506 197.463 49.6777 197.147C49.5048 196.831 49.2381 196.673 48.8775 196.673C48.512 196.673 48.2403 196.831 48.0625 197.147C47.8896 197.463 47.8032 197.903 47.8032 198.466C47.8032 199.029 47.8896 199.469 48.0625 199.785C48.2403 200.101 48.512 200.259 48.8775 200.259ZM53.5515 201.119C52.9045 201.119 52.3883 200.879 52.003 200.4C51.6227 199.921 51.4325 199.276 51.4325 198.466C51.4325 197.656 51.6251 197.011 52.0104 196.532C52.3957 196.053 52.9119 195.814 53.5589 195.814C54.211 195.814 54.7247 196.053 55.1001 196.532C55.4804 197.006 55.6706 197.651 55.6706 198.466C55.6706 199.276 55.4804 199.921 55.1001 200.4C54.7247 200.879 54.2085 201.119 53.5515 201.119ZM53.5589 200.259C54.2653 200.259 54.6185 199.661 54.6185 198.466C54.6185 197.903 54.532 197.463 54.3591 197.147C54.1863 196.831 53.9195 196.673 53.5589 196.673C53.1934 196.673 52.9217 196.831 52.7439 197.147C52.571 197.463 52.4846 197.903 52.4846 198.466C52.4846 199.029 52.571 199.469 52.7439 199.785C52.9217 200.101 53.1934 200.259 53.5589 200.259ZM58.2329 201.119C57.5859 201.119 57.0697 200.879 56.6844 200.4C56.3041 199.921 56.1139 199.276 56.1139 198.466C56.1139 197.656 56.3065 197.011 56.6918 196.532C57.0771 196.053 57.5933 195.814 58.2404 195.814C58.8924 195.814 59.4061 196.053 59.7815 196.532C60.1618 197.006 60.352 197.651 60.352 198.466C60.352 199.276 60.1618 199.921 59.7815 200.4C59.4061 200.879 58.8899 201.119 58.2329 201.119ZM58.2404 200.259C58.9467 200.259 59.2999 199.661 59.2999 198.466C59.2999 197.903 59.2134 197.463 59.0406 197.147C58.8677 196.831 58.6009 196.673 58.2404 196.673C57.8748 196.673 57.6032 196.831 57.4253 197.147C57.2525 197.463 57.166 197.903 57.166 198.466C57.166 199.029 57.2525 199.469 57.4253 199.785C57.6032 200.101 57.8748 200.259 58.2404 200.259ZM60.7025 202.23V201.867C61.0581 201.684 61.2359 201.395 61.2359 201H60.6951V199.926H61.7768V200.941C61.7768 201.296 61.6731 201.585 61.4656 201.808C61.2631 202.035 61.0087 202.176 60.7025 202.23ZM64.2385 201.119C63.5914 201.119 63.0752 200.879 62.6899 200.4C62.3096 199.921 62.1194 199.276 62.1194 198.466C62.1194 197.656 62.3121 197.011 62.6973 196.532C63.0826 196.053 63.5988 195.814 64.2459 195.814C64.8979 195.814 65.4116 196.053 65.787 196.532C66.1673 197.006 66.3575 197.651 66.3575 198.466C66.3575 199.276 66.1673 199.921 65.787 200.4C65.4116 200.879 64.8954 201.119 64.2385 201.119ZM64.2459 200.259C64.9522 200.259 65.3054 199.661 65.3054 198.466C65.3054 197.903 65.219 197.463 65.0461 197.147C64.8732 196.831 64.6065 196.673 64.2459 196.673C63.8804 196.673 63.6087 196.831 63.4309 197.147C63.258 197.463 63.1715 197.903 63.1715 198.466C63.1715 199.029 63.258 199.469 63.4309 199.785C63.6087 200.101 63.8804 200.259 64.2459 200.259ZM68.9199 201.119C68.2728 201.119 67.7566 200.879 67.3714 200.4C66.991 199.921 66.8008 199.276 66.8008 198.466C66.8008 197.656 66.9935 197.011 67.3788 196.532C67.764 196.053 68.2802 195.814 68.9273 195.814C69.5793 195.814 70.093 196.053 70.4684 196.532C70.8488 197.006 71.0389 197.651 71.0389 198.466C71.0389 199.276 70.8488 199.921 70.4684 200.4C70.093 200.879 69.5768 201.119 68.9199 201.119ZM68.9273 200.259C69.6336 200.259 69.9868 199.661 69.9868 198.466C69.9868 197.903 69.9004 197.463 69.7275 197.147C69.5546 196.831 69.2879 196.673 68.9273 196.673C68.5618 196.673 68.2901 196.831 68.1123 197.147C67.9394 197.463 67.853 197.903 67.853 198.466C67.853 199.029 67.9394 199.469 68.1123 199.785C68.2901 200.101 68.5618 200.259 68.9273 200.259Z" fill="#232E48"/>
<path d="M108.408 191V185.702H110.838C111.346 185.702 111.756 185.838 112.068 186.11C112.384 186.382 112.542 186.737 112.542 187.177C112.542 187.854 112.218 188.281 111.571 188.459V188.481C111.823 188.555 112.011 188.674 112.134 188.837C112.263 188.995 112.344 189.232 112.379 189.548C112.389 189.666 112.399 189.807 112.408 189.97C112.423 190.128 112.433 190.254 112.438 190.348C112.448 190.442 112.458 190.536 112.468 190.63C112.483 190.723 112.5 190.797 112.52 190.852C112.544 190.901 112.574 190.933 112.609 190.948V191H111.579C111.559 190.99 111.542 190.973 111.527 190.948C111.512 190.918 111.5 190.879 111.49 190.83C111.48 190.78 111.47 190.731 111.46 190.681C111.455 190.627 111.448 190.56 111.438 190.481C111.433 190.397 111.428 190.326 111.423 190.266C111.418 190.202 111.411 190.121 111.401 190.022C111.396 189.918 111.391 189.837 111.386 189.777C111.342 189.175 110.996 188.874 110.349 188.874H109.482V191H108.408ZM109.482 186.569V188.044H110.623C110.904 188.044 111.119 187.977 111.267 187.844C111.421 187.71 111.497 187.535 111.497 187.318C111.497 187.095 111.426 186.915 111.282 186.777C111.139 186.638 110.929 186.569 110.653 186.569H109.482ZM117.412 190.348C116.948 190.862 116.331 191.119 115.56 191.119C114.79 191.119 114.17 190.862 113.7 190.348C113.236 189.829 113.004 189.167 113.004 188.362C113.004 187.557 113.236 186.895 113.7 186.377C114.17 185.858 114.79 185.599 115.56 185.599C116.331 185.599 116.948 185.858 117.412 186.377C117.877 186.895 118.109 187.557 118.109 188.362C118.109 189.167 117.877 189.829 117.412 190.348ZM114.478 189.711C114.735 190.061 115.098 190.237 115.568 190.237C116.037 190.237 116.395 190.064 116.642 189.718C116.889 189.368 117.012 188.916 117.012 188.362C117.012 187.809 116.889 187.357 116.642 187.006C116.395 186.656 116.037 186.48 115.568 186.48C115.098 186.48 114.735 186.656 114.478 187.006C114.226 187.357 114.101 187.809 114.101 188.362C114.101 188.911 114.226 189.36 114.478 189.711ZM118.015 191L119.859 185.702H120.971L122.838 191H121.719L121.364 189.874H119.452L119.104 191H118.015ZM120.178 187.525L119.704 189.051H121.104L120.63 187.525L120.415 186.71H120.4C120.311 187.066 120.237 187.337 120.178 187.525ZM125.264 191.119C124.548 191.119 123.992 190.968 123.597 190.667C123.202 190.36 122.994 189.926 122.974 189.363H124.026C124.061 189.679 124.172 189.906 124.36 190.044C124.553 190.183 124.839 190.252 125.219 190.252C125.521 190.252 125.768 190.197 125.96 190.089C126.153 189.975 126.249 189.802 126.249 189.57C126.249 189.486 126.237 189.412 126.212 189.348C126.192 189.279 126.148 189.219 126.079 189.17C126.01 189.116 125.95 189.074 125.901 189.044C125.852 189.009 125.76 188.975 125.627 188.94C125.494 188.901 125.392 188.874 125.323 188.859C125.254 188.839 125.126 188.807 124.938 188.762C124.711 188.708 124.523 188.661 124.375 188.622C124.231 188.582 124.071 188.52 123.893 188.436C123.72 188.352 123.582 188.261 123.478 188.162C123.379 188.059 123.295 187.925 123.226 187.762C123.157 187.594 123.123 187.404 123.123 187.192C123.123 186.683 123.308 186.293 123.678 186.021C124.054 185.744 124.545 185.606 125.153 185.606C125.755 185.606 126.237 185.749 126.597 186.036C126.958 186.322 127.158 186.73 127.198 187.258H126.168C126.138 187.001 126.029 186.804 125.842 186.666C125.659 186.527 125.427 186.458 125.145 186.458C124.854 186.458 124.622 186.515 124.449 186.629C124.276 186.742 124.19 186.893 124.19 187.081C124.19 187.283 124.273 187.431 124.441 187.525C124.614 187.619 124.916 187.713 125.345 187.807C125.602 187.861 125.812 187.913 125.975 187.962C126.138 188.007 126.313 188.073 126.501 188.162C126.694 188.246 126.842 188.34 126.946 188.444C127.054 188.548 127.143 188.686 127.212 188.859C127.287 189.027 127.324 189.222 127.324 189.444C127.324 189.968 127.133 190.378 126.753 190.674C126.373 190.97 125.876 191.119 125.264 191.119ZM127.847 188.77V187.695H128.928V188.77H127.847ZM127.847 191V189.926H128.928V191H127.847Z" fill="#232E48"/>
<path d="M110.519 201V199.896H108.178V198.807L110.482 195.865H111.505V199.088H112.275V199.896H111.505V201H110.519ZM108.993 199.066V199.088H110.519V197.118H110.504L108.993 199.066ZM112.673 201V199.926H113.755V201H112.673ZM114.213 201C114.223 200.699 114.294 200.415 114.428 200.148C114.561 199.876 114.704 199.659 114.857 199.496C115.015 199.333 115.208 199.163 115.435 198.985C115.514 198.92 115.638 198.827 115.806 198.703C115.978 198.58 116.107 198.483 116.191 198.414C116.275 198.345 116.369 198.259 116.472 198.155C116.581 198.046 116.658 197.938 116.702 197.829C116.747 197.715 116.769 197.597 116.769 197.473C116.769 197.231 116.707 197.039 116.584 196.895C116.46 196.752 116.287 196.68 116.065 196.68C115.808 196.68 115.606 196.769 115.457 196.947C115.314 197.125 115.24 197.379 115.235 197.71H114.287C114.287 197.118 114.437 196.656 114.739 196.325C115.045 195.989 115.494 195.821 116.087 195.821C116.621 195.821 117.04 195.977 117.347 196.288C117.658 196.599 117.814 196.984 117.814 197.444C117.814 197.671 117.779 197.878 117.71 198.066C117.646 198.249 117.542 198.417 117.399 198.57C117.255 198.723 117.127 198.844 117.013 198.933C116.9 199.022 116.742 199.133 116.539 199.266C115.986 199.622 115.645 199.923 115.517 200.17H117.858V201H114.213ZM118.131 201L119.517 198.985L118.279 197.199H119.428L120.102 198.288H120.117L120.754 197.199H121.799L120.621 198.977L121.977 201H120.776L120.072 199.74H120.058L119.235 201H118.131Z" fill="#232E48"/>
<defs>
<filter id="filter0_i_2322_169" x="43.5" y="38.5" width="93" height="97" filterUnits="userSpaceOnUse" color-interpolation-filters="sRGB">
<feFlood flood-opacity="0" result="BackgroundImageFix"/>
<feBlend mode="normal" in="SourceGraphic" in2="BackgroundImageFix" result="shape"/>
<feColorMatrix in="SourceAlpha" type="matrix" values="0 0 0 0 0 0 0 0 0 0 0 0 0 0 0 0 0 0 127 0" result="hardAlpha"/>
<feOffset dy="4"/>
<feGaussianBlur stdDeviation="10"/>
<feComposite in2="hardAlpha" operator="arithmetic" k2="-1" k3="1"/>
<feColorMatrix type="matrix" values="0 0 0 0 0.801345 0 0 0 0 0.950336 0 0 0 0 1 0 0 0 1 0"/>
<feBlend mode="normal" in2="shape" result="effect1_innerShadow_2322_169"/>
</filter>
<radialGradient id="paint0_radial_2322_169" cx="0" cy="0" r="1" gradientTransform="matrix(61.9986 21.3592 -34.1624 30.781 75.6592 89.8253)" gradientUnits="userSpaceOnUse">
<stop offset="0.0327964" stop-color="#CAF3FF"/>
<stop offset="0.386144" stop-color="#00AEFF"/>
<stop offset="1" stop-color="#3C3CCE"/>
</radialGradient>
</defs>
</svg>
