<svg width="247" height="219" viewBox="0 0 247 219" fill="none" xmlns="http://www.w3.org/2000/svg">
<path d="M0.955073 12V2.7074H2.32315V12H0.955073ZM1.62621 8.14099V7.01813H6.73714V8.14099H1.62621ZM1.62621 3.83026V2.7074H7.08561V3.83026H1.62621ZM10.031 12.1291C9.59222 12.1291 9.20503 12.0387 8.86946 11.858C8.5339 11.6687 8.27147 11.4106 8.08217 11.0836C7.90148 10.7567 7.81114 10.3824 7.81114 9.96079V5.41774H9.1534V9.65104C9.1534 10.1071 9.26526 10.4469 9.48897 10.6706C9.71268 10.8944 10.031 11.0062 10.444 11.0062C10.814 11.0062 11.141 10.9202 11.4249 10.7481C11.7175 10.576 11.9455 10.3394 12.109 10.0382C12.2811 9.72848 12.3671 9.3714 12.3671 8.967L12.5349 10.5416C12.3198 11.0234 11.9885 11.4106 11.5411 11.7032C11.1023 11.9871 10.5989 12.1291 10.031 12.1291ZM12.4187 12V10.4512H12.3671V5.41774H13.6965V12H12.4187ZM15.377 12V5.41774H16.6547V6.96651H16.7192V12H15.377ZM20.0491 12V7.7667C20.0491 7.31068 19.9329 6.97081 19.7006 6.7471C19.4769 6.52339 19.1413 6.41153 18.6939 6.41153C18.3067 6.41153 17.9625 6.49758 17.6614 6.66966C17.3688 6.84175 17.1365 7.07836 16.9644 7.37951C16.801 7.68066 16.7192 8.03774 16.7192 8.45074L16.5514 6.87616C16.7665 6.38572 17.0978 5.99853 17.5452 5.71459C17.9926 5.43065 18.5132 5.28868 19.1069 5.28868C19.8124 5.28868 20.3674 5.48658 20.7718 5.88237C21.1762 6.27817 21.3784 6.80303 21.3784 7.45695V12H20.0491ZM22.9788 12V5.41774H24.321V12H22.9788ZM22.9142 4.1271V2.61705H24.3985V4.1271H22.9142ZM26.0054 12V2.7074H27.3476V12H26.0054ZM36.1275 12V10.49L36.2566 10.5287C36.1189 11.0191 35.835 11.4106 35.4047 11.7032C34.9745 11.9871 34.4583 12.1291 33.856 12.1291C33.2623 12.1291 32.7417 11.9871 32.2943 11.7032C31.8555 11.4192 31.5113 11.0234 31.2618 10.5158C31.0209 10.0081 30.9004 9.41442 30.9004 8.73468C30.9004 8.04634 31.0252 7.44404 31.2747 6.92779C31.5242 6.41153 31.8727 6.01144 32.3201 5.72749C32.7675 5.44355 33.2924 5.30158 33.8947 5.30158C34.5228 5.30158 35.0391 5.45216 35.4435 5.75331C35.8565 6.04585 36.1275 6.45886 36.2566 6.99232L36.0759 7.01813V2.7074H37.4052V12H36.1275ZM34.1915 11.0062C34.7852 11.0062 35.2542 10.804 35.5983 10.3996C35.9425 9.9866 36.1146 9.41872 36.1146 8.69596C36.1146 7.99041 35.9382 7.43544 35.5854 7.03104C35.2413 6.61804 34.7723 6.41153 34.1786 6.41153C33.5935 6.41153 33.1289 6.61804 32.7847 7.03104C32.4492 7.43544 32.2814 8.00332 32.2814 8.73468C32.2814 9.44884 32.4492 10.0081 32.7847 10.4125C33.1289 10.8083 33.5978 11.0062 34.1915 11.0062ZM41.9326 12.1291C41.2701 12.1291 40.685 11.9828 40.1773 11.6902C39.6783 11.3977 39.2868 10.9933 39.0028 10.477C38.7189 9.96079 38.5769 9.3671 38.5769 8.69596C38.5769 8.01623 38.7146 7.42253 38.9899 6.91488C39.2739 6.39863 39.6697 5.99853 40.1773 5.71459C40.685 5.43065 41.2658 5.28868 41.9197 5.28868C42.5564 5.28868 43.1071 5.42635 43.5717 5.70168C44.0449 5.96841 44.4063 6.3427 44.6558 6.82454C44.914 7.30638 45.043 7.87856 45.043 8.54109C45.043 8.64434 45.0387 8.74329 45.0301 8.83793C45.0301 8.92398 45.0215 9.01432 45.0043 9.10897H39.4804V8.10227H44.0622L43.7266 8.50237C43.7266 7.79682 43.5674 7.25905 43.249 6.88907C42.9307 6.51909 42.4876 6.33409 41.9197 6.33409C41.3088 6.33409 40.8226 6.5449 40.4613 6.96651C40.1085 7.37951 39.9321 7.956 39.9321 8.69596C39.9321 9.44453 40.1085 10.0296 40.4613 10.4512C40.8226 10.8728 41.3217 11.0836 41.9584 11.0836C42.3456 11.0836 42.6812 11.0062 42.9651 10.8513C43.249 10.6879 43.4599 10.4512 43.5975 10.1415H44.8623C44.6472 10.761 44.2816 11.2471 43.7653 11.5999C43.2577 11.9527 42.6467 12.1291 41.9326 12.1291ZM52.0726 12.1162C51.4531 12.1162 50.9368 11.9699 50.5238 11.6773C50.1194 11.3762 49.8527 10.9589 49.7236 10.4254L49.9043 10.3996V14.6458H48.562V5.41774H49.8398V6.92779L49.7107 6.88907C49.8484 6.39002 50.1409 5.99853 50.5883 5.71459C51.0358 5.43065 51.5606 5.28868 52.1629 5.28868C52.7566 5.28868 53.2686 5.43065 53.6988 5.71459C54.1376 5.99853 54.4732 6.39432 54.7055 6.90198C54.9464 7.40963 55.0669 8.00332 55.0669 8.68306C55.0669 9.3714 54.9421 9.9737 54.6926 10.49C54.4431 11.0062 54.0946 11.4063 53.6472 11.6902C53.1997 11.9742 52.6749 12.1162 52.0726 12.1162ZM51.7886 11.0062C52.3737 11.0062 52.8384 10.7997 53.1825 10.3867C53.5267 9.9737 53.6988 9.40582 53.6988 8.68306C53.6988 7.9689 53.5267 7.41393 53.1825 7.01813C52.8384 6.61373 52.3694 6.41153 51.7757 6.41153C51.1906 6.41153 50.7217 6.61804 50.3689 7.03104C50.0248 7.43544 49.8527 7.99902 49.8527 8.72178C49.8527 9.42733 50.0248 9.9866 50.3689 10.3996C50.7217 10.804 51.1949 11.0062 51.7886 11.0062ZM60.3683 12C60.3253 11.8365 60.2952 11.6558 60.278 11.4579C60.2694 11.26 60.2651 11.0191 60.2651 10.7352H60.2005V7.59892C60.2005 7.17731 60.093 6.86326 59.8779 6.65675C59.6714 6.44165 59.3401 6.33409 58.8841 6.33409C58.4453 6.33409 58.0925 6.42014 57.8258 6.59222C57.5676 6.76431 57.417 7.00953 57.374 7.32789H56.0963C56.1565 6.70838 56.4362 6.21364 56.9352 5.84365C57.4343 5.47367 58.1011 5.28868 58.9357 5.28868C59.7961 5.28868 60.4414 5.49088 60.8717 5.89528C61.3019 6.29107 61.517 6.87616 61.517 7.65055V10.7352C61.517 10.9331 61.5299 11.1353 61.5557 11.3418C61.5815 11.5483 61.6202 11.7677 61.6719 12H60.3683ZM58.0968 12.1291C57.4257 12.1291 56.8922 11.9656 56.4964 11.6386C56.1006 11.3031 55.9027 10.8513 55.9027 10.2835C55.9027 9.69836 56.1092 9.23803 56.5222 8.90247C56.9438 8.5583 57.5461 8.32598 58.3291 8.20552L60.4974 7.85705V8.79922L58.5356 9.10897C58.0968 9.1778 57.7655 9.29396 57.5418 9.45744C57.3267 9.62092 57.2192 9.85754 57.2192 10.1673C57.2192 10.4684 57.3181 10.6965 57.516 10.8513C57.7225 10.9976 58.0193 11.0707 58.4065 11.0707C58.9228 11.0707 59.3487 10.946 59.6843 10.6965C60.0284 10.4469 60.2005 10.1329 60.2005 9.75429L60.3683 10.7094C60.2134 11.1654 59.9381 11.5182 59.5423 11.7677C59.1465 12.0086 58.6647 12.1291 58.0968 12.1291ZM65.8212 12.1291C65.1931 12.1291 64.6338 11.9828 64.1434 11.6902C63.6529 11.3891 63.2657 10.9804 62.9818 10.4641C62.7065 9.94788 62.5688 9.35849 62.5688 8.69596C62.5688 8.03344 62.7065 7.44835 62.9818 6.9407C63.2657 6.42444 63.6529 6.02004 64.1434 5.72749C64.6338 5.43495 65.1888 5.28868 65.8083 5.28868C66.3332 5.28868 66.8021 5.38763 67.2151 5.58552C67.6281 5.78342 67.968 6.05876 68.2347 6.41153C68.5014 6.76431 68.6735 7.18161 68.751 7.66345H67.4861C67.4001 7.27626 67.2108 6.96651 66.9183 6.73419C66.6343 6.50188 66.2729 6.38572 65.8341 6.38572C65.4555 6.38572 65.1243 6.48037 64.8403 6.66966C64.5564 6.85895 64.337 7.12569 64.1821 7.46986C64.0272 7.81403 63.9498 8.22273 63.9498 8.69596C63.9498 9.16059 64.0272 9.5693 64.1821 9.92207C64.337 10.2748 64.5564 10.5502 64.8403 10.7481C65.1243 10.9374 65.4598 11.032 65.847 11.032C66.2686 11.032 66.6257 10.9202 66.9183 10.6965C67.2194 10.4641 67.413 10.1544 67.499 9.76719H68.7639C68.6778 10.2404 68.4971 10.6534 68.2218 11.0062C67.9551 11.359 67.6152 11.6343 67.2022 11.8322C66.7892 12.0301 66.3289 12.1291 65.8212 12.1291ZM69.8172 12V5.41774H71.1595V12H69.8172ZM69.7527 4.1271V2.61705H71.2369V4.1271H69.7527ZM75.658 12.1291C74.9955 12.1291 74.4104 11.9828 73.9027 11.6902C73.4037 11.3977 73.0122 10.9933 72.7282 10.477C72.4443 9.96079 72.3023 9.3671 72.3023 8.69596C72.3023 8.01623 72.44 7.42253 72.7153 6.91488C72.9993 6.39863 73.3951 5.99853 73.9027 5.71459C74.4104 5.43065 74.9912 5.28868 75.6451 5.28868C76.2818 5.28868 76.8325 5.42635 77.2971 5.70168C77.7703 5.96841 78.1317 6.3427 78.3812 6.82454C78.6394 7.30638 78.7684 7.87856 78.7684 8.54109C78.7684 8.64434 78.7641 8.74329 78.7555 8.83793C78.7555 8.92398 78.7469 9.01432 78.7297 9.10897H73.2058V8.10227H77.7875L77.452 8.50237C77.452 7.79682 77.2928 7.25905 76.9744 6.88907C76.6561 6.51909 76.213 6.33409 75.6451 6.33409C75.0342 6.33409 74.548 6.5449 74.1867 6.96651C73.8339 7.37951 73.6575 7.956 73.6575 8.69596C73.6575 9.44453 73.8339 10.0296 74.1867 10.4512C74.548 10.8728 75.0471 11.0836 75.6838 11.0836C76.071 11.0836 76.4066 11.0062 76.6905 10.8513C76.9744 10.6879 77.1852 10.4512 77.3229 10.1415H78.5877C78.3726 10.761 78.007 11.2471 77.4907 11.5999C76.983 11.9527 76.3721 12.1291 75.658 12.1291ZM79.9414 12V5.41774H81.2192V6.96651H81.2837V12H79.9414ZM84.6136 12V7.7667C84.6136 7.31068 84.4974 6.97081 84.2651 6.7471C84.0414 6.52339 83.7058 6.41153 83.2584 6.41153C82.8712 6.41153 82.527 6.49758 82.2259 6.66966C81.9333 6.84175 81.701 7.07836 81.5289 7.37951C81.3655 7.68066 81.2837 8.03774 81.2837 8.45074L81.1159 6.87616C81.331 6.38572 81.6623 5.99853 82.1097 5.71459C82.5571 5.43065 83.0777 5.28868 83.6714 5.28868C84.3769 5.28868 84.9319 5.48658 85.3363 5.88237C85.7407 6.27817 85.9429 6.80303 85.9429 7.45695V12H84.6136ZM90.1549 12.1291C89.3891 12.1291 88.8255 11.9527 88.4641 11.5999C88.1114 11.2385 87.935 10.7094 87.935 10.0124V3.90769L89.2643 3.40434V10.0253C89.2643 10.3695 89.3547 10.6233 89.5354 10.7868C89.7161 10.9503 90.0086 11.032 90.413 11.032C90.5679 11.032 90.7056 11.0191 90.826 10.9933C90.9465 10.9675 91.0497 10.9374 91.1358 10.903V11.9871C91.0411 12.0301 90.9078 12.0645 90.7357 12.0903C90.5636 12.1162 90.37 12.1291 90.1549 12.1291ZM86.6185 6.48897V5.41774H91.1358V6.48897H86.6185ZM94.8839 12.1291C94.2214 12.1291 93.6363 11.9828 93.1287 11.6902C92.6296 11.3977 92.2381 10.9933 91.9542 10.477C91.6702 9.96079 91.5283 9.3671 91.5283 8.69596C91.5283 8.01623 91.6659 7.42253 91.9413 6.91488C92.2252 6.39863 92.621 5.99853 93.1287 5.71459C93.6363 5.43065 94.2171 5.28868 94.871 5.28868C95.5077 5.28868 96.0584 5.42635 96.523 5.70168C96.9963 5.96841 97.3576 6.3427 97.6072 6.82454C97.8653 7.30638 97.9944 7.87856 97.9944 8.54109C97.9944 8.64434 97.9901 8.74329 97.9815 8.83793C97.9815 8.92398 97.9729 9.01432 97.9556 9.10897H92.4317V8.10227H97.0135L96.6779 8.50237C96.6779 7.79682 96.5187 7.25905 96.2004 6.88907C95.882 6.51909 95.4389 6.33409 94.871 6.33409C94.2601 6.33409 93.774 6.5449 93.4126 6.96651C93.0598 7.37951 92.8834 7.956 92.8834 8.69596C92.8834 9.44453 93.0598 10.0296 93.4126 10.4512C93.774 10.8728 94.273 11.0836 94.9097 11.0836C95.2969 11.0836 95.6325 11.0062 95.9164 10.8513C96.2004 10.6879 96.4112 10.4512 96.5488 10.1415H97.8137C97.5986 10.761 97.2329 11.2471 96.7166 11.5999C96.209 11.9527 95.5981 12.1291 94.8839 12.1291ZM101.567 12.1291C100.707 12.1291 100.023 11.9398 99.5152 11.5612C99.0076 11.1826 98.7194 10.6491 98.6505 9.96079H99.8895C99.9498 10.3394 100.122 10.6319 100.406 10.8384C100.698 11.0363 101.094 11.1353 101.593 11.1353C102.032 11.1353 102.368 11.0578 102.6 10.903C102.832 10.7481 102.948 10.5287 102.948 10.2447C102.948 10.0382 102.88 9.86614 102.742 9.72848C102.613 9.5822 102.355 9.46174 101.967 9.3671L100.909 9.12188C100.247 8.95839 99.7519 8.71747 99.4249 8.39912C99.1065 8.07216 98.9474 7.67206 98.9474 7.19882C98.9474 6.60513 99.1668 6.1405 99.6056 5.80493C100.053 5.46076 100.664 5.28868 101.438 5.28868C102.204 5.28868 102.819 5.46076 103.284 5.80493C103.757 6.1491 104.024 6.63094 104.084 7.25045H102.845C102.793 6.9407 102.643 6.70408 102.393 6.5406C102.152 6.36851 101.821 6.28247 101.4 6.28247C101.004 6.28247 100.698 6.35561 100.483 6.50188C100.277 6.63955 100.173 6.83314 100.173 7.08267C100.173 7.28917 100.251 7.46125 100.406 7.59892C100.569 7.73659 100.836 7.85275 101.206 7.94739L102.29 8.21843C102.918 8.3733 103.391 8.62713 103.71 8.9799C104.028 9.32408 104.187 9.74138 104.187 10.2318C104.187 10.8255 103.955 11.2901 103.49 11.6257C103.034 11.9613 102.393 12.1291 101.567 12.1291Z" fill="#232E48"/>
<rect x="111" width="40" height="15" rx="7.5" fill="black" fill-opacity="0.01"/>
<path d="M122.45 10.5V4.64373H124.121L124.949 7.58415C125.009 7.80256 125.069 8.04555 125.129 8.31311C125.194 8.57521 125.243 8.78271 125.276 8.9356L125.317 9.16493H125.334C125.437 8.60251 125.557 8.07558 125.694 7.58415L126.521 4.64373H128.217V10.5H127.111V7.14186L127.16 5.92965H127.144C127.056 6.38832 126.972 6.75963 126.89 7.04357L125.882 10.5H124.744L123.761 7.04357L123.507 5.92965H123.491C123.523 6.42108 123.54 6.82515 123.54 7.14186V10.5H122.45ZM131.677 10.5C131.622 10.429 131.579 10.2734 131.546 10.0331H131.529C131.409 10.2133 131.256 10.3526 131.071 10.4509C130.885 10.5491 130.626 10.5983 130.293 10.5983C129.85 10.5983 129.495 10.4863 129.228 10.2625C128.96 10.0386 128.826 9.72189 128.826 9.31236C128.826 8.88645 128.974 8.57521 129.269 8.37864C129.564 8.1766 129.979 8.03736 130.514 7.96092C130.907 7.90631 131.174 7.85171 131.316 7.7971C131.458 7.73704 131.529 7.63329 131.529 7.48586C131.529 7.33297 131.469 7.21284 131.349 7.12548C131.229 7.03265 131.054 6.98624 130.825 6.98624C130.317 6.98624 130.047 7.18281 130.014 7.57596H129.023C129.039 7.17735 129.201 6.847 129.506 6.5849C129.812 6.3228 130.254 6.19175 130.833 6.19175C132.013 6.19175 132.602 6.70776 132.602 7.73977V9.87751C132.602 10.1942 132.651 10.3881 132.75 10.459V10.5H131.677ZM130.563 9.82018C130.869 9.82018 131.109 9.74101 131.284 9.58265C131.464 9.4243 131.554 9.23592 131.554 9.0175V8.38683C131.434 8.45781 131.174 8.53972 130.776 8.63254C130.459 8.70353 130.235 8.78544 130.104 8.87826C129.973 8.96563 129.908 9.10214 129.908 9.28779C129.908 9.64272 130.126 9.82018 130.563 9.82018ZM133.311 10.5V6.29823H134.424V10.5H133.311ZM133.311 5.64298V4.64373H134.424V5.64298H133.311ZM138.713 9.99218C138.304 10.4126 137.777 10.6229 137.133 10.6229C136.488 10.6229 135.961 10.4126 135.552 9.99218C135.142 9.56627 134.937 9.03661 134.937 8.40321C134.937 7.7698 135.142 7.24287 135.552 6.82242C135.961 6.39651 136.488 6.18356 137.133 6.18356C137.777 6.18356 138.304 6.39651 138.713 6.82242C139.123 7.24287 139.328 7.7698 139.328 8.40321C139.328 9.03661 139.123 9.56627 138.713 9.99218ZM137.133 9.77104C137.466 9.77104 137.725 9.64818 137.911 9.40246C138.102 9.15128 138.197 8.8182 138.197 8.40321C138.197 7.98822 138.102 7.65513 137.911 7.40396C137.725 7.15278 137.466 7.02719 137.133 7.02719C136.794 7.02719 136.532 7.15278 136.346 7.40396C136.161 7.64967 136.068 7.98276 136.068 8.40321C136.068 8.8182 136.161 9.15128 136.346 9.40246C136.532 9.64818 136.794 9.77104 137.133 9.77104Z" fill="#232E48"/>
<rect y="24" width="216" height="29" rx="10" fill="black" fill-opacity="0.01"/>
<rect x="3" y="27" width="195" height="23" rx="6" fill="#0850AB"/>
<path d="M12.0717 41L13.9575 35.8733H14.6817L16.5746 41H15.8719L15.327 39.4369H13.2835L12.7314 41H12.0717ZM14.0794 37.1926L13.4699 38.9135H15.1477L14.5598 37.1926L14.3303 36.4684H14.316C14.2252 36.7552 14.1463 36.9966 14.0794 37.1926ZM17.0653 41V35.8733H17.6461V41H17.0653ZM20.0429 41.1004C19.5027 41.1004 19.0677 40.914 18.7379 40.5411C18.4128 40.1683 18.2503 39.7046 18.2503 39.1501C18.2503 38.5956 18.4128 38.1319 18.7379 37.7591C19.0677 37.3862 19.5027 37.1998 20.0429 37.1998C20.4778 37.1998 20.834 37.3169 21.1112 37.5511C21.3885 37.7806 21.5605 38.0937 21.6275 38.4904H21.0395C20.9965 38.2371 20.8889 38.0387 20.7169 37.8953C20.5448 37.7519 20.3201 37.6802 20.0429 37.6802C19.6604 37.6802 19.3641 37.8188 19.1537 38.0961C18.9482 38.3733 18.8454 38.7247 18.8454 39.1501C18.8454 39.5755 18.9482 39.9269 19.1537 40.2041C19.3641 40.4766 19.6604 40.6128 20.0429 40.6128C20.3392 40.6128 20.5758 40.5339 20.7527 40.3762C20.9296 40.2137 21.03 39.9866 21.0539 39.695H21.6275C21.5892 40.1396 21.4315 40.4861 21.1542 40.7347C20.877 40.9785 20.5065 41.1004 20.0429 41.1004ZM25.1575 41.0359C24.7894 41.0359 24.5767 40.8518 24.5194 40.4837H24.5122C24.2063 40.8757 23.7952 41.0717 23.2789 41.0717C22.9108 41.0717 22.6097 40.9833 22.3755 40.8064C22.1412 40.6295 22.0241 40.3738 22.0241 40.0392C22.0241 39.8671 22.0504 39.7189 22.103 39.5946C22.1604 39.4656 22.2321 39.3628 22.3181 39.2863C22.4042 39.2051 22.5213 39.1357 22.6694 39.0784C22.8224 39.0162 22.9682 38.9708 23.1068 38.9421C23.2455 38.9087 23.4223 38.8752 23.6374 38.8418C23.7761 38.8226 23.874 38.8083 23.9314 38.7987C23.9935 38.7844 24.0724 38.7653 24.168 38.7414C24.2636 38.7127 24.3305 38.6816 24.3688 38.6482C24.407 38.6147 24.4429 38.5693 24.4763 38.5119C24.5098 38.4546 24.5265 38.3877 24.5265 38.3112C24.5265 38.1008 24.4524 37.9407 24.3043 37.8308C24.1609 37.716 23.9577 37.6587 23.6948 37.6587C23.0973 37.6587 22.789 37.9311 22.7698 38.4761H22.2106C22.2201 38.0985 22.3492 37.7949 22.5977 37.5655C22.8511 37.336 23.2144 37.2213 23.6876 37.2213C24.6006 37.2213 25.0571 37.6133 25.0571 38.3972V40.1611C25.0571 40.3236 25.0834 40.4383 25.136 40.5053C25.1934 40.5722 25.2985 40.5889 25.4515 40.5554H25.473V40.9785C25.3774 41.0167 25.2722 41.0359 25.1575 41.0359ZM23.408 40.6271C23.7665 40.6271 24.0437 40.5244 24.2397 40.3188C24.4357 40.1085 24.5337 39.8791 24.5337 39.6305V38.9995C24.3568 39.1095 24.0748 39.2003 23.6876 39.272C23.5442 39.3007 23.4319 39.3246 23.3506 39.3437C23.2694 39.358 23.1761 39.3867 23.071 39.4297C22.9658 39.468 22.8869 39.511 22.8344 39.5588C22.7818 39.6066 22.7364 39.6711 22.6981 39.7524C22.6599 39.8289 22.6408 39.9197 22.6408 40.0249C22.6408 40.4264 22.8965 40.6271 23.408 40.6271ZM26.4823 37.293V37.7806H26.4967C26.7835 37.3982 27.1754 37.207 27.6726 37.207C28.0646 37.207 28.3705 37.3097 28.5904 37.5153C28.8103 37.7208 28.9202 38.0148 28.9202 38.3972V41H28.3394V38.4474C28.3394 38.2084 28.2653 38.0244 28.1171 37.8953C27.9689 37.7615 27.7634 37.6945 27.5005 37.6945C27.2041 37.6945 26.9603 37.7901 26.7691 37.9813C26.5779 38.1725 26.4823 38.4187 26.4823 38.7199V41H25.9015V37.293H26.4823ZM31.2743 41.1004C30.7342 41.1004 30.2992 40.914 29.9693 40.5411C29.6443 40.1683 29.4818 39.7046 29.4818 39.1501C29.4818 38.5956 29.6443 38.1319 29.9693 37.7591C30.2992 37.3862 30.7342 37.1998 31.2743 37.1998C31.7093 37.1998 32.0654 37.3169 32.3427 37.5511C32.6199 37.7806 32.792 38.0937 32.8589 38.4904H32.271C32.228 38.2371 32.1204 38.0387 31.9483 37.8953C31.7762 37.7519 31.5516 37.6802 31.2743 37.6802C30.8919 37.6802 30.5955 37.8188 30.3852 38.0961C30.1797 38.3733 30.0769 38.7247 30.0769 39.1501C30.0769 39.5755 30.1797 39.9269 30.3852 40.2041C30.5955 40.4766 30.8919 40.6128 31.2743 40.6128C31.5707 40.6128 31.8073 40.5339 31.9842 40.3762C32.161 40.2137 32.2614 39.9866 32.2853 39.695H32.8589C32.8207 40.1396 32.663 40.4861 32.3857 40.7347C32.1085 40.9785 31.738 41.1004 31.2743 41.1004ZM34.9925 41.1004C34.4428 41.1004 34.0054 40.9163 33.6803 40.5483C33.3601 40.1754 33.1999 39.7094 33.1999 39.1501C33.1999 38.6004 33.3624 38.1391 33.6875 37.7662C34.0173 37.3886 34.4404 37.1998 34.9566 37.1998C35.5016 37.1998 35.9222 37.391 36.2186 37.7734C36.515 38.151 36.6631 38.6553 36.6631 39.2863H33.795C33.8189 39.6783 33.9337 39.9986 34.1392 40.2471C34.3495 40.4909 34.634 40.6128 34.9925 40.6128C35.547 40.6128 35.8888 40.3595 36.0178 39.8528H36.5843C36.4982 40.2495 36.3166 40.5578 36.0393 40.7777C35.7621 40.9928 35.4131 41.1004 34.9925 41.1004ZM35.731 37.9742C35.5446 37.7638 35.2865 37.6587 34.9566 37.6587C34.6268 37.6587 34.3639 37.7686 34.1679 37.9885C33.9767 38.2084 33.8572 38.4952 33.8094 38.8489H36.0393C36.0202 38.4761 35.9174 38.1845 35.731 37.9742Z" fill="#E4F6FD"/>
<path d="M223.82 42V37.22H222.27V36.32C223.297 36.28 223.873 35.8733 224 35.1H225.19V42H223.82ZM226.276 42V40.55H227.736V42H226.276ZM230.984 42.15C230.217 42.15 229.58 41.96 229.074 41.58C228.574 41.2 228.29 40.68 228.224 40.02H229.564C229.624 40.3467 229.777 40.5933 230.024 40.76C230.277 40.9267 230.587 41.01 230.954 41.01C231.334 41.01 231.64 40.89 231.874 40.65C232.107 40.4033 232.224 40.0933 232.224 39.72C232.224 39.3267 232.104 39.02 231.864 38.8C231.63 38.5733 231.327 38.46 230.954 38.46C230.454 38.46 230.08 38.6033 229.834 38.89H228.524L229.184 35.15H233.224V36.28H230.134L229.874 37.76H229.894C230.227 37.4733 230.7 37.33 231.314 37.33C231.947 37.33 232.49 37.55 232.944 37.99C233.404 38.43 233.634 39.0067 233.634 39.72C233.634 40.4267 233.38 41.01 232.874 41.47C232.374 41.9233 231.744 42.15 230.984 42.15ZM237.035 42.16C236.162 42.16 235.465 41.8367 234.945 41.19C234.432 40.5433 234.175 39.6733 234.175 38.58C234.175 37.4867 234.435 36.6167 234.955 35.97C235.475 35.3233 236.172 35 237.045 35C237.925 35 238.618 35.3233 239.125 35.97C239.638 36.61 239.895 37.48 239.895 38.58C239.895 39.6733 239.638 40.5433 239.125 41.19C238.618 41.8367 237.922 42.16 237.035 42.16ZM237.045 41C237.998 41 238.475 40.1933 238.475 38.58C238.475 37.82 238.358 37.2267 238.125 36.8C237.892 36.3733 237.532 36.16 237.045 36.16C236.552 36.16 236.185 36.3733 235.945 36.8C235.712 37.2267 235.595 37.82 235.595 38.58C235.595 39.34 235.712 39.9333 235.945 40.36C236.185 40.7867 236.552 41 237.045 41ZM243.353 42.16C242.48 42.16 241.783 41.8367 241.263 41.19C240.75 40.5433 240.493 39.6733 240.493 38.58C240.493 37.4867 240.753 36.6167 241.273 35.97C241.793 35.3233 242.49 35 243.363 35C244.243 35 244.937 35.3233 245.443 35.97C245.957 36.61 246.213 37.48 246.213 38.58C246.213 39.6733 245.957 40.5433 245.443 41.19C244.937 41.8367 244.24 42.16 243.353 42.16ZM243.363 41C244.317 41 244.793 40.1933 244.793 38.58C244.793 37.82 244.677 37.2267 244.443 36.8C244.21 36.3733 243.85 36.16 243.363 36.16C242.87 36.16 242.503 36.3733 242.263 36.8C242.03 37.2267 241.913 37.82 241.913 38.58C241.913 39.34 242.03 39.9333 242.263 40.36C242.503 40.7867 242.87 41 243.363 41Z" fill="#232E48"/>
<rect y="61" width="216" height="29" rx="10" fill="black" fill-opacity="0.01"/>
<rect x="3" y="64" width="147" height="23" rx="6" fill="#1274F1"/>
<path d="M12.4804 78V72.8733H13.1257V77.4049H15.8146V78H12.4804ZM17.8092 78.1004C17.2594 78.1004 16.8221 77.9163 16.497 77.5483C16.1767 77.1754 16.0166 76.7094 16.0166 76.1501C16.0166 75.6004 16.1791 75.1391 16.5042 74.7662C16.834 74.3886 17.2571 74.1998 17.7733 74.1998C18.3182 74.1998 18.7389 74.391 19.0353 74.7734C19.3316 75.151 19.4798 75.6553 19.4798 76.2863H16.6117C16.6356 76.6783 16.7504 76.9986 16.9559 77.2471C17.1662 77.4909 17.4507 77.6128 17.8092 77.6128C18.3637 77.6128 18.7054 77.3595 18.8345 76.8528H19.401C19.3149 77.2495 19.1333 77.5578 18.856 77.7777C18.5788 77.9928 18.2298 78.1004 17.8092 78.1004ZM18.5477 74.9742C18.3613 74.7638 18.1031 74.6587 17.7733 74.6587C17.4435 74.6587 17.1806 74.7686 16.9846 74.9885C16.7934 75.2084 16.6739 75.4952 16.6261 75.8489H18.856C18.8369 75.4761 18.7341 75.1845 18.5477 74.9742ZM22.9588 78.0359C22.5908 78.0359 22.378 77.8518 22.3207 77.4837H22.3135C22.0076 77.8757 21.5965 78.0717 21.0802 78.0717C20.7122 78.0717 20.411 77.9833 20.1768 77.8064C19.9426 77.6295 19.8255 77.3738 19.8255 77.0392C19.8255 76.8671 19.8517 76.7189 19.9043 76.5946C19.9617 76.4656 20.0334 76.3628 20.1194 76.2863C20.2055 76.2051 20.3226 76.1357 20.4708 76.0784C20.6237 76.0162 20.7695 75.9708 20.9082 75.9421C21.0468 75.9087 21.2236 75.8752 21.4387 75.8418C21.5774 75.8226 21.6754 75.8083 21.7327 75.7987C21.7949 75.7844 21.8737 75.7653 21.9693 75.7414C22.0649 75.7127 22.1319 75.6816 22.1701 75.6482C22.2084 75.6147 22.2442 75.5693 22.2777 75.5119C22.3111 75.4546 22.3279 75.3877 22.3279 75.3112C22.3279 75.1008 22.2538 74.9407 22.1056 74.8308C21.9622 74.716 21.759 74.6587 21.4961 74.6587C20.8986 74.6587 20.5903 74.9311 20.5712 75.4761H20.0119C20.0214 75.0985 20.1505 74.7949 20.3991 74.5655C20.6524 74.336 21.0157 74.2213 21.4889 74.2213C22.4019 74.2213 22.8585 74.6133 22.8585 75.3972V77.1611C22.8585 77.3236 22.8847 77.4383 22.9373 77.5053C22.9947 77.5722 23.0998 77.5889 23.2528 77.5554H23.2743V77.9785C23.1787 78.0167 23.0736 78.0359 22.9588 78.0359ZM21.2093 77.6271C21.5678 77.6271 21.8451 77.5244 22.041 77.3188C22.237 77.1085 22.335 76.8791 22.335 76.6305V75.9995C22.1582 76.1095 21.8761 76.2003 21.4889 76.272C21.3455 76.3007 21.2332 76.3246 21.1519 76.3437C21.0707 76.358 20.9775 76.3867 20.8723 76.4297C20.7671 76.468 20.6883 76.511 20.6357 76.5588C20.5831 76.6066 20.5377 76.6711 20.4995 76.7524C20.4612 76.8289 20.4421 76.9197 20.4421 77.0249C20.4421 77.4264 20.6978 77.6271 21.2093 77.6271ZM25.1369 78.1076C24.6302 78.1076 24.2287 77.9331 23.9323 77.5841C23.6407 77.2304 23.4949 76.7548 23.4949 76.1573C23.4949 75.555 23.6479 75.0793 23.9538 74.7304C24.2597 74.3814 24.6493 74.207 25.1226 74.207C25.6245 74.207 26.0117 74.4101 26.2841 74.8164H26.2985V72.8733H26.8793V78H26.2985V77.5483H26.2841C25.9925 77.9211 25.6101 78.1076 25.1369 78.1076ZM25.1584 77.62C25.5552 77.62 25.8491 77.4885 26.0403 77.2256C26.2363 76.9627 26.3343 76.609 26.3343 76.1644C26.3343 75.7247 26.2292 75.3709 26.0188 75.1032C25.8133 74.8355 25.5241 74.7017 25.1512 74.7017C24.8118 74.7017 24.5489 74.8379 24.3625 75.1104C24.1809 75.3781 24.09 75.7294 24.09 76.1644C24.09 76.5994 24.1809 76.9508 24.3625 77.2184C24.5489 77.4861 24.8142 77.62 25.1584 77.62ZM29.0714 78.1076C28.5647 78.1076 28.1704 77.9952 27.8884 77.7706C27.6111 77.5411 27.4581 77.2161 27.4295 76.7954H28.0246C28.0915 77.3451 28.4452 77.62 29.0858 77.62C29.3774 77.62 29.5925 77.565 29.7311 77.4551C29.8745 77.3403 29.9462 77.1922 29.9462 77.0105C29.9462 76.8145 29.8769 76.6735 29.7383 76.5875C29.5997 76.5014 29.3463 76.4202 28.9782 76.3437C28.8253 76.3102 28.7034 76.2839 28.6126 76.2648C28.5265 76.2409 28.4213 76.2098 28.2971 76.1716C28.1728 76.1286 28.0748 76.0832 28.0031 76.0354C27.9362 75.9828 27.8668 75.9206 27.7951 75.8489C27.7234 75.7772 27.6709 75.6888 27.6374 75.5836C27.6087 75.4785 27.5944 75.3614 27.5944 75.2323C27.5944 74.9168 27.7091 74.6682 27.9386 74.4866C28.1728 74.3049 28.5026 74.2141 28.928 74.2141C29.8076 74.2141 30.2928 74.6013 30.3836 75.3757H29.7885C29.7598 75.1319 29.6761 74.955 29.5375 74.8451C29.3989 74.7304 29.1909 74.673 28.9137 74.673C28.6604 74.673 28.4715 74.7232 28.3473 74.8236C28.2277 74.9192 28.168 75.0459 28.168 75.2036C28.168 75.3853 28.2397 75.5143 28.3831 75.5908C28.5265 75.6625 28.787 75.7366 29.1647 75.8131C29.3941 75.8609 29.5734 75.9063 29.7024 75.9493C29.8363 75.9876 29.9749 76.0497 30.1183 76.1357C30.2617 76.217 30.3669 76.3269 30.4338 76.4656C30.5007 76.6042 30.5342 76.7763 30.5342 76.9818C30.5342 77.3451 30.4003 77.6248 30.1326 77.8207C29.8649 78.012 29.5112 78.1076 29.0714 78.1076Z" fill="#E4F6FD"/>
<path d="M225.15 79.15C224.223 79.15 223.52 78.8233 223.04 78.17C222.567 77.51 222.323 76.68 222.31 75.68C222.297 74.4067 222.577 73.4467 223.15 72.8C223.617 72.2733 224.273 72.01 225.12 72.01C225.787 72.01 226.323 72.1733 226.73 72.5C227.143 72.8267 227.393 73.2533 227.48 73.78H226.17C226.057 73.2933 225.723 73.05 225.17 73.05C224.683 73.05 224.313 73.2233 224.06 73.57C223.813 73.91 223.69 74.39 223.69 75.01H223.71C224.117 74.5367 224.653 74.3 225.32 74.3C225.973 74.3 226.533 74.53 227 74.99C227.467 75.45 227.7 76.0367 227.7 76.75C227.7 77.45 227.453 78.0267 226.96 78.48C226.473 78.9267 225.87 79.15 225.15 79.15ZM225.1 78.08C225.467 78.08 225.773 77.9567 226.02 77.71C226.273 77.4567 226.4 77.1433 226.4 76.77C226.4 76.3767 226.277 76.05 226.03 75.79C225.783 75.53 225.477 75.4 225.11 75.4C224.697 75.4 224.37 75.5267 224.13 75.78C223.897 76.0267 223.78 76.3533 223.78 76.76C223.78 77.1467 223.903 77.4633 224.15 77.71C224.397 77.9567 224.713 78.08 225.1 78.08ZM230.828 79.15C230.061 79.15 229.424 78.96 228.918 78.58C228.418 78.2 228.134 77.68 228.068 77.02H229.407C229.468 77.3467 229.621 77.5933 229.868 77.76C230.121 77.9267 230.431 78.01 230.798 78.01C231.178 78.01 231.484 77.89 231.718 77.65C231.951 77.4033 232.068 77.0933 232.068 76.72C232.068 76.3267 231.948 76.02 231.708 75.8C231.474 75.5733 231.171 75.46 230.798 75.46C230.298 75.46 229.924 75.6033 229.678 75.89H228.368L229.028 72.15H233.068V73.28H229.978L229.718 74.76H229.738C230.071 74.4733 230.544 74.33 231.158 74.33C231.791 74.33 232.334 74.55 232.788 74.99C233.248 75.43 233.478 76.0067 233.478 76.72C233.478 77.4267 233.224 78.01 232.718 78.47C232.218 78.9233 231.588 79.15 230.828 79.15ZM236.879 79.16C236.005 79.16 235.309 78.8367 234.789 78.19C234.275 77.5433 234.019 76.6733 234.019 75.58C234.019 74.4867 234.279 73.6167 234.799 72.97C235.319 72.3233 236.015 72 236.889 72C237.769 72 238.462 72.3233 238.969 72.97C239.482 73.61 239.739 74.48 239.739 75.58C239.739 76.6733 239.482 77.5433 238.969 78.19C238.462 78.8367 237.765 79.16 236.879 79.16ZM236.889 78C237.842 78 238.319 77.1933 238.319 75.58C238.319 74.82 238.202 74.2267 237.969 73.8C237.735 73.3733 237.375 73.16 236.889 73.16C236.395 73.16 236.029 73.3733 235.789 73.8C235.555 74.2267 235.439 74.82 235.439 75.58C235.439 76.34 235.555 76.9333 235.789 77.36C236.029 77.7867 236.395 78 236.889 78Z" fill="#232E48"/>
<rect y="98" width="216" height="29" rx="10" fill="black" fill-opacity="0.01"/>
<rect x="3" y="101" width="107" height="23" rx="6" fill="#1C9DEB"/>
<path d="M16.8614 115.43L16.0655 114.799C15.6974 115.005 15.2744 115.108 14.7964 115.108C14.0363 115.108 13.4269 114.857 12.968 114.355C12.5139 113.853 12.2868 113.212 12.2868 112.433C12.2868 111.654 12.5139 111.013 12.968 110.511C13.4269 110.01 14.0363 109.759 14.7964 109.759C15.5564 109.759 16.1635 110.01 16.6176 110.511C17.0765 111.013 17.306 111.654 17.306 112.433C17.306 113.289 17.0407 113.967 16.5101 114.469L17.1912 115.014L16.8614 115.43ZM14.7964 114.541C15.0784 114.541 15.3342 114.493 15.5636 114.398L15.0473 113.982L15.3772 113.566L16.0297 114.089C16.4408 113.702 16.6463 113.15 16.6463 112.433C16.6463 111.812 16.4838 111.305 16.1587 110.913C15.8337 110.516 15.3796 110.318 14.7964 110.318C14.2132 110.318 13.7591 110.516 13.434 110.913C13.109 111.305 12.9465 111.812 12.9465 112.433C12.9465 113.054 13.109 113.561 13.434 113.953C13.7591 114.345 14.2132 114.541 14.7964 114.541ZM20.9289 115H20.3481V114.491H20.3338C20.0422 114.888 19.6693 115.086 19.2152 115.086C18.8328 115.086 18.5292 114.978 18.3046 114.763C18.0799 114.543 17.9676 114.242 17.9676 113.86V111.293H18.5484V113.846C18.5484 114.085 18.6201 114.271 18.7635 114.405C18.9117 114.539 19.1172 114.606 19.3801 114.606C19.6717 114.606 19.9059 114.508 20.0828 114.312C20.2597 114.116 20.3481 113.869 20.3481 113.573V111.293H20.9289V115ZM24.6254 115.036C24.2573 115.036 24.0446 114.852 23.9872 114.484H23.98C23.6741 114.876 23.263 115.072 22.7468 115.072C22.3787 115.072 22.0775 114.983 21.8433 114.806C21.6091 114.63 21.492 114.374 21.492 114.039C21.492 113.867 21.5183 113.719 21.5708 113.595C21.6282 113.466 21.6999 113.363 21.7859 113.286C21.872 113.205 21.9891 113.136 22.1373 113.078C22.2902 113.016 22.436 112.971 22.5747 112.942C22.7133 112.909 22.8902 112.875 23.1053 112.842C23.2439 112.823 23.3419 112.808 23.3992 112.799C23.4614 112.784 23.5403 112.765 23.6359 112.741C23.7315 112.713 23.7984 112.682 23.8366 112.648C23.8749 112.615 23.9107 112.569 23.9442 112.512C23.9776 112.455 23.9944 112.388 23.9944 112.311C23.9944 112.101 23.9203 111.941 23.7721 111.831C23.6287 111.716 23.4255 111.659 23.1626 111.659C22.5651 111.659 22.2568 111.931 22.2377 112.476H21.6784C21.688 112.098 21.817 111.795 22.0656 111.565C22.3189 111.336 22.6822 111.221 23.1555 111.221C24.0685 111.221 24.525 111.613 24.525 112.397V114.161C24.525 114.324 24.5513 114.438 24.6038 114.505C24.6612 114.572 24.7664 114.589 24.9193 114.555H24.9408V114.978C24.8452 115.017 24.7401 115.036 24.6254 115.036ZM22.8758 114.627C23.2343 114.627 23.5116 114.524 23.7076 114.319C23.9035 114.109 24.0015 113.879 24.0015 113.63V113C23.8247 113.109 23.5426 113.2 23.1555 113.272C23.0121 113.301 22.8997 113.325 22.8185 113.344C22.7372 113.358 22.644 113.387 22.5388 113.43C22.4337 113.468 22.3548 113.511 22.3022 113.559C22.2496 113.607 22.2042 113.671 22.166 113.752C22.1277 113.829 22.1086 113.92 22.1086 114.025C22.1086 114.426 22.3643 114.627 22.8758 114.627ZM25.3909 115V109.873H25.9717V115H25.3909ZM26.7838 115V111.293H27.3646V115H26.7838ZM26.7838 110.59V109.873H27.3646V110.59H26.7838ZM27.9196 111.766V111.293H28.4287V110.698C28.4287 110.392 28.5124 110.172 28.6797 110.038C28.847 109.9 29.0908 109.83 29.411 109.83C29.5018 109.83 29.5998 109.835 29.705 109.845V110.339C29.6381 110.335 29.5759 110.332 29.5186 110.332C29.3321 110.332 29.2007 110.361 29.1242 110.418C29.0477 110.476 29.0095 110.578 29.0095 110.727V111.293H29.6978V111.766H29.0095V115H28.4287V111.766H27.9196ZM30.1926 115V111.293H30.7734V115H30.1926ZM30.1926 110.59V109.873H30.7734V110.59H30.1926ZM33.1439 115.1C32.6037 115.1 32.1688 114.914 31.8389 114.541C31.5139 114.168 31.3513 113.705 31.3513 113.15C31.3513 112.596 31.5139 112.132 31.8389 111.759C32.1688 111.386 32.6037 111.2 33.1439 111.2C33.5789 111.2 33.935 111.317 34.2123 111.551C34.4895 111.781 34.6616 112.094 34.7285 112.49H34.1406C34.0975 112.237 33.99 112.039 33.8179 111.895C33.6458 111.752 33.4212 111.68 33.1439 111.68C32.7615 111.68 32.4651 111.819 32.2548 112.096C32.0492 112.373 31.9465 112.725 31.9465 113.15C31.9465 113.576 32.0492 113.927 32.2548 114.204C32.4651 114.477 32.7615 114.613 33.1439 114.613C33.4403 114.613 33.6769 114.534 33.8538 114.376C34.0306 114.214 34.131 113.987 34.1549 113.695H34.7285C34.6903 114.14 34.5325 114.486 34.2553 114.735C33.978 114.978 33.6076 115.1 33.1439 115.1ZM38.2586 115.036C37.8905 115.036 37.6778 114.852 37.6204 114.484H37.6132C37.3073 114.876 36.8962 115.072 36.38 115.072C36.0119 115.072 35.7107 114.983 35.4765 114.806C35.2423 114.63 35.1252 114.374 35.1252 114.039C35.1252 113.867 35.1515 113.719 35.2041 113.595C35.2614 113.466 35.3331 113.363 35.4192 113.286C35.5052 113.205 35.6223 113.136 35.7705 113.078C35.9235 113.016 36.0693 112.971 36.2079 112.942C36.3465 112.909 36.5234 112.875 36.7385 112.842C36.8771 112.823 36.9751 112.808 37.0325 112.799C37.0946 112.784 37.1735 112.765 37.2691 112.741C37.3647 112.713 37.4316 112.682 37.4698 112.648C37.5081 112.615 37.5439 112.569 37.5774 112.512C37.6109 112.455 37.6276 112.388 37.6276 112.311C37.6276 112.101 37.5535 111.941 37.4053 111.831C37.2619 111.716 37.0587 111.659 36.7958 111.659C36.1983 111.659 35.89 111.931 35.8709 112.476H35.3116C35.3212 112.098 35.4502 111.795 35.6988 111.565C35.9521 111.336 36.3154 111.221 36.7887 111.221C37.7017 111.221 38.1582 111.613 38.1582 112.397V114.161C38.1582 114.324 38.1845 114.438 38.2371 114.505C38.2944 114.572 38.3996 114.589 38.5525 114.555H38.5741V114.978C38.4785 115.017 38.3733 115.036 38.2586 115.036ZM36.509 114.627C36.8675 114.627 37.1448 114.524 37.3408 114.319C37.5368 114.109 37.6348 113.879 37.6348 113.63V113C37.4579 113.109 37.1759 113.2 36.7887 113.272C36.6453 113.301 36.5329 113.325 36.4517 113.344C36.3704 113.358 36.2772 113.387 36.172 113.43C36.0669 113.468 35.988 113.511 35.9354 113.559C35.8828 113.607 35.8374 113.671 35.7992 113.752C35.7609 113.829 35.7418 113.92 35.7418 114.025C35.7418 114.426 35.9976 114.627 36.509 114.627ZM40.4366 115.108C39.9299 115.108 39.5284 114.933 39.232 114.584C38.9404 114.23 38.7946 113.755 38.7946 113.157C38.7946 112.555 38.9476 112.079 39.2535 111.73C39.5595 111.381 39.9491 111.207 40.4223 111.207C40.9242 111.207 41.3114 111.41 41.5839 111.816H41.5982V109.873H42.179V115H41.5982V114.548H41.5839C41.2923 114.921 40.9099 115.108 40.4366 115.108ZM40.4581 114.62C40.8549 114.62 41.1489 114.489 41.3401 114.226C41.5361 113.963 41.6341 113.609 41.6341 113.164C41.6341 112.725 41.5289 112.371 41.3186 112.103C41.113 111.836 40.8238 111.702 40.451 111.702C40.1116 111.702 39.8487 111.838 39.6622 112.11C39.4806 112.378 39.3898 112.729 39.3898 113.164C39.3898 113.599 39.4806 113.951 39.6622 114.218C39.8487 114.486 40.114 114.62 40.4581 114.62ZM45.8482 114.541C45.5232 114.914 45.0906 115.1 44.5504 115.1C44.0103 115.1 43.5753 114.914 43.2454 114.541C42.9204 114.168 42.7579 113.705 42.7579 113.15C42.7579 112.596 42.9204 112.132 43.2454 111.759C43.5753 111.386 44.0103 111.2 44.5504 111.2C45.0906 111.2 45.5232 111.386 45.8482 111.759C46.1733 112.132 46.3358 112.596 46.3358 113.15C46.3358 113.705 46.1733 114.168 45.8482 114.541ZM43.6613 114.204C43.8716 114.477 44.168 114.613 44.5504 114.613C44.9328 114.613 45.2268 114.477 45.4324 114.204C45.6379 113.927 45.7407 113.576 45.7407 113.15C45.7407 112.72 45.6355 112.369 45.4252 112.096C45.2196 111.819 44.9281 111.68 44.5504 111.68C44.168 111.68 43.8716 111.819 43.6613 112.096C43.4558 112.373 43.353 112.725 43.353 113.15C43.353 113.576 43.4558 113.927 43.6613 114.204ZM48.3204 115.108C47.8137 115.108 47.4193 114.995 47.1373 114.771C46.8601 114.541 46.7071 114.216 46.6784 113.795H47.2735C47.3405 114.345 47.6942 114.62 48.3347 114.62C48.6263 114.62 48.8414 114.565 48.9801 114.455C49.1235 114.34 49.1952 114.192 49.1952 114.011C49.1952 113.815 49.1258 113.674 48.9872 113.587C48.8486 113.501 48.5953 113.42 48.2272 113.344C48.0742 113.31 47.9523 113.284 47.8615 113.265C47.7755 113.241 47.6703 113.21 47.546 113.172C47.4217 113.129 47.3237 113.083 47.252 113.035C47.1851 112.983 47.1158 112.921 47.0441 112.849C46.9724 112.777 46.9198 112.689 46.8863 112.584C46.8577 112.478 46.8433 112.361 46.8433 112.232C46.8433 111.917 46.9581 111.668 47.1875 111.487C47.4217 111.305 47.7516 111.214 48.177 111.214C49.0565 111.214 49.5417 111.601 49.6325 112.376H49.0374C49.0087 112.132 48.9251 111.955 48.7865 111.845C48.6478 111.73 48.4399 111.673 48.1626 111.673C47.9093 111.673 47.7205 111.723 47.5962 111.824C47.4767 111.919 47.4169 112.046 47.4169 112.204C47.4169 112.385 47.4886 112.514 47.6321 112.591C47.7755 112.663 48.036 112.737 48.4136 112.813C48.6431 112.861 48.8223 112.906 48.9514 112.949C49.0852 112.988 49.2238 113.05 49.3672 113.136C49.5106 113.217 49.6158 113.327 49.6827 113.466C49.7497 113.604 49.7831 113.776 49.7831 113.982C49.7831 114.345 49.6493 114.625 49.3816 114.821C49.1139 115.012 48.7602 115.108 48.3204 115.108Z" fill="#E4F6FD"/>
<path d="M224.85 116.15C223.983 116.15 223.32 115.93 222.86 115.49C222.4 115.043 222.163 114.437 222.15 113.67H223.45C223.503 114.597 223.953 115.06 224.8 115.06C225.18 115.06 225.477 114.963 225.69 114.77C225.903 114.57 226.01 114.297 226.01 113.95C226.01 113.617 225.903 113.357 225.69 113.17C225.477 112.983 225.163 112.89 224.75 112.89H224.33V111.86H224.72C225.053 111.86 225.32 111.78 225.52 111.62C225.727 111.46 225.83 111.237 225.83 110.95C225.83 110.677 225.743 110.46 225.57 110.3C225.397 110.133 225.16 110.05 224.86 110.05C224.487 110.05 224.197 110.16 223.99 110.38C223.79 110.6 223.683 110.897 223.67 111.27H222.37C222.397 110.577 222.623 110.027 223.05 109.62C223.477 109.213 224.08 109.01 224.86 109.01C225.58 109.01 226.15 109.177 226.57 109.51C226.997 109.843 227.21 110.293 227.21 110.86C227.21 111.567 226.82 112.047 226.04 112.3V112.32C226.967 112.547 227.43 113.12 227.43 114.04C227.43 114.72 227.187 115.243 226.7 115.61C226.213 115.97 225.597 116.15 224.85 116.15ZM229.494 116V111.22H227.944V110.32C228.97 110.28 229.547 109.873 229.674 109.1H230.864V116H229.494ZM234.48 116.15C233.713 116.15 233.077 115.96 232.57 115.58C232.07 115.2 231.787 114.68 231.72 114.02H233.06C233.12 114.347 233.273 114.593 233.52 114.76C233.773 114.927 234.083 115.01 234.45 115.01C234.83 115.01 235.137 114.89 235.37 114.65C235.603 114.403 235.72 114.093 235.72 113.72C235.72 113.327 235.6 113.02 235.36 112.8C235.127 112.573 234.823 112.46 234.45 112.46C233.95 112.46 233.577 112.603 233.33 112.89H232.02L232.68 109.15H236.72V110.28H233.63L233.37 111.76H233.39C233.723 111.473 234.197 111.33 234.81 111.33C235.443 111.33 235.987 111.55 236.44 111.99C236.9 112.43 237.13 113.007 237.13 113.72C237.13 114.427 236.877 115.01 236.37 115.47C235.87 115.923 235.24 116.15 234.48 116.15Z" fill="#232E48"/>
<rect y="135" width="216" height="29" rx="10" fill="black" fill-opacity="0.01"/>
<rect x="3" y="138" width="75" height="23" rx="6" fill="#1AB6FD"/>
<path d="M12.0717 152L13.9575 146.873H14.6817L16.5746 152H15.8719L15.327 150.437H13.2835L12.7314 152H12.0717ZM14.0794 148.193L13.4699 149.913H15.1477L14.5598 148.193L14.3303 147.468H14.316C14.2252 147.755 14.1463 147.997 14.0794 148.193ZM18.4158 153.233C17.9426 153.233 17.5697 153.142 17.2973 152.961C17.0296 152.784 16.879 152.533 16.8456 152.208H17.3833C17.4359 152.586 17.7753 152.774 18.4015 152.774C19.109 152.774 19.4627 152.457 19.4627 151.821V151.297H19.4483C19.3002 151.489 19.1424 151.632 18.9751 151.728C18.8078 151.823 18.5999 151.871 18.3513 151.871C17.8733 151.871 17.4837 151.699 17.1826 151.355C16.8814 151.011 16.7308 150.571 16.7308 150.035C16.7308 149.476 16.8814 149.032 17.1826 148.702C17.4885 148.372 17.8661 148.207 18.3154 148.207C18.803 148.207 19.1807 148.393 19.4483 148.766H19.4627V148.293H20.0435V151.799C20.0435 152.272 19.8977 152.629 19.6061 152.868C19.3193 153.111 18.9225 153.233 18.4158 153.233ZM18.38 151.383C19.1305 151.383 19.5057 150.924 19.5057 150.007C19.5057 149.132 19.1281 148.695 18.3728 148.695C18.0334 148.695 17.7729 148.816 17.5913 149.06C17.4144 149.304 17.326 149.631 17.326 150.043C17.326 150.454 17.4168 150.781 17.5984 151.025C17.7801 151.264 18.0406 151.383 18.38 151.383ZM22.4166 152.1C21.8669 152.1 21.4295 151.916 21.1044 151.548C20.7842 151.175 20.624 150.709 20.624 150.15C20.624 149.6 20.7866 149.139 21.1116 148.766C21.4414 148.389 21.8645 148.2 22.3807 148.2C22.9257 148.2 23.3463 148.391 23.6427 148.773C23.9391 149.151 24.0872 149.655 24.0872 150.286H21.2192C21.2431 150.678 21.3578 150.999 21.5633 151.247C21.7737 151.491 22.0581 151.613 22.4166 151.613C22.9711 151.613 23.3129 151.359 23.4419 150.853H24.0084C23.9223 151.25 23.7407 151.558 23.4634 151.778C23.1862 151.993 22.8372 152.1 22.4166 152.1ZM23.1551 148.974C22.9687 148.764 22.7106 148.659 22.3807 148.659C22.0509 148.659 21.788 148.769 21.592 148.989C21.4008 149.208 21.2813 149.495 21.2335 149.849H23.4634C23.4443 149.476 23.3415 149.184 23.1551 148.974ZM25.2359 148.293V148.781H25.2503C25.5371 148.398 25.9291 148.207 26.4262 148.207C26.8182 148.207 27.1241 148.31 27.344 148.515C27.5639 148.721 27.6738 149.015 27.6738 149.397V152H27.093V149.447C27.093 149.208 27.0189 149.024 26.8707 148.895C26.7226 148.761 26.517 148.695 26.2541 148.695C25.9577 148.695 25.714 148.79 25.5227 148.981C25.3315 149.173 25.2359 149.419 25.2359 149.72V152H24.6552V148.293H25.2359ZM29.8774 152.108C29.3707 152.108 28.9691 151.933 28.6728 151.584C28.3812 151.23 28.2354 150.755 28.2354 150.157C28.2354 149.555 28.3883 149.079 28.6943 148.73C29.0002 148.381 29.3898 148.207 29.863 148.207C30.3649 148.207 30.7521 148.41 31.0246 148.816H31.0389V146.873H31.6197V152H31.0389V151.548H31.0246C30.733 151.921 30.3506 152.108 29.8774 152.108ZM29.8989 151.62C30.2956 151.62 30.5896 151.489 30.7808 151.226C30.9768 150.963 31.0748 150.609 31.0748 150.164C31.0748 149.725 30.9696 149.371 30.7593 149.103C30.5538 148.836 30.2646 148.702 29.8917 148.702C29.5523 148.702 29.2894 148.838 29.103 149.11C28.9213 149.378 28.8305 149.729 28.8305 150.164C28.8305 150.599 28.9213 150.951 29.103 151.218C29.2894 151.486 29.5547 151.62 29.8989 151.62ZM35.3177 152.036C34.9496 152.036 34.7369 151.852 34.6795 151.484H34.6723C34.3664 151.876 33.9553 152.072 33.4391 152.072C33.071 152.072 32.7698 151.983 32.5356 151.806C32.3014 151.63 32.1843 151.374 32.1843 151.039C32.1843 150.867 32.2106 150.719 32.2631 150.595C32.3205 150.466 32.3922 150.363 32.4782 150.286C32.5643 150.205 32.6814 150.136 32.8296 150.078C32.9826 150.016 33.1283 149.971 33.267 149.942C33.4056 149.909 33.5825 149.875 33.7976 149.842C33.9362 149.823 34.0342 149.808 34.0915 149.799C34.1537 149.784 34.2326 149.765 34.3282 149.741C34.4238 149.713 34.4907 149.682 34.5289 149.648C34.5672 149.615 34.603 149.569 34.6365 149.512C34.6699 149.455 34.6867 149.388 34.6867 149.311C34.6867 149.101 34.6126 148.941 34.4644 148.831C34.321 148.716 34.1178 148.659 33.8549 148.659C33.2574 148.659 32.9491 148.931 32.93 149.476H32.3707C32.3803 149.098 32.5093 148.795 32.7579 148.565C33.0112 148.336 33.3745 148.221 33.8478 148.221C34.7608 148.221 35.2173 148.613 35.2173 149.397V151.161C35.2173 151.324 35.2436 151.438 35.2961 151.505C35.3535 151.572 35.4587 151.589 35.6116 151.555H35.6331V151.978C35.5375 152.017 35.4324 152.036 35.3177 152.036ZM33.5681 151.627C33.9266 151.627 34.2039 151.524 34.3999 151.319C34.5959 151.109 34.6938 150.879 34.6938 150.63V150C34.517 150.109 34.235 150.2 33.8478 150.272C33.7044 150.301 33.592 150.325 33.5108 150.344C33.4295 150.358 33.3363 150.387 33.2311 150.43C33.126 150.468 33.0471 150.511 32.9945 150.559C32.9419 150.607 32.8965 150.671 32.8583 150.752C32.82 150.829 32.8009 150.92 32.8009 151.025C32.8009 151.426 33.0566 151.627 33.5681 151.627ZM37.4957 152.108C36.989 152.108 36.5875 151.933 36.2911 151.584C35.9995 151.23 35.8537 150.755 35.8537 150.157C35.8537 149.555 36.0067 149.079 36.3126 148.73C36.6186 148.381 37.0081 148.207 37.4814 148.207C37.9833 148.207 38.3705 148.41 38.643 148.816H38.6573V146.873H39.2381V152H38.6573V151.548H38.643C38.3514 151.921 37.969 152.108 37.4957 152.108ZM37.5172 151.62C37.914 151.62 38.208 151.489 38.3992 151.226C38.5952 150.963 38.6931 150.609 38.6931 150.164C38.6931 149.725 38.588 149.371 38.3777 149.103C38.1721 148.836 37.8829 148.702 37.5101 148.702C37.1707 148.702 36.9078 148.838 36.7213 149.11C36.5397 149.378 36.4489 149.729 36.4489 150.164C36.4489 150.599 36.5397 150.951 36.7213 151.218C36.9078 151.486 37.1731 151.62 37.5172 151.62ZM42.9073 151.541C42.5823 151.914 42.1497 152.1 41.6095 152.1C41.0694 152.1 40.6344 151.914 40.3045 151.541C39.9795 151.168 39.817 150.705 39.817 150.15C39.817 149.596 39.9795 149.132 40.3045 148.759C40.6344 148.386 41.0694 148.2 41.6095 148.2C42.1497 148.2 42.5823 148.386 42.9073 148.759C43.2324 149.132 43.3949 149.596 43.3949 150.15C43.3949 150.705 43.2324 151.168 42.9073 151.541ZM40.7204 151.204C40.9307 151.477 41.2271 151.613 41.6095 151.613C41.9919 151.613 42.2859 151.477 42.4915 151.204C42.697 150.927 42.7998 150.576 42.7998 150.15C42.7998 149.72 42.6946 149.369 42.4843 149.096C42.2787 148.819 41.9872 148.68 41.6095 148.68C41.2271 148.68 40.9307 148.819 40.7204 149.096C40.5149 149.373 40.4121 149.725 40.4121 150.15C40.4121 150.576 40.5149 150.927 40.7204 151.204ZM45.3795 152.108C44.8728 152.108 44.4784 151.995 44.1964 151.771C43.9191 151.541 43.7662 151.216 43.7375 150.795H44.3326C44.3996 151.345 44.7533 151.62 45.3938 151.62C45.6854 151.62 45.9005 151.565 46.0391 151.455C46.1825 151.34 46.2543 151.192 46.2543 151.011C46.2543 150.815 46.1849 150.674 46.0463 150.587C45.9077 150.501 45.6543 150.42 45.2863 150.344C45.1333 150.31 45.0114 150.284 44.9206 150.265C44.8345 150.241 44.7294 150.21 44.6051 150.172C44.4808 150.129 44.3828 150.083 44.3111 150.035C44.2442 149.983 44.1749 149.921 44.1032 149.849C44.0315 149.777 43.9789 149.689 43.9454 149.584C43.9168 149.478 43.9024 149.361 43.9024 149.232C43.9024 148.917 44.0171 148.668 44.2466 148.487C44.4808 148.305 44.8106 148.214 45.2361 148.214C46.1156 148.214 46.6008 148.601 46.6916 149.376H46.0965C46.0678 149.132 45.9842 148.955 45.8455 148.845C45.7069 148.73 45.499 148.673 45.2217 148.673C44.9684 148.673 44.7796 148.723 44.6553 148.824C44.5358 148.919 44.476 149.046 44.476 149.204C44.476 149.385 44.5477 149.514 44.6911 149.591C44.8345 149.663 45.0951 149.737 45.4727 149.813C45.7021 149.861 45.8814 149.906 46.0105 149.949C46.1443 149.988 46.2829 150.05 46.4263 150.136C46.5697 150.217 46.6749 150.327 46.7418 150.466C46.8087 150.604 46.8422 150.776 46.8422 150.982C46.8422 151.345 46.7084 151.625 46.4407 151.821C46.173 152.012 45.8193 152.108 45.3795 152.108Z" fill="#E4F6FD"/>
<path d="M223.82 153V148.22H222.27V147.32C223.297 147.28 223.873 146.873 224 146.1H225.19V153H223.82ZM228.806 153.15C228.039 153.15 227.403 152.96 226.896 152.58C226.396 152.2 226.113 151.68 226.046 151.02H227.386C227.446 151.347 227.599 151.593 227.846 151.76C228.099 151.927 228.409 152.01 228.776 152.01C229.156 152.01 229.463 151.89 229.696 151.65C229.929 151.403 230.046 151.093 230.046 150.72C230.046 150.327 229.926 150.02 229.686 149.8C229.453 149.573 229.149 149.46 228.776 149.46C228.276 149.46 227.903 149.603 227.656 149.89H226.346L227.006 146.15H231.046V147.28H227.956L227.696 148.76H227.716C228.049 148.473 228.523 148.33 229.136 148.33C229.769 148.33 230.313 148.55 230.766 148.99C231.226 149.43 231.456 150.007 231.456 150.72C231.456 151.427 231.203 152.01 230.696 152.47C230.196 152.923 229.566 153.15 228.806 153.15ZM234.857 153.16C233.984 153.16 233.287 152.837 232.767 152.19C232.254 151.543 231.997 150.673 231.997 149.58C231.997 148.487 232.257 147.617 232.777 146.97C233.297 146.323 233.994 146 234.867 146C235.747 146 236.441 146.323 236.947 146.97C237.461 147.61 237.717 148.48 237.717 149.58C237.717 150.673 237.461 151.543 236.947 152.19C236.441 152.837 235.744 153.16 234.857 153.16ZM234.867 152C235.821 152 236.297 151.193 236.297 149.58C236.297 148.82 236.181 148.227 235.947 147.8C235.714 147.373 235.354 147.16 234.867 147.16C234.374 147.16 234.007 147.373 233.767 147.8C233.534 148.227 233.417 148.82 233.417 149.58C233.417 150.34 233.534 150.933 233.767 151.36C234.007 151.787 234.374 152 234.867 152Z" fill="#232E48"/>
<rect y="172" width="216" height="29" rx="10" fill="black" fill-opacity="0.01"/>
<rect x="3" y="175" width="53" height="23" rx="6" fill="#66CDFC"/>
<path d="M14.6888 189.1C13.967 189.1 13.3862 188.852 12.9465 188.355C12.5067 187.858 12.2868 187.217 12.2868 186.433C12.2868 185.659 12.5043 185.021 12.9393 184.519C13.3791 184.012 13.9718 183.759 14.7175 183.759C15.3007 183.759 15.7715 183.909 16.13 184.21C16.4886 184.511 16.7037 184.906 16.7754 185.393H16.1444C16.0822 185.068 15.9245 184.808 15.6712 184.612C15.4226 184.416 15.0999 184.318 14.7032 184.318C14.1535 184.318 13.7232 184.516 13.4125 184.913C13.1018 185.305 12.9465 185.812 12.9465 186.433C12.9465 187.064 13.1066 187.573 13.4269 187.96C13.7519 188.343 14.1797 188.534 14.7103 188.534C15.1692 188.534 15.523 188.4 15.7715 188.132C16.0249 187.865 16.1683 187.528 16.2017 187.121H16.8399C16.8351 187.375 16.7754 187.635 16.6606 187.903C16.5507 188.166 16.4049 188.386 16.2233 188.563C15.8552 188.921 15.3437 189.1 14.6888 189.1ZM20.3604 188.541C20.0353 188.914 19.6027 189.1 19.0626 189.1C18.5224 189.1 18.0874 188.914 17.7576 188.541C17.4325 188.168 17.27 187.705 17.27 187.15C17.27 186.596 17.4325 186.132 17.7576 185.759C18.0874 185.386 18.5224 185.2 19.0626 185.2C19.6027 185.2 20.0353 185.386 20.3604 185.759C20.6854 186.132 20.8479 186.596 20.8479 187.15C20.8479 187.705 20.6854 188.168 20.3604 188.541ZM18.1734 188.204C18.3838 188.477 18.6801 188.613 19.0626 188.613C19.445 188.613 19.7389 188.477 19.9445 188.204C20.15 187.927 20.2528 187.576 20.2528 187.15C20.2528 186.72 20.1476 186.369 19.9373 186.096C19.7318 185.819 19.4402 185.68 19.0626 185.68C18.6801 185.68 18.3838 185.819 18.1734 186.096C17.9679 186.373 17.8651 186.725 17.8651 187.15C17.8651 187.576 17.9679 187.927 18.1734 188.204ZM22.0079 185.293V185.781H22.0223C22.3091 185.398 22.7011 185.207 23.1982 185.207C23.5902 185.207 23.8961 185.31 24.116 185.515C24.3359 185.721 24.4458 186.015 24.4458 186.397V189H23.865V186.447C23.865 186.208 23.7909 186.024 23.6427 185.895C23.4946 185.761 23.289 185.695 23.0261 185.695C22.7297 185.695 22.486 185.79 22.2947 185.981C22.1035 186.173 22.0079 186.419 22.0079 186.72V189H21.4272V185.293H22.0079ZM26.6207 189.108C26.114 189.108 25.7196 188.995 25.4376 188.771C25.1604 188.541 25.0074 188.216 24.9787 187.795H25.5738C25.6408 188.345 25.9945 188.62 26.635 188.62C26.9266 188.62 27.1417 188.565 27.2803 188.455C27.4238 188.34 27.4955 188.192 27.4955 188.011C27.4955 187.815 27.4261 187.674 27.2875 187.587C27.1489 187.501 26.8955 187.42 26.5275 187.344C26.3745 187.31 26.2526 187.284 26.1618 187.265C26.0758 187.241 25.9706 187.21 25.8463 187.172C25.722 187.129 25.624 187.083 25.5523 187.035C25.4854 186.983 25.4161 186.921 25.3444 186.849C25.2727 186.777 25.2201 186.689 25.1866 186.584C25.158 186.478 25.1436 186.361 25.1436 186.232C25.1436 185.917 25.2583 185.668 25.4878 185.487C25.722 185.305 26.0519 185.214 26.4773 185.214C27.3568 185.214 27.842 185.601 27.9328 186.376H27.3377C27.309 186.132 27.2254 185.955 27.0868 185.845C26.9481 185.73 26.7402 185.673 26.4629 185.673C26.2096 185.673 26.0208 185.723 25.8965 185.824C25.777 185.919 25.7172 186.046 25.7172 186.204C25.7172 186.385 25.7889 186.514 25.9323 186.591C26.0758 186.663 26.3363 186.737 26.7139 186.813C26.9433 186.861 27.1226 186.906 27.2517 186.949C27.3855 186.988 27.5241 187.05 27.6675 187.136C27.8109 187.217 27.9161 187.327 27.983 187.466C28.05 187.604 28.0834 187.776 28.0834 187.982C28.0834 188.345 27.9496 188.625 27.6819 188.821C27.4142 189.012 27.0605 189.108 26.6207 189.108ZM31.5792 189H30.9984V188.491H30.984C30.6925 188.888 30.3196 189.086 29.8655 189.086C29.4831 189.086 29.1795 188.978 28.9549 188.763C28.7302 188.543 28.6179 188.242 28.6179 187.86V185.293H29.1987V187.846C29.1987 188.085 29.2704 188.271 29.4138 188.405C29.5619 188.539 29.7675 188.606 30.0304 188.606C30.322 188.606 30.5562 188.508 30.7331 188.312C30.91 188.116 30.9984 187.869 30.9984 187.573V185.293H31.5792V189ZM32.386 189V183.873H32.9668V189H32.386ZM33.5424 185.766V185.293H34.0801V184.124H34.6609V185.293H35.3779V185.766H34.6609V188.175C34.6609 188.405 34.7852 188.52 35.0338 188.52C35.1389 188.52 35.2417 188.503 35.3421 188.469H35.3636V188.971C35.2058 189.005 35.0505 189.022 34.8975 189.022C34.3526 189.022 34.0801 188.783 34.0801 188.304V185.766H33.5424ZM38.8888 189.036C38.5207 189.036 38.308 188.852 38.2506 188.484H38.2434C37.9375 188.876 37.5264 189.072 37.0102 189.072C36.6421 189.072 36.3409 188.983 36.1067 188.806C35.8725 188.63 35.7554 188.374 35.7554 188.039C35.7554 187.867 35.7817 187.719 35.8342 187.595C35.8916 187.466 35.9633 187.363 36.0494 187.286C36.1354 187.205 36.2525 187.136 36.4007 187.078C36.5537 187.016 36.6995 186.971 36.8381 186.942C36.9767 186.909 37.1536 186.875 37.3687 186.842C37.5073 186.823 37.6053 186.808 37.6627 186.799C37.7248 186.784 37.8037 186.765 37.8993 186.741C37.9949 186.713 38.0618 186.682 38.1 186.648C38.1383 186.615 38.1741 186.569 38.2076 186.512C38.241 186.455 38.2578 186.388 38.2578 186.311C38.2578 186.101 38.1837 185.941 38.0355 185.831C37.8921 185.716 37.6889 185.659 37.426 185.659C36.8285 185.659 36.5202 185.931 36.5011 186.476H35.9418C35.9514 186.098 36.0804 185.795 36.329 185.565C36.5823 185.336 36.9456 185.221 37.4189 185.221C38.3319 185.221 38.7884 185.613 38.7884 186.397V188.161C38.7884 188.324 38.8147 188.438 38.8672 188.505C38.9246 188.572 39.0298 188.589 39.1827 188.555H39.2042V188.978C39.1086 189.017 39.0035 189.036 38.8888 189.036ZM37.1392 188.627C37.4977 188.627 37.775 188.524 37.971 188.319C38.167 188.109 38.2649 187.879 38.2649 187.63V187C38.0881 187.109 37.8061 187.2 37.4189 187.272C37.2755 187.301 37.1631 187.325 37.0819 187.344C37.0006 187.358 36.9074 187.387 36.8022 187.43C36.6971 187.468 36.6182 187.511 36.5656 187.559C36.513 187.607 36.4676 187.671 36.4294 187.752C36.3911 187.829 36.372 187.92 36.372 188.025C36.372 188.426 36.6277 188.627 37.1392 188.627ZM41.0668 189.108C40.5601 189.108 40.1586 188.933 39.8622 188.584C39.5706 188.23 39.4248 187.755 39.4248 187.157C39.4248 186.555 39.5778 186.079 39.8837 185.73C40.1897 185.381 40.5792 185.207 41.0525 185.207C41.5544 185.207 41.9416 185.41 42.2141 185.816H42.2284V183.873H42.8092V189H42.2284V188.548H42.2141C41.9225 188.921 41.5401 189.108 41.0668 189.108ZM41.0883 188.62C41.4851 188.62 41.7791 188.489 41.9703 188.226C42.1663 187.963 42.2642 187.609 42.2642 187.164C42.2642 186.725 42.1591 186.371 41.9488 186.103C41.7432 185.836 41.454 185.702 41.0812 185.702C40.7418 185.702 40.4789 185.838 40.2924 186.11C40.1108 186.378 40.02 186.729 40.02 187.164C40.02 187.599 40.1108 187.951 40.2924 188.218C40.4789 188.486 40.7442 188.62 41.0883 188.62ZM46.4784 188.541C46.1534 188.914 45.7208 189.1 45.1806 189.1C44.6405 189.1 44.2055 188.914 43.8756 188.541C43.5506 188.168 43.3881 187.705 43.3881 187.15C43.3881 186.596 43.5506 186.132 43.8756 185.759C44.2055 185.386 44.6405 185.2 45.1806 185.2C45.7208 185.2 46.1534 185.386 46.4784 185.759C46.8035 186.132 46.966 186.596 46.966 187.15C46.966 187.705 46.8035 188.168 46.4784 188.541ZM44.2915 188.204C44.5018 188.477 44.7982 188.613 45.1806 188.613C45.563 188.613 45.857 188.477 46.0626 188.204C46.2681 187.927 46.3709 187.576 46.3709 187.15C46.3709 186.72 46.2657 186.369 46.0554 186.096C45.8498 185.819 45.5583 185.68 45.1806 185.68C44.7982 185.68 44.5018 185.819 44.2915 186.096C44.086 186.373 43.9832 186.725 43.9832 187.15C43.9832 187.576 44.086 187.927 44.2915 188.204ZM48.9506 189.108C48.4439 189.108 48.0495 188.995 47.7675 188.771C47.4903 188.541 47.3373 188.216 47.3086 187.795H47.9037C47.9707 188.345 48.3244 188.62 48.9649 188.62C49.2565 188.62 49.4716 188.565 49.6102 188.455C49.7537 188.34 49.8254 188.192 49.8254 188.011C49.8254 187.815 49.756 187.674 49.6174 187.587C49.4788 187.501 49.2254 187.42 48.8574 187.344C48.7044 187.31 48.5825 187.284 48.4917 187.265C48.4057 187.241 48.3005 187.21 48.1762 187.172C48.0519 187.129 47.9539 187.083 47.8822 187.035C47.8153 186.983 47.746 186.921 47.6743 186.849C47.6026 186.777 47.55 186.689 47.5165 186.584C47.4879 186.478 47.4735 186.361 47.4735 186.232C47.4735 185.917 47.5882 185.668 47.8177 185.487C48.0519 185.305 48.3818 185.214 48.8072 185.214C49.6867 185.214 50.1719 185.601 50.2627 186.376H49.6676C49.6389 186.132 49.5553 185.955 49.4167 185.845C49.278 185.73 49.0701 185.673 48.7928 185.673C48.5395 185.673 48.3507 185.723 48.2264 185.824C48.1069 185.919 48.0471 186.046 48.0471 186.204C48.0471 186.385 48.1188 186.514 48.2622 186.591C48.4057 186.663 48.6662 186.737 49.0438 186.813C49.2732 186.861 49.4525 186.906 49.5816 186.949C49.7154 186.988 49.854 187.05 49.9974 187.136C50.1408 187.217 50.246 187.327 50.3129 187.466C50.3799 187.604 50.4133 187.776 50.4133 187.982C50.4133 188.345 50.2795 188.625 50.0118 188.821C49.7441 189.012 49.3904 189.108 48.9506 189.108Z" fill="#E4F6FD"/>
<path d="M225.02 190.15C224.213 190.15 223.547 189.963 223.02 189.59C222.493 189.21 222.23 188.687 222.23 188.02C222.23 187.6 222.343 187.233 222.57 186.92C222.797 186.6 223.1 186.367 223.48 186.22V186.19C222.84 185.897 222.52 185.443 222.52 184.83C222.52 184.257 222.747 183.81 223.2 183.49C223.653 183.17 224.257 183.01 225.01 183.01C225.757 183.01 226.35 183.17 226.79 183.49C227.23 183.803 227.45 184.243 227.45 184.81C227.45 185.423 227.133 185.88 226.5 186.18V186.21C226.88 186.343 227.18 186.567 227.4 186.88C227.627 187.187 227.74 187.547 227.74 187.96C227.74 188.647 227.487 189.183 226.98 189.57C226.473 189.957 225.82 190.15 225.02 190.15ZM224.99 189.05C225.39 189.05 225.713 188.953 225.96 188.76C226.213 188.56 226.34 188.297 226.34 187.97C226.34 187.617 226.22 187.337 225.98 187.13C225.747 186.917 225.423 186.81 225.01 186.81C224.59 186.81 224.257 186.917 224.01 187.13C223.763 187.337 223.64 187.617 223.64 187.97C223.64 188.303 223.76 188.567 224 188.76C224.247 188.953 224.577 189.05 224.99 189.05ZM224.99 185.86C225.337 185.86 225.61 185.777 225.81 185.61C226.017 185.437 226.12 185.213 226.12 184.94C226.12 184.667 226.02 184.45 225.82 184.29C225.62 184.123 225.343 184.04 224.99 184.04C224.637 184.04 224.357 184.123 224.15 184.29C223.95 184.45 223.85 184.667 223.85 184.94C223.85 185.213 223.95 185.437 224.15 185.61C224.357 185.777 224.637 185.86 224.99 185.86ZM231.078 190.16C230.205 190.16 229.508 189.837 228.988 189.19C228.475 188.543 228.218 187.673 228.218 186.58C228.218 185.487 228.478 184.617 228.998 183.97C229.518 183.323 230.215 183 231.088 183C231.968 183 232.661 183.323 233.168 183.97C233.681 184.61 233.938 185.48 233.938 186.58C233.938 187.673 233.681 188.543 233.168 189.19C232.661 189.837 231.965 190.16 231.078 190.16ZM231.088 189C232.041 189 232.518 188.193 232.518 186.58C232.518 185.82 232.401 185.227 232.168 184.8C231.935 184.373 231.575 184.16 231.088 184.16C230.595 184.16 230.228 184.373 229.988 184.8C229.755 185.227 229.638 185.82 229.638 186.58C229.638 187.34 229.755 187.933 229.988 188.36C230.228 188.787 230.595 189 231.088 189Z" fill="#232E48"/>
<path fill-rule="evenodd" clip-rule="evenodd" d="M2.44456 210.499C1.78848 210.457 1.26609 210.815 0.90082 211.264C0.533499 211.716 0.274769 212.315 0.131625 212.914C-0.0106973 213.512 -0.0464835 214.146 0.0682789 214.678C0.180162 215.194 0.464806 215.725 1.06371 215.893C1.63505 216.053 2.14758 215.825 2.53917 215.516C2.93158 215.206 3.27134 214.764 3.54529 214.337C3.76001 214.002 3.94346 213.66 4.08743 213.369C4.2314 213.66 4.41485 214.002 4.62916 214.337C4.90311 214.764 5.24287 215.206 5.63528 215.516C6.02687 215.825 6.5394 216.053 7.11074 215.893C7.70964 215.725 7.99429 215.194 8.10617 214.678C8.22134 214.146 8.18515 213.512 8.04283 212.914C7.89968 212.315 7.64095 211.716 7.27363 211.264C6.90878 210.815 6.38638 210.457 5.7303 210.499C5.01705 210.546 4.50864 211.067 4.21371 211.461C4.17001 211.52 4.1279 211.58 4.08743 211.641C4.04699 211.58 4.00474 211.52 3.96074 211.461C3.66581 211.067 3.15781 210.546 2.44456 210.499ZM3.61686 212.441C3.50046 212.718 3.21787 213.349 2.84026 213.938C2.58482 214.337 2.30018 214.695 2.00937 214.924C1.71855 215.154 1.49026 215.206 1.29982 215.152C1.13693 215.107 0.963755 214.936 0.874495 214.524C0.788937 214.127 0.809916 213.606 0.93455 213.083C1.0596 212.56 1.27925 212.073 1.55484 211.733C1.83249 211.391 2.11796 211.253 2.38738 211.271C2.70247 211.291 3.01673 211.543 3.28738 211.905C3.43876 212.108 3.55228 212.312 3.61686 212.441ZM4.558 212.441C4.67399 212.718 4.95699 213.349 5.33419 213.938C5.59004 214.337 5.87468 214.695 6.16508 214.924C6.45631 215.154 6.68419 215.206 6.87505 215.152C7.03752 215.107 7.2107 214.936 7.29996 214.524C7.38592 214.127 7.36495 213.606 7.2399 213.083C7.11485 212.56 6.89561 212.073 6.61961 211.733C6.34196 211.391 6.0569 211.253 5.78707 211.271C5.47198 211.291 5.15772 211.543 4.88707 211.905C4.7617 212.075 4.65163 212.255 4.558 212.441Z" fill="#232E48"/>
<path d="M10.0206 216.286V210H11.8142L12.7022 213.156C12.7667 213.391 12.8312 213.652 12.8956 213.939C12.966 214.22 13.0187 214.443 13.0539 214.607L13.0979 214.853H13.1154C13.2268 214.25 13.3558 213.684 13.5023 213.156L14.3903 210H16.2103V216.286H15.0233V212.682L15.0761 211.38H15.0585C14.9647 211.873 14.8739 212.271 14.7859 212.576L13.7045 216.286H12.4824L11.4274 212.576L11.1548 211.38H11.1372C11.1724 211.908 11.19 212.342 11.19 212.682V216.286H10.0206Z" fill="#232E48"/>
<path d="M19.2035 216.418C18.4767 216.418 17.9052 216.195 17.4891 215.75C17.0729 215.299 16.8648 214.724 16.8648 214.027C16.8648 213.353 17.0729 212.79 17.4891 212.339C17.9052 211.882 18.4386 211.653 19.0892 211.653C19.7985 211.653 20.3465 211.899 20.7334 212.391C21.1202 212.884 21.3136 213.543 21.3136 214.37H18.043C18.0899 214.727 18.21 215.006 18.4035 215.205C18.5969 215.398 18.8606 215.495 19.1947 215.495C19.6344 215.495 19.9245 215.31 20.0652 214.941H21.2433C21.1554 215.363 20.9326 215.715 20.5751 215.996C20.2176 216.278 19.7604 216.418 19.2035 216.418ZM19.1068 212.576C18.5266 212.576 18.1778 212.898 18.0606 213.543H20.0652C20.0476 213.256 19.9509 213.024 19.775 212.849C19.5992 212.667 19.3765 212.576 19.1068 212.576Z" fill="#232E48"/>
<path d="M21.5174 212.567V211.776H22.1417V210.369H23.311V211.776H24.0847V212.567H23.311V214.959C23.311 215.258 23.4605 215.407 23.7594 215.407L24.1111 215.398V216.278C23.9294 216.289 23.6803 216.295 23.3638 216.295C23.018 216.295 22.7278 216.213 22.4934 216.049C22.2589 215.879 22.1417 215.601 22.1417 215.214V212.567H21.5174Z" fill="#232E48"/>
<path d="M27.5832 216.286C27.5246 216.21 27.4777 216.043 27.4425 215.785H27.425C27.296 215.979 27.1319 216.128 26.9326 216.234C26.7333 216.339 26.4549 216.392 26.0974 216.392C25.6226 216.392 25.2416 216.272 24.9544 216.031C24.6672 215.791 24.5236 215.451 24.5236 215.011C24.5236 214.554 24.6818 214.22 24.9983 214.009C25.3149 213.792 25.7603 213.643 26.3347 213.561C26.7568 213.502 27.044 213.444 27.1964 213.385C27.3488 213.32 27.425 213.209 27.425 213.051C27.425 212.887 27.3605 212.758 27.2315 212.664C27.1026 212.564 26.915 212.515 26.6688 212.515C26.1237 212.515 25.8336 212.726 25.7984 213.148H24.7346C24.7522 212.72 24.9251 212.365 25.2533 212.084C25.5816 211.802 26.0563 211.662 26.6776 211.662C27.9437 211.662 28.5767 212.216 28.5767 213.323V215.618C28.5767 215.958 28.6295 216.166 28.735 216.242V216.286H27.5832ZM26.3875 215.557C26.7157 215.557 26.9736 215.472 27.1612 215.302C27.3546 215.132 27.4513 214.929 27.4513 214.695V214.018C27.3224 214.094 27.044 214.182 26.6161 214.282C26.2761 214.358 26.0358 214.446 25.8951 214.546C25.7545 214.639 25.6841 214.786 25.6841 214.985C25.6841 215.366 25.9186 215.557 26.3875 215.557Z" fill="#232E48"/>
<path d="M30.4532 216.286L32.6424 210H33.9613L36.1769 216.286H34.8492L34.4272 214.95H32.1589L31.7456 216.286H30.4532ZM33.0205 212.163L32.4578 213.974H34.1195L33.5568 212.163L33.3018 211.196H33.2843C33.1788 211.618 33.0908 211.94 33.0205 212.163Z" fill="#232E48"/>
<path d="M38.1256 216.418C37.557 216.418 37.0969 216.204 36.7452 215.776C36.3936 215.343 36.2177 214.762 36.2177 214.036C36.2177 213.332 36.3965 212.761 36.754 212.321C37.1174 211.876 37.5805 211.653 38.1432 211.653C38.7059 211.653 39.1308 211.876 39.418 212.321H39.4444V210H40.6401V216.286H39.4884V215.697H39.4708C39.1777 216.178 38.7293 216.418 38.1256 216.418ZM38.3894 215.416C38.741 215.416 39.0077 215.296 39.1894 215.055C39.377 214.815 39.4708 214.484 39.4708 214.062C39.4708 213.101 39.122 212.62 38.4245 212.62C38.1022 212.62 37.856 212.749 37.686 213.007C37.516 213.265 37.431 213.608 37.431 214.036C37.431 214.475 37.5131 214.815 37.6772 215.055C37.8472 215.296 38.0846 215.416 38.3894 215.416Z" fill="#232E48"/>
<path d="M43.2462 216.418C42.6014 216.418 42.0973 216.278 41.7339 215.996C41.3705 215.709 41.1712 215.319 41.1361 214.827H42.2439C42.3201 215.325 42.6483 215.574 43.2286 215.574C43.4923 215.574 43.6946 215.527 43.8352 215.434C43.9818 215.34 44.055 215.214 44.055 215.055C44.055 214.997 44.0433 214.944 44.0199 214.897C44.0023 214.85 43.9671 214.809 43.9144 214.774C43.8675 214.733 43.8235 214.701 43.7825 214.677C43.7473 214.654 43.6828 214.63 43.5891 214.607C43.4953 214.584 43.422 214.566 43.3693 214.554C43.3224 214.543 43.2374 214.528 43.1143 214.51C42.9971 214.487 42.915 214.469 42.8681 214.458C42.6219 214.411 42.4197 214.364 42.2615 214.317C42.1091 214.264 41.9479 214.191 41.7779 214.097C41.6079 213.997 41.479 213.866 41.391 213.701C41.309 213.531 41.2679 213.329 41.2679 213.095C41.2679 212.626 41.4379 212.268 41.7779 212.022C42.1237 211.776 42.5662 211.653 43.1055 211.653C43.6858 211.653 44.14 211.788 44.4683 212.057C44.8024 212.321 44.9929 212.685 45.0397 213.148H43.9583C43.9114 212.708 43.6213 212.488 43.0879 212.488C42.8476 212.488 42.6571 212.532 42.5164 212.62C42.3816 212.708 42.3142 212.831 42.3142 212.989C42.3142 213.042 42.323 213.092 42.3406 213.139C42.364 213.18 42.3992 213.218 42.4461 213.253C42.4988 213.282 42.5487 213.309 42.5955 213.332C42.6424 213.35 42.7098 213.37 42.7978 213.394C42.8857 213.411 42.9619 213.429 43.0264 213.446C43.0908 213.458 43.1788 213.476 43.2901 213.499C43.4015 213.517 43.4894 213.531 43.5539 213.543C43.7414 213.584 43.8938 213.622 44.0111 213.658C44.1342 213.687 44.2748 213.74 44.4331 213.816C44.5913 213.886 44.7144 213.968 44.8024 214.062C44.8961 214.15 44.9753 214.273 45.0397 214.431C45.1101 214.584 45.1452 214.762 45.1452 214.968C45.1452 215.413 44.9694 215.768 44.6177 216.031C44.2719 216.289 43.8147 216.418 43.2462 216.418Z" fill="#232E48"/>
<path fill-rule="evenodd" clip-rule="evenodd" d="M53.2907 210.166C53.4596 210.144 53.6318 210.156 53.7963 210.2C53.9607 210.244 54.115 210.32 54.25 210.424C54.385 210.527 54.4982 210.657 54.5833 210.804L57.0168 215.022L57.0754 215.139C57.1951 215.411 57.2188 215.716 57.1399 216.005C57.0497 216.335 56.8328 216.615 56.5365 216.786C56.2403 216.957 55.8886 217.004 55.5579 216.917C55.2273 216.83 54.9439 216.616 54.7703 216.321L54.7689 216.319L53.4597 214.049L52.1512 216.319C52.1408 216.337 52.1284 216.353 52.1172 216.371C52.1111 216.38 52.105 216.39 52.0986 216.399C52.0814 216.424 52.0629 216.448 52.0441 216.472C52.0364 216.482 52.0294 216.492 52.0214 216.502C52.0054 216.521 51.9886 216.539 51.9715 216.557C51.9623 216.567 51.9538 216.578 51.9443 216.587C51.9402 216.591 51.9351 216.595 51.931 216.599C51.9153 216.614 51.8995 216.629 51.8831 216.643C51.8664 216.658 51.8492 216.672 51.8318 216.686C51.8148 216.699 51.7976 216.713 51.78 216.725C51.7646 216.736 51.7491 216.747 51.7334 216.757C51.7102 216.772 51.6863 216.786 51.6622 216.8C51.65 216.806 51.638 216.814 51.6256 216.82C51.6011 216.833 51.5758 216.844 51.5504 216.856C51.5366 216.862 51.5226 216.868 51.5085 216.873C51.4845 216.883 51.46 216.892 51.4354 216.9C51.4195 216.905 51.4035 216.911 51.3875 216.915C51.3795 216.918 51.3716 216.921 51.3635 216.923C51.3488 216.927 51.3331 216.929 51.3183 216.933C51.2991 216.937 51.2798 216.942 51.2604 216.945C51.2361 216.95 51.2116 216.953 51.1872 216.956C51.1707 216.958 51.154 216.961 51.1373 216.962C51.1128 216.964 51.088 216.965 51.0635 216.966C51.0514 216.966 51.039 216.968 51.0269 216.968C51.0204 216.968 51.0134 216.967 51.0069 216.967C50.9803 216.966 50.9536 216.965 50.9271 216.963C50.9136 216.962 50.8999 216.961 50.8865 216.959C50.8576 216.956 50.8287 216.952 50.8 216.947C50.7861 216.944 50.7719 216.942 50.7581 216.939C50.7284 216.932 50.6989 216.924 50.6696 216.916C50.6602 216.913 50.6504 216.911 50.641 216.908C50.6126 216.899 50.5844 216.889 50.5566 216.878C50.5425 216.873 50.5279 216.867 50.514 216.861C50.4936 216.853 50.4734 216.843 50.4534 216.833C50.4345 216.824 50.4154 216.814 50.3969 216.804C50.391 216.8 50.3841 216.798 50.3783 216.794C50.3645 216.786 50.3512 216.777 50.3377 216.768C50.3219 216.758 50.3058 216.748 50.2905 216.738C50.2708 216.724 50.2514 216.71 50.2326 216.695C50.2183 216.684 50.2038 216.673 50.19 216.661C50.1688 216.643 50.1481 216.625 50.1281 216.605C50.1219 216.599 50.1149 216.593 50.1088 216.587C50.1062 216.585 50.1035 216.581 50.1009 216.579C50.0772 216.555 50.0547 216.529 50.033 216.503C50.0285 216.498 50.0241 216.492 50.0197 216.486C49.999 216.461 49.9792 216.434 49.9605 216.407C49.954 216.398 49.9474 216.388 49.9412 216.379C49.9252 216.354 49.9096 216.329 49.8953 216.303C49.8888 216.292 49.8821 216.28 49.876 216.268C49.8627 216.243 49.8503 216.216 49.8387 216.19C49.8331 216.177 49.8267 216.164 49.8215 216.15C49.8117 216.126 49.8038 216.1 49.7955 216.075C49.7909 216.061 49.7857 216.047 49.7815 216.033C49.779 216.024 49.7752 216.015 49.7729 216.007C49.7676 215.987 49.7646 215.967 49.7603 215.947C49.7578 215.935 49.7551 215.924 49.7529 215.912C49.7476 215.884 49.7431 215.855 49.7396 215.827C49.7376 215.81 49.735 215.793 49.7336 215.776C49.7314 215.748 49.7308 215.719 49.7303 215.691C49.7302 215.684 49.729 215.677 49.729 215.67C49.729 215.663 49.7295 215.656 49.7296 215.649C49.7301 215.624 49.7318 215.599 49.7336 215.575C49.735 215.557 49.7362 215.538 49.7383 215.52C49.7411 215.496 49.7454 215.472 49.7496 215.448C49.7522 215.433 49.7544 215.418 49.7576 215.403C49.7641 215.372 49.772 215.341 49.7809 215.31C49.7841 215.299 49.7873 215.287 49.7909 215.276C49.7982 215.253 49.8068 215.23 49.8155 215.208C49.8215 215.192 49.8275 215.176 49.8341 215.16C49.8471 215.13 49.8613 215.1 49.8767 215.071C49.8804 215.064 49.8841 215.056 49.888 215.049C49.8929 215.04 49.8968 215.03 49.9019 215.021L52.3334 210.808C52.335 210.806 52.3371 210.803 52.3388 210.8C52.3665 210.753 52.3969 210.707 52.4306 210.663C52.5343 210.528 52.6636 210.414 52.8111 210.329C52.9591 210.243 53.1224 210.189 53.2907 210.166ZM51.0269 215.021C50.855 215.021 50.6895 215.09 50.5679 215.211C50.519 215.26 50.4788 215.316 50.4481 215.377C50.4419 215.389 50.4356 215.401 50.4302 215.414C50.4263 215.423 50.4229 215.432 50.4195 215.441C50.4158 215.451 50.4121 215.461 50.4089 215.471C50.4057 215.481 50.4029 215.491 50.4002 215.501C50.3971 215.512 50.394 215.524 50.3916 215.536C50.3828 215.577 50.3781 215.62 50.3776 215.663C50.3774 215.684 50.3785 215.705 50.3803 215.726C50.3809 215.733 50.382 215.741 50.3829 215.749C50.3845 215.762 50.3865 215.775 50.3889 215.788C50.3947 215.82 50.4033 215.85 50.4135 215.88C50.4166 215.889 50.4194 215.899 50.4228 215.908C50.4545 215.988 50.5027 216.062 50.5645 216.125C50.5675 216.128 50.5708 216.131 50.5739 216.134C50.6202 216.18 50.673 216.217 50.7295 216.246C50.7432 216.253 50.7573 216.26 50.7714 216.266C50.8367 216.294 50.9067 216.311 50.9783 216.317C51.013 216.319 51.048 216.319 51.0828 216.316C51.0896 216.315 51.0966 216.314 51.1034 216.313C51.1191 216.311 51.135 216.309 51.1506 216.306C51.1749 216.301 51.1989 216.295 51.2225 216.287C51.2395 216.282 51.2566 216.277 51.273 216.27C51.3502 216.238 51.4207 216.191 51.4813 216.132C51.4844 216.129 51.4875 216.126 51.4906 216.122C51.6086 216.001 51.6755 215.839 51.6755 215.67C51.6754 215.498 51.6069 215.333 51.4852 215.211C51.3637 215.09 51.1986 215.021 51.0269 215.021ZM53.3752 210.81C53.2904 210.821 53.209 210.849 53.1357 210.891C53.062 210.933 52.9967 210.99 52.9448 211.058C52.893 211.125 52.8551 211.203 52.833 211.285C52.811 211.367 52.8054 211.453 52.8164 211.537C52.8275 211.622 52.8552 211.703 52.8976 211.777L55.3304 215.994C55.4173 216.14 55.5585 216.247 55.7229 216.29C55.8883 216.334 56.0644 216.31 56.2125 216.224C56.3605 216.139 56.4688 215.999 56.5139 215.834C56.5587 215.67 56.5375 215.494 56.4547 215.346L54.0219 211.129C53.9793 211.055 53.9224 210.99 53.8549 210.938C53.7875 210.886 53.7101 210.848 53.628 210.826C53.5458 210.804 53.4596 210.799 53.3752 210.81ZM51.0256 214.372H51.0269C51.3708 214.372 51.701 214.51 51.9443 214.753C52.025 214.833 52.093 214.925 52.1492 215.022L53.0845 213.4L52.3361 212.102L51.0256 214.372Z" fill="#232E48"/>
<path d="M63.6388 216.627L63.5949 215.783H63.5773C63.1904 216.434 62.6014 216.759 61.8101 216.759C60.8898 216.759 60.1542 216.454 59.6033 215.845C59.0582 215.235 58.7856 214.455 58.7856 213.506C58.7856 212.427 59.1285 211.572 59.8143 210.939C60.3418 210.458 61.0159 210.218 61.8365 210.218C62.6043 210.218 63.2168 210.408 63.674 210.789C64.1371 211.17 64.4213 211.68 64.5268 212.319H63.2784C63.2022 212.003 63.0439 211.75 62.8036 211.563C62.5633 211.369 62.2497 211.273 61.8628 211.273C61.2943 211.273 60.8547 211.481 60.544 211.897C60.2392 212.313 60.0868 212.849 60.0868 213.506C60.0868 214.157 60.2451 214.69 60.5616 215.106C60.884 215.522 61.3119 215.73 61.8453 215.73C62.3142 215.73 62.701 215.587 63.0058 215.3C63.3106 215.006 63.463 214.675 63.463 214.306V214.271H61.9508V213.286H64.5972V216.627H63.6388Z" fill="#232E48"/>
<path d="M69.2251 216.082C68.7855 216.533 68.2199 216.759 67.5282 216.759C66.8366 216.759 66.271 216.533 65.8314 216.082C65.3918 215.625 65.172 215.056 65.172 214.376C65.172 213.696 65.3918 213.131 65.8314 212.679C66.271 212.222 66.8366 211.994 67.5282 211.994C68.2199 211.994 68.7855 212.222 69.2251 212.679C69.6647 213.131 69.8845 213.696 69.8845 214.376C69.8845 215.056 69.6647 215.625 69.2251 216.082ZM67.5282 215.845C67.8858 215.845 68.1642 215.713 68.3635 215.449C68.5686 215.179 68.6712 214.822 68.6712 214.376C68.6712 213.931 68.5686 213.573 68.3635 213.304C68.1642 213.034 67.8858 212.899 67.5282 212.899C67.1648 212.899 66.8835 213.034 66.6842 213.304C66.4849 213.567 66.3853 213.925 66.3853 214.376C66.3853 214.822 66.4849 215.179 66.6842 215.449C66.8835 215.713 67.1648 215.845 67.5282 215.845Z" fill="#232E48"/>
<path d="M74.2737 216.082C73.8341 216.533 73.2684 216.759 72.5768 216.759C71.8852 216.759 71.3195 216.533 70.8799 216.082C70.4403 215.625 70.2205 215.056 70.2205 214.376C70.2205 213.696 70.4403 213.131 70.8799 212.679C71.3195 212.222 71.8852 211.994 72.5768 211.994C73.2684 211.994 73.8341 212.222 74.2737 212.679C74.7133 213.131 74.9331 213.696 74.9331 214.376C74.9331 215.056 74.7133 215.625 74.2737 216.082ZM72.5768 215.845C72.9343 215.845 73.2128 215.713 73.412 215.449C73.6172 215.179 73.7198 214.822 73.7198 214.376C73.7198 213.931 73.6172 213.573 73.412 213.304C73.2128 213.034 72.9343 212.899 72.5768 212.899C72.2134 212.899 71.9321 213.034 71.7328 213.304C71.5335 213.567 71.4338 213.925 71.4338 214.376C71.4338 214.822 71.5335 215.179 71.7328 215.449C71.9321 215.713 72.2134 215.845 72.5768 215.845Z" fill="#232E48"/>
<path d="M77.4759 218.166C76.8663 218.166 76.3769 218.043 76.0076 217.796C75.6442 217.55 75.4303 217.204 75.3658 216.759H76.5527C76.67 217.093 76.9718 217.26 77.4583 217.26C78.1265 217.26 78.4606 216.947 78.4606 216.319V215.827H78.4342C78.1236 216.179 77.7309 216.355 77.2561 216.355C76.7227 216.355 76.2568 216.158 75.8582 215.766C75.4655 215.373 75.2691 214.851 75.2691 214.201C75.2691 213.532 75.4508 212.999 75.8142 212.6C76.1776 212.196 76.6465 211.994 77.2209 211.994C77.7661 211.994 78.1822 212.193 78.4694 212.592H78.487V212.117H79.6388V216.284C79.6388 216.87 79.46 217.328 79.1024 217.656C78.739 217.996 78.1969 218.166 77.4759 218.166ZM77.4583 215.396C77.8159 215.396 78.0826 215.282 78.2584 215.053C78.4342 214.825 78.5222 214.532 78.5222 214.174C78.5222 213.822 78.4284 213.532 78.2408 213.304C78.0591 213.069 77.7954 212.952 77.4495 212.952C77.1447 212.952 76.8986 213.063 76.711 213.286C76.5293 213.509 76.4385 213.808 76.4385 214.183C76.4385 214.564 76.5293 214.863 76.711 215.08C76.8986 215.291 77.1477 215.396 77.4583 215.396Z" fill="#232E48"/>
<path d="M80.4263 216.627V210.341H81.622V216.627H80.4263Z" fill="#232E48"/>
<path d="M84.5281 216.759C83.8013 216.759 83.2298 216.536 82.8137 216.091C82.3975 215.639 82.1894 215.065 82.1894 214.368C82.1894 213.694 82.3975 213.131 82.8137 212.679C83.2298 212.222 83.7632 211.994 84.4138 211.994C85.123 211.994 85.6711 212.24 86.0579 212.732C86.4448 213.225 86.6382 213.884 86.6382 214.71H83.3676C83.4145 215.068 83.5346 215.346 83.728 215.546C83.9215 215.739 84.1852 215.836 84.5193 215.836C84.9589 215.836 85.2491 215.651 85.3897 215.282H86.5679C86.48 215.704 86.2572 216.056 85.8997 216.337C85.5421 216.618 85.085 216.759 84.5281 216.759ZM84.4314 212.917C83.8511 212.917 83.5024 213.239 83.3852 213.884H85.3897C85.3722 213.597 85.2754 213.365 85.0996 213.189C84.9238 213.008 84.701 212.917 84.4314 212.917Z" fill="#232E48"/>
<path d="M88.308 216.627L90.4972 210.341H91.816L94.0316 216.627H92.704L92.282 215.291H90.0136L89.6004 216.627H88.308ZM90.8752 212.504L90.3126 214.315H91.9743L91.4116 212.504L91.1566 211.537H91.139C91.0335 211.959 90.9456 212.281 90.8752 212.504Z" fill="#232E48"/>
<path d="M95.9804 216.759C95.4118 216.759 94.9517 216.545 94.6 216.117C94.2483 215.683 94.0725 215.103 94.0725 214.376C94.0725 213.673 94.2512 213.102 94.6088 212.662C94.9722 212.216 95.4352 211.994 95.9979 211.994C96.5606 211.994 96.9856 212.216 97.2728 212.662H97.2992V210.341H98.4949V216.627H97.3431V216.038H97.3255C97.0325 216.519 96.5841 216.759 95.9804 216.759ZM96.2441 215.757C96.5958 215.757 96.8625 215.637 97.0442 215.396C97.2318 215.156 97.3255 214.825 97.3255 214.403C97.3255 213.441 96.9768 212.961 96.2793 212.961C95.9569 212.961 95.7107 213.09 95.5407 213.348C95.3708 213.606 95.2858 213.948 95.2858 214.376C95.2858 214.816 95.3678 215.156 95.532 215.396C95.7019 215.637 95.9393 215.757 96.2441 215.757Z" fill="#232E48"/>
<path d="M101.101 216.759C100.456 216.759 99.9521 216.618 99.5887 216.337C99.2253 216.05 99.026 215.66 98.9908 215.168H100.099C100.175 215.666 100.503 215.915 101.083 215.915C101.347 215.915 101.549 215.868 101.69 215.774C101.837 215.681 101.91 215.555 101.91 215.396C101.91 215.338 101.898 215.285 101.875 215.238C101.857 215.191 101.822 215.15 101.769 215.115C101.722 215.074 101.678 215.042 101.637 215.018C101.602 214.995 101.538 214.971 101.444 214.948C101.35 214.924 101.277 214.907 101.224 214.895C101.177 214.883 101.092 214.869 100.969 214.851C100.852 214.828 100.77 214.81 100.723 214.798C100.477 214.751 100.274 214.705 100.116 214.658C99.9638 214.605 99.8026 214.532 99.6326 214.438C99.4627 214.338 99.3337 214.206 99.2458 214.042C99.1637 213.872 99.1227 213.67 99.1227 213.436C99.1227 212.967 99.2927 212.609 99.6326 212.363C99.9785 212.117 100.421 211.994 100.96 211.994C101.541 211.994 101.995 212.129 102.323 212.398C102.657 212.662 102.848 213.025 102.894 213.488H101.813C101.766 213.049 101.476 212.829 100.943 212.829C100.702 212.829 100.512 212.873 100.371 212.961C100.236 213.049 100.169 213.172 100.169 213.33C100.169 213.383 100.178 213.433 100.195 213.48C100.219 213.521 100.254 213.559 100.301 213.594C100.354 213.623 100.403 213.65 100.45 213.673C100.497 213.691 100.565 213.711 100.653 213.735C100.74 213.752 100.817 213.77 100.881 213.787C100.946 213.799 101.034 213.817 101.145 213.84C101.256 213.858 101.344 213.872 101.409 213.884C101.596 213.925 101.749 213.963 101.866 213.998C101.989 214.028 102.13 214.08 102.288 214.157C102.446 214.227 102.569 214.309 102.657 214.403C102.751 214.491 102.83 214.614 102.894 214.772C102.965 214.924 103 215.103 103 215.308C103 215.754 102.824 216.108 102.472 216.372C102.127 216.63 101.669 216.759 101.101 216.759Z" fill="#232E48"/>
</svg>
